<?xml version="1.0" standalone="no"?>
<!DOCTYPE svg PUBLIC "-//W3C//DTD SVG 20010904//EN"
 "http://www.w3.org/TR/2001/REC-SVG-20010904/DTD/svg10.dtd">
<svg version="1.0" xmlns="http://www.w3.org/2000/svg"
 width="1104.000000pt" height="736.000000pt" viewBox="0 0 1104.000000 736.000000"
 preserveAspectRatio="xMidYMid meet">

<g transform="translate(0.000000,736.000000) scale(0.100000,-0.100000)"
fill="#000000" stroke="none">
<path d="M333 7335 c-8 -17 -8 -36 -2 -59 9 -32 13 -34 62 -40 91 -12 93 -20
31 -126 -18 -31 -36 -77 -40 -101 -4 -24 -15 -61 -25 -81 -12 -24 -19 -59 -19
-98 0 -34 -4 -69 -9 -79 -5 -9 -12 -82 -15 -162 -5 -135 -21 -220 -39 -202 -4
3 -7 1 -7 -4 0 -16 -81 -53 -114 -53 -41 0 -82 25 -99 62 -13 28 -37 155 -50
263 -2 17 -5 -243 -6 -577 l-1 -606 23 5 c12 3 27 9 32 14 6 4 27 10 48 14 39
8 51 25 16 25 -36 0 -14 25 27 30 21 3 38 10 37 16 -1 6 11 24 27 39 17 16 30
35 30 42 0 25 23 39 59 35 41 -4 101 -32 101 -47 0 -5 6 -22 14 -37 8 -15 17
-56 21 -92 7 -66 -3 -114 -43 -206 -9 -21 -16 -75 -18 -137 l-4 -102 44 -45
c24 -24 47 -42 50 -39 3 4 15 -3 26 -15 17 -18 24 -20 50 -11 16 6 30 15 30
19 0 4 6 10 14 13 17 7 96 -95 96 -123 0 -30 -22 -73 -52 -101 -15 -14 -28
-33 -28 -42 0 -17 -55 -67 -75 -67 -25 0 -85 31 -85 44 0 7 -9 21 -19 30 -11
10 -22 30 -26 44 -3 15 -13 47 -22 70 -18 48 -9 45 -100 26 -18 -3 -47 3 -78
16 -65 28 -85 32 -85 15 0 -7 -8 -16 -18 -19 -10 -3 -34 -26 -55 -50 l-37 -45
0 -303 0 -304 33 -12 c18 -7 52 -12 75 -12 23 0 42 -4 42 -10 0 -5 9 -10 21
-10 33 0 70 -35 95 -91 19 -41 24 -68 24 -134 0 -77 2 -85 25 -103 14 -11 46
-23 72 -27 62 -9 79 -19 87 -48 5 -20 67 -97 78 -97 2 0 4 17 4 37 0 21 3 50
8 64 6 23 4 27 -18 33 -14 3 -26 11 -26 16 0 6 2 10 4 10 3 0 39 5 81 11 68 9
79 8 96 -7 23 -21 28 -17 41 33 18 69 16 74 -40 112 -37 25 -52 42 -52 58 0
27 0 27 47 8 44 -19 53 -19 53 -1 0 8 7 22 16 30 20 21 10 36 -26 36 -24 0
-31 5 -36 27 -5 19 -2 30 11 40 17 11 22 10 45 -12 15 -14 29 -22 33 -19 11
12 37 -18 37 -42 0 -19 -5 -24 -25 -24 -22 0 -25 -4 -25 -34 0 -36 21 -62 44
-53 10 4 13 17 9 46 -5 38 -4 41 19 41 24 0 68 -32 68 -50 0 -14 -31 -41 -41
-35 -23 15 -28 -9 -9 -46 19 -36 40 -52 40 -29 0 25 30 6 40 -25 6 -19 18 -35
25 -35 17 0 35 31 35 58 0 10 11 29 25 42 31 29 31 34 1 48 -14 6 -23 17 -22
24 3 22 50 65 79 72 15 3 27 11 27 16 0 16 53 12 78 -6 27 -19 28 -28 1 -53
-12 -11 -18 -24 -15 -30 9 -15 -10 -48 -32 -55 -9 -3 -25 -18 -33 -32 -16 -26
-15 -29 13 -71 26 -37 50 -123 36 -123 -3 0 -25 20 -50 45 -46 45 -78 58 -78
31 0 -18 -83 -106 -100 -106 -8 0 -10 -3 -7 -7 4 -3 -2 -16 -13 -28 -20 -21
-20 -21 1 -75 11 -30 29 -63 39 -72 19 -17 18 -19 -4 -43 -42 -45 -37 -100 13
-152 11 -12 21 -27 21 -34 0 -17 41 -50 53 -42 6 3 7 31 4 67 -5 58 6 96 28
96 5 0 17 8 27 17 13 12 32 16 56 14 41 -3 60 -15 72 -46 l9 -20 0 20 c1 30
20 45 56 45 58 0 85 -60 45 -100 -19 -19 -19 -20 1 -31 21 -11 21 -11 -2 -23
-53 -27 -79 -49 -79 -67 0 -10 -14 -26 -30 -36 -32 -18 -37 -28 -20 -38 6 -3
10 -22 10 -41 0 -28 4 -34 20 -34 36 0 41 -40 11 -79 -14 -19 -20 -32 -13 -27
8 5 12 1 12 -11 0 -11 5 -24 10 -29 6 -6 17 -36 25 -68 17 -63 13 -77 -31
-120 -22 -23 -10 -61 28 -83 24 -15 27 -15 43 0 29 30 220 16 298 -22 59 -29
209 -31 264 -5 l38 19 3 83 c2 87 -8 122 -35 122 -69 0 -123 45 -123 103 0 22
-6 26 -44 31 -48 8 -68 34 -47 60 9 11 4 20 -19 40 -18 14 -37 26 -45 26 -26
0 -75 57 -75 87 0 33 -16 54 -36 46 -31 -12 -84 8 -99 36 -14 27 -13 29 8 35
41 11 74 6 91 -13 10 -11 25 -17 37 -14 23 6 25 28 4 37 -13 5 -14 10 -4 28 8
14 10 46 6 93 -6 65 -4 73 18 99 14 16 25 37 25 47 0 10 9 23 20 29 32 17 23
28 -28 35 -38 5 -64 1 -122 -19 -87 -31 -102 -32 -123 -8 -25 27 -21 49 11 64
34 17 33 53 -3 83 -13 11 -26 34 -30 50 -5 30 -4 31 27 30 18 0 43 -6 56 -14
20 -10 27 -10 48 4 14 9 28 23 31 31 3 8 15 14 28 14 16 0 27 -11 40 -42 11
-24 20 -45 22 -47 2 -3 17 10 33 27 18 20 39 32 54 32 24 0 51 19 58 41 2 6
33 13 69 15 56 3 70 1 93 -17 24 -19 32 -20 65 -10 55 16 79 14 91 -9 9 -16
21 -20 66 -20 30 0 69 7 85 16 48 24 80 15 105 -30 19 -34 26 -39 63 -40 23
-1 44 1 47 6 3 4 12 8 20 8 8 0 32 12 54 26 32 22 48 26 81 21 30 -4 55 1 95
19 30 13 80 26 112 30 135 13 176 27 244 82 21 18 11 49 -21 65 -30 15 -29 31
2 35 13 2 31 -5 42 -18 10 -11 25 -20 33 -20 12 0 14 12 8 69 -3 39 -2 72 3
75 10 6 57 8 110 4 28 -2 36 -8 42 -29 9 -36 -2 -50 -38 -47 -19 1 -44 -7 -66
-22 -34 -23 -35 -26 -20 -43 9 -9 19 -14 22 -9 7 11 60 28 114 37 21 3 41 13
44 21 3 7 9 14 14 14 9 0 49 36 49 44 0 2 -9 2 -20 -1 -18 -5 -19 -1 -13 48 5
46 4 52 -10 46 -11 -4 -17 -1 -17 8 0 10 10 15 30 15 30 0 40 14 18 24 -7 3
-3 3 9 1 22 -6 35 7 40 38 7 42 -104 117 -187 128 -30 4 -74 12 -98 18 -41 11
-57 20 -150 84 -23 17 -59 31 -84 34 -32 3 -39 2 -28 -6 12 -9 10 -11 -10 -11
-14 0 -40 -9 -58 -20 -18 -11 -42 -20 -53 -20 -12 0 -32 -9 -46 -20 -14 -11
-36 -20 -49 -20 -12 0 -26 -4 -29 -10 -3 -5 -17 -10 -30 -10 -13 0 -26 -4 -29
-9 -4 -5 -25 -12 -49 -16 -51 -9 -75 -21 -105 -52 -12 -13 -30 -23 -40 -21 -9
1 -21 0 -27 -3 -5 -3 -30 -12 -54 -19 -40 -13 -46 -12 -88 10 -46 24 -74 65
-88 128 -5 25 -12 32 -30 32 -13 0 -30 2 -38 6 -9 3 -39 -20 -79 -60 l-64 -64
-56 26 c-56 25 -68 41 -68 90 0 22 -14 30 -24 13 -12 -18 -49 3 -62 35 -19 44
-18 131 2 185 12 34 15 66 10 140 -6 103 9 169 39 169 8 0 15 4 15 8 0 5 18
14 41 21 40 12 40 13 38 54 -4 54 -9 59 -101 96 -18 7 -28 18 -28 32 0 12 -11
35 -26 51 -14 17 -28 44 -31 59 -3 16 -11 29 -18 29 -21 0 -27 82 -20 244 9
175 2 197 -76 251 -34 24 -46 41 -54 72 -13 50 -31 73 -60 73 -12 0 -32 9 -45
20 -21 18 -22 21 -7 43 9 13 23 49 32 80 14 48 20 57 45 62 43 10 53 29 56
112 2 59 7 83 23 104 12 16 21 33 21 38 0 6 11 18 25 27 14 9 25 22 25 29 0 7
8 15 19 18 10 2 41 32 68 65 46 54 51 66 57 126 4 36 5 75 1 86 -4 12 -2 20 6
20 8 0 8 4 -2 16 -10 13 -10 17 2 26 11 7 11 11 2 15 -7 2 -13 12 -13 22 0 10
-13 22 -33 29 -44 16 -50 15 -75 -7 -23 -20 -29 -41 -11 -41 6 0 9 -12 8 -28
-2 -15 -1 -32 3 -37 3 -6 5 -32 4 -60 l-1 -50 -45 -7 c-43 -6 -46 -5 -84 35
l-38 42 3 125 c4 123 4 124 -20 136 -33 17 -41 32 -41 82 0 44 26 108 54 131
29 24 17 31 -54 31 l-70 0 0 -55 c0 -58 -16 -105 -35 -105 -7 0 -19 -7 -26
-16 -23 -28 -61 -38 -166 -43 -90 -6 -104 -9 -122 -29 -19 -23 -18 -50 1 -63
5 -3 0 -16 -10 -29 l-19 -24 -14 22 c-9 15 -24 22 -45 22 -24 0 -40 10 -73 48
-24 26 -52 65 -63 87 -12 22 -29 46 -38 52 -11 8 -18 26 -18 51 -1 34 3 41 36
60 l37 22 -200 0 -200 0 -12 -25z m1033 -1288 c3 -13 4 -41 2 -63 -2 -31 -7
-40 -25 -42 -12 -2 -23 -13 -27 -26 -6 -24 -46 -48 -62 -38 -6 4 -20 27 -32
52 l-22 45 27 22 c16 13 35 21 44 18 9 -3 26 7 42 25 33 36 45 38 53 7z m-198
-192 c-3 -13 0 -27 6 -30 8 -3 7 -7 -1 -11 -8 -3 -13 -24 -13 -49 0 -34 -5
-47 -19 -55 -24 -12 -49 -4 -54 18 -3 13 -8 9 -23 -15 -10 -18 -22 -33 -25
-33 -4 0 -14 20 -24 45 -16 44 -16 47 1 73 10 15 19 32 19 37 0 6 12 9 27 7
19 -2 30 3 38 17 7 14 21 21 42 21 27 0 30 -3 26 -25z m-157 -1005 c9 -10 19
-41 22 -69 3 -27 15 -68 26 -90 12 -23 21 -60 21 -86 0 -45 0 -45 -35 -45 -32
0 -49 11 -92 63 -26 32 -65 119 -70 155 -5 34 -1 43 26 71 25 25 36 30 58 25
16 -3 35 -14 44 -24z m-297 -135 c-9 -28 -12 -29 -28 -15 -14 11 -13 15 2 35
19 26 36 13 26 -20z m-394 -51 c0 -16 -27 -43 -42 -44 -5 0 -8 14 -8 30 0 25
4 30 25 30 17 0 25 -6 25 -16z m1315 -177 c8 -13 18 -37 21 -55 4 -18 11 -32
17 -32 5 0 2 -9 -8 -20 -9 -10 -20 -19 -24 -18 -3 1 -19 -4 -34 -10 -16 -7
-43 -12 -62 -12 -27 0 -37 6 -55 35 -25 40 -21 105 5 105 24 0 29 2 50 16 30
22 72 17 90 -9z m-954 -78 c9 -17 8 -25 -4 -36 -19 -19 -62 -11 -71 13 -16 41
54 62 75 23z m167 -44 c13 -14 33 -25 47 -25 14 0 25 -4 25 -8 0 -5 16 -17 35
-28 24 -12 35 -26 35 -40 0 -12 3 -24 8 -26 10 -4 52 -95 52 -113 0 -8 -6 -15
-12 -15 -24 0 -39 16 -32 33 3 10 3 32 0 51 -6 32 -9 34 -59 41 -28 5 -55 7
-59 7 -5 -1 -8 5 -8 13 0 20 -70 49 -84 35 -7 -7 -6 -10 1 -10 6 0 9 -9 6 -20
-3 -11 -9 -20 -14 -20 -5 0 -9 -6 -9 -14 0 -31 -37 -61 -82 -65 -5 -1 -8 -7
-8 -15 0 -15 -27 -29 -40 -21 -5 3 -11 20 -15 38 -3 17 -11 42 -17 55 -9 17
-8 30 5 57 9 20 17 43 18 53 0 9 5 1 12 -18 8 -24 18 -35 32 -35 16 0 21 8 23
40 4 48 15 62 50 68 57 9 69 6 90 -18z m2064 -172 c11 -9 18 -30 18 -50 0 -34
0 -34 -37 -27 -48 8 -53 11 -53 32 0 22 27 62 42 62 6 0 20 -7 30 -17z m103
-17 c0 -25 -53 -42 -62 -20 -8 20 17 45 41 42 13 -2 21 -10 21 -22z m-940 4
c7 0 24 -11 39 -25 33 -31 37 -99 6 -138 -28 -35 -119 -46 -120 -13 -1 20 -59
76 -80 76 -15 0 -20 6 -20 28 0 15 6 34 13 43 15 20 83 39 121 33 16 -2 34 -4
41 -4z m-575 -42 c0 -10 4 -18 9 -18 12 0 22 -27 15 -44 -11 -29 -58 -24 -103
10 -2 2 2 23 9 47 12 44 12 44 41 34 17 -7 29 -19 29 -29z m-285 -548 c17 -28
-65 -90 -101 -76 -22 8 -15 20 31 55 42 32 60 37 70 21z m-157 -92 c-6 -18
-28 -21 -28 -4 0 9 7 16 16 16 9 0 14 -5 12 -12z m591 -553 c31 -16 43 -44 35
-84 -7 -32 -20 -50 -59 -77 -65 -45 -107 -58 -180 -56 -80 2 -118 22 -123 65
-3 21 4 31 30 47 18 11 43 20 54 20 13 0 36 16 55 38 18 20 44 42 58 49 37 16
97 16 130 -2z"/>
<path d="M1687 7243 c3 -128 8 -163 23 -163 6 0 18 -8 28 -18 19 -19 15 -69
-6 -64 -13 2 -16 -17 -6 -43 5 -13 8 -14 15 -3 7 10 9 10 9 1 0 -7 7 -13 15
-13 8 0 15 -4 15 -10 0 -5 9 -10 20 -10 11 0 20 5 20 11 0 5 -4 7 -10 4 -15
-9 -12 15 4 31 8 8 22 14 30 14 12 0 16 11 16 50 0 43 3 50 20 50 13 0 20 7
20 20 0 13 7 20 20 20 13 0 20 7 20 20 0 13 7 20 20 20 11 0 20 5 20 10 0 6
13 10 29 10 17 0 33 -4 36 -10 3 -5 22 -10 41 -10 19 0 34 -4 34 -10 0 -5 9
-10 19 -10 13 0 26 -14 38 -40 11 -23 25 -40 35 -40 20 0 34 -41 23 -67 -4
-10 -9 -29 -11 -43 -7 -37 -30 -84 -53 -104 -18 -17 -19 -20 -5 -59 8 -23 12
-47 10 -53 -3 -7 1 -18 9 -24 7 -6 11 -20 8 -30 -3 -12 0 -20 6 -20 7 0 11 -6
9 -12 -3 -13 75 -175 93 -193 5 -5 9 -22 9 -37 0 -15 9 -37 20 -48 11 -11 22
-31 26 -45 3 -14 9 -25 13 -25 3 0 4 -24 3 -54 -3 -35 2 -66 12 -88 8 -18 20
-52 26 -75 5 -24 15 -62 20 -84 17 -66 95 -135 142 -125 13 3 41 7 63 10 22 3
58 14 80 25 22 10 43 17 46 15 4 -2 9 3 13 11 3 8 14 15 24 15 11 0 25 6 31
14 6 7 25 16 41 20 19 3 35 15 41 30 7 16 24 28 43 32 39 9 161 8 175 -1 6 -3
11 -1 11 4 0 6 7 11 16 11 9 0 24 9 33 19 21 24 64 30 82 11 8 -8 22 -31 32
-50 11 -24 17 -29 17 -16 0 11 2 17 5 14 11 -11 -8 -88 -26 -109 -11 -12 -19
-32 -19 -45 0 -32 -10 -54 -25 -54 -18 0 -28 -89 -18 -155 8 -46 11 -50 38
-53 17 -2 35 -7 40 -12 6 -4 30 -10 55 -14 25 -4 77 -22 115 -41 67 -34 70
-35 134 -24 78 12 111 27 111 48 0 47 -55 268 -70 281 -24 23 -44 61 -34 69 5
3 9 13 10 21 1 8 4 34 8 58 7 35 5 42 -8 42 -15 0 -20 11 -17 37 1 6 -8 14
-19 18 -34 11 -40 44 -16 85 11 19 25 38 31 43 14 10 -14 27 -47 27 -16 0 -28
5 -28 10 0 6 -6 10 -13 8 -17 -4 -80 59 -72 71 7 12 -25 81 -37 81 -22 0 -35
25 -26 46 8 17 6 26 -11 43 -15 15 -21 32 -20 59 2 30 3 32 6 10 2 -16 9 -28
14 -28 14 0 11 42 -5 59 -22 24 15 120 65 171 22 22 43 40 47 40 4 0 24 16 44
35 20 19 42 35 48 35 7 0 29 9 49 19 20 10 61 29 91 41 30 13 78 33 105 47 28
13 69 27 93 30 23 3 45 10 48 14 3 5 14 9 26 9 29 0 145 57 152 76 3 8 10 13
15 10 17 -11 41 6 41 29 0 13 6 26 13 28 9 4 9 7 -1 15 -7 5 -12 15 -10 22 3
13 -7 16 -82 26 -80 10 -100 22 -100 60 l0 34 -1168 0 -1168 0 3 -117z m153
-43 c0 -33 -3 -40 -20 -40 -17 0 -20 7 -20 40 0 33 3 40 20 40 17 0 20 -7 20
-40z"/>
<path d="M9517 7353 c18 -2 50 -2 70 0 21 2 7 4 -32 4 -38 0 -55 -2 -38 -4z"/>
<path d="M1 7073 c1 -44 3 -52 9 -33 12 36 12 78 0 85 -6 4 -10 -16 -9 -52z"/>
<path d="M2 6865 c0 -16 2 -22 5 -12 2 9 2 23 0 30 -3 6 -5 -1 -5 -18z"/>
<path d="M6246 5393 c-16 -57 0 -112 49 -170 28 -34 31 -39 27 -51 -2 -6 2
-13 10 -14 7 0 18 -2 24 -2 6 -1 23 -8 38 -15 23 -13 28 -12 43 2 12 10 32 15
55 13 21 -2 35 1 32 5 -3 5 -13 9 -22 9 -15 0 -15 2 2 18 16 16 18 16 37 -7
10 -12 17 -26 14 -31 -2 -4 7 -5 20 -2 32 6 32 20 0 32 -15 6 -25 17 -25 29 0
10 -11 26 -25 35 -27 18 -39 21 -30 7 3 -5 -9 -9 -27 -8 -18 0 -42 -3 -52 -8
-14 -6 -17 -5 -12 3 5 8 0 12 -13 12 -12 0 -21 4 -21 9 0 5 -8 8 -17 7 -12 0
-19 7 -21 22 -2 12 -8 22 -15 22 -6 0 -2 7 9 15 10 8 13 15 7 15 -9 0 -11 10
-6 33 l6 32 -21 -19 c-12 -11 -22 -14 -22 -8 0 7 -4 12 -10 12 -5 0 -10 -7
-10 -15 0 -8 -4 -15 -9 -15 -4 0 -6 11 -3 25 5 28 -4 34 -12 8z m51 -85 c-3
-7 -5 -2 -5 12 0 14 2 19 5 13 2 -7 2 -19 0 -25z m127 -156 c3 -5 -1 -9 -9 -9
-8 0 -12 4 -9 9 3 4 7 8 9 8 2 0 6 -4 9 -8z"/>
<path d="M8077 5399 c-11 -6 -24 -12 -30 -14 -7 -1 -29 -10 -49 -19 -40 -17
-51 -32 -18 -23 11 3 20 1 20 -3 0 -5 -10 -10 -22 -12 -13 -2 -23 -10 -23 -18
-1 -8 -7 -13 -15 -11 -40 12 -102 12 -116 0 -9 -7 -34 -22 -57 -33 -47 -24
-64 -63 -67 -151 -1 -35 -4 -43 -8 -27 -9 29 -24 31 -37 3 -5 -11 -14 -21 -18
-21 -5 0 -31 -24 -58 -52 -52 -57 -62 -91 -29 -108 11 -6 20 -16 20 -23 0 -20
102 -68 116 -56 9 7 19 4 33 -10 12 -12 25 -21 31 -21 5 0 30 -15 56 -32 35
-25 53 -48 75 -96 15 -35 31 -80 34 -100 4 -20 14 -54 23 -75 12 -31 13 -43 4
-58 -7 -10 -12 -33 -12 -51 -1 -27 -2 -30 -11 -15 -7 12 -22 17 -52 16 -69 -2
-91 -12 -110 -51 -14 -28 -32 -44 -72 -63 -54 -25 -78 -52 -80 -90 -4 -60 -6
-65 -23 -65 -11 0 -29 9 -42 20 -29 25 -75 26 -101 1 -34 -31 -4 -43 98 -40
49 2 94 0 100 -4 6 -4 14 -23 17 -42 4 -19 10 -35 15 -35 4 0 15 -15 24 -34 9
-19 25 -37 36 -41 16 -5 19 -12 14 -43 -3 -21 -15 -46 -28 -57 -13 -11 -33
-45 -46 -75 -12 -30 -45 -84 -72 -119 -40 -52 -52 -77 -64 -134 -18 -85 -7
-124 30 -112 12 3 45 9 72 11 28 3 57 8 65 11 8 3 26 8 39 10 20 4 78 37 91
54 3 4 24 10 48 14 35 6 42 10 42 30 0 12 -7 25 -15 29 -8 3 -15 15 -15 26 0
12 -5 18 -10 15 -6 -4 -8 -11 -5 -16 13 -21 -16 -7 -44 21 -49 50 -68 161 -35
209 14 20 23 22 63 18 62 -6 117 -22 170 -48 33 -15 53 -19 80 -14 81 16 124
10 207 -27 89 -40 131 -41 139 -4 20 90 25 121 20 137 -7 21 -20 25 -30 9 -9
-14 -44 -12 -59 3 -7 6 -29 42 -49 80 -30 56 -35 72 -27 93 14 35 12 44 -5 44
-8 0 -17 11 -21 25 -3 13 -12 29 -19 35 -18 15 -11 126 9 146 18 18 45 9 73
-24 l22 -26 30 28 c27 26 31 27 58 14 35 -17 39 -42 14 -100 l-20 -46 32 -16
c29 -13 33 -13 49 1 13 12 15 20 7 34 -14 28 9 70 48 86 31 12 34 11 66 -22
21 -22 44 -35 59 -35 31 0 58 -29 58 -63 0 -36 -25 -47 -104 -47 -71 0 -68 2
-82 -72 -8 -50 3 -108 21 -108 9 0 15 -10 15 -24 0 -18 -6 -25 -22 -28 -20 -3
-23 -9 -24 -55 l-1 -52 28 30 c23 25 35 29 78 29 28 0 51 5 51 10 0 6 7 10 15
10 18 0 19 12 4 27 -14 14 -19 79 -8 117 7 24 15 31 34 32 14 1 25 -2 25 -7 0
-16 19 -9 24 9 5 15 21 17 127 19 112 3 123 1 151 -20 60 -44 120 -114 148
-171 16 -31 18 -32 80 -20 32 7 63 -16 65 -47 1 -21 8 -25 51 -29 54 -6 77
-16 69 -31 -4 -5 7 -9 23 -9 45 0 66 -31 63 -90 -1 -17 -4 -21 -9 -12 -7 9
-15 10 -35 3 -30 -12 -57 7 -57 40 0 20 -8 23 -34 13 -19 -7 -21 -52 -2 -76 7
-10 25 -19 40 -20 14 -1 26 -6 26 -10 0 -4 6 -8 14 -8 8 0 22 -10 30 -21 33
-48 104 14 76 67 -7 12 -9 31 -6 41 10 31 -1 48 -50 79 -53 34 -60 52 -38 99
13 28 22 35 45 35 30 0 49 -23 49 -58 0 -10 14 -40 31 -66 l31 -47 14 27 c8
15 24 35 37 45 12 10 27 23 34 29 20 16 40 11 46 -12 7 -25 -11 -70 -47 -117
-48 -64 -31 -130 57 -221 37 -39 61 -55 82 -57 77 -7 181 -27 187 -37 5 -7 23
-7 60 1 44 9 56 8 70 -4 14 -13 20 -13 33 -3 27 22 18 40 -20 40 -24 0 -35 5
-35 15 0 8 -4 15 -10 15 -13 0 -13 46 0 90 6 19 13 55 15 79 3 24 10 49 15 56
8 9 4 14 -12 19 -14 5 -18 9 -10 13 6 2 10 9 6 14 -3 5 1 9 9 9 8 0 20 13 25
30 9 26 17 30 61 36 36 5 59 15 81 35 29 28 40 59 21 59 -5 0 -13 9 -16 20 -4
12 -26 40 -49 63 -24 23 -46 50 -49 60 -11 31 21 31 64 1 23 -16 53 -29 68
-30 78 -3 79 -4 89 -33 8 -23 18 -30 53 -36 24 -4 53 -7 63 -6 14 2 17 -1 12
-16 -16 -40 -18 -74 -6 -88 7 -8 12 -33 12 -55 -1 -36 2 -40 23 -40 26 0 65
-42 65 -71 0 -12 7 -19 20 -19 10 0 30 -5 44 -11 19 -9 29 -8 47 5 33 23 65
20 87 -9 16 -20 59 -45 78 -45 2 0 3 122 2 272 l-3 271 -45 23 c-46 23 -74 19
-93 -12 -11 -19 -43 -18 -51 1 -7 20 -43 19 -64 -1 -10 -11 -17 -13 -20 -5 -5
16 -31 14 -48 -4 -11 -10 -36 -15 -83 -15 -76 0 -84 -5 -108 -67 -11 -29 -13
-32 -10 -10 3 22 0 27 -17 27 -21 1 -56 21 -56 33 0 24 -54 117 -70 122 -11 3
-32 22 -46 41 -20 26 -31 33 -49 28 -29 -7 -82 20 -90 47 -9 28 13 79 34 79
10 0 26 6 36 14 18 13 18 14 -3 47 -34 56 -52 118 -41 146 15 41 36 55 69 48
38 -8 60 -39 60 -83 0 -37 33 -92 56 -92 27 0 94 25 94 35 0 17 -49 115 -65
131 -24 24 -29 62 -18 138 9 69 9 70 -21 104 -17 20 -48 43 -69 52 -20 9 -59
38 -86 63 l-49 46 -16 -38 c-8 -22 -27 -51 -41 -65 -14 -14 -25 -36 -25 -49 0
-13 -13 -40 -29 -60 l-28 -36 -22 23 c-11 12 -21 29 -21 37 0 8 -9 15 -20 15
-18 0 -20 -7 -20 -54 0 -34 5 -59 15 -68 8 -9 15 -29 15 -45 0 -17 11 -47 25
-67 24 -35 24 -38 8 -50 -14 -10 -39 -12 -101 -7 -81 7 -142 -5 -142 -26 0
-22 -43 10 -73 54 -10 15 -16 16 -39 5 -21 -10 -28 -20 -28 -42 l0 -29 -39 41
c-31 32 -40 51 -46 92 -5 34 -13 55 -26 63 -10 6 -19 20 -19 29 0 16 -34 80
-83 157 -16 23 -43 43 -95 67 -80 37 -93 39 -157 23 -41 -10 -43 -13 -49 -53
-5 -32 -17 -53 -46 -81 -22 -22 -40 -48 -40 -58 0 -10 -9 -21 -20 -24 -16 -4
-20 -14 -20 -45 l0 -40 -35 6 c-20 4 -41 4 -47 0 -18 -11 -70 -15 -64 -5 3 5
2 45 -2 90 -7 72 -6 84 11 102 10 11 17 30 15 42 -1 12 1 27 5 34 9 15 -18 42
-55 55 -15 6 -28 16 -28 22 0 13 -48 41 -64 37 -5 -1 -12 3 -16 8 -3 6 -30 15
-60 21 -29 6 -56 12 -58 15 -3 2 -6 21 -7 41 -1 21 -9 42 -19 49 -9 7 -16 21
-16 33 0 34 -57 59 -146 64 -81 5 -98 11 -234 83 -73 38 -77 39 -103 24z m790
-501 c-3 -8 -6 -5 -6 6 -1 11 2 17 5 13 3 -3 4 -12 1 -19z m-22 -28 c-3 -5
-10 -10 -16 -10 -5 0 -9 5 -9 10 0 6 7 10 16 10 8 0 12 -4 9 -10z m1320 -396
c30 -32 32 -65 6 -88 -18 -16 -21 -16 -51 -1 -64 33 -56 104 13 114 4 0 19
-11 32 -25z m-438 -69 c19 -8 55 -15 79 -15 23 0 46 -5 49 -11 4 -5 18 -14 31
-19 29 -11 64 -78 64 -123 0 -19 7 -40 15 -47 8 -7 15 -18 15 -26 0 -16 -75
-94 -90 -94 -5 0 -10 -7 -10 -15 0 -8 -8 -15 -17 -15 -23 0 -63 -59 -63 -93 0
-16 -8 -30 -19 -37 -47 -25 -102 1 -81 39 13 26 12 61 -3 86 -11 18 -22 20
-107 19 -52 -1 -106 -2 -120 -3 -13 0 -31 5 -38 13 -19 19 0 76 40 122 l30 34
-31 29 c-38 36 -42 82 -9 105 28 20 72 20 88 1 15 -18 30 -11 30 14 0 45 80
64 147 36z m-1671 -31 c3 -13 3 -35 0 -49 -7 -29 -7 -30 30 -10 16 8 34 15 41
15 21 0 45 -32 39 -54 -3 -12 1 -34 9 -50 8 -16 15 -39 15 -52 0 -12 5 -26 10
-29 6 -3 10 -19 10 -34 0 -28 -1 -28 -43 -24 -43 5 -43 5 -87 -53 -71 -95
-111 -134 -137 -134 -12 0 -23 3 -23 6 0 12 45 89 72 125 16 20 28 42 28 48 0
6 18 24 40 40 37 27 42 41 14 41 -7 0 -19 -6 -26 -13 -26 -26 -67 -49 -78 -42
-5 3 -10 17 -10 31 0 13 -9 33 -20 44 -40 40 -42 65 -10 129 17 32 30 63 30
68 0 15 41 30 67 25 14 -3 26 -14 29 -28z m-206 -445 c0 -18 -2 -19 -15 -5 -8
8 -15 17 -15 20 0 3 7 6 15 6 9 0 15 -9 15 -21z m2203 -64 c31 -20 37 -55 8
-55 -10 0 -26 -11 -35 -25 -21 -32 -66 -34 -84 -4 -7 11 -33 30 -58 40 -38 17
-43 23 -34 39 14 27 27 30 105 26 46 -2 80 -9 98 -21z"/>
<path d="M5794 5366 c-3 -14 -3 -30 1 -35 13 -22 -7 -33 -26 -15 -19 17 -19
16 -13 -13 5 -24 1 -32 -21 -47 -15 -10 -34 -14 -45 -11 -11 4 -20 3 -20 -2 0
-11 -84 -13 -91 -2 -3 5 -20 6 -37 3 -17 -4 -30 -10 -27 -14 3 -4 -8 -10 -23
-13 -15 -3 -30 -1 -33 4 -3 6 -11 3 -19 -6 -8 -10 -9 -15 -1 -15 28 0 7 -30
-31 -43 -28 -10 -36 -16 -23 -17 15 -2 12 -5 -10 -11 -25 -7 -23 -8 15 -4 29
2 52 -1 64 -11 29 -21 45 -16 18 6 l-23 19 21 11 c11 6 19 14 16 18 -2 4 12 8
32 8 21 1 69 4 107 8 l70 7 -23 -20 -24 -20 40 4 c30 2 42 -1 46 -12 5 -12 9
-13 21 -3 8 6 19 9 25 5 13 -8 38 16 33 32 -3 7 5 22 16 35 14 15 21 17 21 8
0 -9 7 -5 17 9 22 32 18 83 -9 126 -27 41 -55 46 -64 11z"/>
<path d="M6360 5304 c0 -8 5 -12 10 -9 6 4 8 11 5 16 -9 14 -15 11 -15 -7z"/>
<path d="M8850 5259 c0 -6 8 -8 18 -5 9 3 5 -3 -10 -14 -55 -42 -73 -59 -61
-60 7 0 18 6 25 14 11 12 15 12 30 -1 13 -12 29 -14 63 -9 42 7 45 9 45 37 0
26 -9 34 -32 30 -5 0 -8 4 -8 9 0 6 -16 10 -35 10 -19 0 -35 -5 -35 -11z"/>
<path d="M2003 5217 c-41 -16 -75 -47 -69 -64 3 -7 1 -13 -4 -13 -15 0 -8 -68
7 -74 23 -9 43 -72 43 -133 -1 -56 -2 -59 -41 -85 -21 -16 -44 -28 -49 -28 -6
0 -10 -9 -10 -19 0 -11 -11 -32 -24 -48 -28 -33 -34 -62 -22 -115 7 -31 13
-38 32 -38 19 0 24 5 24 25 0 13 6 28 14 32 15 9 41 54 38 66 -1 4 4 15 12 23
17 17 66 19 66 2 0 -6 3 -9 6 -5 3 3 15 -3 27 -14 22 -20 47 -25 47 -10 0 5 9
13 20 16 11 3 20 12 20 18 0 11 60 78 93 104 8 7 26 15 39 18 51 14 62 35 75
148 3 30 1 53 -6 60 -6 6 -11 23 -11 38 0 30 -41 68 -91 88 -43 16 -200 21
-236 8z"/>
<path d="M6700 5180 c8 -5 20 -10 25 -10 6 0 3 5 -5 10 -8 5 -19 10 -25 10 -5
0 -3 -5 5 -10z"/>
<path d="M8786 5151 c-16 -58 -17 -66 -7 -51 9 12 11 12 17 -3 3 -9 15 -17 25
-17 15 0 19 7 19 39 0 33 -3 39 -25 43 -17 4 -26 0 -29 -11z"/>
<path d="M5538 5153 c12 -2 32 -2 45 0 12 2 2 4 -23 4 -25 0 -35 -2 -22 -4z"/>
<path d="M5650 5143 c-50 -6 -57 -18 -8 -16 22 0 45 6 51 12 6 6 7 10 2 9 -6
0 -26 -3 -45 -5z"/>
<path d="M6677 5139 c7 -7 15 -10 18 -7 3 3 -2 9 -12 12 -14 6 -15 5 -6 -5z"/>
<path d="M5492 5129 c3 -8 20 -15 44 -16 37 -2 37 -1 8 6 -17 4 -37 11 -44 16
-8 5 -11 3 -8 -6z"/>
<path d="M5270 5108 c0 -5 -4 -7 -8 -4 -5 3 -26 -1 -48 -9 l-39 -14 45 4 c25
2 59 8 75 13 l30 9 -27 5 c-16 3 -28 1 -28 -4z"/>
<path d="M6699 5101 c18 -14 27 -16 37 -7 15 13 17 12 -26 19 l-35 7 24 -19z"/>
<path d="M5987 5099 c7 -7 15 -10 18 -7 3 3 -2 9 -12 12 -14 6 -15 5 -6 -5z"/>
<path d="M3180 5083 c0 -10 -6 -25 -12 -32 -11 -11 -10 -13 5 -7 10 3 23 6 28
6 14 0 11 26 -6 40 -12 10 -15 9 -15 -7z"/>
<path d="M6431 5067 c2 -1 13 -9 24 -17 19 -14 19 -14 6 3 -7 9 -18 17 -24 17
-6 0 -8 -1 -6 -3z"/>
<path d="M6545 5060 c-16 -7 -17 -9 -3 -9 9 -1 20 4 23 9 7 11 7 11 -20 0z"/>
<path d="M5475 5020 c11 -5 27 -9 35 -9 9 0 8 4 -5 9 -11 5 -27 9 -35 9 -9 0
-8 -4 5 -9z"/>
<path d="M6508 5023 c7 -3 16 -2 19 1 4 3 -2 6 -13 5 -11 0 -14 -3 -6 -6z"/>
<path d="M6433 5003 c0 -6 7 -9 14 -6 15 6 65 -35 58 -47 -3 -4 4 -15 15 -25
17 -16 20 -16 20 -2 0 8 -8 18 -17 20 -10 3 -3 5 15 6 17 0 32 5 32 10 0 5 8
12 18 14 9 2 1 2 -18 0 -27 -3 -41 2 -60 19 -26 24 -77 32 -77 11z"/>
<path d="M6560 5006 c7 -7 13 -7 20 0 6 6 3 10 -10 10 -13 0 -16 -4 -10 -10z"/>
<path d="M5538 5003 c7 -3 16 -2 19 1 4 3 -2 6 -13 5 -11 0 -14 -3 -6 -6z"/>
<path d="M5985 5000 c6 -9 -8 -14 -28 -11 -5 1 -6 -3 -2 -8 3 -6 -6 -16 -21
-24 -25 -13 -25 -15 -9 -31 10 -9 15 -19 13 -22 -7 -7 -38 7 -38 17 0 5 -5 9
-11 9 -5 0 -8 -4 -5 -9 4 -5 0 -12 -6 -14 -7 -3 -1 -6 15 -6 15 -1 27 -6 27
-12 0 -5 -4 -7 -10 -4 -5 3 -10 1 -10 -4 0 -6 5 -11 11 -11 5 0 3 -13 -7 -29
-10 -17 -23 -27 -31 -24 -7 3 -10 9 -7 14 3 5 -6 9 -20 9 -30 0 -32 7 -9 32
14 16 15 18 0 18 -9 0 -19 -5 -22 -10 -5 -8 -12 -7 -23 2 -13 11 -14 11 -8 0
5 -9 1 -15 -14 -19 -11 -3 -19 -11 -17 -18 4 -8 -10 -11 -43 -11 -26 1 -46 4
-43 9 2 4 15 7 29 7 34 0 80 30 62 41 -9 6 -6 9 10 9 12 0 22 5 22 11 0 7 -9
9 -27 3 -16 -4 -39 -7 -52 -7 -16 1 -20 -2 -11 -7 13 -8 -15 -21 -55 -25 -11
-2 -19 -7 -18 -13 1 -5 -4 -13 -13 -16 -9 -3 -12 -2 -9 5 4 6 -3 8 -22 3 -25
-5 -24 -4 9 15 21 12 45 21 53 21 8 0 15 4 15 10 0 5 -17 7 -40 4 -29 -4 -40
-2 -40 8 0 11 -2 11 -9 0 -4 -8 -11 -13 -15 -13 -17 3 -20 0 -7 -8 22 -14 -33
-26 -56 -12 -15 9 -15 10 -2 11 11 0 15 8 14 25 -3 25 5 32 19 18 10 -10 76
-10 76 0 0 4 12 7 28 8 l27 0 -25 10 c-14 5 -30 17 -37 25 -10 14 -14 14 -40
0 l-28 -15 29 -1 c40 0 26 -11 -15 -12 -19 0 -47 -7 -63 -15 -16 -8 -39 -13
-53 -10 -13 2 -26 0 -29 -4 -3 -5 14 -10 38 -11 37 -1 38 -2 11 -5 -33 -4 -47
-23 -18 -23 8 0 15 -2 15 -5 0 -9 -40 -45 -51 -45 -5 0 -8 -4 -5 -9 3 -5 -4
-11 -16 -14 -12 -4 -19 -9 -15 -13 4 -4 2 -13 -4 -21 -9 -9 -8 -13 0 -13 6 0
11 5 11 10 0 6 5 10 10 10 7 0 7 -6 0 -20 -6 -11 -17 -20 -24 -20 -17 0 -58
-45 -49 -53 3 -4 0 -7 -7 -7 -7 0 -22 -8 -33 -17 -15 -13 -18 -14 -12 -3 4 8
-4 4 -19 -10 -16 -15 -22 -26 -15 -29 6 -2 15 3 20 10 7 10 8 8 6 -8 -2 -11
-8 -28 -15 -35 -19 -23 -2 -29 21 -7 21 20 63 27 52 9 -3 -6 1 -13 10 -16 13
-5 12 -9 -7 -28 -44 -42 -57 -49 -54 -31 1 8 8 21 16 28 10 10 11 9 5 -2 -5
-10 -4 -12 4 -7 6 4 9 12 6 17 -4 5 -1 9 6 9 7 0 10 2 7 5 -8 9 -58 -17 -58
-29 0 -6 -5 -4 -10 4 -6 10 -10 11 -10 3 0 -7 -6 -13 -14 -13 -9 0 -12 -8 -8
-25 3 -18 0 -25 -11 -25 -8 0 -20 -6 -26 -14 -9 -11 -8 -15 5 -20 24 -9 27 -8
19 12 -5 13 -4 14 6 5 10 -10 18 -8 38 10 l26 22 -25 -30 c-14 -17 -31 -40
-38 -53 -12 -22 -12 -23 8 -12 11 6 20 7 20 1 0 -8 -56 -35 -70 -33 -3 0 -6
-11 -6 -24 -1 -13 2 -22 6 -19 4 2 5 -15 3 -39 -3 -24 -1 -52 5 -62 7 -12 6
-25 -1 -42 -9 -20 -8 -26 5 -36 9 -7 20 -24 23 -39 4 -15 10 -25 14 -22 4 2 6
-12 5 -31 -3 -38 1 -41 28 -17 10 9 18 11 18 6 0 -6 -7 -14 -16 -17 -8 -3 -13
-10 -9 -15 3 -5 0 -13 -6 -17 -8 -4 -9 -3 -5 4 4 7 5 12 2 12 -3 0 -13 -14
-22 -31 -8 -17 -11 -28 -5 -25 15 10 14 -7 -1 -22 -9 -9 -9 -12 -1 -12 7 0 15
4 18 10 3 5 16 15 28 21 16 9 13 1 -13 -27 -19 -21 -26 -32 -15 -23 22 17 69
24 60 8 -4 -5 1 -9 9 -9 9 0 16 -4 16 -10 0 -5 -7 -10 -16 -10 -8 0 -12 -5 -9
-11 4 -6 13 -8 21 -5 8 3 14 -1 14 -8 0 -8 6 -17 13 -19 6 -3 -5 -6 -25 -6
-25 -1 -40 5 -46 16 -8 13 -9 11 -9 -10 0 -15 3 -24 8 -21 14 8 11 -20 -3 -35
-11 -11 -8 -12 12 -7 23 6 23 6 8 -7 -10 -8 -19 -25 -20 -38 -2 -14 -13 -29
-28 -36 -22 -11 -22 -12 -5 -12 38 -1 95 12 90 19 -3 5 8 15 25 23 16 9 30 12
30 7 0 -5 8 -11 18 -14 9 -3 5 -4 -10 -2 -15 2 -33 -1 -40 -5 -9 -6 -6 -9 10
-9 13 0 21 -4 18 -9 -4 -5 4 -7 16 -3 22 5 22 4 6 -15 -10 -11 -18 -22 -18
-25 0 -7 38 -3 46 5 4 4 12 7 17 7 6 0 0 -12 -14 -26 -24 -26 -24 -27 -1 -15
12 7 22 8 21 4 -1 -4 -1 -14 0 -22 1 -11 4 -11 18 0 15 13 15 12 5 -8 -12 -21
-29 -36 -44 -39 -5 -1 -12 -2 -18 -3 -5 0 -21 -13 -35 -28 l-26 -28 21 43 c12
23 26 42 31 42 5 0 9 5 9 11 0 8 -5 8 -15 -1 -18 -15 -20 1 -3 18 6 6 9 15 5
19 -13 12 -30 -15 -30 -46 0 -17 -7 -33 -15 -36 -10 -4 -12 0 -8 11 4 9 -8 3
-26 -14 -17 -18 -34 -29 -37 -27 -3 3 11 20 32 38 41 36 65 86 46 98 -7 4 -8
13 -4 20 5 8 -3 4 -16 -8 -13 -12 -26 -22 -29 -22 -15 0 -39 -14 -44 -27 -3
-7 -2 -13 2 -13 26 4 30 -3 12 -21 -12 -12 -18 -26 -14 -33 4 -7 3 -9 -1 -4
-5 4 -16 0 -25 -8 -14 -13 -20 -12 -48 5 -18 11 -30 25 -27 30 4 6 10 8 15 5
4 -3 7 3 5 12 -2 10 -4 22 -4 26 -1 4 -10 3 -21 -3 -14 -7 -20 -7 -20 0 0 5 6
10 14 10 7 0 21 12 31 26 l16 25 -25 -16 c-16 -11 -26 -13 -26 -6 0 6 4 11 9
11 5 0 11 7 14 14 6 16 -16 12 -41 -7 -7 -5 -15 -7 -19 -4 -3 4 1 9 10 13 9 3
13 12 10 20 -3 8 1 14 9 14 10 0 15 11 15 35 0 30 -3 34 -18 30 -10 -4 -26 -2
-35 3 -16 9 -15 11 5 21 12 7 19 16 16 22 -4 5 -2 9 3 9 6 0 9 11 8 25 -1 29
-4 30 -27 9 -9 -8 -30 -17 -45 -19 l-27 -3 24 19 c13 10 27 19 30 19 4 0 9 6
12 14 4 10 -1 13 -16 10 -22 -4 -22 -4 1 7 30 16 28 29 -5 23 -39 -7 -45 -14
-39 -38 4 -16 -1 -24 -17 -31 -20 -9 -22 -15 -14 -58 1 -5 -7 -14 -18 -20 -20
-12 -39 -36 -40 -50 0 -4 -6 -12 -14 -16 -10 -6 -10 -10 -1 -16 8 -5 7 -12 -5
-25 -15 -16 -14 -18 2 -24 16 -7 15 -9 -7 -26 -22 -18 -23 -20 -6 -20 20 0 20
0 0 -14 -17 -13 -17 -15 -2 -21 20 -8 13 -32 -10 -38 -13 -3 -10 -7 11 -15 16
-7 33 -9 39 -6 5 3 4 -3 -4 -15 -7 -12 -18 -21 -24 -21 -6 0 -23 -10 -38 -23
l-27 -23 30 2 c16 1 45 14 64 28 24 19 36 23 39 14 3 -9 14 -6 41 10 36 21 51
12 27 -16 -7 -9 -7 -9 2 -2 27 23 35 8 10 -19 -15 -16 -33 -37 -41 -46 -14
-17 -15 -17 -27 -1 -12 16 -13 16 -23 -3 -15 -28 -14 -36 4 -21 23 19 18 1
-10 -34 -37 -46 -40 -50 -49 -64 -5 -8 -3 -11 6 -10 7 2 18 16 25 31 7 16 17
26 22 23 5 -3 36 21 70 55 33 33 65 58 71 54 5 -3 10 1 10 10 0 9 5 13 10 10
6 -3 10 3 10 15 0 21 19 32 75 43 l30 6 -30 -14 c-27 -13 -28 -14 -7 -15 24 0
25 -4 12 -35 -8 -19 -9 -19 -9 2 -1 16 -5 21 -16 16 -9 -3 -13 -8 -11 -11 8
-7 -15 -33 -24 -27 -4 3 -14 -3 -21 -13 -12 -15 -12 -16 2 -4 14 10 18 10 23
-4 3 -9 4 -20 0 -25 -3 -5 2 -9 11 -9 10 0 13 -5 9 -12 -4 -7 2 -5 13 5 20 17
20 17 16 -8 -3 -14 -9 -25 -14 -25 -5 0 -9 -7 -9 -15 0 -8 -5 -15 -11 -15 -5
0 -7 6 -3 13 5 9 4 9 -6 0 -7 -6 -18 -9 -25 -7 -7 3 -16 1 -20 -5 -3 -6 -1
-11 6 -11 7 0 3 -10 -9 -23 -12 -13 -22 -29 -22 -35 0 -6 16 5 36 26 29 30 34
33 29 15 -8 -27 10 -31 24 -5 10 16 10 15 11 -3 0 -16 2 -17 10 -5 5 8 13 11
17 6 4 -4 0 -13 -9 -20 -20 -15 -42 -66 -28 -66 5 0 7 -7 4 -15 -4 -8 -10 -15
-15 -15 -4 0 -6 7 -3 15 4 8 1 15 -5 15 -6 0 -11 -3 -12 -7 -7 -61 -6 -103 2
-103 6 0 7 5 3 12 -4 6 -3 8 4 4 5 -3 13 0 15 6 3 7 6 8 6 3 1 -6 -9 -21 -22
-35 -12 -14 -23 -38 -24 -55 -3 -82 -18 -145 -34 -145 -13 0 -11 14 3 28 6 6
8 15 4 19 -10 10 -65 -57 -60 -72 3 -6 -7 -17 -21 -23 -14 -6 -25 -20 -25 -29
0 -10 -15 -31 -32 -48 -18 -16 -26 -22 -19 -12 22 28 -6 21 -34 -9 -30 -32
-33 -44 -5 -19 20 18 25 13 21 -22 -1 -7 3 -13 9 -13 6 0 9 4 6 9 -4 5 6 24
21 41 21 25 32 31 53 26 15 -2 32 0 37 5 7 7 13 5 17 -8 4 -9 4 -14 0 -10 -4
3 -28 -10 -53 -31 -57 -46 -89 -64 -101 -57 -5 3 -11 1 -15 -5 -3 -5 -1 -10 5
-10 6 0 8 -6 4 -12 -4 -7 4 -3 18 10 13 12 29 22 35 22 6 0 16 7 23 15 7 8 17
15 23 15 5 0 2 -9 -8 -20 -16 -17 -16 -20 -2 -20 8 0 17 3 19 8 2 4 23 25 47
47 35 32 40 35 26 13 -9 -15 -13 -33 -9 -39 4 -8 3 -9 -4 -5 -12 7 -62 -36
-62 -53 0 -14 51 5 67 25 6 9 14 11 17 5 3 -5 -5 -23 -19 -39 -29 -34 -31 -45
-11 -61 16 -14 14 -47 -3 -43 -6 1 -10 -1 -9 -5 3 -14 -14 -57 -30 -76 -8 -9
-13 -20 -9 -23 3 -3 20 19 37 49 28 51 60 89 60 73 0 -9 -31 -70 -39 -76 -16
-13 -39 -47 -45 -66 -6 -20 -3 -22 29 -22 28 0 38 5 50 27 8 14 14 22 15 18 0
-5 -5 -18 -11 -30 -7 -12 -13 -30 -14 -42 -4 -38 -5 -40 -13 -27 -6 9 -13 7
-30 -8 -12 -11 -24 -20 -27 -20 -3 0 -6 0 -7 -1 -22 -6 -38 -5 -36 3 2 5 7 8
10 6 8 -3 37 32 38 45 0 8 -42 -13 -53 -28 -4 -5 -5 -18 -3 -27 2 -9 -5 -24
-15 -34 -10 -9 -16 -21 -13 -26 3 -5 15 -2 25 8 17 16 19 16 19 1 0 -10 5 -17
10 -17 6 0 10 5 10 11 0 5 15 16 34 24 19 8 37 19 40 24 20 32 117 -36 132
-93 3 -14 10 -28 14 -31 5 -3 6 -15 3 -26 -5 -19 -4 -20 16 -10 14 8 21 8 21
1 0 -16 38 -50 44 -39 2 5 3 4 2 -3 -2 -7 -7 -13 -12 -14 -40 -4 -146 -83
-141 -105 3 -9 -11 -31 -30 -49 -18 -19 -31 -27 -28 -18 4 11 -2 18 -21 22
-21 6 -33 1 -57 -21 -17 -15 -27 -22 -23 -15 4 6 3 12 -3 12 -12 0 -48 -45
-56 -70 -3 -10 -13 -21 -22 -25 -15 -5 -15 -4 -1 12 8 10 19 25 23 33 6 12 5
12 -5 3 -7 -6 -18 -9 -24 -7 -7 3 -20 -4 -30 -15 -20 -22 -14 -61 10 -61 8 0
14 -5 14 -11 0 -5 5 -7 10 -4 6 3 10 0 10 -9 0 -8 6 -16 13 -19 9 -3 9 -7 -1
-20 -13 -15 -17 -15 -54 4 -22 11 -49 18 -59 16 -14 -4 -19 0 -19 14 0 20 -10
24 -26 10 -5 -5 -20 -11 -34 -13 -16 -2 -25 -9 -24 -20 1 -10 -4 -14 -12 -11
-8 3 -16 -5 -19 -20 -4 -15 -12 -24 -19 -21 -15 6 -31 -12 -39 -44 -5 -23 8
-31 16 -9 2 6 8 9 12 4 16 -14 -8 -24 -71 -26 -11 -1 -27 -12 -34 -26 -7 -14
-18 -25 -24 -25 -23 0 -75 -46 -78 -70 -2 -14 -8 -25 -15 -25 -20 0 -83 -66
-83 -87 0 -17 16 -7 63 39 37 37 50 45 56 34 7 -11 17 -11 62 -1 30 7 61 13
69 12 8 0 41 4 72 10 68 12 108 5 108 -20 0 -17 -24 -26 -120 -47 -14 -3 -43
-11 -65 -17 -22 -7 -49 -13 -60 -14 -30 -4 -98 -20 -118 -29 -17 -7 -16 -10 9
-36 51 -54 13 -74 -73 -38 -29 12 -34 11 -46 -5 -8 -11 -28 -19 -49 -21 -38
-2 -92 -40 -156 -107 -19 -21 -42 -38 -50 -38 -12 0 -12 3 -2 15 22 26 -2 63
-47 71 -49 9 -53 11 -46 31 5 13 18 15 86 9 l80 -7 29 31 c15 17 28 37 28 44
0 7 13 29 30 47 42 48 40 85 -7 131 -48 45 -81 53 -141 33 -31 -11 -48 -13
-50 -6 -6 17 -47 13 -64 -6 -14 -17 -87 -124 -115 -169 -21 -36 -8 70 15 117
14 28 18 47 12 53 -21 21 -4 43 40 51 31 5 66 19 71 27 12 20 114 22 148 4 17
-9 46 -23 64 -32 17 -10 40 -24 50 -32 10 -9 17 -11 17 -4 0 6 -4 14 -10 17
-15 9 -12 34 5 51 8 9 15 26 15 39 0 13 5 27 11 31 6 3 8 19 5 38 -3 17 -2 46
4 65 7 27 6 40 -8 65 -9 17 -18 33 -19 35 -1 2 -21 -3 -45 -11 -45 -16 -133
-13 -93 3 30 11 47 10 39 -2 -4 -8 1 -9 17 -4 13 4 26 12 27 16 2 5 10 9 17 9
25 0 27 20 3 30 -23 11 -23 11 0 6 12 -2 22 0 22 5 0 5 10 14 23 18 19 8 20
10 5 16 -9 4 -37 -3 -64 -14 -48 -21 -94 -28 -94 -13 0 5 36 17 79 27 92 22
107 31 116 68 10 37 -7 34 -50 -8 -19 -20 -35 -33 -35 -29 0 9 79 104 118 141
33 32 34 32 30 8 -4 -19 0 -26 24 -34 36 -13 50 -7 72 29 9 17 25 30 34 30 11
0 2 -14 -27 -44 -29 -29 -42 -50 -38 -60 8 -21 -12 -66 -30 -66 -7 0 -13 -4
-13 -10 0 -5 8 -7 18 -3 12 4 11 0 -6 -17 -19 -18 -23 -29 -18 -55 6 -29 4
-34 -15 -37 -12 -2 -28 -14 -36 -28 l-15 -25 20 23 c23 25 38 28 45 10 3 -10
9 -10 30 1 14 7 32 11 40 8 8 -3 20 0 26 6 7 7 17 12 24 12 7 1 11 6 9 13 -1
7 2 11 6 10 5 -2 21 12 37 30 15 18 30 31 33 28 3 -3 -1 -12 -8 -21 -7 -8 -9
-15 -5 -15 4 0 2 -7 -5 -15 -26 -31 2 -34 40 -4 39 31 97 109 83 109 -5 0 -1
5 7 10 8 5 15 23 16 40 l2 31 -16 -23 c-25 -34 -72 -82 -77 -77 -2 3 11 21 29
41 57 62 79 104 66 128 -6 11 -15 18 -21 15 -5 -4 -9 0 -9 8 0 8 6 17 14 20
17 7 17 47 1 47 -6 0 -16 -5 -23 -12 -17 -17 -15 2 2 21 8 9 16 23 18 31 3 16
28 39 41 40 5 0 5 -5 2 -11 -4 -6 3 -13 15 -16 13 -3 19 -11 16 -19 -12 -32
31 1 57 43 11 17 -3 42 -19 36 -21 -8 -17 3 16 40 l30 35 -45 -6 c-29 -3 -45
-1 -46 7 -4 32 -6 36 -19 33 -11 -3 -11 0 0 12 7 9 21 16 31 16 10 0 23 9 29
20 6 11 16 20 23 20 12 0 67 46 67 56 0 3 -14 -5 -32 -17 -17 -13 -29 -18 -25
-12 8 13 -37 26 -64 18 -11 -4 -19 -2 -19 5 0 8 -6 8 -21 0 -11 -7 -23 -9 -25
-7 -3 3 9 12 27 21 38 19 42 20 33 4 -5 -7 -3 -8 5 -4 7 5 10 11 6 14 -3 3 15
27 41 53 27 28 43 52 39 59 -5 8 -13 6 -27 -7 -20 -18 -20 -17 -14 5 8 24 -3
29 -24 10 -7 -7 -3 2 9 20 12 17 25 32 28 32 3 0 0 -7 -7 -15 -7 -8 -10 -15
-8 -15 8 0 78 92 78 103 0 5 -14 -3 -31 -17 -17 -14 -35 -24 -40 -20 -5 3 -29
-11 -53 -30 -23 -20 -48 -36 -55 -36 -6 0 -12 -6 -12 -12 -1 -7 -2 -19 -3 -27
0 -7 -13 -15 -28 -17 -48 -5 -68 -15 -68 -34 0 -28 15 -32 41 -12 75 54 104
51 44 -6 -21 -20 -33 -29 -25 -19 24 33 3 27 -39 -10 -23 -21 -43 -47 -45 -58
-2 -17 -38 -43 -81 -59 -5 -2 -7 -7 -3 -11 4 -4 13 -3 20 3 13 10 78 24 78 17
0 -3 -10 -13 -22 -25 -28 -26 -11 -26 22 0 14 11 30 20 35 19 6 0 2 -4 -7 -10
-10 -5 -18 -15 -18 -21 0 -6 7 -5 18 3 15 13 16 12 3 -3 -7 -10 -17 -16 -21
-13 -4 3 -13 -2 -20 -10 -11 -13 -8 -15 16 -16 29 -1 29 -1 -5 -11 -20 -5 -30
-13 -25 -18 6 -6 26 -4 49 4 35 12 41 12 48 -1 6 -10 2 -22 -14 -39 -12 -13
-19 -24 -14 -24 5 0 -2 -11 -15 -25 -20 -21 -21 -25 -6 -25 10 0 14 -5 11 -11
-4 -6 -22 -8 -46 -4 -32 6 -39 4 -39 -9 0 -17 -16 -22 -22 -6 -1 5 -23 -6 -47
-25 -24 -20 -45 -34 -47 -32 -8 8 10 45 20 41 13 -5 63 43 54 52 -4 3 -32 -1
-63 -9 -47 -12 -55 -12 -51 -1 3 9 -2 14 -14 14 -12 0 -20 7 -20 18 0 14 -2
15 -10 2 -13 -21 -12 -43 2 -34 7 5 9 0 6 -14 -3 -12 -3 -21 1 -20 29 3 31 -5
6 -26 -30 -26 -52 -28 -65 -6 -5 8 -12 11 -16 8 -3 -4 -13 0 -22 8 -13 14 -13
17 -1 26 11 7 8 9 -8 5 -27 -6 -29 5 -7 39 20 29 13 42 -10 19 -20 -20 -21 -8
-2 14 8 9 18 30 22 46 l7 30 -23 -20 -22 -20 7 32 c4 21 3 33 -4 34 -6 1 -17
2 -23 3 -14 2 -39 -25 -32 -35 2 -4 -11 -9 -28 -13 -17 -3 -40 -14 -51 -24
-19 -16 -19 -16 -13 6 5 15 3 22 -6 22 -27 0 -68 -25 -68 -42 0 -20 -16 -32
-25 -18 -3 5 -1 10 5 10 7 0 10 6 7 13 -3 8 10 31 29 52 39 44 42 55 14 50
-11 -2 -20 1 -20 7 0 6 -9 3 -20 -7 -19 -17 -18 -41 1 -30 5 4 9 1 9 -4 0 -6
-3 -11 -7 -11 -5 0 -22 -12 -38 -28 -17 -15 -37 -28 -45 -30 -8 -2 -19 -8 -25
-14 -7 -7 -3 -8 14 -3 17 5 21 4 16 -5 -4 -6 -15 -10 -25 -7 -21 5 -50 -10
-50 -27 0 -7 -13 -28 -30 -46 -34 -38 -37 -50 -13 -50 14 0 12 -5 -9 -25 -15
-14 -35 -25 -45 -25 -26 0 -39 -12 -46 -38 -5 -22 -3 -23 21 -18 l27 6 -27
-23 c-27 -22 -27 -23 -8 -37 19 -14 19 -14 -3 -29 -12 -9 -44 -17 -72 -18 -60
-4 -88 -25 -57 -44 19 -12 19 -14 4 -25 -14 -10 -15 -15 -4 -25 18 -19 15 -46
-10 -74 -31 -36 -48 -33 -39 8 5 18 13 42 19 53 24 45 -17 87 -48 49 -15 -18
-40 -20 -40 -2 0 6 -5 4 -11 -6 -12 -20 -3 -40 14 -31 7 3 4 -1 -6 -9 -13 -11
-15 -16 -5 -20 10 -4 11 -7 1 -18 -9 -9 -13 -9 -13 -1 0 6 -7 9 -15 5 -13 -4
-16 -20 -14 -74 l2 -69 30 0 c27 0 29 -2 25 -30 -4 -27 -2 -30 21 -30 14 0 46
-10 71 -21 25 -11 68 -22 95 -24 28 -1 53 -3 57 -4 4 -1 10 -10 13 -21 3 -11
15 -20 26 -20 12 0 23 -10 29 -26 19 -48 -3 -55 -71 -25 -24 11 -46 18 -48 15
-2 -2 10 -22 27 -43 31 -38 42 -81 23 -81 -6 0 -36 29 -68 65 -51 58 -114 97
-129 82 -3 -2 7 -40 21 -83 14 -43 23 -84 21 -91 -7 -18 -55 -16 -62 2 -9 23
-36 18 -77 -16 -35 -29 -37 -29 -37 -9 0 29 -17 16 -37 -28 -15 -33 -17 -35
-20 -14 -3 13 3 34 11 47 9 13 16 33 16 43 0 11 6 24 13 30 32 27 -1 122 -42
122 -30 0 -143 -60 -138 -73 3 -6 12 -28 20 -48 28 -65 -20 -81 -56 -18 -20
36 -35 34 -58 -7 -15 -25 -15 -40 -5 -119 12 -98 7 -92 71 -82 6 1 12 -2 15
-8 3 -5 -12 -18 -33 -29 l-39 -19 7 -212 c8 -219 4 -248 -31 -213 -11 11 -16
54 -21 169 -3 85 -10 164 -14 177 -5 12 -25 32 -44 43 -23 14 -35 29 -35 42 0
12 -10 37 -23 56 -12 19 -27 43 -33 53 -15 26 -75 66 -122 82 -50 17 -214 40
-246 34 -17 -4 -26 -1 -26 8 0 7 16 16 38 19 20 4 44 9 52 12 38 15 -27 13
-107 -3 -64 -12 -88 -14 -91 -5 -7 21 -61 43 -80 32 -9 -5 -16 -12 -14 -15 1
-3 2 -16 2 -29 0 -37 -41 -29 -62 12 -9 18 -26 43 -37 55 -12 12 -21 33 -21
47 0 13 -9 49 -21 79 -15 41 -19 66 -14 100 7 48 34 102 46 94 4 -2 19 19 34
48 72 145 105 189 105 139 0 -16 6 -21 24 -21 13 0 26 -6 29 -12 3 -9 6 -9 9
2 3 8 11 32 18 53 8 27 9 42 2 49 -7 7 -7 19 -1 35 11 29 6 39 -21 46 -16 4
-21 -1 -26 -21 -7 -34 -26 -70 -39 -73 -23 -4 -29 30 -10 64 17 33 16 67 -3
67 -18 0 -72 -61 -72 -80 0 -27 -24 -35 -59 -20 -23 9 -33 9 -51 -2 -18 -10
-24 -10 -27 0 -6 16 -36 16 -31 0 3 -7 -1 -19 -9 -26 -7 -8 -11 -17 -8 -22 3
-4 -2 -10 -10 -14 -8 -3 -29 -36 -45 -73 -17 -37 -35 -75 -40 -83 -66 -111
-96 -152 -139 -188 l-52 -44 -92 -3 c-51 -1 -118 -6 -150 -10 -54 -7 -61 -11
-92 -53 -19 -25 -35 -51 -35 -58 0 -9 -11 -14 -30 -14 -19 0 -34 -7 -42 -20
-9 -13 -24 -20 -45 -20 -51 0 -121 -35 -129 -65 -3 -14 -9 -25 -13 -25 -15 0
-5 -70 14 -89 l18 -21 22 20 c30 28 46 25 43 -8 -3 -22 1 -27 22 -30 52 -6 70
-13 70 -27 0 -10 -11 -15 -35 -15 -19 0 -35 -2 -35 -5 0 -18 44 -86 66 -104
l27 -21 32 28 c31 28 120 61 132 49 22 -23 -52 -67 -113 -67 -24 0 -34 -5 -34
-15 0 -18 14 -19 40 -3 15 10 22 10 32 0 15 -15 5 -24 -27 -24 -33 0 -32 -11
7 -49 85 -81 208 -140 248 -119 27 14 33 8 32 -30 0 -23 9 -38 45 -70 50 -44
67 -48 102 -24 32 23 46 0 23 -38 -16 -28 -16 -29 21 -66 32 -32 44 -37 84
-37 48 0 70 -18 33 -28 -28 -7 -25 -25 5 -33 14 -3 31 -18 37 -32 7 -14 30
-36 50 -49 l38 -23 15 23 c8 13 17 53 19 88 4 74 19 119 40 119 12 0 13 6 6
31 -7 22 -6 29 3 26 7 -2 13 -13 15 -24 2 -16 11 -20 47 -20 47 0 88 -21 105
-54 16 -28 5 -49 -24 -49 -38 0 -84 -88 -55 -106 11 -7 220 -16 347 -15 82 1
92 -12 27 -35 -22 -7 -45 -20 -50 -28 -6 -8 -30 -22 -53 -31 -37 -15 -40 -19
-31 -37 6 -10 8 -24 6 -31 -2 -7 2 -24 9 -38 12 -23 11 -29 -2 -40 -13 -11
-21 -10 -46 4 -46 27 -58 22 -58 -21 0 -30 8 -48 36 -80 l36 -42 131 1 c73 0
126 3 120 6 -7 2 -13 13 -13 24 0 22 31 25 77 9 26 -9 27 -9 9 5 -11 8 -23 15
-26 15 -4 0 -7 7 -7 15 0 9 5 14 11 11 51 -20 52 -20 35 0 -9 10 -16 26 -16
34 0 8 -4 28 -8 44 l-8 28 43 -28 c33 -22 52 -27 86 -25 26 1 44 -2 44 -8 0
-22 15 -10 30 21 10 23 15 67 15 138 1 58 5 140 9 183 6 53 5 77 -3 77 -6 0
-8 7 -5 15 6 16 34 21 34 6 0 -5 14 -11 30 -15 27 -5 30 -9 24 -31 -5 -22 -3
-25 20 -25 21 0 26 -5 26 -25 0 -37 17 -31 40 15 29 57 70 75 70 29 0 -19 29
-34 42 -21 9 9 -10 62 -22 62 -3 0 -16 9 -29 21 l-22 21 20 22 c12 12 21 32
21 43 0 12 11 35 25 51 33 39 32 52 -5 52 -18 0 -33 6 -36 15 -10 25 19 74 50
85 40 14 44 13 51 -10 8 -26 27 -25 62 3 39 30 64 43 98 51 37 7 52 -2 56 -34
5 -29 38 -37 82 -21 l27 11 -32 30 c-20 19 -39 29 -50 27 -37 -10 -18 33 33
73 55 43 74 46 74 12 1 -24 38 -68 76 -88 24 -12 30 -11 67 14 23 15 59 42 81
60 49 40 47 15 -4 -42 -42 -48 -49 -73 -24 -87 11 -5 24 -7 29 -4 5 3 19 -6
32 -20 16 -18 31 -25 58 -25 25 0 43 -7 59 -24 27 -28 66 -24 96 11 28 32 62
30 78 -5 21 -47 46 -59 132 -66 44 -4 92 -7 106 -7 18 0 29 -6 32 -19 7 -27
48 -43 63 -24 15 19 24 18 24 -3 0 -13 3 -14 12 -5 17 17 26 15 39 -9 9 -17 7
-25 -13 -47 -12 -15 -15 -20 -5 -13 11 8 17 9 17 3 0 -6 -10 -16 -21 -23 -16
-8 -18 -13 -9 -19 9 -6 9 -13 1 -28 -16 -29 -14 -37 6 -21 14 12 16 12 11 -1
-3 -8 -13 -14 -23 -13 -10 1 -29 -3 -43 -8 -20 -8 -30 -5 -49 12 l-23 22 -2
-29 c0 -16 -2 -36 -2 -44 -1 -8 3 -18 8 -22 6 -4 6 -11 0 -20 -5 -7 -9 -44 -8
-83 2 -121 2 -120 29 -123 13 -1 27 3 30 8 3 6 26 10 50 10 24 0 55 4 69 10
35 13 72 -5 85 -41 5 -16 15 -29 20 -29 6 0 11 -7 11 -15 0 -17 35 -55 50 -55
17 0 11 -16 -15 -44 -13 -14 -22 -33 -19 -41 9 -23 51 -19 59 5 4 11 10 18 15
15 5 -3 11 3 13 12 4 17 5 17 6 0 0 -10 5 -15 11 -12 6 3 10 -3 10 -14 0 -12
6 -21 14 -21 11 0 14 40 18 203 5 207 10 235 59 382 12 33 25 83 31 110 6 28
16 71 24 97 8 26 14 53 14 61 0 25 34 45 90 52 30 4 70 14 88 22 18 9 53 16
77 17 25 1 48 5 51 9 4 4 18 7 30 7 13 0 26 5 29 10 5 8 11 7 21 -1 8 -7 14
-7 14 -1 0 5 12 17 26 27 24 16 26 16 31 -4 3 -12 9 -21 13 -21 4 0 10 -12 13
-28 2 -15 14 -65 26 -111 15 -57 20 -97 16 -123 -4 -22 0 -87 9 -146 9 -59 18
-137 22 -175 5 -65 6 -67 34 -67 43 0 55 -60 21 -108 -28 -41 -34 -78 -16
-112 9 -17 19 -30 24 -30 22 0 21 -35 -1 -52 -23 -17 -21 -18 60 -18 l83 0
-36 44 c-22 27 -32 47 -25 51 5 3 10 16 10 29 0 12 15 37 34 55 29 28 37 31
55 22 28 -15 37 -36 45 -102 7 -52 9 -56 29 -51 12 3 25 10 30 16 10 15 48
-30 40 -49 -7 -21 70 -20 87 0 7 8 18 15 25 15 6 0 12 6 13 13 0 6 4 31 8 55
5 32 3 47 -9 60 -18 20 -16 74 3 97 7 8 9 18 6 23 -3 5 -6 42 -7 81 -1 39 -5
74 -9 76 -8 5 -21 62 -25 110 -4 54 35 220 56 235 4 3 26 59 48 125 23 66 43
126 46 133 2 7 4 14 5 17 0 3 6 18 14 34 20 38 28 102 31 261 3 180 9 273 18
287 4 6 3 30 -2 52 -5 22 -5 60 0 84 4 24 9 107 10 183 1 84 7 154 15 176 12
34 28 154 25 186 -3 39 0 59 12 79 4 7 3 22 -3 34 -6 11 -9 28 -6 36 4 9 1 22
-6 30 -9 11 -9 16 3 23 11 8 12 13 2 30 -16 24 -17 44 -3 35 6 -3 10 -2 10 3
0 15 -33 107 -43 120 -6 8 -5 12 4 12 8 0 3 9 -11 20 -26 20 -50 22 -62 5 -5
-6 -8 -4 -8 4 0 7 -11 23 -24 35 -23 20 -35 62 -40 136 -1 20 -6 42 -11 50 -5
9 1 7 13 -4 17 -15 22 -16 22 -5 0 8 -5 20 -11 26 -7 7 -7 13 -1 17 6 3 14 1
17 -4 5 -7 12 -5 21 7 16 22 18 37 3 27 -7 -4 -7 1 1 15 9 18 9 26 -2 38 -12
15 -10 16 15 9 26 -6 27 -5 22 24 -3 17 -1 30 5 30 18 0 10 22 -10 27 -11 3
-17 9 -14 14 3 5 0 9 -5 9 -6 0 -11 19 -11 43 1 39 2 40 13 20 12 -21 14 -22
35 -7 28 19 28 32 0 61 -20 22 -21 24 -4 42 20 22 13 61 -11 61 -9 0 -13 6
-10 15 4 8 2 17 -4 21 -5 3 -7 15 -3 26 5 16 3 20 -9 15 -11 -4 -19 3 -26 24
-6 18 -6 29 0 29 5 0 9 -7 9 -15 0 -8 6 -15 13 -15 6 0 23 -14 36 -31 24 -30
41 -26 40 11 0 10 -3 8 -9 -5 -7 -16 -9 -17 -9 -3 -1 9 -7 19 -13 21 -8 3 -6
6 5 6 28 1 -3 41 -33 42 -16 0 -19 3 -10 6 8 4 20 13 26 21 10 13 14 13 30 -6
23 -28 34 -28 27 -1 -4 12 -17 22 -35 26 -16 3 -38 19 -50 35 l-21 30 24 -2
c37 -3 45 -1 29 10 -11 7 -3 10 29 10 34 0 42 3 37 15 -3 8 0 15 6 15 6 0 2 8
-9 18 -10 9 -19 27 -19 38 0 19 3 20 28 12 32 -11 38 -23 8 -15 -11 3 -23 1
-26 -4 -6 -11 33 -11 61 0 18 7 17 8 -7 14 -19 5 -27 15 -31 39 -2 18 -1 35 4
36 5 2 6 9 3 14 -4 7 -2 8 4 4 19 -11 52 -16 52 -7 0 5 -9 11 -20 14 -40 10
-20 26 28 22 26 -3 41 -2 34 1 -6 3 -10 10 -6 15 5 9 -13 13 -51 10 -13 -1 -8
4 13 13 17 8 32 22 32 30 0 8 3 22 7 32 4 11 2 15 -4 11 -6 -4 -8 3 -5 19 2
13 16 31 31 39 23 12 24 14 6 15 -17 1 -15 4 8 14 15 7 24 15 21 19 -4 4 -3 7
3 7 15 0 22 47 9 60 -8 8 -7 13 4 20 10 7 11 10 3 10 -7 0 -12 6 -10 13 1 6
-5 13 -13 13 -8 1 -21 2 -27 3 -7 0 -13 5 -13 10 0 5 11 8 25 5 22 -4 24 -1
21 26 -2 20 1 30 10 30 7 0 18 8 23 18 8 13 11 14 11 2 2 -29 19 24 19 63 1
20 6 37 12 37 8 0 8 4 -1 15 -6 8 -9 19 -6 24 4 6 -3 15 -14 21 -15 8 -20 8
-20 -2 0 -7 -9 -2 -19 12 -19 24 -19 24 2 35 14 8 26 8 34 2 10 -7 12 -2 9 21
-2 23 0 29 11 25 10 -4 11 -9 3 -18 -7 -9 -6 -16 5 -25 8 -7 12 -17 8 -23 -3
-5 -1 -7 4 -4 6 4 10 33 9 64 -2 33 2 61 8 65 6 4 -5 8 -25 8 -25 0 -36 4 -36
15 0 16 8 19 23 8 5 -5 1 0 -9 9 -18 17 -15 44 4 33 5 -4 9 1 9 9 0 9 -4 16
-10 16 -5 0 -10 5 -10 10 0 6 6 10 14 10 8 0 18 5 21 10 4 6 3 9 -2 8 -12 -4
-83 40 -83 51 0 6 12 6 32 0 41 -11 47 -11 28 1 -13 9 -13 11 0 20 13 8 12 10
-2 10 -21 0 -24 16 -5 23 6 2 -7 6 -30 8 -28 3 -39 1 -33 -5 22 -22 8 -26 -19
-7 -35 25 -35 25 -56 5 -13 -13 -18 -14 -31 -3 -10 8 -11 14 -4 19 6 4 -3 7
-20 7 -16 0 -30 -2 -30 -4 0 -6 38 -41 51 -46 9 -3 5 -6 -8 -6 -15 -1 -20 -6
-18 -18 2 -10 4 -21 4 -25 1 -5 17 -8 36 -8 24 0 35 -5 35 -14 0 -8 10 -18 21
-21 16 -5 18 -9 9 -15 -18 -11 -81 -10 -74 1 3 5 0 9 -6 9 -16 0 -30 -43 -16
-52 7 -5 6 -8 -5 -8 -8 0 -20 5 -27 12 -6 6 -15 8 -19 4 -4 -4 0 -12 10 -17
24 -14 22 -33 -2 -19 -11 5 -28 10 -39 10 -21 0 -47 46 -32 55 6 4 10 22 10
41 0 25 -4 34 -17 34 -14 0 -13 3 5 16 12 8 22 21 22 29 0 7 5 15 12 17 16 6
14 68 -3 79 -8 5 -24 9 -37 9 -13 0 -36 7 -53 15 -31 17 -134 11 -123 -6 3 -6
-12 -7 -34 -3 -23 4 -48 1 -61 -6 -18 -9 -29 -8 -62 10 -22 11 -38 16 -34 10z
m24 -104 c7 -30 27 -75 46 -102 40 -55 36 -63 -32 -83 -40 -11 -46 -10 -79 13
l-36 24 41 -5 c43 -6 53 5 26 27 -9 8 -13 21 -9 35 4 18 1 25 -16 30 -18 6
-20 12 -15 33 4 15 10 29 14 32 5 3 11 15 15 28 12 38 32 25 45 -32z m506 -56
c3 -5 -3 -10 -14 -10 -12 0 -21 5 -21 10 0 6 6 10 14 10 8 0 18 -4 21 -10z
m-678 -17 c-8 -7 38 -33 59 -33 8 0 14 -4 14 -10 0 -5 -5 -10 -11 -10 -6 0 -9
-7 -5 -15 4 -12 -4 -15 -40 -15 -28 0 -43 4 -39 10 4 6 11 8 16 5 5 -4 9 -1 9
4 0 14 -6 14 -33 0 -12 -7 -19 -8 -15 -4 4 5 3 14 -3 22 -9 10 -7 13 6 13 15
0 16 2 4 17 -8 10 -9 14 -2 10 6 -4 14 -3 18 3 3 5 11 10 17 10 6 0 8 -3 5 -7z
m-77 -10 c-8 -3 -17 -9 -20 -14 -7 -10 -121 -19 -114 -8 3 5 22 9 42 9 20 0
44 5 52 10 8 5 24 9 35 9 14 0 16 -2 5 -6z m815 -11 c-3 -3 -11 0 -18 7 -9 10
-8 11 6 5 10 -3 15 -9 12 -12z m-1188 -8 c-3 -3 -12 -4 -19 -1 -8 3 -5 6 6 6
11 1 17 -2 13 -5z m232 -31 c7 -7 7 -13 2 -13 -5 0 -18 -3 -28 -6 -15 -5 -15
-4 -3 5 12 9 10 11 -13 11 -16 0 -26 3 -24 8 8 12 53 8 66 -5z m98 11 c-3 -3
-12 -4 -19 -1 -8 3 -5 6 6 6 11 1 17 -2 13 -5z m-37 -24 c13 -8 13 -10 -2 -10
-9 0 -20 5 -23 10 -8 13 5 13 25 0z m-280 -26 c-1 -4 3 -10 9 -14 8 -4 6 -12
-6 -23 -13 -11 -23 -13 -33 -6 -13 8 -12 9 2 7 9 -2 16 2 15 7 -1 6 -6 9 -10
7 -5 -1 -7 1 -4 5 2 5 7 17 12 28 6 18 20 8 15 -11z m156 -9 c16 -8 22 -15 14
-15 -8 1 -24 7 -34 15 -25 19 -16 19 20 0z m289 -26 c4 -6 13 -8 19 -6 7 3 19
1 27 -3 10 -7 7 -9 -11 -8 -25 2 -75 28 -53 28 7 0 15 -5 18 -11z m-228 -5
c-3 -3 -12 -4 -19 -1 -8 3 -5 6 6 6 11 1 17 -2 13 -5z m-178 -16 c-8 -7 -23
-22 -33 -33 -12 -11 -14 -13 -7 -2 12 15 11 17 -5 17 -16 0 -14 3 6 14 14 8
31 14 39 15 13 1 13 -1 0 -11z m81 -14 c0 -6 -59 -34 -72 -34 -7 0 -1 8 15 18
15 10 24 21 21 25 -3 3 3 3 15 0 12 -3 21 -7 21 -9z m45 6 c-3 -5 -12 -10 -18
-10 -7 0 -6 4 3 10 19 12 23 12 15 0z m60 -11 c-1 -12 -12 -27 -26 -35 -28
-16 -42 -18 -35 -5 4 5 0 12 -6 14 -7 3 -5 6 6 6 11 1 16 4 12 8 -3 4 4 13 16
20 31 17 35 16 33 -8z m-317 -26 c-14 -17 -32 -17 -21 0 4 6 8 15 9 20 1 4 2
10 3 15 1 4 5 0 11 -8 5 -9 5 -19 -2 -27z m499 14 c3 -4 11 -2 18 3 8 6 24 3
50 -10 39 -20 39 -24 -2 -21 -11 1 -24 -3 -28 -8 -3 -6 -15 -11 -26 -11 -12 0
-17 -4 -13 -11 4 -7 0 -9 -12 -6 -11 3 -35 9 -54 13 -30 6 -32 8 -15 15 18 7
18 8 2 8 -10 1 -15 6 -12 11 3 6 0 10 -7 10 -9 0 -9 3 2 10 16 10 86 8 97 -3z
m878 -7 c3 -6 -1 -7 -9 -4 -18 7 -21 14 -7 14 6 0 13 -4 16 -10z m-235 -10 c0
-5 -8 -10 -17 -10 -15 0 -16 2 -3 10 19 12 20 12 20 0z m101 -7 c13 -16 12
-17 -3 -4 -10 7 -18 15 -18 17 0 8 8 3 21 -13z m60 0 c13 -16 12 -17 -3 -4
-10 7 -18 15 -18 17 0 8 8 3 21 -13z m-997 -54 c-3 -5 0 -9 6 -9 6 0 8 -5 4
-11 -4 -8 -9 -7 -15 2 -4 7 -5 17 -2 23 4 5 -1 7 -10 3 -17 -6 -24 13 -10 27
9 9 34 -24 27 -35z m-209 -11 c6 -3 24 -4 42 -3 25 2 31 0 26 -14 -3 -12 -1
-11 11 3 12 15 19 17 28 8 13 -13 16 -67 4 -97 -6 -17 -6 -18 4 -3 6 9 17 15
24 12 18 -7 9 -44 -11 -44 -8 0 -13 -8 -11 -17 2 -12 -3 -17 -14 -15 -10 2
-27 -2 -37 -8 -16 -8 -23 -6 -35 12 -12 16 -13 25 -4 35 15 18 2 29 -17 13
-12 -10 -15 -10 -16 1 0 11 -2 11 -6 1 -2 -7 -14 -17 -26 -24 -13 -6 -7 4 16
26 35 35 51 59 25 39 -7 -6 -21 -13 -31 -16 -16 -6 -16 -5 -1 18 16 24 15 25
-1 18 -13 -4 -16 -3 -11 5 12 20 0 13 -20 -10 -15 -19 -16 -20 -1 -9 24 19 21
8 -5 -15 -12 -10 -18 -13 -14 -6 5 8 0 12 -14 12 -15 0 -20 5 -17 15 5 11 1
12 -21 5 l-27 -10 24 20 c13 11 28 20 35 20 6 0 22 9 34 18 23 18 47 22 67 10z
m1200 -45 c10 -14 12 -23 7 -19 -6 3 -13 2 -17 -4 -3 -5 1 -10 9 -10 9 0 16
-4 16 -10 0 -5 -6 -7 -14 -4 -23 9 -30 -16 -10 -33 11 -8 2 -6 -18 6 -41 22
-44 21 -27 -12 12 -22 12 -22 -10 -3 -11 11 -21 14 -21 9 0 -6 7 -16 15 -23 8
-7 13 -15 11 -19 -6 -9 16 -37 34 -44 12 -4 12 -6 -2 -6 -9 -1 -20 4 -23 9 -3
6 -11 10 -16 10 -6 0 -7 -6 -3 -12 5 -9 2 -8 -10 1 -11 9 -13 17 -6 21 7 4 4
15 -10 32 -11 15 -20 33 -20 41 0 7 -9 22 -20 32 -28 25 -4 40 28 19 23 -15
23 -15 12 6 -14 25 -5 37 30 42 35 5 46 0 65 -29z m-951 -19 c-1 -22 2 -37 11
-40 7 -3 12 -13 11 -22 -2 -9 -6 -16 -9 -14 -4 1 -12 2 -18 2 -8 0 -8 5 1 15
11 13 8 14 -16 11 -16 -2 -23 -1 -16 1 15 5 16 23 2 23 -6 0 -10 8 -8 18 2 12
-3 16 -20 15 -19 -3 -21 -1 -10 12 7 8 27 14 44 15 30 0 31 -2 28 -36z m-101
-9 c-7 -21 -13 -19 -13 6 0 11 4 18 10 14 5 -3 7 -12 3 -20z m-283 -14 c0 -5
-7 -12 -16 -15 -14 -5 -15 -4 -4 9 14 17 20 19 20 6z m1208 -36 c-3 -3 -9 2
-12 12 -6 14 -5 15 5 6 7 -7 10 -15 7 -18z m-1138 1 c0 -2 -8 -10 -17 -17 -16
-13 -17 -12 -4 4 13 16 21 21 21 13z m328 -57 c-16 -12 -25 -26 -21 -34 3 -8
1 -15 -5 -15 -6 0 -9 7 -8 15 3 18 36 55 50 55 6 0 -1 -10 -16 -21z m-167 -29
c-13 -11 -31 -20 -40 -19 -13 0 -14 2 -1 6 8 3 19 12 23 19 4 8 16 14 25 14
14 -1 13 -4 -7 -20z m1064 -38 c-3 -3 -11 0 -18 7 -9 10 -8 11 6 5 10 -3 15
-9 12 -12z m-1071 2 c20 -8 20 -20 0 -28 -9 -4 -13 -2 -8 5 4 6 0 15 -7 20
-16 10 -8 12 15 3z m-274 -73 c0 -6 -4 -12 -8 -15 -5 -3 -9 1 -9 9 0 8 4 15 9
15 4 0 8 -4 8 -9z m-22 -44 c9 3 4 -4 -13 -15 -34 -22 -41 -21 -29 5 4 10 9
23 10 28 5 27 7 28 11 3 3 -20 9 -25 21 -21z m212 -1 c0 -10 -33 -36 -46 -36
-21 0 -17 16 9 28 24 12 37 14 37 8z m-100 -11 c0 -2 -10 -10 -22 -16 -21 -11
-22 -11 -9 4 13 16 31 23 31 12z m1166 -37 c4 4 4 2 1 -4 -3 -6 -20 -9 -36 -6
-17 2 -28 8 -26 13 3 4 16 4 29 -1 13 -5 27 -6 32 -2z m-919 -38 c-14 -11 -29
-20 -34 -20 -10 1 39 39 51 40 5 0 -3 -9 -17 -20z m669 2 c-3 -2 15 -23 39
-46 30 -29 41 -46 35 -55 -4 -8 -13 -10 -19 -7 -6 4 -11 2 -11 -5 0 -7 10 -9
25 -7 13 3 22 2 20 -2 -3 -4 2 -13 10 -20 8 -7 15 -17 15 -22 0 -6 -6 -5 -15
2 -8 6 -20 10 -27 7 -7 -2 -29 4 -49 14 -20 10 -39 15 -43 12 -3 -3 -12 0 -21
7 -8 7 -15 8 -15 2 0 -9 43 -42 56 -42 3 0 0 8 -7 18 -13 16 -13 16 7 0 11
-10 32 -19 46 -20 13 -1 25 -7 25 -13 0 -8 -21 -6 -66 6 -36 10 -68 16 -71 14
-12 -7 -9 40 3 47 9 6 8 10 -3 17 -8 6 -12 13 -8 16 3 4 16 -4 29 -17 l23 -23
-17 27 c-20 32 -22 42 -6 32 8 -5 10 3 7 24 -2 17 -1 29 4 26 4 -3 8 2 8 10 0
10 6 13 15 9 9 -3 14 -8 11 -11z m-433 -45 c3 -46 -7 -65 -16 -29 -3 9 -4 5
-4 -10 1 -15 4 -25 8 -22 4 2 10 0 14 -6 3 -5 2 -10 -4 -10 -17 0 0 -30 18
-31 10 0 11 -2 4 -6 -7 -2 -13 -10 -13 -17 0 -7 -9 -21 -20 -31 -10 -9 -24
-34 -31 -54 -6 -20 -16 -40 -21 -46 -6 -6 -7 -4 -3 7 6 16 4 17 -26 6 -19 -6
-39 -19 -46 -27 -10 -14 -11 -13 -6 7 3 12 20 32 37 44 22 16 27 17 17 5 -9
-11 -10 -17 -2 -17 10 0 15 13 13 32 -1 3 5 12 13 18 8 7 15 19 15 26 0 8 5
14 10 14 6 0 10 12 10 26 0 16 4 23 11 18 7 -4 10 -1 7 6 -6 18 -28 25 -28 9
0 -20 -51 -89 -66 -89 -7 0 -18 -8 -23 -17 -6 -10 -11 -15 -11 -12 0 8 38 81
56 107 15 21 15 22 0 16 -9 -3 -14 -9 -13 -13 6 -10 -30 -40 -39 -33 -4 4 -4
2 -1 -4 9 -15 -19 -39 -28 -24 -3 5 -1 10 4 10 6 0 11 5 11 11 0 6 -8 8 -19 4
-11 -3 -22 -1 -26 5 -3 5 1 10 9 10 8 0 22 7 31 16 8 9 22 13 30 10 8 -3 14
-2 12 2 -1 4 4 14 11 22 7 8 20 24 28 35 13 16 15 17 10 3 -3 -10 -1 -18 5
-18 6 0 7 -5 3 -12 -5 -7 -3 -8 5 -4 7 5 10 14 8 20 -3 7 4 18 14 24 12 8 19
24 19 44 0 46 9 30 13 -25z m76 26 c-5 -14 -8 -32 -5 -38 2 -7 0 -18 -5 -26
-8 -11 -9 -10 -7 5 2 10 -3 21 -9 23 -9 3 -13 -6 -13 -29 0 -18 -5 -40 -10
-48 -7 -11 -8 -6 -4 18 4 21 3 32 -5 32 -16 0 -14 16 4 34 14 13 13 16 -2 25
-10 6 -13 11 -7 11 5 0 15 -5 22 -12 10 -10 16 -7 28 10 20 30 26 28 13 -5z
m451 -1 c0 -9 7 -30 15 -46 11 -20 12 -33 5 -40 -7 -7 -10 -5 -10 7 0 9 -4 17
-9 17 -9 0 -41 55 -41 69 0 3 9 -5 20 -19 l20 -25 -10 33 c-5 20 -5 30 1 27 5
-4 9 -14 9 -23z m-980 14 c0 -3 -4 -8 -10 -11 -5 -3 -10 -1 -10 4 0 6 5 11 10
11 6 0 10 -2 10 -4z m50 0 c0 -2 -7 -7 -16 -10 -8 -3 -12 -2 -9 4 6 10 25 14
25 6z m95 -32 c-13 -14 -14 -19 -3 -25 10 -7 9 -9 -4 -9 -22 0 -22 5 -1 41 10
17 19 25 21 19 2 -5 -4 -17 -13 -26z m257 22 c6 4 9 1 6 -6 -2 -8 -11 -17 -19
-21 -8 -3 -33 -16 -56 -28 -45 -23 -47 -23 -37 4 5 13 8 14 15 3 7 -10 9 -9 9
3 0 9 7 22 16 30 13 10 17 10 24 0 6 -10 10 -7 15 10 5 13 10 18 12 11 3 -6 9
-9 15 -6z m-111 -19 c-10 -9 -11 -8 -5 6 3 10 9 15 12 12 3 -3 0 -11 -7 -18z
m-184 7 c-3 -3 -12 -4 -19 -1 -8 3 -5 6 6 6 11 1 17 -2 13 -5z m-83 -16 c-2
-3 -13 -6 -24 -5 -24 2 -18 13 9 13 11 0 18 -4 15 -8z m741 -7 c4 -12 12 -18
21 -14 7 3 14 0 14 -7 0 -6 -5 -8 -11 -4 -9 5 -10 -1 -5 -22 9 -36 4 -30 -22
24 -11 23 -16 42 -12 42 5 0 11 -9 15 -19z m295 -6 c5 3 12 0 16 -6 5 -9 0
-10 -17 -6 -13 4 -33 7 -44 8 -16 1 -15 2 5 8 14 4 27 4 28 -1 2 -4 8 -6 12
-3z m-801 1 c-2 -2 -15 -9 -29 -15 -24 -11 -24 -11 -6 3 16 13 49 24 35 12z
m331 -39 c0 -5 -4 -5 -10 -2 -5 3 -10 14 -10 23 0 15 2 15 10 2 5 -8 10 -19
10 -23z m-251 -8 c-15 -15 -24 -18 -32 -10 -7 7 -3 13 14 20 37 15 41 13 18
-10z m208 -11 c-3 -7 -5 -2 -5 12 0 14 2 19 5 13 2 -7 2 -19 0 -25z m-305 -29
c-20 -18 -42 -25 -42 -14 0 3 12 17 28 30 31 27 44 13 14 -16z m318 -29 c0 -5
-2 -10 -4 -10 -3 0 -8 5 -11 10 -3 6 -1 10 4 10 6 0 11 -4 11 -10z m295 -30
c4 0 3 5 0 10 -3 6 -2 10 4 10 14 0 21 -14 13 -25 -14 -19 -50 -14 -73 11
l-23 25 37 -16 c20 -8 39 -15 42 -15z m-85 -5 c7 -9 8 -15 2 -15 -5 0 -12 7
-16 15 -3 8 -4 15 -2 15 2 0 9 -7 16 -15z m188 -20 c1 -1 -11 -2 -27 -1 -19 1
-32 7 -34 18 -5 16 -3 16 27 1 17 -8 32 -17 34 -18z m-476 -47 c-8 -8 -9 -4
-5 13 4 13 8 18 11 10 2 -7 -1 -18 -6 -23z m-257 -8 c-10 -11 -22 -20 -26 -20
-5 0 2 10 14 23 27 28 38 25 12 -3z m429 -35 l6 -50 -14 35 c-17 40 -21 89 -7
75 5 -6 12 -32 15 -60z m-139 35 c-2 -23 -25 -52 -25 -31 0 12 18 51 24 51 1
0 2 -9 1 -20z m65 -45 c-6 -49 -3 -71 16 -123 12 -34 19 -60 15 -57 -19 11
-52 135 -46 172 16 91 26 96 15 8z m-290 51 c0 -3 -4 -8 -10 -11 -5 -3 -10 -1
-10 4 0 6 5 11 10 11 6 0 10 -2 10 -4z m471 -38 c16 -29 2 -21 -22 15 -17 23
-18 28 -6 18 10 -8 23 -23 28 -33z m122 17 c21 -30 12 -32 -26 -6 -20 13 -25
20 -15 24 21 8 22 8 41 -18z m-65 -6 c18 -29 11 -30 -15 -2 -12 13 -17 23 -10
23 7 0 18 -9 25 -21z m-348 -9 c-6 -11 -12 -20 -13 -20 -2 0 -3 9 -3 20 0 11
6 20 13 20 11 0 11 -5 3 -20z m260 -50 c4 -3 24 -24 45 -48 l39 -43 -37 21
c-20 12 -37 26 -37 32 0 5 -4 6 -10 3 -6 -4 -7 1 -3 11 5 13 3 15 -7 9 -8 -5
-11 -4 -7 2 4 6 -2 21 -13 33 -11 13 -20 27 -20 33 0 5 10 -3 22 -19 12 -16
25 -31 28 -34z m-182 20 c-8 -12 -15 -15 -19 -8 -4 6 -15 -5 -26 -27 -14 -26
-22 -34 -28 -26 -4 7 -3 17 3 23 6 6 8 16 6 23 -3 7 -1 16 5 20 6 3 11 1 11
-6 0 -8 4 -8 15 1 8 7 15 9 15 4 0 -4 5 -3 12 4 18 18 20 15 6 -8z m-451 -20
c-14 -11 -29 -20 -34 -20 -11 1 37 40 49 40 6 0 -1 -9 -15 -20z m-172 0 c-3
-5 -12 -10 -18 -10 -7 0 -6 4 3 10 19 12 23 12 15 0z m512 -28 c16 -16 16 -22
2 -42 -9 -12 -10 -12 -5 3 8 24 -19 51 -41 43 -14 -6 -14 -3 2 14 14 16 21 18
24 8 2 -7 10 -19 18 -26z m387 -21 c-3 -3 -15 6 -27 18 l-22 24 27 -19 c14
-10 24 -21 22 -23z m-612 7 c-7 -7 -20 -13 -29 -14 -14 -2 -12 2 7 16 26 20
42 18 22 -2z m55 -5 c0 -15 -5 -36 -13 -47 -8 -11 -14 -30 -14 -41 0 -11 -9
-26 -21 -33 -12 -8 -18 -19 -15 -27 3 -8 0 -14 -6 -12 -6 1 -13 -4 -16 -12 -2
-8 0 -11 6 -7 6 3 3 -12 -5 -34 -9 -22 -18 -39 -19 -37 -2 2 1 32 8 67 11 68
39 124 65 134 11 5 12 10 4 19 -8 10 -6 19 5 35 19 27 19 28 21 -5z m27 -45
c-3 -5 -11 -8 -17 -7 -7 0 -8 2 -2 5 6 2 10 21 8 42 l-2 37 9 -35 c4 -19 6
-38 4 -42z m43 40 c-3 -8 -6 -5 -6 6 -1 11 2 17 5 13 3 -3 4 -12 1 -19z m78
-8 c3 -6 -1 -7 -9 -4 -18 7 -21 14 -7 14 6 0 13 -4 16 -10z m-210 -40 c-4 -11
-17 -32 -30 -46 -21 -23 -23 -23 -18 -5 3 12 9 21 14 21 5 0 9 6 9 13 0 12 19
37 28 37 2 0 0 -9 -3 -20z m673 -26 c-3 -27 -4 -26 -9 8 -3 22 -1 34 4 29 5
-5 7 -21 5 -37z m-542 -19 c1 -8 -3 -13 -9 -12 -7 1 -11 -7 -9 -18 2 -19 2
-19 -9 -1 -9 14 -8 20 1 26 8 5 10 15 6 26 -6 15 -5 16 5 7 7 -7 14 -19 15
-28z m75 2 c-6 -6 -11 -19 -11 -30 0 -10 -4 -16 -10 -12 -5 3 -2 19 8 39 9 19
19 30 21 24 2 -5 -2 -15 -8 -21z m69 -19 c0 -16 -4 -28 -10 -28 -5 0 -10 19
-10 43 0 31 3 38 10 27 5 -8 10 -27 10 -42z m224 36 c3 -8 2 -12 -4 -9 -6 3
-10 10 -10 16 0 14 7 11 14 -7z m-330 -69 c13 -31 14 -37 3 -25 -8 8 -18 28
-22 45 -9 38 -2 31 19 -20z m175 14 c1 8 3 12 6 9 3 -3 3 -13 -1 -22 -9 -23
-24 -9 -23 22 l1 27 8 -25 c4 -14 8 -19 9 -11z m422 14 c13 -16 12 -17 -3 -4
-10 7 -18 15 -18 17 0 8 8 3 21 -13z m-677 -18 c-4 -8 -8 -15 -10 -15 -2 0 -4
7 -4 15 0 8 4 15 10 15 5 0 7 -7 4 -15z m436 -68 c-5 -13 -9 -16 -10 -7 0 8
-3 33 -6 55 l-4 40 14 -33 c11 -22 12 -39 6 -55z m-570 63 c0 -5 -4 -10 -9
-10 -6 0 -13 5 -16 10 -3 6 1 10 9 10 9 0 16 -4 16 -10z m437 -12 c-3 -8 -6
-5 -6 6 -1 11 2 17 5 13 3 -3 4 -12 1 -19z m-807 7 c0 -1 -9 -10 -20 -20 -20
-18 -21 -18 -15 1 5 13 2 12 -8 -5 -13 -21 -15 -22 -21 -5 -4 9 -2 21 5 24 10
7 59 11 59 5z m175 -15 c3 -5 -1 -10 -10 -10 -9 0 -13 5 -10 10 3 6 8 10 10
10 2 0 7 -4 10 -10z m658 -5 c-3 -9 -8 -14 -10 -11 -3 3 -2 9 2 15 9 16 15 13
8 -4z m290 -15 c-7 -28 -13 -25 -13 6 0 14 4 23 9 20 5 -3 7 -15 4 -26z m-801
-18 c-21 -29 -62 -67 -49 -45 4 6 4 13 0 16 -5 2 -2 2 5 1 7 -2 22 12 34 31
13 18 24 32 26 30 3 -2 -5 -17 -16 -33z m44 18 c0 -12 -4 -16 -9 -11 -5 5 -6
14 -3 20 10 15 12 14 12 -9z m617 -48 c4 -38 3 -42 -9 -30 -10 9 -12 25 -8 46
8 41 11 38 17 -16z m-166 16 c-3 -8 -6 -5 -6 6 -1 11 2 17 5 13 3 -3 4 -12 1
-19z m-587 8 c0 -2 -12 -12 -27 -21 l-28 -18 19 21 c17 20 36 29 36 18z m615
-74 l-7 -27 -9 24 c-6 14 -7 39 -3 55 l7 31 9 -28 c6 -15 7 -40 3 -55z m-723
-1 c-25 -25 -50 -32 -37 -10 4 5 -2 9 -12 10 -14 0 -15 2 -3 6 8 3 19 12 23
20 5 7 13 11 18 7 5 -3 9 -2 8 3 -4 22 3 26 16 9 13 -17 12 -22 -13 -45z
m1083 39 c3 -5 1 -10 -4 -10 -6 0 -11 5 -11 10 0 6 2 10 4 10 3 0 8 -4 11 -10z
m-497 -25 c-3 -3 -9 2 -12 12 -6 14 -5 15 5 6 7 -7 10 -15 7 -18z m-509 -17
c-13 -10 -34 -23 -46 -28 -13 -5 -23 -16 -23 -25 0 -20 12 -19 44 6 33 26 34
14 2 -16 -13 -12 -27 -32 -31 -44 -5 -18 -10 -20 -21 -10 -7 6 -20 9 -28 6
-10 -4 -13 -1 -9 9 3 7 9 14 14 14 5 0 8 3 7 8 -1 4 4 20 10 35 7 16 12 32 12
36 0 5 9 11 19 14 15 3 18 1 14 -12 -2 -9 5 -4 17 12 12 15 26 24 32 21 7 -4
1 -14 -13 -26z m439 -3 c-3 -3 -9 2 -12 12 -6 14 -5 15 5 6 7 -7 10 -15 7 -18z
m521 -35 c1 -13 0 -13 -9 0 -5 8 -9 24 -9 35 l0 20 9 -20 c5 -11 9 -27 9 -35z
m77 -6 c-3 -9 -10 -12 -16 -9 -5 3 -10 1 -10 -4 0 -20 -18 -11 -23 10 -4 16
-3 19 5 11 17 -17 39 -2 33 22 -5 19 -5 19 5 3 7 -10 9 -25 6 -33z m-839 -6
c-3 -8 -6 -5 -6 6 -1 11 2 17 5 13 3 -3 4 -12 1 -19z m703 2 c0 -4 -6 -10 -14
-13 -10 -4 -12 0 -9 14 5 18 23 18 23 -1z m-821 -45 c-11 -19 -18 -38 -16 -42
3 -4 -6 -16 -19 -26 -26 -19 -32 -17 -11 5 8 7 17 27 20 43 6 27 5 28 -5 8
-11 -23 -28 -31 -28 -14 0 11 58 61 70 61 5 0 0 -16 -11 -35z m111 9 c0 -8 -5
-14 -11 -14 -5 0 -7 5 -4 10 3 6 1 10 -5 10 -6 0 -15 -10 -20 -22 -5 -13 -9
-17 -9 -9 -1 19 29 52 40 45 5 -3 9 -12 9 -20z m574 11 c3 -8 1 -15 -3 -15 -5
0 -11 7 -15 15 -3 8 -1 15 3 15 5 0 11 -7 15 -15z m-530 -29 c-3 -9 -10 -16
-15 -16 -6 0 -5 9 1 21 13 24 24 20 14 -5z m-4 -66 c0 -5 -6 -10 -14 -10 -8 0
-22 -7 -30 -16 -21 -21 -21 -6 1 18 17 19 43 24 43 8z m-255 -10 c-3 -5 -11
-10 -16 -10 -6 0 -7 5 -4 10 3 6 11 10 16 10 6 0 7 -4 4 -10z m120 -10 c-3 -5
-11 -10 -16 -10 -6 0 -7 5 -4 10 3 6 11 10 16 10 6 0 7 -4 4 -10z m-162 -6
c12 -4 10 -10 -10 -30 -28 -28 -33 -29 -33 -9 0 8 5 15 10 15 6 0 9 3 9 8 -4
22 1 25 24 16z m361 -3 c3 -5 -1 -11 -9 -14 -9 -4 -12 -1 -8 9 6 16 10 17 17
5z m-67 -33 c-3 -7 -5 -2 -5 12 0 14 2 19 5 13 2 -7 2 -19 0 -25z m-353 -41
c-3 -8 -11 -14 -19 -14 -11 0 -12 4 -4 14 6 7 15 13 20 13 5 0 6 -6 3 -13z
m97 -10 c-10 -9 -11 -8 -5 6 3 10 9 15 12 12 3 -3 0 -11 -7 -18z m-18 -37 c-3
-12 -8 -19 -11 -16 -5 6 5 36 12 36 2 0 2 -9 -1 -20z m225 -82 c-14 -26 -30
-39 -37 -32 -4 4 38 54 46 54 2 0 -2 -10 -9 -22z m-263 -7 c-3 -6 -11 -11 -16
-11 -5 0 -4 6 3 14 14 16 24 13 13 -3z m-52 -16 c-3 -9 -8 -14 -10 -11 -3 3
-2 9 2 15 9 16 15 13 8 -4z m220 -24 c-8 -35 -10 -36 -23 -12 -8 15 -8 21 0
21 6 0 9 4 6 8 -3 5 1 9 9 9 11 0 13 -8 8 -26z m21 -49 c-4 -15 -9 -31 -10
-37 -1 -5 -3 -14 -4 -20 -1 -5 -6 3 -11 20 -6 21 -5 33 6 45 8 9 16 25 16 36
1 18 2 18 6 1 3 -10 1 -31 -3 -45z m79 25 c-4 -19 -8 -25 -13 -16 -5 7 -3 20
3 30 15 23 16 20 10 -14z m-42 -4 c-12 -20 -14 -14 -5 12 4 9 9 14 11 11 3 -2
0 -13 -6 -23z m-321 -2 c0 -5 -6 -23 -14 -41 -10 -24 -15 -28 -19 -16 -3 8 -2
18 4 22 5 3 7 14 4 25 -4 13 -2 19 9 19 9 0 16 -4 16 -9z m234 -16 c-3 -14 -2
-25 4 -25 5 0 8 -18 7 -40 -2 -36 1 -42 29 -55 17 -8 45 -14 63 -13 39 1 66
-18 58 -42 -4 -13 1 -19 20 -24 18 -5 25 -13 25 -32 0 -21 -10 -30 -68 -56
-65 -29 -69 -33 -81 -77 -17 -62 -39 -111 -50 -111 -14 0 -24 59 -13 73 5 7
12 28 14 47 3 19 8 43 13 53 6 15 4 18 -11 15 -13 -2 -20 4 -22 20 -2 12 -8
22 -14 22 -6 0 -4 8 5 18 22 24 21 42 -1 42 -15 0 -19 9 -21 51 -1 34 2 49 8
44 7 -4 11 3 11 17 0 18 -2 20 -10 8 -8 -12 -10 -12 -10 -1 0 8 8 20 18 27 9
7 12 14 5 14 -8 0 -8 6 0 25 15 32 29 32 21 0z m-91 -25 c-3 -11 -10 -23 -16
-27 -7 -4 -8 0 -4 11 4 10 7 24 7 32 0 9 4 13 9 10 5 -3 7 -15 4 -26z m18 -17
c-12 -20 -14 -14 -5 12 4 9 9 14 11 11 3 -2 0 -13 -6 -23z m926 -25 c-3 -7 -5
-2 -5 12 0 14 2 19 5 13 2 -7 2 -19 0 -25z m-740 -30 c-3 -7 -5 -2 -5 12 0 14
2 19 5 13 2 -7 2 -19 0 -25z m-207 -38 c-6 -12 -9 -27 -7 -34 3 -7 1 -19 -5
-27 -8 -11 -9 -11 -5 3 3 9 2 18 -3 20 -5 2 -2 18 7 36 9 18 18 31 20 28 3 -2
-1 -14 -7 -26z m-140 -15 c-6 -15 -13 -26 -16 -23 -2 3 0 18 6 33 6 15 13 26
16 23 2 -3 0 -18 -6 -33z m1130 25 c0 -5 -4 -10 -10 -10 -5 0 -10 5 -10 10 0
6 5 10 10 10 6 0 10 -4 10 -10z m-1090 -21 c0 -5 -7 -9 -15 -9 -9 0 -12 6 -9
15 6 15 24 11 24 -6z m129 -20 c-20 -12 -22 -4 -8 23 12 21 13 21 17 4 2 -10
-2 -22 -9 -27z m872 16 c5 4 9 -2 9 -12 0 -10 6 -27 13 -38 20 -30 29 -57 15
-49 -8 5 -9 -1 -4 -21 6 -25 5 -27 -8 -16 -17 15 -21 37 -7 43 5 2 5 13 0 27
-8 19 -12 21 -24 11 -12 -10 -15 -9 -16 6 0 11 -2 33 -4 49 -3 24 -2 27 6 12
6 -9 14 -15 20 -12z m-1161 5 c0 -5 -5 -10 -11 -10 -5 0 -7 5 -4 10 3 6 8 10
11 10 2 0 4 -4 4 -10z m80 -26 c0 -2 -7 -4 -15 -4 -8 0 -15 4 -15 10 0 5 7 7
15 4 8 -4 15 -8 15 -10z m-270 2 c0 -3 -4 -8 -10 -11 -5 -3 -10 -1 -10 4 0 6
5 11 10 11 6 0 10 -2 10 -4z m291 -49 c-10 -9 -11 -8 -5 6 3 10 9 15 12 12 3
-3 0 -11 -7 -18z m1173 7 c3 -8 2 -12 -4 -9 -6 3 -10 10 -10 16 0 14 7 11 14
-7z m-961 -14 c-3 -12 -8 -19 -11 -16 -5 6 5 36 12 36 2 0 2 -9 -1 -20z m937
-15 c4 2 16 -5 26 -18 16 -18 16 -19 2 -8 -14 10 -18 11 -18 1 0 -10 -3 -10
-15 0 -8 7 -15 20 -14 29 0 10 2 12 6 3 2 -6 8 -10 13 -7z m86 -30 c11 -27 -2
-37 -14 -11 -7 16 -8 26 -1 26 5 0 12 -7 15 -15z m-1621 -75 c-16 -16 -31 -27
-34 -24 -5 5 48 54 58 54 3 0 -8 -13 -24 -30z m1578 -40 c3 -11 1 -18 -4 -14
-5 3 -9 12 -9 20 0 20 7 17 13 -6z m54 -26 c26 -40 13 -46 -15 -6 -31 44 -34
52 -20 46 7 -3 23 -21 35 -40z m-1747 -44 c0 -5 -2 -10 -4 -10 -3 0 -8 5 -11
10 -3 6 -1 10 4 10 6 0 11 -4 11 -10z m110 -25 c0 -8 -7 -15 -16 -15 -14 0
-14 3 -4 15 7 8 14 15 16 15 2 0 4 -7 4 -15z m436 -31 c-6 -16 -26 -19 -26 -3
0 5 5 7 10 4 6 -4 11 6 11 22 1 18 3 22 6 10 3 -10 2 -25 -1 -33z m1134 -25
c0 -3 -7 -6 -15 -6 -8 0 -12 3 -10 7 2 4 -2 16 -10 26 -25 33 -16 41 10 9 14
-16 25 -33 25 -36z m40 26 c0 -8 -2 -15 -4 -15 -2 0 -6 7 -10 15 -3 8 -1 15 4
15 6 0 10 -7 10 -15z m-1660 -9 c0 -3 -4 -8 -10 -11 -5 -3 -10 -1 -10 4 0 6 5
11 10 11 6 0 10 -2 10 -4z m535 -49 c-4 -20 -13 -38 -20 -41 -11 -4 -11 3 1
36 7 22 11 45 7 52 -4 8 -3 8 6 0 8 -7 10 -24 6 -47z m1175 11 c0 -19 -16 -5
-17 14 -2 18 0 20 7 8 5 -8 10 -18 10 -22z m-1655 -7 c-3 -6 -11 -11 -16 -11
-5 0 -4 6 3 14 14 16 24 13 13 -3z m996 -11 c13 -7 25 -7 38 0 27 14 51 2 51
-25 0 -30 -22 -37 -88 -29 -54 7 -70 20 -58 49 6 17 29 19 57 5z m-1041 -35
c-13 -14 -28 -25 -34 -25 -6 0 3 11 19 25 39 31 45 32 15 0z m1690 -40 c0 -8
-4 -15 -8 -15 -13 0 -32 23 -32 37 0 11 5 11 20 3 11 -6 20 -17 20 -25z
m-2426 -11 c-3 -12 -15 -21 -30 -22 -32 -2 -30 9 4 29 32 19 33 19 26 -7z
m235 3 c-2 -1 -13 -9 -24 -17 -19 -14 -19 -14 -6 3 7 9 18 17 24 17 6 0 8 -1
6 -3z m-287 -56 c-9 -2 -20 -8 -23 -13 -4 -6 -6 1 -6 14 0 23 2 24 23 14 20
-9 21 -12 6 -15z m1858 -63 c0 -26 18 -31 45 -14 33 22 44 20 57 -8 8 -20 7
-28 -5 -41 -9 -8 -22 -14 -29 -13 -9 2 -12 -7 -10 -29 3 -29 0 -33 -21 -33
-31 0 -48 20 -41 47 10 36 -23 44 -154 38 -64 -4 -133 -12 -152 -19 -30 -12
-68 -13 -117 -5 -36 6 19 39 65 39 15 1 45 9 66 19 38 18 58 18 83 -1 16 -13
27 10 13 27 -6 8 -10 24 -8 37 5 34 41 35 62 3 14 -21 20 -24 32 -14 8 6 14
17 14 25 0 7 8 18 18 23 14 8 23 3 49 -27 18 -20 32 -45 33 -54z m-1797 56
c-5 -14 -2 -16 21 -10 18 4 25 3 21 -3 -9 -15 -75 -10 -75 5 0 7 8 15 18 17 9
3 18 5 19 6 1 0 0 -6 -4 -15z m467 2 c0 -3 -4 -8 -10 -11 -5 -3 -10 -1 -10 4
0 6 5 11 10 11 6 0 10 -2 10 -4z m844 -43 c-10 -40 -15 -42 -12 -5 1 18 6 32
10 32 5 0 5 -12 2 -27z m-1354 2 c0 -8 -4 -15 -8 -15 -5 0 -9 7 -9 15 0 8 4
15 9 15 4 0 8 -7 8 -15z m489 -23 c-5 -2 -9 -11 -9 -19 0 -9 6 -13 15 -9 8 3
15 1 15 -4 0 -6 -4 -10 -10 -10 -5 0 -9 -3 -8 -7 2 -14 -14 -43 -24 -43 -5 0
-7 9 -3 20 3 10 1 28 -5 40 -15 28 4 66 24 48 8 -7 10 -14 5 -16z m77 -10
c-18 -16 -18 -16 -6 6 6 13 14 21 18 18 3 -4 -2 -14 -12 -24z m-426 13 c0 -8
-102 -55 -119 -55 -24 0 -1 17 54 39 53 21 65 24 65 16z m266 -40 c-9 -14 -21
-25 -27 -25 -6 0 -1 14 11 31 26 36 40 31 16 -6z m-206 -2 c-8 -3 -18 -11 -22
-17 -4 -6 -10 -7 -15 -3 -9 10 16 27 37 26 13 -1 13 -1 0 -6z m-276 -31 c6 -9
-53 -47 -61 -39 -2 3 0 15 7 26 11 21 44 29 54 13z m291 -49 c-19 -13 -35 -17
-35 -9 0 12 33 35 42 30 7 -5 4 -12 -7 -21z m430 7 c-3 -5 -14 -10 -23 -10
-15 0 -15 2 -2 10 20 13 33 13 25 0z m-575 -9 c0 -14 -47 -41 -70 -41 -32 0
-19 21 20 35 45 16 50 17 50 6z m626 -8 c-3 -10 -7 -31 -10 -48 -3 -17 -20
-43 -38 -60 -18 -16 -33 -33 -33 -39 0 -5 -10 -10 -22 -11 -25 -2 -19 16 19
51 13 12 31 36 42 54 l18 32 -23 -12 c-22 -11 -21 -9 5 19 33 34 50 40 42 14z
m-846 -3 c0 -5 -5 -10 -11 -10 -5 0 -7 5 -4 10 3 6 8 10 11 10 2 0 4 -4 4 -10z
m36 -35 c-11 -8 -25 -15 -30 -15 -6 0 -2 7 8 15 11 8 25 15 30 15 6 0 2 -7 -8
-15z m275 -10 c-18 -8 -45 -15 -60 -14 -23 1 -23 2 7 9 18 4 36 10 39 14 4 3
16 6 27 6 16 -1 13 -4 -13 -15z m-96 -15 c-3 -5 -13 -10 -21 -10 -8 0 -12 5
-9 10 3 6 13 10 21 10 8 0 12 -4 9 -10z m65 -39 c0 -5 -9 -11 -21 -14 -16 -4
-18 -3 -8 9 13 16 29 19 29 5z m603 -12 c-4 -13 -9 -17 -15 -11 -11 11 -3 32
12 32 4 0 6 -9 3 -21z m-983 1 c0 -5 -2 -10 -4 -10 -2 0 -12 -3 -22 -7 -16 -6
-17 -5 -4 10 17 19 30 22 30 7z m780 0 c0 -5 -5 -10 -11 -10 -5 0 -7 5 -4 10
3 6 8 10 11 10 2 0 4 -4 4 -10z m711 -33 c-10 -9 -11 -8 -5 6 3 10 9 15 12 12
3 -3 0 -11 -7 -18z m-1272 -8 c-16 -10 -23 -4 -14 10 3 6 11 8 17 5 6 -4 5 -9
-3 -15z m-246 -15 c-3 -8 -12 -13 -20 -10 -8 3 -18 6 -21 7 -8 0 29 17 40 18
4 1 5 -6 1 -15z m810 -8 c-12 -16 -21 -21 -28 -15 -7 7 -3 15 9 25 30 22 39
17 19 -10z m-788 -25 c-7 -22 -58 -55 -69 -44 -12 12 -6 21 23 33 16 6 32 19
36 27 8 23 18 8 10 -16z m2582 -38 c-3 -10 -5 -2 -5 17 0 19 2 27 5 18 2 -10
2 -26 0 -35z m-1259 -92 c-13 -22 -26 -35 -29 -29 -4 6 -11 3 -18 -8 -9 -16
-10 -16 -11 -3 0 18 24 42 33 33 3 -3 13 6 22 20 27 40 28 31 3 -13z m1139
-13 c-3 -7 -5 -2 -5 12 0 14 2 19 5 13 2 -7 2 -19 0 -25z m-913 -63 c7 -19 -5
-19 -30 0 -19 14 -19 14 2 15 12 0 24 -7 28 -15z m873 -75 c-9 -14 -17 -17
-22 -11 -3 6 -2 11 4 11 5 0 13 10 17 23 4 12 9 16 11 10 3 -7 -2 -22 -10 -33z
m70 -172 c-2 -18 -4 -4 -4 32 0 36 2 50 4 33 2 -18 2 -48 0 -65z m-50 60 c-3
-8 -6 -5 -6 6 -1 11 2 17 5 13 3 -3 4 -12 1 -19z m-1067 -57 c-1 -10 -6 -7
-15 9 -19 33 -18 50 0 26 8 -11 15 -27 15 -35z m-43 -53 c-3 -8 -6 -5 -6 6 -1
11 2 17 5 13 3 -3 4 -12 1 -19z m-54 -68 c-3 -12 -8 -19 -11 -16 -5 6 5 36 12
36 2 0 2 -9 -1 -20z m-1123 -41 c0 -10 -7 -19 -15 -19 -15 0 -21 31 -9 43 11
10 24 -3 24 -24z m1052 -101 c-7 -7 -12 -8 -12 -2 0 14 12 26 19 19 2 -3 -1
-11 -7 -17z m-2944 -98 c2 -13 11 -29 20 -36 9 -7 13 -18 9 -28 -6 -16 -16
-17 -81 -11 l-74 7 -42 -41 c-42 -40 -60 -50 -60 -32 0 5 -3 16 -6 25 -4 11
-1 16 10 16 9 0 25 13 34 30 11 20 28 32 50 36 17 3 49 19 69 35 43 34 67 34
71 -1z m-268 -80 c8 -5 12 -11 10 -14 -8 -7 -60 6 -60 15 0 12 31 11 50 -1z
m863 -82 c20 -24 21 -38 5 -73 -15 -33 -51 -42 -84 -20 -24 15 -26 21 -20 58
11 67 57 84 99 35z m-122 -108 c23 -13 25 -47 3 -78 -12 -17 -24 -22 -47 -20
-26 3 -32 9 -40 38 -7 30 -6 37 13 52 25 21 43 22 71 8z m3436 -155 c13 -17
29 -25 56 -27 42 -2 57 -19 57 -65 0 -40 -14 -51 -83 -64 -43 -9 -61 -17 -66
-32 -4 -11 -10 -16 -13 -11 -12 19 -48 147 -48 169 0 54 64 74 97 30z m-2877
-27 c-1 -18 -9 -55 -19 -83 -15 -43 -16 -57 -5 -103 13 -53 4 -102 -18 -102
-4 0 -8 -6 -8 -13 0 -7 -27 13 -60 46 -65 63 -66 67 -14 110 28 24 31 32 31
84 0 32 -5 64 -11 72 -9 12 -8 14 6 9 9 -4 29 -3 45 2 48 14 53 12 53 -22z
m1682 -120 c-7 -7 -12 -8 -12 -2 0 14 12 26 19 19 2 -3 -1 -11 -7 -17z m1543
-18 c-3 -5 -1 -19 5 -30 7 -13 7 -20 1 -20 -6 0 -17 14 -26 30 -15 29 -15 30
5 30 12 0 18 -4 15 -10z m-1594 -67 c-8 -15 -10 -15 -11 -2 0 17 10 32 18 25
2 -3 -1 -13 -7 -23z"/>
<path d="M5465 4469 c-4 -6 -5 -12 -2 -15 2 -3 7 2 10 11 7 17 1 20 -8 4z"/>
<path d="M5490 4396 c0 -2 7 -7 16 -10 8 -3 12 -2 9 4 -6 10 -25 14 -25 6z"/>
<path d="M6570 4510 c6 -11 15 -20 20 -20 14 0 1 28 -16 34 -12 4 -12 2 -4
-14z"/>
<path d="M6217 4060 c8 -28 29 -43 30 -21 1 9 -7 22 -17 28 -15 10 -17 9 -13
-7z"/>
<path d="M6210 4026 c0 -2 8 -10 18 -17 15 -13 16 -12 3 4 -13 16 -21 21 -21
13z"/>
<path d="M5585 3681 c-3 -5 -1 -12 5 -16 5 -3 10 1 10 9 0 18 -6 21 -15 7z"/>
<path d="M4395 2129 c-4 -6 -5 -12 -2 -15 2 -3 7 2 10 11 7 17 1 20 -8 4z"/>
<path d="M5421 4974 c6 -7 17 -10 25 -7 20 7 18 10 -11 15 -20 4 -23 2 -14 -8z"/>
<path d="M5398 4943 c6 -2 18 -2 25 0 6 3 1 5 -13 5 -14 0 -19 -2 -12 -5z"/>
<path d="M6638 4913 c7 -3 16 -2 19 1 4 3 -2 6 -13 5 -11 0 -14 -3 -6 -6z"/>
<path d="M5362 4881 c-10 -6 -8 -10 9 -14 13 -4 25 -4 28 -2 2 3 -1 5 -8 5 -7
0 -9 5 -6 10 8 12 -5 13 -23 1z"/>
<path d="M6663 4813 c9 -2 23 -2 30 0 6 3 -1 5 -18 5 -16 0 -22 -2 -12 -5z"/>
<path d="M6506 4793 c-17 -4 -14 -8 14 -19 18 -8 35 -12 37 -10 3 2 -5 7 -16
11 -12 3 -19 11 -16 16 4 5 5 8 3 8 -2 -1 -12 -4 -22 -6z"/>
<path d="M5281 4771 c-11 -7 -11 -9 0 -13 9 -3 1 -11 -20 -22 -21 -11 -30 -21
-24 -27 12 -12 45 -1 37 12 -3 5 10 16 28 24 20 9 26 14 15 15 -10 0 -15 5
-12 10 8 12 -5 13 -24 1z"/>
<path d="M5200 4675 c-11 -13 -10 -14 4 -9 9 3 16 10 16 15 0 13 -6 11 -20 -6z"/>
<path d="M5130 4614 c-42 -38 -54 -63 -20 -42 11 7 20 18 20 24 0 6 11 17 25
24 14 7 25 17 25 22 0 14 -9 9 -50 -28z"/>
<path d="M5168 4596 c-20 -15 -23 -26 -8 -26 5 0 14 9 20 20 12 23 11 24 -12
6z"/>
<path d="M10413 4301 c-7 -11 -5 -32 4 -66 8 -27 15 -56 15 -62 2 -18 25 -16
32 3 3 9 6 27 6 40 0 13 5 24 10 24 12 0 13 40 2 56 -12 19 -58 22 -69 5z"/>
<path d="M3445 4219 l0 -40 35 6 c19 4 43 14 53 24 17 17 17 19 2 35 -9 9 -32
16 -53 16 -37 0 -37 0 -37 -41z"/>
<path d="M7320 4175 c0 -11 11 -15 40 -15 43 0 54 14 18 24 -38 10 -58 7 -58
-9z"/>
<path d="M8432 4059 c-2 -36 4 -61 22 -96 l25 -48 13 33 c7 17 16 32 20 32 8
0 -1 68 -13 91 -5 9 -21 21 -36 27 -28 9 -28 9 -31 -39z"/>
<path d="M6626 4027 c3 -10 9 -15 12 -12 3 3 0 11 -7 18 -10 9 -11 8 -5 -6z"/>
<path d="M6706 3998 c-9 -5 -22 -6 -29 -3 -6 4 -3 -1 8 -10 11 -9 19 -18 18
-20 -2 -3 -3 -16 -3 -29 0 -29 24 -37 91 -29 42 5 49 9 48 27 -1 17 -2 18 -6
4 -10 -39 -50 -9 -49 37 1 27 -2 30 -30 31 -18 1 -39 -3 -48 -8z"/>
<path d="M5258 3843 c7 -3 16 -2 19 1 4 3 -2 6 -13 5 -11 0 -14 -3 -6 -6z"/>
<path d="M6468 3843 c7 -3 16 -2 19 1 4 3 -2 6 -13 5 -11 0 -14 -3 -6 -6z"/>
<path d="M835 3830 c-3 -5 -15 -10 -25 -10 -10 0 -32 -8 -49 -17 -35 -20 -41
-52 -15 -78 15 -15 15 -17 0 -34 -20 -22 -20 -36 2 -73 14 -25 21 -29 47 -24
53 11 125 105 125 165 0 35 -70 95 -85 71z"/>
<path d="M5172 3825 c-16 -19 -3 -19 22 0 14 11 16 15 5 15 -8 -1 -20 -7 -27
-15z"/>
<path d="M6508 3823 c7 -3 16 -2 19 1 4 3 -2 6 -13 5 -11 0 -14 -3 -6 -6z"/>
<path d="M6871 3778 c-1 -15 4 -39 9 -54 8 -21 14 -24 22 -16 9 9 7 22 -9 54
-20 39 -22 41 -22 16z"/>
<path d="M5139 3743 c-13 -16 -12 -17 4 -4 9 7 17 15 17 17 0 8 -8 3 -21 -13z"/>
<path d="M8561 3645 c-13 -14 -27 -25 -32 -25 -5 0 -9 -7 -9 -16 0 -8 -4 -12
-10 -9 -21 13 -9 -27 15 -49 29 -27 64 -25 91 5 27 30 8 119 -26 119 -3 0 -16
-12 -29 -25z"/>
<path d="M9400 3635 c7 -8 19 -15 26 -15 8 0 14 7 14 15 0 10 -10 15 -26 15
-22 0 -25 -2 -14 -15z"/>
<path d="M6414 3625 c11 -8 22 -12 25 -9 6 6 -19 24 -34 24 -5 -1 -1 -7 9 -15z"/>
<path d="M1906 3604 c-13 -34 -6 -41 47 -49 77 -12 104 -4 92 28 -14 34 -127
51 -139 21z"/>
<path d="M5385 3601 c-3 -5 -1 -12 5 -16 6 -4 7 -11 4 -17 -4 -6 -2 -8 4 -5 5
4 8 16 5 27 -6 22 -9 24 -18 11z"/>
<path d="M6451 3577 c2 -1 13 -9 24 -17 19 -14 19 -14 6 3 -7 9 -18 17 -24 17
-6 0 -8 -1 -6 -3z"/>
<path d="M8725 3560 c-3 -6 1 -7 9 -4 18 7 21 14 7 14 -6 0 -13 -4 -16 -10z"/>
<path d="M10354 3514 c-11 -45 3 -111 41 -193 28 -58 43 -81 57 -81 10 0 18 6
18 13 0 8 4 7 10 -3 7 -11 10 -7 10 18 0 17 4 32 9 32 5 0 11 15 14 33 3 17 9
48 14 67 13 48 7 60 -30 60 -22 0 -42 10 -69 37 -46 45 -66 49 -74 17z"/>
<path d="M6433 3512 c-18 -13 -22 -40 -6 -53 13 -11 15 -10 13 6 -1 11 -2 27
-1 35 1 12 3 13 10 1 5 -8 11 -9 15 -3 7 12 -17 23 -31 14z"/>
<path d="M4360 3496 c-22 -21 -128 -49 -185 -51 -53 -1 -75 -9 -75 -28 0 -20
-59 -40 -101 -34 -21 3 -39 1 -39 -3 0 -5 -18 -11 -40 -15 -26 -4 -52 -19 -75
-41 -20 -19 -39 -34 -44 -34 -6 0 -6 -12 -1 -30 5 -16 7 -30 5 -30 -2 0 3 -16
11 -35 8 -21 10 -35 4 -35 -5 0 -10 -9 -10 -20 0 -31 22 -24 63 20 23 23 44
37 52 33 9 -3 15 1 15 11 0 11 9 16 30 16 27 0 53 8 105 32 12 5 50 5 92 0 63
-7 74 -6 100 12 15 11 32 26 36 33 4 7 22 19 40 27 38 16 77 49 77 65 0 6 12
11 28 11 15 0 40 12 55 25 32 28 33 61 2 58 -11 -1 -37 4 -58 12 -47 19 -69
19 -87 1z m-529 -283 c13 -16 12 -17 -3 -4 -17 13 -22 21 -14 21 2 0 10 -8 17
-17z"/>
<path d="M4830 3402 c-37 -25 -53 -42 -46 -49 3 -4 21 8 39 25 18 18 37 32 42
32 5 0 0 -6 -11 -14 -10 -8 -16 -18 -12 -22 10 -9 38 15 38 32 0 18 -19 17
-50 -4z"/>
<path d="M5098 3360 l-17 -30 24 17 c13 10 25 24 25 31 0 21 -14 13 -32 -18z"/>
<path d="M4916 3363 c-4 -5 -11 -8 -14 -8 -16 -1 -52 -31 -52 -42 0 -21 14
-15 25 10 6 12 15 22 22 22 7 0 18 6 25 13 6 6 10 12 7 12 -3 0 -9 -3 -13 -7z"/>
<path d="M7398 3303 c7 -3 16 -2 19 1 4 3 -2 6 -13 5 -11 0 -14 -3 -6 -6z"/>
<path d="M5050 3289 c0 -5 -4 -7 -10 -4 -5 3 -10 -1 -10 -9 0 -9 5 -16 11 -16
18 0 1 -17 -23 -23 -20 -5 -21 -4 -7 6 9 7 14 18 12 25 -5 13 -24 17 -21 5 3
-18 -16 -43 -33 -43 -10 0 -23 -9 -29 -20 -6 -11 -8 -20 -4 -20 4 0 0 -8 -9
-18 -10 -10 -14 -22 -10 -25 3 -4 1 -7 -5 -7 -7 0 -12 -5 -12 -11 0 -18 19 1
40 39 13 25 19 31 20 18 0 -16 2 -17 16 -5 13 11 12 4 -5 -28 -11 -23 -21 -45
-21 -49 0 -16 63 53 81 88 18 35 34 108 24 108 -3 0 -5 -5 -5 -11z"/>
<path d="M4609 3264 c-11 -14 -10 -15 11 -12 13 1 25 9 28 16 5 17 -23 15 -39
-4z"/>
<path d="M4830 3269 c0 -5 5 -7 10 -4 6 3 10 8 10 11 0 2 -4 4 -10 4 -5 0 -10
-5 -10 -11z"/>
<path d="M3751 3234 c0 -11 3 -14 6 -6 3 7 2 16 -1 19 -3 4 -6 -2 -5 -13z"/>
<path d="M4770 3212 c-13 -15 -23 -31 -22 -35 1 -5 -2 -6 -8 -2 -5 3 -17 2
-26 -3 -14 -8 -12 -10 11 -16 26 -7 27 -7 10 -33 -16 -23 -16 -25 -1 -20 9 4
15 2 13 -6 -1 -7 6 -11 17 -9 14 3 17 -1 12 -13 -3 -9 -6 -21 -6 -26 0 -5 -3
-8 -7 -7 -10 3 -75 -54 -69 -59 2 -3 14 1 26 7 15 8 20 8 16 1 -4 -6 -2 -11 4
-11 6 0 8 -5 4 -12 -5 -8 -2 -9 9 -5 10 4 24 10 34 14 10 4 14 3 10 -4 -4 -6
-1 -13 5 -16 7 -2 -4 -8 -24 -12 -37 -7 -75 -35 -48 -35 9 0 7 -7 -5 -20 -31
-34 6 -23 50 15 42 37 61 39 28 2 -20 -22 -37 -57 -27 -57 3 0 14 5 25 10 36
20 19 -7 -40 -62 -56 -53 -90 -64 -75 -23 7 17 6 17 -19 0 -14 -9 -31 -14 -37
-10 -6 4 -10 3 -9 -2 4 -21 -3 -32 -19 -30 -10 0 -31 -9 -48 -22 -17 -12 -49
-25 -72 -28 -32 -4 -40 -9 -39 -24 1 -20 12 -25 21 -10 3 5 18 12 33 16 15 3
39 15 55 26 15 11 28 17 28 14 0 -3 12 2 28 13 15 10 35 19 45 19 14 0 12 -7
-14 -33 -17 -18 -37 -30 -44 -28 -6 3 -18 -2 -25 -11 -17 -20 -21 -55 -6 -55
33 1 206 136 206 161 0 5 3 8 8 8 46 -8 75 46 48 89 -4 7 -4 18 1 25 4 6 6 19
5 28 -3 17 23 33 39 23 10 -6 25 24 16 32 -3 4 -16 -1 -29 -10 -12 -9 -25 -16
-28 -16 -11 0 -7 59 4 63 6 3 -2 3 -19 1 -16 -3 -33 -11 -38 -19 -11 -21 -26
-19 -23 3 2 9 13 19 26 20 36 6 67 42 36 42 -8 0 -18 5 -22 12 -4 6 -3 8 4 4
13 -8 42 20 42 40 0 8 -4 13 -8 10 -5 -3 -17 5 -27 16 -12 15 -14 23 -7 26 24
8 11 19 -15 15 -27 -4 -27 -4 -9 11 11 9 21 23 22 31 3 19 3 19 -26 -13z m23
-87 c-3 -9 -8 -14 -10 -11 -3 3 -2 9 2 15 9 16 15 13 8 -4z m-123 -439 c0 -2
-7 -7 -16 -10 -8 -3 -12 -2 -9 4 6 10 25 14 25 6z"/>
<path d="M4585 3213 c14 -14 18 -14 30 -2 12 12 10 14 -16 16 -27 2 -28 1 -14
-14z"/>
<path d="M5117 3193 c-4 -3 -7 -11 -7 -17 0 -6 5 -5 12 2 6 6 9 14 7 17 -3 3
-9 2 -12 -2z"/>
<path d="M1011 3138 c-18 -18 -30 -37 -26 -45 3 -8 5 -24 6 -36 0 -12 3 -16 6
-9 4 10 8 10 19 1 16 -13 19 -55 4 -64 -6 -4 -7 -11 -4 -17 7 -10 3 -22 -34
-98 -12 -25 -22 -51 -22 -57 0 -7 -3 -13 -8 -13 -8 0 -37 -59 -37 -75 0 -5 20
-11 45 -12 25 -2 65 -4 90 -5 l44 -3 9 45 c5 25 19 56 32 70 23 24 53 123 45
145 -2 6 -4 44 -5 85 -2 73 -3 75 -27 72 -13 -2 -35 6 -49 16 -42 32 -55 32
-88 0z"/>
<path d="M4665 3150 c-3 -5 -2 -10 4 -10 5 0 13 5 16 10 3 6 2 10 -4 10 -5 0
-13 -4 -16 -10z"/>
<path d="M5080 3129 c-22 -25 -49 -31 -35 -8 14 21 -14 7 -29 -16 -10 -15 -22
-22 -31 -19 -11 5 -15 -1 -15 -17 0 -19 2 -21 10 -9 7 11 10 5 10 -22 0 -30
-4 -38 -18 -38 -18 0 -40 -19 -56 -47 -9 -16 23 -10 34 6 5 9 10 10 14 2 4 -6
3 -11 -3 -11 -6 0 -15 -10 -22 -22 -10 -18 -9 -20 7 -14 13 4 11 0 -6 -13 -14
-11 -26 -18 -28 -16 -5 5 -42 -28 -42 -38 0 -4 5 -5 11 -2 6 4 5 -2 -2 -13
-23 -37 -1 -36 41 2 39 35 50 40 78 37 7 -1 15 6 18 16 3 10 8 25 10 33 4 11
7 12 13 1 6 -9 14 -1 29 28 15 27 18 42 10 47 -6 4 -15 -1 -20 -10 -5 -9 -14
-14 -19 -11 -5 4 -6 12 -2 18 4 7 -1 6 -10 -2 -24 -19 -32 -7 -10 15 13 12 14
19 5 22 -9 3 -8 9 3 25 19 28 19 43 0 27 -9 -7 -15 -8 -15 -2 0 15 26 22 38
10 7 -7 14 -3 22 11 6 12 15 19 19 16 5 -2 11 5 14 17 8 30 6 29 -23 -3z m-74
-194 c-8 -26 -13 -31 -19 -19 -6 10 -3 22 9 35 23 25 23 25 10 -16z"/>
<path d="M4529 3120 l-26 -29 41 -9 c40 -9 40 -9 16 -20 l-25 -11 25 -1 25 -1
-23 -10 c-13 -5 -26 -18 -29 -29 -3 -11 -9 -18 -13 -15 -5 3 -12 -4 -15 -16
-4 -12 -3 -24 3 -28 5 -3 -10 -21 -34 -39 -33 -24 -44 -29 -44 -17 0 9 7 18
15 21 8 4 15 14 15 23 0 10 7 26 15 37 19 25 19 38 0 30 -18 -7 -20 5 -2 23
10 10 9 11 -4 6 -15 -6 -31 -47 -34 -86 0 -9 -8 -27 -17 -42 -15 -21 -15 -26
-3 -31 9 -3 12 -12 8 -23 -6 -16 -5 -16 10 -4 9 7 17 19 17 26 0 15 43 35 76
35 14 0 35 10 47 21 l22 22 -22 -6 c-13 -3 -23 -1 -23 4 0 5 -8 9 -17 9 -17 1
-17 1 0 11 9 5 17 19 17 29 0 13 16 28 48 44 33 18 41 25 26 26 -12 0 -24 7
-28 15 -3 8 -2 14 2 13 10 -3 52 25 52 35 0 4 -9 3 -19 -3 -26 -13 -34 -13
-25 1 5 8 -1 10 -19 7 -15 -3 -24 -1 -21 3 12 21 -13 6 -37 -21z"/>
<path d="M5075 3067 c-17 -42 -19 -50 -6 -43 5 4 11 1 13 -5 2 -6 9 2 16 17
11 27 11 27 -3 10 -17 -23 -20 -5 -4 26 6 11 8 22 5 25 -3 4 -13 -10 -21 -30z"/>
<path d="M4727 3063 c-4 -3 -7 -11 -7 -17 0 -6 5 -5 12 2 6 6 9 14 7 17 -3 3
-9 2 -12 -2z"/>
<path d="M4498 3043 c6 -2 18 -2 25 0 6 3 1 5 -13 5 -14 0 -19 -2 -12 -5z"/>
<path d="M9324 3002 c-26 -2 -49 -11 -59 -23 -10 -10 -28 -19 -39 -19 -35 0
-78 -57 -74 -98 2 -22 -2 -37 -10 -40 -23 -7 -12 -32 24 -49 27 -13 34 -22 30
-37 -6 -22 42 -106 60 -106 13 0 24 32 24 73 0 15 4 27 9 27 12 0 61 76 61 95
0 9 -6 15 -12 14 -44 -5 -68 2 -68 21 0 17 7 20 45 20 42 0 45 2 53 33 6 23 5
34 -5 40 -17 11 -17 27 1 27 19 0 29 17 13 21 -6 2 -31 3 -53 1z m-60 -208
c16 -15 13 -34 -4 -34 -5 0 -16 7 -25 16 -13 14 -14 19 -3 25 17 11 14 12 32
-7z"/>
<path d="M9408 2993 c7 -3 16 -2 19 1 4 3 -2 6 -13 5 -11 0 -14 -3 -6 -6z"/>
<path d="M4565 2980 c-3 -5 -1 -10 4 -10 6 0 11 5 11 10 0 6 -2 10 -4 10 -3 0
-8 -4 -11 -10z"/>
<path d="M4615 2970 c-8 -13 5 -13 25 0 13 8 13 10 -2 10 -9 0 -20 -4 -23 -10z"/>
<path d="M4705 2970 c-3 -5 -2 -10 4 -10 5 0 13 5 16 10 3 6 2 10 -4 10 -5 0
-13 -4 -16 -10z"/>
<path d="M5096 2963 c-6 -14 -5 -15 5 -6 7 7 10 15 7 18 -3 3 -9 -2 -12 -12z"/>
<path d="M9417 2923 c-7 -35 -5 -36 27 -22 25 12 37 39 17 39 -5 0 -16 3 -24
6 -10 3 -16 -4 -20 -23z"/>
<path d="M4565 2890 c-27 -28 -53 -41 -40 -20 8 13 -1 13 -25 0 -11 -6 -17
-17 -14 -25 4 -9 0 -15 -10 -15 -9 0 -16 -4 -16 -9 0 -6 12 -6 32 0 18 5 33 9
34 9 7 0 54 51 63 68 16 29 10 28 -24 -8z"/>
<path d="M6400 2900 c0 -5 5 -10 11 -10 5 0 7 5 4 10 -3 6 -8 10 -11 10 -2 0
-4 -4 -4 -10z"/>
<path d="M4600 2845 c-25 -13 -51 -24 -59 -25 -21 0 -126 -63 -113 -68 16 -5
102 35 102 47 0 6 6 8 13 5 8 -3 26 0 40 5 15 6 27 7 27 2 0 -11 -66 -62 -77
-60 -25 4 -63 -2 -63 -11 0 -5 7 -10 15 -10 22 0 18 -18 -6 -25 -11 -4 -19 -9
-16 -11 7 -7 54 13 77 33 12 10 36 32 53 50 28 28 34 30 43 16 8 -13 10 -12
11 6 1 12 -2 19 -7 16 -18 -11 -21 17 -4 36 22 24 19 24 -36 -6z"/>
<path d="M4670 2845 c-10 -12 -10 -18 -2 -26 7 -5 10 -6 7 -3 -3 4 0 13 7 21
6 7 9 16 6 18 -3 3 -11 -2 -18 -10z"/>
<path d="M4990 2835 c-11 -13 -10 -14 4 -9 9 3 16 10 16 15 0 13 -6 11 -20 -6z"/>
<path d="M4735 2820 c-3 -5 -1 -10 4 -10 6 0 11 5 11 10 0 6 -2 10 -4 10 -3 0
-8 -4 -11 -10z"/>
<path d="M4420 2810 c0 -5 5 -10 10 -10 6 0 10 5 10 10 0 6 -4 10 -10 10 -5 0
-10 -4 -10 -10z"/>
<path d="M4939 2803 c-13 -16 -12 -17 4 -4 16 13 21 21 13 21 -2 0 -10 -8 -17
-17z"/>
<path d="M9384 2796 c-17 -8 -34 -21 -37 -29 -5 -13 3 -17 35 -19 25 -2 43 -9
46 -17 3 -9 0 -12 -10 -8 -17 6 -108 -11 -121 -22 -4 -5 -10 -36 -13 -69 -3
-51 -1 -62 11 -62 8 0 24 -9 36 -21 22 -22 44 -21 44 2 0 19 22 27 71 28 32 1
45 6 57 25 19 28 12 63 -14 71 -11 4 -19 16 -19 29 0 13 -6 29 -14 36 -8 6
-16 23 -18 37 -4 32 -14 36 -54 19z"/>
<path d="M2130 2750 c0 -19 5 -30 14 -30 19 0 29 30 15 46 -18 22 -29 16 -29
-16z"/>
<path d="M4966 2721 c-17 -18 -22 -41 -8 -41 4 0 15 11 25 25 20 28 7 42 -17
16z"/>
<path d="M4895 2680 c-3 -5 -1 -10 4 -10 6 0 11 5 11 10 0 6 -2 10 -4 10 -3 0
-8 -4 -11 -10z"/>
<path d="M9164 2679 c-4 -7 3 -21 20 -36 38 -33 51 -29 27 9 -23 37 -36 44
-47 27z"/>
<path d="M4351 2644 c-20 -23 -9 -25 18 -3 13 11 17 19 10 19 -8 -1 -20 -8
-28 -16z"/>
<path d="M4490 2640 c-42 -8 -80 -27 -80 -41 0 -6 9 -8 20 -4 11 4 20 2 20 -4
0 -6 -11 -11 -24 -11 -27 0 -43 -15 -23 -22 21 -8 78 12 84 30 4 9 16 24 28
34 26 21 19 26 -25 18z"/>
<path d="M4370 2615 c-7 -9 -11 -17 -9 -20 3 -2 10 5 17 15 14 24 10 26 -8 5z"/>
<path d="M4859 2591 c-25 -20 -23 -36 4 -25 15 5 31 33 24 41 -2 2 -15 -5 -28
-16z"/>
<path d="M5040 2595 c-7 -9 -10 -18 -7 -21 3 -3 10 4 17 15 13 25 8 27 -10 6z"/>
<path d="M3409 2587 c-8 -8 -21 -16 -29 -20 -12 -4 -11 -6 3 -6 18 -1 23 -16
8 -25 -5 -4 -18 6 -29 21 -16 21 -24 25 -32 17 -18 -18 16 -64 46 -64 14 0 23
5 22 13 -2 8 12 13 40 15 28 2 42 8 42 18 0 8 -5 14 -12 14 -6 0 -19 7 -29 15
-14 14 -19 14 -30 2z"/>
<path d="M972 2575 c-28 -20 -33 -60 -10 -85 22 -24 51 -26 72 -4 44 44 -12
124 -62 89z"/>
<path d="M4595 2575 c-10 -14 -28 -19 -110 -31 -22 -3 -49 -9 -60 -14 -11 -4
-28 -11 -39 -14 -12 -4 -16 -12 -12 -22 4 -12 2 -15 -9 -10 -8 3 -14 0 -12 -6
1 -6 -11 -16 -28 -21 -48 -15 -95 -39 -95 -50 0 -13 60 0 80 18 9 8 24 15 33
15 9 0 21 9 27 20 12 22 50 44 95 54 28 6 29 5 11 -9 -18 -14 -19 -15 -2 -15
12 0 16 -5 12 -15 -7 -19 16 -20 53 0 16 8 32 11 36 7 5 -4 5 -2 2 4 -3 6 5
26 18 46 13 19 20 40 16 46 -5 8 -9 7 -16 -3z m-31 -59 c-5 -14 -54 -24 -54
-11 0 5 54 34 58 31 1 -2 0 -11 -4 -20z"/>
<path d="M3106 2545 c4 -8 12 -15 20 -15 20 0 17 7 -6 20 -16 9 -18 8 -14 -5z"/>
<path d="M2388 2533 c-28 -18 -45 -53 -25 -53 16 1 40 21 55 48 14 26 7 27
-30 5z"/>
<path d="M4110 2510 c-6 -11 -7 -20 -2 -20 10 0 32 21 32 32 0 16 -19 8 -30
-12z"/>
<path d="M3935 2510 c-7 -12 2 -12 30 0 19 8 19 9 -2 9 -12 1 -25 -3 -28 -9z"/>
<path d="M4428 2460 c-15 -4 -30 -5 -33 -2 -3 4 -3 -1 0 -10 7 -18 38 -14 56
8 6 8 10 14 8 13 -2 0 -16 -4 -31 -9z"/>
<path d="M3907 2432 c-19 -21 -22 -42 -7 -42 6 0 10 7 10 15 0 8 4 15 8 15 5
0 17 7 28 15 19 14 19 14 -2 15 -11 0 -28 -8 -37 -18z"/>
<path d="M4448 2428 c-41 -22 -49 -38 -19 -38 29 0 78 21 63 27 -10 4 -10 8
-1 19 16 19 1 17 -43 -8z"/>
<path d="M2991 2401 c-11 -7 -12 -15 -4 -33 10 -22 10 -22 15 10 2 17 4 32 4
32 -1 0 -7 -4 -15 -9z"/>
<path d="M3270 2391 c0 -5 10 -11 22 -14 21 -6 21 -7 3 -27 -10 -11 -26 -20
-36 -20 -36 0 -27 -18 13 -24 22 -4 42 -5 43 -4 1 2 5 24 7 51 5 46 5 47 -23
47 -16 0 -29 -4 -29 -9z"/>
<path d="M4950 2365 c-7 -9 -10 -18 -7 -21 3 -3 10 4 17 15 13 25 8 27 -10 6z"/>
<path d="M3900 2350 c-14 -10 -22 -21 -19 -25 10 -9 56 12 62 29 9 22 -12 20
-43 -4z"/>
<path d="M4976 2355 c-3 -8 -1 -15 4 -15 6 0 10 7 10 15 0 8 -2 15 -4 15 -2 0
-6 -7 -10 -15z"/>
<path d="M2783 2353 c-28 -5 -30 -23 -3 -23 10 0 24 -9 30 -20 10 -18 7 -21
-19 -26 -18 -4 -31 -14 -35 -28 -9 -35 -6 -80 8 -105 7 -13 12 -31 10 -40 -8
-33 10 -43 57 -32 24 6 70 11 102 11 66 0 70 5 59 70 l-8 45 -49 -3 c-61 -4
-92 3 -92 23 0 11 11 15 38 15 40 0 61 16 35 26 -22 9 -20 31 4 39 16 5 18 10
8 31 -10 22 -17 24 -67 23 -31 -1 -66 -4 -78 -6z"/>
<path d="M2242 2324 c-33 -23 -27 -37 8 -19 17 9 28 20 25 25 -8 13 -7 13 -33
-6z"/>
<path d="M4608 2313 c7 -3 16 -2 19 1 4 3 -2 6 -13 5 -11 0 -14 -3 -6 -6z"/>
<path d="M3813 2292 c-35 -18 -42 -32 -18 -32 8 0 15 -5 15 -12 0 -13 38 19
51 44 12 23 -4 23 -48 0z"/>
<path d="M3247 2270 c-20 -4 -40 -10 -43 -13 -10 -10 6 -27 25 -27 10 0 28 -9
41 -20 29 -25 43 -14 38 30 -3 38 -8 40 -61 30z"/>
<path d="M7731 2244 c0 -11 3 -14 6 -6 3 7 2 16 -1 19 -3 4 -6 -2 -5 -13z"/>
<path d="M7741 2199 c-1 -8 6 -24 15 -35 15 -19 15 -19 6 1 -5 11 -12 27 -15
35 -5 13 -6 13 -6 -1z"/>
<path d="M2540 2175 c0 -8 5 -15 10 -15 6 0 10 7 10 15 0 8 -4 15 -10 15 -5 0
-10 -7 -10 -15z"/>
<path d="M2655 2170 c-3 -11 -3 -24 0 -30 3 -6 1 -26 -6 -45 -7 -19 -10 -38
-6 -41 12 -12 35 16 41 51 11 59 -13 114 -29 65z"/>
<path d="M2150 2161 c-34 -22 -50 -44 -40 -54 12 -13 46 1 63 27 21 32 8 48
-23 27z"/>
<path d="M2340 2165 c0 -8 5 -15 10 -15 6 0 10 7 10 15 0 8 -4 15 -10 15 -5 0
-10 -7 -10 -15z"/>
<path d="M4760 2159 c0 -11 4 -18 10 -14 5 3 7 12 3 20 -7 21 -13 19 -13 -6z"/>
<path d="M2485 2160 c4 -6 11 -8 16 -5 14 9 11 15 -7 15 -8 0 -12 -5 -9 -10z"/>
<path d="M3082 2148 c-7 -7 -12 -18 -12 -25 0 -17 45 -46 65 -41 13 3 13 7 -2
37 -20 39 -33 47 -51 29z"/>
<path d="M2457 2143 c-4 -3 -7 -13 -7 -21 0 -12 3 -12 15 -2 8 7 15 16 15 21
0 11 -14 12 -23 2z"/>
<path d="M4865 2110 c-15 -30 -11 -37 20 -30 6 1 15 3 22 4 21 4 25 14 13 35
-15 30 -37 26 -55 -9z"/>
<path d="M5126 2125 c-9 -9 -19 -22 -24 -30 -6 -12 -15 -13 -40 -5 -26 7 -34
6 -39 -6 -10 -26 13 -39 42 -26 14 7 34 12 43 12 19 0 62 41 62 59 0 16 -26
13 -44 -4z"/>
<path d="M3231 2088 c12 -40 2 -160 -15 -184 -19 -25 -36 -8 -36 34 0 32 -6
42 -46 75 -26 20 -50 37 -54 37 -9 0 -12 -22 -14 -102 0 -38 -6 -72 -13 -79
-22 -22 -15 -57 18 -94 22 -25 29 -39 22 -46 -8 -8 -17 -7 -31 0 -11 6 -24 11
-28 11 -8 0 3 -169 15 -220 5 -23 13 -34 22 -32 7 2 30 -2 50 -8 32 -11 41 -9
87 14 29 15 52 33 52 41 0 19 19 30 32 17 7 -7 18 -7 34 0 21 10 23 16 19 57
-16 161 -25 242 -31 279 -4 25 -2 47 4 55 8 10 7 21 -3 41 -8 16 -15 34 -15
41 0 16 -58 95 -69 95 -6 0 -6 -13 0 -32z"/>
<path d="M7790 2100 c6 -11 13 -20 16 -20 2 0 0 9 -6 20 -6 11 -13 20 -16 20
-2 0 0 -9 6 -20z"/>
<path d="M4975 2071 c-10 -4 -34 -6 -52 -4 -18 2 -33 -1 -33 -6 0 -6 8 -7 18
-4 15 6 15 5 3 -10 -7 -10 -19 -17 -25 -16 -35 4 -54 -4 -71 -33 -10 -18 -30
-43 -44 -57 -17 -16 -22 -25 -13 -28 18 -7 15 -19 -12 -45 -31 -31 -39 -55
-19 -62 9 -4 17 -5 18 -4 1 2 11 17 23 35 13 17 22 35 21 40 -1 4 -1 22 0 40
1 29 5 33 61 51 44 14 57 15 49 5 -17 -19 -6 -25 24 -14 33 13 39 24 27 55 -9
24 -7 27 25 40 48 20 48 36 0 17z m-41 -52 c-3 -5 -10 -7 -15 -3 -5 3 -7 10
-3 15 3 5 10 7 15 3 5 -3 7 -10 3 -15z"/>
<path d="M2860 2044 c-8 -3 -20 -16 -27 -30 -11 -24 -11 -26 10 -20 64 18 65
18 77 -3 6 -12 17 -21 25 -21 18 0 20 -17 3 -22 -19 -7 -1 -38 22 -38 22 0 28
25 8 33 -10 3 -9 12 4 35 16 30 16 30 -8 36 -13 4 -24 13 -24 21 0 11 -11 15
-37 14 -21 -1 -45 -3 -53 -5z"/>
<path d="M10262 2040 c-1 -8 -5 -33 -8 -55 -5 -31 -4 -37 5 -29 7 7 11 29 8
55 -2 24 -4 37 -5 29z"/>
<path d="M2506 1988 c-3 -7 -7 -26 -11 -43 -3 -16 -19 -46 -35 -66 -27 -34
-28 -38 -12 -51 9 -8 25 -18 36 -22 13 -4 17 -12 12 -30 -3 -14 -1 -28 5 -32
15 -9 59 16 59 33 0 7 7 16 15 19 8 4 15 12 15 19 0 8 8 11 20 8 10 -3 26 2
35 11 15 15 14 16 -17 16 -33 0 -33 0 -32 47 1 27 3 53 4 58 9 36 0 45 -45 45
-28 0 -47 -5 -49 -12z"/>
<path d="M4330 1986 c0 -9 5 -16 10 -16 6 0 10 4 10 9 0 6 -4 13 -10 16 -5 3
-10 -1 -10 -9z"/>
<path d="M3518 1923 c7 -3 16 -2 19 1 4 3 -2 6 -13 5 -11 0 -14 -3 -6 -6z"/>
<path d="M10379 1873 c-13 -16 -12 -17 4 -4 16 13 21 21 13 21 -2 0 -10 -8
-17 -17z"/>
<path d="M4565 1774 c-6 -9 -19 -17 -30 -18 -11 -1 -30 -7 -43 -14 -12 -7 -26
-11 -31 -8 -25 16 -159 -99 -139 -119 9 -9 49 14 77 44 24 25 24 25 19 3 -9
-35 24 -28 47 10 10 18 20 27 23 20 2 -7 10 -12 18 -12 11 0 13 -7 8 -27 -7
-27 -6 -27 12 -12 10 9 31 19 46 23 29 6 58 31 58 48 0 6 -9 0 -20 -13 l-20
-24 12 30 c6 17 18 35 26 42 11 9 10 12 -7 18 -12 3 -21 11 -21 16 0 15 -24
10 -35 -7z"/>
<path d="M1387 1773 c-12 -11 -7 -33 7 -33 12 0 26 20 26 36 0 7 -26 5 -33 -3z"/>
<path d="M2571 1702 c-51 -55 -65 -86 -51 -112 7 -14 2 -28 -25 -64 l-35 -45
24 -16 c16 -11 35 -14 58 -10 27 5 42 0 82 -30 38 -27 59 -35 92 -35 32 0 43
4 46 18 3 10 23 24 49 32 24 7 50 18 57 23 7 5 31 7 53 4 76 -10 78 -4 57 155
-10 73 -16 93 -33 104 -33 22 -101 13 -188 -23 -30 -13 -39 -23 -48 -57 -6
-23 -17 -63 -25 -90 -8 -27 -14 -60 -14 -72 0 -12 -7 -28 -16 -35 -14 -11 -18
-10 -30 6 -19 26 -18 138 1 175 17 32 14 36 -16 20 -24 -14 -26 10 -3 45 9 13
14 31 12 39 -2 10 -17 0 -47 -32z m332 -89 c17 -16 -81 -52 -104 -37 -18 11
31 44 67 44 17 0 34 -3 37 -7z m-43 -103 c-23 -23 -50 -26 -50 -7 0 20 10 27
42 27 l28 0 -20 -20z"/>
<path d="M4473 1589 c-9 -9 -29 -16 -56 -18 -14 -2 -40 -69 -33 -86 5 -15 12
-12 43 19 21 20 44 36 53 36 8 0 22 5 30 10 13 8 12 12 -5 30 -15 14 -24 17
-32 9z"/>
<path d="M610 1526 c0 -8 5 -18 10 -21 6 -3 10 1 10 9 0 8 -4 18 -10 21 -5 3
-10 -1 -10 -9z"/>
<path d="M1156 1523 c-12 -30 -6 -43 19 -43 20 0 25 5 25 24 0 27 -35 43 -44
19z"/>
<path d="M1075 1502 c-14 -10 -18 -42 -6 -42 9 0 31 31 31 44 0 8 -13 7 -25
-2z"/>
<path d="M7001 1444 c0 -11 3 -14 6 -6 3 7 2 16 -1 19 -3 4 -6 -2 -5 -13z"/>
<path d="M9476 1423 c-18 -28 -31 -76 -49 -180 -13 -79 -21 -143 -16 -143 4 0
10 12 13 28 16 81 36 201 38 227 1 17 9 41 18 55 26 39 32 50 26 50 -3 0 -17
-17 -30 -37z"/>
<path d="M3060 1425 c0 -19 11 -19 36 0 18 14 18 14 -8 15 -18 0 -28 -5 -28
-15z"/>
<path d="M196 1413 c-3 -3 -6 -24 -6 -46 0 -34 2 -38 15 -27 8 7 15 25 15 41
0 28 -12 44 -24 32z"/>
<path d="M2855 1389 c-19 -17 -35 -35 -35 -41 0 -5 13 -17 30 -26 16 -9 30
-22 30 -28 0 -5 15 -27 34 -47 30 -32 39 -37 80 -37 53 0 53 1 35 109 -17 97
-20 101 -84 101 -46 0 -59 -4 -90 -31z"/>
<path d="M7010 1410 c0 -5 5 -10 11 -10 5 0 7 5 4 10 -3 6 -8 10 -11 10 -2 0
-4 -4 -4 -10z"/>
<path d="M3430 1391 c0 -5 7 -15 17 -22 15 -13 15 -12 4 9 -12 23 -21 28 -21
13z"/>
<path d="M1020 1381 c0 -6 4 -13 10 -16 6 -3 7 1 4 9 -7 18 -14 21 -14 7z"/>
<path d="M0 1119 c0 -205 2 -243 15 -253 9 -6 18 -27 21 -47 5 -32 3 -38 -15
-44 -16 -5 -21 -14 -21 -42 0 -30 3 -34 18 -27 22 11 146 11 194 1 32 -8 37
-6 43 12 9 31 42 26 60 -9 10 -19 11 -30 5 -30 -6 0 -8 -5 -4 -12 4 -6 7 -53
7 -104 l0 -92 52 4 c42 4 54 1 70 -16 26 -29 55 -26 55 5 0 20 5 24 23 22 19
-2 22 3 22 36 0 26 7 45 24 62 29 31 38 31 70 1 21 -20 29 -22 41 -13 26 20
50 65 44 81 -8 20 -23 21 -30 2 -8 -21 -61 -11 -89 16 -17 17 -22 30 -18 49 7
36 -29 59 -55 36 -16 -14 -57 -23 -144 -31 -34 -4 -37 -2 -27 15 8 16 5 21
-17 30 -15 5 -37 9 -48 7 -12 -1 -31 3 -43 10 -14 8 -24 9 -28 2 -3 -6 -40
-10 -81 -9 -85 1 -94 9 -71 61 8 18 21 71 27 118 16 112 17 115 44 128 31 14
41 46 26 83 -10 24 -18 29 -46 29 -23 0 -43 9 -68 33 -34 32 -35 35 -25 72 10
37 3 54 -23 55 -5 0 -8 -109 -8 -241z m85 21 c15 -25 7 -103 -13 -123 -20 -20
-20 -20 -36 11 -22 42 -21 98 2 111 22 13 39 14 47 1z m349 -519 c-3 -3 -10 1
-16 7 -7 7 -22 12 -34 12 -25 0 -39 14 -29 30 3 5 23 -3 44 -18 21 -15 37 -29
35 -31z m92 28 c3 -5 -6 -9 -20 -9 -16 0 -26 6 -26 14 0 15 36 11 46 -5z m-19
-64 c14 -14 13 -15 -13 -9 -39 9 -54 24 -25 24 12 0 29 -7 38 -15z"/>
<path d="M7070 1308 c0 -17 32 -78 41 -78 6 0 0 17 -12 38 -26 43 -29 47 -29
40z"/>
<path d="M10171 1194 c0 -11 3 -14 6 -6 3 7 2 16 -1 19 -3 4 -6 -2 -5 -13z"/>
<path d="M1006 1172 c-6 -11 21 -52 35 -52 5 0 9 6 9 14 0 8 7 17 16 20 8 3
12 10 9 16 -7 12 -62 13 -69 2z"/>
<path d="M2990 1172 c0 -13 34 -42 49 -42 7 0 11 10 9 23 -2 16 -11 23 -30 25
-16 2 -28 -1 -28 -6z"/>
<path d="M8831 1145 c-27 -31 -39 -55 -28 -55 2 0 18 20 36 45 39 54 35 58 -8
10z"/>
<path d="M8765 1049 c-9 -17 -15 -33 -13 -35 3 -2 12 12 21 31 21 43 13 47 -8
4z"/>
<path d="M9398 1055 c-18 -53 -118 -479 -128 -545 -6 -41 -15 -88 -20 -105
-12 -40 -33 -257 -28 -281 2 -11 10 22 16 71 36 275 82 502 153 756 11 42 19
87 17 100 -3 22 -4 22 -10 4z"/>
<path d="M7230 1022 c6 -13 14 -21 18 -18 3 4 -2 14 -12 24 -18 16 -18 16 -6
-6z"/>
<path d="M513 993 c-46 -41 -52 -99 -14 -140 27 -30 28 -30 62 -14 38 18 49
50 24 71 -17 14 -19 43 -5 70 8 15 6 21 -9 30 -26 13 -22 14 -58 -17z"/>
<path d="M10146 984 c-4 -20 -5 -38 -3 -40 3 -3 8 11 11 32 4 20 5 38 3 40 -3
3 -8 -11 -11 -32z"/>
<path d="M730 1002 c0 -5 13 -9 29 -9 15 0 39 -9 52 -21 12 -12 27 -18 31 -14
13 13 -1 39 -25 46 -33 9 -87 7 -87 -2z"/>
<path d="M375 978 c-25 -105 -7 -158 54 -158 47 0 54 6 36 34 -7 11 -16 41
-20 66 -4 24 -12 52 -19 62 -15 25 -45 23 -51 -4z"/>
<path d="M152 928 c-16 -16 -15 -48 1 -48 17 0 59 44 50 53 -10 11 -38 8 -51
-5z"/>
<path d="M990 911 c0 -5 5 -13 10 -16 6 -3 10 -2 10 4 0 5 -4 13 -10 16 -5 3
-10 2 -10 -4z"/>
<path d="M1345 880 c-7 -23 2 -60 16 -60 5 0 9 -7 9 -15 0 -9 12 -18 30 -22
19 -3 35 -15 43 -32 8 -16 20 -26 35 -26 15 0 27 -11 40 -35 18 -36 20 -37 88
-24 28 5 32 3 47 -29 12 -25 23 -35 39 -34 13 0 42 -4 66 -8 58 -10 56 10 -6
57 -26 20 -58 46 -71 57 -15 14 -38 21 -63 21 -35 0 -52 14 -28 22 6 2 -31 36
-82 75 -71 55 -101 73 -125 73 -23 0 -33 -5 -38 -20z"/>
<path d="M10132 880 c0 -14 2 -19 5 -12 2 6 2 18 0 25 -3 6 -5 1 -5 -13z"/>
<path d="M783 870 c-35 -14 -28 -31 7 -19 16 6 27 15 24 20 -3 5 -6 9 -7 8 -1
0 -12 -4 -24 -9z"/>
<path d="M913 813 c-25 -10 -13 -49 24 -82 29 -26 34 -34 22 -42 -19 -12 -2
-11 44 2 30 8 37 15 37 34 0 21 -5 25 -27 25 -38 0 -58 15 -58 42 0 22 -18 32
-42 21z"/>
<path d="M3548 809 c-20 -11 -24 -44 -7 -55 11 -6 69 42 69 58 0 11 -41 9 -62
-3z"/>
<path d="M8625 749 c-4 -6 -5 -12 -2 -15 2 -3 7 2 10 11 7 17 1 20 -8 4z"/>
<path d="M7370 740 c0 -8 9 -26 20 -40 16 -20 19 -21 13 -5 -10 32 -33 62 -33
45z"/>
<path d="M795 730 c-3 -5 3 -10 14 -10 11 0 23 5 26 10 3 6 -3 10 -14 10 -11
0 -23 -4 -26 -10z"/>
<path d="M770 700 c0 -11 6 -20 14 -20 20 0 28 27 10 34 -23 9 -24 8 -24 -14z"/>
<path d="M3570 700 c-11 -7 -12 -15 -4 -37 14 -40 39 -37 39 6 0 37 -11 46
-35 31z"/>
<path d="M810 671 c0 -6 9 -20 20 -31 24 -24 52 -16 48 14 -2 16 -11 22 -35
24 -19 2 -33 -1 -33 -7z"/>
<path d="M920 660 c0 -5 4 -10 9 -10 6 0 13 5 16 10 3 6 -1 10 -9 10 -9 0 -16
-4 -16 -10z"/>
<path d="M4690 659 c0 -5 5 -7 10 -4 6 3 10 8 10 11 0 2 -4 4 -10 4 -5 0 -10
-5 -10 -11z"/>
<path d="M4337 633 c-17 -17 -6 -33 19 -29 32 6 38 11 29 25 -7 12 -38 15 -48
4z"/>
<path d="M4605 620 c-3 -5 1 -10 10 -10 9 0 13 5 10 10 -3 6 -8 10 -10 10 -2
0 -7 -4 -10 -10z"/>
<path d="M0 584 c0 -31 3 -35 18 -29 9 4 25 10 35 12 9 3 17 9 17 13 0 7 -55
40 -67 40 -1 0 -3 -16 -3 -36z"/>
<path d="M4660 610 c0 -5 5 -10 10 -10 6 0 10 5 10 10 0 6 -4 10 -10 10 -5 0
-10 -4 -10 -10z"/>
<path d="M3856 561 c-4 -7 -5 -15 -2 -18 9 -9 19 4 14 18 -4 11 -6 11 -12 0z"/>
<path d="M4045 561 c-3 -5 -1 -12 5 -16 12 -7 30 2 30 16 0 12 -27 12 -35 0z"/>
<path d="M1704 543 c-19 -3 -84 -72 -84 -87 0 -3 13 -3 30 0 35 8 65 -17 57
-46 -3 -11 -1 -23 4 -26 5 -3 9 -19 9 -36 0 -23 4 -29 16 -24 9 3 17 6 20 6 2
0 10 13 18 28 8 16 47 50 85 77 39 26 71 54 71 61 0 26 -75 54 -142 53 -35 -1
-73 -4 -84 -6z"/>
<path d="M655 530 c-3 -5 -15 -10 -26 -10 -25 0 -43 -44 -29 -70 5 -10 25 -27
43 -38 25 -15 36 -29 41 -56 l7 -35 65 1 c63 1 93 -10 80 -30 -3 -5 -18 -12
-33 -15 -16 -3 -40 -9 -55 -12 -23 -6 -28 -4 -34 19 -7 27 -12 30 -112 50 -46
9 -58 16 -72 41 -13 24 -25 31 -61 37 -24 3 -64 9 -89 13 -25 4 -50 14 -56 21
-18 22 -44 6 -44 -27 0 -24 -4 -29 -25 -29 -34 0 -48 28 -24 53 23 25 20 28
-37 62 l-46 27 -32 -23 c-17 -12 -37 -31 -44 -41 -7 -10 -21 -18 -31 -18 -38
0 -41 -17 -41 -237 l0 -213 164 0 c150 0 168 2 201 21 l36 22 6 -22 c5 -19 12
-21 72 -21 51 1 62 3 48 11 -10 6 -24 9 -30 6 -22 -8 -57 12 -57 33 0 12 -25
46 -61 82 -55 55 -63 60 -74 45 -16 -22 -35 -21 -79 1 -47 23 -46 42 2 41 65
0 124 13 143 32 21 21 64 25 75 8 9 -15 70 -4 90 15 19 19 53 5 61 -24 5 -18
42 -39 79 -44 24 -4 32 -46 10 -46 -9 0 -25 6 -36 12 -16 10 -24 10 -40 0 -11
-6 -28 -12 -38 -12 -10 0 -31 -14 -47 -30 -22 -23 -26 -33 -17 -42 12 -12 23
-8 85 24 12 6 23 5 33 -3 23 -19 16 -38 -20 -53 -19 -8 -39 -24 -46 -35 -11
-21 -10 -21 170 -21 118 0 179 3 175 10 -3 5 -13 10 -21 10 -23 0 -13 44 11
48 11 2 28 11 37 19 38 33 71 -12 44 -58 l-17 -29 71 0 c54 0 72 4 77 15 6 17
-23 55 -43 55 -6 0 -16 16 -21 36 -10 46 -35 64 -63 46 -22 -13 -90 -17 -90
-4 0 14 23 32 40 32 9 0 25 9 35 20 10 11 22 17 26 14 5 -3 9 2 9 10 0 9 -6
13 -13 10 -19 -7 -38 19 -35 47 3 23 1 24 -49 21 -47 -3 -52 -2 -55 19 -2 16
-11 23 -33 26 -44 6 -58 22 -50 59 5 30 1 38 -45 84 -54 54 -56 55 -65 40z
m-481 -60 c39 -14 34 -42 -6 -38 -25 2 -34 8 -36 26 -4 24 4 27 42 12z m-19
-94 c27 -19 13 -46 -25 -46 -32 0 -47 18 -36 45 7 19 36 19 61 1z m-57 -236
c12 -11 25 -20 30 -20 13 0 33 -26 26 -33 -4 -3 -16 0 -26 8 -12 8 -33 11 -53
8 -19 -3 -35 0 -39 6 -4 6 -3 11 3 11 5 0 13 9 16 20 3 11 10 20 14 20 4 0 17
-9 29 -20z"/>
<path d="M3566 514 c-10 -9 -16 -33 -16 -60 0 -39 3 -46 26 -54 14 -6 36 -10
48 -10 29 0 92 -43 88 -59 -1 -7 2 -10 8 -6 18 11 48 -5 54 -30 7 -29 22 -32
47 -9 10 9 36 18 58 21 23 3 41 10 41 16 0 11 15 0 15 -11 0 -4 4 -13 8 -20
13 -19 65 23 83 67 12 29 20 36 45 38 18 1 41 13 54 27 l23 25 -35 7 c-19 4
-45 2 -58 -4 -19 -9 -26 -8 -37 5 -16 19 -69 43 -89 39 -8 -1 -28 -10 -46 -19
-26 -14 -41 -15 -75 -8 -33 8 -48 7 -65 -4 -32 -21 -37 -20 -82 25 -43 43 -70
50 -95 24z"/>
<path d="M4175 510 c-3 -5 3 -10 15 -10 12 0 18 5 15 10 -3 6 -10 10 -15 10
-5 0 -12 -4 -15 -10z"/>
<path d="M8095 500 c-3 -5 -1 -10 4 -10 6 0 11 5 11 10 0 6 -2 10 -4 10 -3 0
-8 -4 -11 -10z"/>
<path d="M8095 470 c4 -6 11 -8 16 -5 14 9 11 15 -7 15 -8 0 -12 -5 -9 -10z"/>
<path d="M3114 439 c8 -40 13 -46 27 -32 16 16 7 57 -15 61 -16 4 -18 0 -12
-29z"/>
<path d="M4377 463 c-3 -2 12 -22 32 -42 43 -43 52 -75 15 -59 -14 6 -32 7
-49 1 -26 -8 -26 -9 -8 -28 10 -11 29 -21 42 -23 21 -2 50 -26 51 -42 0 -3
-11 -18 -25 -35 -24 -30 -24 -30 -25 -6 0 30 -27 62 -46 54 -20 -7 -18 -19 7
-42 21 -19 21 -23 9 -68 -8 -26 -17 -50 -21 -53 -5 -3 3 -18 16 -32 20 -22 31
-26 59 -21 19 3 36 1 40 -6 4 -6 23 -11 43 -11 l36 0 -6 51 c-4 28 -12 58 -18
66 -10 11 -10 22 -1 46 6 18 12 70 14 115 3 92 -1 99 -65 109 -18 3 -46 11
-64 18 -17 7 -34 11 -36 8z"/>
<path d="M1951 439 c-12 -10 -42 -24 -64 -30 -23 -6 -44 -14 -47 -18 -3 -3
-17 -14 -32 -24 -22 -14 -26 -23 -23 -45 5 -25 0 -29 -57 -57 -62 -29 -101
-33 -126 -13 -17 14 -58 -8 -65 -34 -3 -11 -10 -17 -16 -14 -15 10 -23 -28
-11 -59 l10 -27 -44 3 c-24 2 -42 1 -40 -3 2 -3 -12 -12 -31 -18 -45 -15 -43
-41 2 -55 17 -6 40 -18 50 -27 16 -15 69 -17 536 -18 284 0 517 2 517 4 0 3
-38 34 -84 70 -81 64 -108 76 -120 57 -9 -14 -79 -23 -120 -15 -26 4 -41 14
-51 35 -24 45 -19 66 15 74 16 4 33 11 36 17 6 10 -74 95 -161 172 -50 44 -51
44 -74 25z m-341 -332 c0 -7 -11 -20 -24 -29 -22 -16 -24 -16 -31 -1 -4 11 2
23 17 34 23 18 38 16 38 -4z m530 -67 c0 -20 -5 -30 -15 -30 -15 0 -21 40 -8
53 14 15 23 6 23 -23z"/>
<path d="M3304 393 c-17 -17 -17 -18 10 -21 33 -4 39 0 30 22 -8 21 -18 20
-40 -1z"/>
<path d="M865 370 c-3 -5 3 -10 14 -10 12 0 21 5 21 10 0 6 -6 10 -14 10 -8 0
-18 -4 -21 -10z"/>
<path d="M3446 371 c-12 -5 -15 -10 -9 -14 6 -4 16 0 23 8 14 17 13 17 -14 6z"/>
<path d="M4250 370 c0 -5 7 -10 15 -10 8 0 15 5 15 10 0 6 -7 10 -15 10 -8 0
-15 -4 -15 -10z"/>
<path d="M2260 327 c-14 -6 -26 -12 -28 -13 -8 -5 21 -44 46 -63 49 -35 55
-32 57 32 2 55 1 57 -24 56 -14 0 -37 -5 -51 -12z"/>
<path d="M3616 288 c1 -92 2 -95 31 -103 35 -8 62 25 63 78 0 45 -28 77 -68
77 -26 0 -27 -2 -26 -52z"/>
<path d="M4072 258 c-18 -18 -15 -26 19 -60 22 -22 29 -38 26 -54 -4 -21 1
-24 32 -29 20 -3 48 -8 64 -10 38 -6 87 5 87 20 0 19 -49 57 -134 104 -86 47
-78 45 -94 29z"/>
<path d="M1070 210 c0 -21 16 -26 38 -12 9 6 6 12 -13 20 -22 10 -25 9 -25 -8z"/>
<path d="M3780 189 c0 -5 5 -7 10 -4 6 3 10 8 10 11 0 2 -4 4 -10 4 -5 0 -10
-5 -10 -11z"/>
<path d="M4584 186 c-14 -15 -6 -109 7 -100 5 3 9 0 9 -5 0 -6 -4 -11 -10 -11
-5 0 -10 -11 -10 -24 0 -20 4 -23 22 -18 17 4 20 2 15 -11 -6 -15 3 -17 64
-17 l70 0 -38 48 c-48 60 -51 62 -92 62 -33 0 -34 1 -15 15 16 12 17 16 5 24
-8 5 -11 16 -8 25 8 20 -5 28 -19 12z"/>
<path d="M2406 155 c4 -8 8 -15 10 -15 2 0 4 7 4 15 0 8 -4 15 -10 15 -5 0 -7
-7 -4 -15z"/>
<path d="M1131 121 c-9 -6 -11 -18 -7 -35 6 -25 26 -37 26 -16 0 6 9 10 20 10
23 0 24 4 10 31 -12 21 -27 24 -49 10z"/>
<path d="M8641 120 c0 -8 6 -28 14 -45 17 -39 18 -21 0 25 -7 19 -14 28 -14
20z"/>
<path d="M3750 106 c0 -2 7 -9 15 -16 9 -7 15 -8 15 -2 0 5 -7 12 -15 16 -8 3
-15 4 -15 2z"/>
<path d="M3988 73 c7 -3 16 -2 19 1 4 3 -2 6 -13 5 -11 0 -14 -3 -6 -6z"/>
<path d="M5974 72 c-13 -8 -28 -62 -17 -62 21 1 34 20 31 43 -2 17 -7 24 -14
19z"/>
<path d="M3266 28 l-29 -28 37 0 c32 0 36 3 36 24 0 35 -11 36 -44 4z"/>
<path d="M5090 20 c-21 -16 -22 -20 -7 -20 26 0 59 19 52 31 -9 13 -17 11 -45
-11z"/>
<path d="M8670 26 c0 -8 4 -17 9 -20 5 -4 7 3 4 14 -6 23 -13 26 -13 6z"/>
<path d="M4321 19 c-71 -14 -60 -19 35 -18 84 1 87 1 59 14 -34 16 -34 16 -94
4z"/>
<path d="M3350 10 c0 -5 9 -10 20 -10 11 0 20 5 20 10 0 6 -9 10 -20 10 -11 0
-20 -4 -20 -10z"/>
</g>
</svg>
