<?xml version="1.0" standalone="no"?>
<!DOCTYPE svg PUBLIC "-//W3C//DTD SVG 20010904//EN"
 "http://www.w3.org/TR/2001/REC-SVG-20010904/DTD/svg10.dtd">
<svg version="1.0" xmlns="http://www.w3.org/2000/svg"
 width="554.000000pt" height="554.000000pt" viewBox="0 0 554.000000 554.000000"
 preserveAspectRatio="xMidYMid meet">

<g transform="translate(0.000000,554.000000) scale(0.100000,-0.100000)"
fill="#000000" stroke="none">
<path d="M5171 5510 c-5 -17 -17 -33 -25 -36 -8 -3 -12 -12 -9 -20 4 -10 -1
-13 -18 -12 -30 4 -39 -28 -11 -36 45 -15 51 -102 10 -138 -15 -13 -17 -21 -9
-35 6 -10 11 -12 11 -5 0 6 10 12 23 12 12 0 40 9 62 19 25 11 54 16 73 13 47
-6 41 19 -11 43 -28 13 -43 27 -45 43 -3 20 1 22 38 22 46 0 65 24 37 45 -10
7 -17 17 -17 24 0 6 -4 11 -9 11 -5 0 -8 11 -8 25 0 14 3 25 8 25 5 0 9 7 9
15 0 11 -12 15 -49 15 -46 0 -50 -2 -60 -30z m89 -59 c0 -20 -13 -41 -21 -35
-15 9 -10 44 6 44 8 0 15 -4 15 -9z"/>
<path d="M5447 5534 c-3 -3 -3 -39 -1 -79 5 -69 4 -74 -18 -86 -32 -17 -32
-16 -12 -41 15 -18 26 -22 49 -18 27 5 30 9 33 48 2 29 9 46 23 55 15 9 19 23
19 69 l0 58 -43 0 c-24 0 -46 -3 -50 -6z"/>
<path d="M4241 5391 c-7 -13 -7 -23 2 -34 18 -25 40 -6 31 26 -7 32 -19 34
-33 8z"/>
<path d="M977 5393 c-11 -10 -8 -43 3 -43 6 0 10 11 10 25 0 26 -2 29 -13 18z"/>
<path d="M5332 5190 c1 -13 9 -25 16 -28 17 -5 15 23 -4 39 -14 11 -15 10 -12
-11z"/>
<path d="M5458 5167 c-48 -26 -58 -37 -58 -58 0 -33 9 -42 28 -27 8 7 23 17
35 23 11 5 25 19 31 30 6 11 15 23 19 26 5 4 7 14 5 22 -2 13 -13 11 -60 -16z"/>
<path d="M5350 5081 c-22 -27 -66 -52 -74 -44 -4 5 -6 -3 -4 -17 2 -18 12 -28
38 -36 19 -7 36 -11 38 -9 4 3 21 119 18 122 -1 1 -8 -6 -16 -16z"/>
<path d="M5102 4918 c-16 -16 -15 -33 4 -53 15 -15 15 -17 -2 -30 -16 -13 -17
-16 -4 -24 21 -15 28 -3 32 58 3 55 -7 72 -30 49z"/>
<path d="M5448 4390 c-9 -14 -24 -20 -50 -20 -21 0 -38 -4 -38 -10 0 -5 10
-10 23 -10 16 0 18 -3 8 -9 -8 -5 -10 -14 -5 -22 4 -7 10 -29 14 -49 6 -39 40
-57 40 -22 0 21 39 52 65 52 8 0 15 6 15 14 0 8 6 17 13 20 6 3 -6 3 -28 0
l-40 -5 25 17 c14 10 27 19 29 20 5 4 -41 43 -51 44 -4 0 -13 -9 -20 -20z"/>
<path d="M1981 4310 c-24 -44 -34 -81 -41 -142 -15 -131 -13 -164 15 -208 16
-26 25 -54 25 -81 0 -37 2 -40 17 -28 15 13 15 12 3 -8 -21 -33 -3 -98 28 -97
12 0 22 -3 22 -8 0 -5 9 -4 20 2 19 10 20 9 9 -8 -10 -15 -18 -18 -44 -12 -32
7 -33 6 -39 -29 -11 -67 -7 -109 12 -120 16 -10 16 -10 0 -11 -14 0 -16 -4 -8
-25 5 -14 7 -32 4 -40 -4 -8 -1 -15 6 -15 7 0 9 -8 5 -20 -4 -13 -1 -22 9 -26
9 -3 16 -18 16 -33 1 -14 7 -37 15 -51 8 -14 15 -38 15 -55 0 -22 3 -26 9 -16
5 8 7 21 4 30 -5 14 -4 14 12 0 12 -12 18 -36 20 -88 1 -41 8 -78 16 -87 12
-15 11 -16 -9 -10 -23 8 -32 -9 -9 -17 6 -2 9 -8 5 -12 -4 -4 -14 -2 -22 4
-10 8 -16 9 -21 1 -3 -5 -11 -10 -16 -10 -6 0 -1 13 11 30 17 24 19 33 10 50
-6 11 -15 18 -21 15 -13 -9 -11 9 2 22 14 14 4 47 -12 38 -6 -4 -8 -14 -5 -22
4 -8 2 -11 -5 -7 -8 4 -9 -1 -4 -17 4 -15 3 -19 -3 -11 -13 19 -41 4 -35 -19
4 -14 0 -19 -16 -19 -16 0 -21 6 -21 26 0 16 -4 23 -11 18 -7 -4 -7 1 1 16 17
31 24 144 9 134 -9 -5 -10 -1 -6 14 4 12 10 32 14 44 9 30 -15 14 -27 -18 -11
-29 -26 -31 -42 -4 -7 11 -19 20 -27 20 -8 0 -11 -7 -8 -20 3 -12 0 -20 -7
-20 -15 0 -46 32 -46 48 0 24 -15 19 -17 -6 0 -14 -8 -31 -17 -38 -14 -10 -16
-28 -12 -119 3 -59 7 -110 10 -113 11 -11 6 -33 -6 -26 -8 5 -9 2 -5 -9 8 -20
-4 -29 -23 -16 -13 7 -13 9 0 10 8 0 4 4 -10 8 -15 4 -24 14 -22 23 1 10 -9
20 -25 26 -16 5 -36 13 -45 17 -15 6 -18 2 -18 -23 0 -17 5 -34 11 -38 8 -4 8
-9 1 -13 -13 -8 -22 -90 -11 -97 5 -3 9 -10 9 -16 0 -7 -5 -6 -14 1 -12 11
-14 6 -12 -32 2 -25 7 -50 11 -57 4 -6 8 -88 9 -180 1 -160 2 -170 23 -189 31
-29 63 -28 63 2 0 13 -7 32 -15 43 -8 10 -15 29 -15 40 0 23 -23 48 -33 37
-10 -10 -8 6 3 28 12 22 30 25 30 6 0 -7 9 -23 21 -35 11 -13 27 -48 35 -79 8
-30 27 -72 43 -92 16 -20 36 -61 45 -91 9 -30 34 -102 56 -160 22 -58 52 -147
66 -198 22 -82 24 -99 14 -147 -10 -47 -8 -62 9 -117 11 -35 25 -89 32 -120
11 -51 14 -56 25 -40 12 15 13 14 14 -10 0 -16 5 -28 11 -28 7 0 8 22 4 67
-10 106 -11 112 -18 119 -3 3 -1 18 5 33 6 14 10 44 9 66 0 33 1 37 10 22 7
-12 12 -110 13 -261 1 -228 2 -241 18 -222 17 21 17 21 27 -4 8 -21 16 -14 12
12 -2 13 50 59 60 53 5 -4 9 0 9 7 0 10 3 9 11 -2 8 -12 9 -10 4 8 -4 13 -2
22 4 22 6 0 11 9 11 20 0 12 10 25 25 32 25 11 25 13 19 82 -7 76 -7 96 -3
111 7 23 -13 100 -36 141 -14 25 -25 54 -25 65 0 16 -4 19 -20 14 -15 -5 -20
-2 -20 12 0 10 -3 29 -6 43 -6 24 -6 24 8 6 8 -10 20 -16 25 -13 11 7 23 -23
23 -59 0 -22 35 -74 49 -74 14 0 -6 83 -22 95 -8 5 -18 25 -21 43 -4 17 -11
32 -15 32 -13 0 -24 331 -12 343 8 8 11 5 12 -9 0 -12 4 -9 10 11 18 59 20 88
7 98 -9 6 -7 7 7 2 11 -4 43 -9 70 -12 l51 -5 -1 -104 c0 -68 -5 -108 -13
-116 -6 -6 -12 -26 -11 -42 l1 -31 9 33 c5 17 12 32 14 32 11 0 2 -200 -11
-250 -8 -30 -14 -69 -14 -88 0 -18 -7 -47 -16 -64 -10 -20 -16 -56 -15 -107 0
-42 -4 -106 -8 -144 -8 -74 -5 -83 24 -88 21 -4 35 -39 15 -39 -6 0 -8 4 -5
10 3 5 2 10 -4 10 -5 0 -15 -8 -20 -17 -10 -17 -10 -17 -11 0 0 10 -8 17 -20
17 -11 0 -20 6 -21 13 0 6 -5 1 -10 -12 -5 -14 -7 -37 -4 -53 7 -30 4 -44 -8
-40 -8 2 0 -88 10 -118 9 -28 14 -105 6 -95 -4 6 -15 10 -23 10 -8 0 -20 16
-27 35 l-11 35 -7 -28 c-4 -15 -5 -41 -1 -57 6 -34 4 -36 -18 -14 -10 10 -16
11 -16 4 0 -7 -7 -9 -16 -6 -8 3 -12 2 -9 -4 3 -6 1 -10 -5 -10 -12 0 -7 90 6
111 4 7 2 10 -7 7 -8 -3 -18 -27 -22 -56 -9 -55 -26 -70 -28 -24 l-1 27 -8
-25 c-7 -22 -8 -20 -9 15 -1 36 -2 38 -15 20 -7 -11 -16 -29 -19 -40 -4 -16
-5 -14 -6 7 0 15 12 62 28 105 29 80 47 188 33 197 -14 8 -35 -11 -29 -28 3
-8 2 -18 -3 -21 -6 -4 -10 -16 -10 -28 -1 -21 -1 -21 -15 -4 -13 18 -14 17
-18 -10 -2 -15 -3 2 0 38 3 49 0 68 -9 72 -10 4 -10 6 0 6 18 1 15 21 -3 21
-9 0 -18 -7 -21 -15 -4 -8 -10 -15 -15 -15 -4 0 -6 7 -3 15 4 9 0 15 -10 15
-9 0 -16 3 -16 8 0 4 20 6 45 4 44 -4 45 -3 45 26 0 17 -5 43 -10 58 -11 27
-11 27 -29 8 -10 -11 -21 -26 -24 -34 -3 -8 -6 1 -7 20 -2 35 -2 35 -17 -14
-12 -40 -17 -46 -25 -33 -5 10 -7 21 -3 26 10 16 -12 21 -25 6 -16 -19 -30
-11 -23 14 7 29 -13 34 -34 8 -22 -28 -73 -45 -73 -23 0 7 7 19 15 26 17 14
20 50 5 50 -5 0 -17 -14 -26 -32 -23 -44 -40 -59 -58 -52 -9 3 -14 9 -12 13 2
3 -11 13 -30 22 -18 9 -31 12 -28 7 3 -5 -2 -16 -12 -23 -18 -14 -18 -14 1
-15 19 -1 19 -1 3 -14 -22 -16 -23 -30 -2 -22 8 3 12 2 9 -4 -3 -6 0 -10 7
-11 7 -1 2 -4 -12 -8 -16 -4 -25 -14 -25 -26 0 -16 9 -21 50 -26 28 -3 46 -7
40 -9 -5 -1 4 -6 20 -11 24 -7 23 -7 -10 -2 -22 3 -56 6 -75 7 l-35 1 1 -55
c7 -286 10 -306 74 -469 17 -44 18 -52 5 -48 -12 5 -15 -2 -15 -34 0 -22 -6
-47 -14 -54 -12 -12 -15 -7 -26 33 -7 26 -14 55 -17 66 -3 12 -8 15 -15 8 -10
-10 -7 -23 18 -87 7 -17 5 -18 -8 -8 -8 7 -18 10 -21 6 -4 -3 -7 2 -7 13 0 16
-2 17 -10 4 -9 -13 -10 -13 -10 0 0 12 -2 12 -9 2 -6 -10 -10 -7 -15 13 -4 17
-2 33 6 43 12 15 11 16 -4 3 -16 -12 -18 -11 -18 8 0 11 -5 21 -10 21 -6 0 -8
-10 -4 -24 3 -13 1 -27 -5 -31 -20 -12 -50 6 -55 33 -8 40 -8 133 -1 165 5 19
4 27 -6 27 -11 0 -14 21 -14 94 0 52 3 89 7 83 5 -8 8 -6 8 6 0 26 16 21 40
-13 13 -18 19 -38 15 -49 -4 -13 0 -20 14 -24 11 -3 22 -2 25 1 10 9 7 42 -4
42 -5 0 -7 17 -6 37 3 30 8 37 21 35 14 -3 16 1 11 20 -3 13 -6 29 -6 36 0 6
-7 12 -15 12 -8 0 -15 -7 -15 -15 0 -8 -4 -15 -10 -15 -15 0 -12 26 5 40 12
10 13 16 4 26 -8 10 -8 18 -1 27 8 9 7 20 -3 40 -8 15 -10 29 -4 32 5 4 9 -1
9 -9 0 -9 7 -16 15 -16 19 0 19 5 -1 40 -11 17 -14 35 -9 46 5 13 9 15 12 7 7
-20 23 -15 23 7 0 10 -6 23 -14 27 -8 4 -15 17 -18 28 -2 14 -12 20 -31 21
-22 1 -27 -3 -27 -22 0 -13 -5 -24 -10 -24 -7 0 -7 -6 0 -19 5 -11 7 -27 4
-35 -3 -9 -2 -16 4 -16 6 0 13 6 15 13 3 6 6 -1 6 -17 1 -24 -1 -27 -14 -16
-24 20 -19 -12 5 -40 18 -21 19 -25 5 -32 -8 -5 -15 -16 -15 -24 0 -8 5 -12
10 -9 5 3 10 -1 10 -9 0 -9 -5 -16 -11 -16 -6 0 -9 -6 -6 -13 2 -6 -1 -18 -8
-24 -10 -10 -15 -8 -21 5 -6 13 -9 9 -15 -18 -6 -26 -7 -21 -3 20 12 140 14
220 6 220 -5 0 -16 -8 -25 -18 -12 -13 -27 -16 -60 -14 l-44 4 -7 75 c-10 128
-7 238 9 284 24 66 45 166 45 209 0 30 -7 46 -34 74 -36 39 -37 43 -5 24 17
-10 23 -10 26 0 8 20 27 14 59 -19 l29 -30 6 -197 c8 -235 19 -352 30 -307 4
17 7 55 9 85 1 39 4 49 9 35 5 -11 6 -37 3 -57 -4 -34 -2 -38 17 -38 12 0 21
6 21 15 0 18 -16 20 -24 3 -3 -7 -4 2 -1 20 4 36 15 57 15 29 0 -10 7 -17 15
-17 8 0 15 3 15 8 -1 13 -27 42 -39 42 -19 0 -12 27 9 33 16 4 19 11 15 29
-10 41 -12 209 -2 196 5 -8 6 -3 3 15 -5 19 -3 26 6 25 9 -2 15 17 18 62 3 36
11 74 17 86 11 19 10 20 -20 17 l-32 -4 35 17 35 17 -37 10 c-21 6 -38 17 -38
24 0 10 5 11 19 3 11 -5 29 -10 40 -10 13 0 22 -7 22 -17 1 -10 2 -30 3 -45 3
-39 13 -44 21 -9 5 25 14 32 53 45 26 8 54 15 62 15 8 0 30 4 48 7 28 5 32 10
26 28 -8 28 -20 39 -45 43 -11 2 -28 10 -36 19 -13 12 -13 15 -2 14 37 -6 49
1 49 24 0 14 -4 28 -10 31 -5 3 -10 -3 -10 -14 0 -12 -5 -21 -11 -21 -6 0 -9
6 -6 14 7 18 -28 10 -45 -11 -9 -11 -9 -16 1 -23 19 -11 6 -41 -32 -78 l-34
-33 4 28 c6 35 -27 69 -54 58 -17 -6 -17 -7 1 -21 19 -13 19 -14 -8 -14 -15 0
-25 -4 -21 -10 11 -17 -15 -11 -46 11 -16 11 -29 27 -29 34 0 8 -8 20 -18 27
-18 13 -37 38 -29 38 2 0 16 -11 31 -25 15 -14 35 -25 45 -25 9 0 22 -5 29
-12 6 -6 14 -9 18 -6 7 8 -32 48 -47 48 -5 0 -7 -5 -3 -11 4 -7 1 -10 -7 -7
-8 3 -14 14 -14 25 0 11 -6 27 -14 36 -8 10 -9 17 -3 17 6 0 14 -4 17 -10 3
-5 10 -10 16 -10 14 0 11 20 -3 20 -20 1 -68 47 -68 66 0 16 2 16 15 -2 20
-26 19 0 -1 31 -19 29 -10 32 20 8 12 -10 15 -11 9 -3 -17 19 -16 33 1 27 10
-4 13 -1 9 9 -3 8 1 14 8 14 12 0 12 2 1 9 -11 7 -11 9 2 14 23 9 20 26 -5 24
-16 -1 -19 -7 -16 -25 3 -17 1 -22 -9 -18 -8 3 -14 1 -14 -5 0 -6 -4 -8 -9 -5
-5 4 -12 0 -15 -6 -3 -7 -3 -2 0 12 4 14 10 27 14 30 17 12 19 58 3 71 -15 12
-16 12 -10 -3 4 -11 2 -15 -7 -12 -17 6 -16 34 1 34 13 0 12 3 -14 49 -2 2 -8
-1 -16 -7 -8 -7 -18 -7 -27 -2 -8 6 -24 10 -36 10 -28 0 -63 38 -46 49 7 4 12
12 11 17 -5 19 13 94 23 94 6 0 8 6 5 14 -3 8 -1 17 6 20 9 3 8 8 -3 15 -13 9
-13 11 3 11 9 0 17 5 17 10 0 6 10 10 21 10 17 0 19 3 10 14 -8 9 -8 16 -2 20
6 4 8 13 5 20 -3 7 2 34 11 60 9 26 14 50 11 53 -3 3 -8 -3 -12 -13 -19 -60
-56 -106 -78 -98 -12 4 -13 10 -7 18 11 13 4 56 -9 56 -5 0 -10 -6 -13 -12 -3
-10 -8 -10 -18 1 -11 10 -11 15 -1 18 15 6 16 53 0 53 -6 0 -20 -8 -31 -17
-19 -17 -20 -17 -14 0 4 11 1 17 -7 17 -23 0 -24 -24 -3 -35 11 -5 26 -26 33
-45 7 -19 13 -29 13 -21 1 8 3 12 6 10 9 -9 -8 -49 -18 -42 -6 4 -8 0 -4 -11
4 -10 -3 -36 -18 -64 -14 -26 -25 -52 -25 -58 0 -6 -9 -19 -19 -28 -10 -9 -31
-37 -47 -61 -15 -25 -29 -43 -32 -41 -5 5 47 86 70 109 20 19 24 47 8 47 -6 0
-13 -8 -17 -17 -8 -23 -34 -53 -45 -53 -18 0 -26 45 -13 76 10 24 10 34 0 47
-15 21 -24 21 -48 0 -11 -10 -17 -13 -14 -7 4 7 -2 14 -16 17 -12 3 -37 10
-54 15 -46 15 -63 -4 -56 -59 4 -30 3 -40 -5 -35 -7 4 -12 1 -12 -8 0 -33 -30
-2 -50 52 -45 118 -62 152 -80 152 -11 0 -20 -10 -23 -27 -4 -24 -1 -36 24
-83 5 -8 20 -38 34 -67 26 -53 45 -74 45 -51 0 8 5 5 11 -5 6 -11 9 -32 7 -48
-5 -29 15 -42 25 -16 3 6 3 -1 1 -18 -4 -21 2 -41 21 -70 22 -33 31 -40 58
-39 59 2 65 4 96 36 17 17 31 26 31 20 0 -7 -15 -27 -32 -45 -29 -28 -38 -32
-80 -29 -45 3 -62 -8 -38 -23 11 -7 14 -45 4 -45 -3 0 -14 10 -25 23 -25 30
-24 7 2 -37 15 -26 19 -43 13 -71 -8 -43 -26 -42 -29 2 -1 16 -7 38 -12 48 -8
13 -10 6 -9 -27 1 -23 5 -46 9 -49 4 -3 8 -27 9 -54 0 -35 3 -43 10 -31 5 9 7
24 4 34 -5 18 30 69 41 59 3 -3 5 -18 6 -32 0 -14 3 -25 8 -25 14 0 11 -28 -3
-34 -7 -3 -2 -3 12 1 22 5 23 4 11 -11 -16 -19 -1 -22 18 -3 11 10 11 8 2 -10
-16 -31 -14 -37 7 -17 16 17 17 17 20 -5 3 -22 4 -22 17 -4 8 10 15 27 15 38
l1 20 8 -20 c5 -11 4 -21 0 -23 -5 -2 -9 -10 -9 -17 0 -8 -9 -17 -20 -20 -11
-3 -20 -11 -20 -16 0 -5 -9 -9 -19 -9 -21 0 -37 -17 -26 -28 3 -3 9 -1 14 6 4
6 7 -11 8 -38 0 -38 5 -54 19 -65 17 -13 18 -14 2 -15 -20 0 -25 -20 -6 -20 9
0 9 -3 0 -12 -18 -18 -15 -28 11 -29 18 -1 18 -2 4 -6 -18 -4 -18 -6 -1 -24 9
-10 21 -16 25 -13 5 3 9 -2 9 -10 0 -8 -5 -18 -10 -21 -5 -3 -10 -16 -10 -28
0 -18 2 -19 10 -7 5 8 10 11 10 7 0 -4 -7 -18 -15 -30 -14 -22 -15 -100 -2
-113 9 -9 27 6 27 22 0 8 5 14 10 14 6 0 10 12 10 28 -1 25 -2 24 -19 -13 -11
-23 -20 -32 -20 -22 -1 10 6 29 15 42 9 14 18 37 19 53 3 34 15 62 26 62 9 0
69 -56 69 -65 0 -4 -4 -4 -9 -1 -13 8 -17 -9 -13 -55 2 -21 8 -36 13 -33 5 3
9 -22 9 -55 0 -33 4 -62 9 -65 5 -3 12 -27 16 -53 3 -27 13 -58 20 -69 8 -12
15 -44 16 -72 1 -28 6 -49 11 -46 4 3 8 -2 8 -11 0 -9 4 -13 10 -10 5 3 7 0 4
-9 -3 -8 2 -28 10 -45 9 -16 16 -45 16 -63 0 -18 9 -60 19 -93 10 -33 16 -62
12 -65 -3 -3 -7 -16 -9 -30 -4 -24 -3 -25 12 -5 14 19 15 16 16 -37 0 -32 -4
-58 -9 -58 -6 0 -5 -15 1 -37 5 -20 7 -52 4 -72 -7 -44 -7 -41 0 -128 6 -81
-7 -123 -32 -102 -8 6 -14 20 -14 30 0 11 -5 19 -11 19 -8 0 -10 -13 -6 -37 7
-43 1 -58 -29 -67 -30 -9 -48 16 -40 58 8 41 -10 98 -24 76 -5 -8 -7 -41 -4
-74 4 -58 4 -59 -15 -42 -12 11 -21 14 -26 7 -13 -22 -25 -10 -25 24 0 34 -14
48 -23 23 -2 -7 -7 -11 -10 -8 -10 10 12 100 32 127 30 41 40 102 40 243 1
134 -14 234 -34 226 -13 -4 -13 53 0 73 3 6 0 9 -7 6 -9 -4 -13 6 -13 32 0 21
3 40 7 43 11 8 -3 51 -14 44 -5 -3 -7 -12 -4 -20 3 -8 -1 -14 -8 -14 -9 0 -12
-7 -9 -18 2 -10 -3 -24 -11 -31 -9 -8 -16 -18 -16 -23 0 -6 7 -5 15 2 20 17
20 -7 0 -34 -17 -23 -20 -40 -5 -31 5 3 10 2 10 -4 0 -5 -5 -13 -10 -16 -16
-10 -11 -22 13 -30 13 -4 17 -8 9 -12 -6 -2 -9 -9 -6 -14 4 -6 10 -6 18 0 10
8 12 4 11 -19 -1 -17 -5 -33 -10 -38 -4 -4 -4 3 -1 16 8 25 -9 31 -18 5 -6
-15 -8 -14 -20 2 -12 16 -12 15 -8 -13 3 -21 0 -32 -8 -32 -7 0 -10 7 -6 16 3
8 2 12 -4 9 -6 -3 -10 -16 -10 -27 0 -36 -13 -11 -14 27 -1 25 4 37 17 41 9 3
17 12 17 20 0 10 -5 9 -20 -6 -11 -11 -26 -20 -33 -20 -17 0 -47 -36 -39 -46
4 -4 -1 -4 -10 -1 -10 4 -18 2 -18 -3 0 -5 -13 -15 -30 -24 -39 -19 -38 -4 1
27 17 13 30 30 28 36 -3 7 -23 -11 -47 -40 -23 -28 -43 -45 -43 -38 -1 8 -2
21 -3 29 -2 24 53 90 76 90 25 0 98 78 98 105 -1 20 -1 20 -17 0 -14 -18 -15
-18 -9 -2 3 11 9 30 12 44 5 18 9 21 15 11 7 -10 9 -9 9 5 0 10 14 50 30 89
32 75 36 110 19 155 -18 47 -69 253 -69 278 0 14 -14 46 -30 72 -17 26 -29 56
-26 66 2 9 0 17 -5 17 -5 0 -9 8 -9 17 0 10 -11 47 -24 83 -57 158 -69 214
-71 315 -1 55 -5 109 -10 120 -9 19 -9 19 -16 -5 -6 -23 -7 -23 -8 -3 -1 12
-5 25 -11 28 -5 3 -7 19 -3 36 6 33 -15 139 -29 139 -4 0 -8 11 -8 25 0 14 5
25 10 25 6 0 10 4 10 10 0 5 -6 7 -13 4 -8 -3 -17 12 -26 41 -10 34 -18 45
-33 45 -15 0 -19 5 -15 18 2 9 6 23 8 31 2 8 -11 23 -30 34 l-33 20 13 -24
c16 -29 17 -50 5 -66 -11 -17 -26 -17 -26 0 0 7 -9 20 -20 30 -11 9 -20 12
-20 6 0 -6 -7 -8 -16 -5 -9 4 -23 1 -30 -5 -12 -10 -13 -8 -8 5 6 14 2 16 -22
10 -16 -5 -36 -8 -45 -8 -11 0 -14 -7 -11 -23 2 -13 11 -23 18 -23 8 0 14 -4
14 -10 0 -18 -14 -10 -50 26 -34 35 -34 43 5 57 8 4 -20 33 -59 60 -8 5 -7 10
2 16 10 6 4 10 -18 15 -53 10 -56 7 -19 -18 20 -14 39 -34 42 -45 4 -18 1 -21
-21 -20 -18 1 -21 3 -9 6 14 4 16 8 6 19 -13 16 -33 19 -24 4 3 -5 -3 -10 -14
-10 -11 0 -23 5 -26 10 -3 6 -17 10 -30 10 -13 0 -25 4 -27 9 -1 4 -14 12 -27
16 -15 4 -21 3 -17 -3 4 -6 -21 -13 -64 -17 -63 -6 -69 -9 -53 -21 17 -12 16
-13 -7 -15 l-25 -1 25 -8 c14 -4 21 -8 17 -9 -5 -1 1 -14 12 -30 15 -20 32
-30 61 -35 23 -4 38 -11 35 -16 -4 -7 -13 -7 -25 0 -10 5 -27 10 -37 9 -10 0
-13 -3 -5 -6 27 -11 10 -21 -19 -11 -23 8 -27 13 -17 19 10 7 10 9 -3 9 -9 0
-19 -7 -23 -15 -3 -8 0 -15 7 -15 8 0 8 -3 -2 -9 -8 -5 -12 -18 -8 -30 3 -12
1 -19 -4 -15 -5 3 -9 -34 -9 -87 0 -89 1 -92 32 -128 18 -20 40 -47 49 -60
l15 -24 39 26 c22 15 46 27 53 27 8 0 31 14 52 30 21 17 44 30 51 30 8 0 47
16 87 36 40 20 79 33 87 30 18 -6 20 -43 3 -48 -17 -6 32 -68 53 -68 10 0 21
-5 25 -11 3 -6 15 -9 25 -6 12 3 19 0 19 -10 0 -10 -8 -13 -29 -10 -17 3 -35
8 -40 12 -12 7 -14 -12 -11 -80 2 -36 50 -168 86 -237 8 -14 14 -33 14 -42 0
-9 4 -16 8 -16 4 0 14 -17 21 -37 17 -48 71 -123 139 -193 90 -92 154 -256
151 -388 -1 -77 -7 -105 -20 -97 -5 4 -9 -4 -9 -17 0 -17 3 -19 9 -9 13 20 24
-5 12 -27 -11 -20 -4 -62 10 -62 5 0 9 -4 9 -9 0 -8 -37 -24 -52 -22 -5 1 -8
-5 -8 -11 0 -9 -3 -9 -9 1 -7 10 -4 19 7 28 15 11 14 12 -8 12 -23 0 -74 -17
-58 -18 12 -1 -33 -81 -46 -81 -18 0 -64 34 -106 78 -21 22 -55 45 -74 52 -19
6 -49 24 -65 39 -39 37 -210 121 -245 121 -32 0 -60 14 -95 47 -14 13 -34 29
-44 34 -15 8 -17 5 -18 -23 l-1 -33 -14 33 c-22 50 -23 75 -23 367 0 313 3
412 14 478 7 43 6 47 -14 47 -13 0 -19 5 -15 14 3 7 -3 16 -12 20 -22 9 -30 0
-15 -17 9 -11 8 -17 -3 -27 -12 -9 -13 -15 -3 -31 10 -16 9 -21 -2 -28 -11 -7
-11 -9 0 -14 11 -4 12 -7 2 -18 -8 -7 -13 -39 -13 -73 0 -43 -3 -57 -10 -46
-6 10 -10 -136 -10 -422 0 -422 6 -509 28 -385 l9 52 9 -34 c6 -19 16 -36 24
-39 13 -3 13 -2 1 6 -12 9 -12 16 2 49 9 23 12 45 7 53 -4 7 -6 19 -3 27 11
29 29 -31 22 -72 -4 -22 -5 -89 -3 -150 4 -83 2 -106 -6 -95 -10 12 -11 11 -7
-7 3 -15 1 -20 -9 -16 -8 3 -14 9 -14 14 0 5 -12 9 -26 9 -23 0 -25 -2 -13
-16 11 -13 10 -17 -4 -25 -15 -9 -17 -33 -17 -220 0 -116 4 -208 8 -205 4 2 9
-4 9 -15 1 -11 -2 -17 -6 -14 -5 2 -9 -225 -10 -505 l-2 -510 2771 0 2770 0 0
614 c-1 467 -4 616 -13 620 -9 5 -9 7 1 12 6 3 12 16 12 29 0 21 -5 24 -47 28
l-48 3 48 2 47 2 0 125 c0 77 -4 125 -10 125 -6 0 -5 8 2 20 11 17 10 22 -1
29 -11 7 -11 9 0 14 12 4 11 7 -1 16 -9 7 -10 11 -3 11 9 0 12 54 12 210 0
174 -2 210 -14 210 -7 0 -16 4 -19 9 -4 5 3 7 14 4 18 -5 20 0 20 56 0 48 -3
61 -15 61 -8 0 -15 5 -15 10 0 6 7 10 15 10 13 0 15 12 13 67 -3 64 -4 67 -34
77 -18 6 -29 16 -27 24 6 14 -13 16 -20 2 -3 -6 -4 -5 -3 2 4 21 -27 46 -46
36 -11 -5 -18 -5 -18 0 0 16 41 22 46 7 3 -8 12 -11 20 -8 8 3 18 -5 25 -20
13 -28 45 -48 35 -22 -3 9 0 15 9 15 9 0 15 10 15 25 0 22 -3 24 -19 15 -21
-11 -54 -3 -45 11 3 5 -1 9 -9 9 -8 0 -17 6 -19 13 -8 19 2 37 20 37 13 0 12
-3 -4 -15 -14 -11 -15 -14 -2 -9 11 4 18 -1 23 -15 7 -24 21 -27 40 -7 10 10
11 16 2 25 -8 8 -8 11 1 11 7 0 12 7 12 15 0 18 -16 20 -23 3 -4 -10 -8 -10
-14 -2 -4 6 -24 15 -43 19 -20 5 -29 10 -20 13 8 3 19 11 23 18 4 8 13 14 19
14 6 0 3 -10 -8 -22 -16 -17 -16 -20 -3 -15 9 3 21 1 26 -4 15 -15 43 1 43 24
0 16 -3 18 -12 9 -7 -7 -16 -12 -22 -12 -5 0 1 8 12 19 14 11 22 30 22 49 0
26 -3 30 -25 27 -14 -1 -28 2 -31 6 -3 5 9 9 25 9 24 0 31 4 31 20 0 23 -45
39 -63 21 -16 -16 -23 -14 -24 7 -1 16 4 18 43 12 l44 -7 0 39 c0 21 -5 38
-11 38 -5 0 -8 -4 -5 -9 3 -4 -10 -7 -29 -5 -26 2 -32 -1 -28 -12 3 -8 -1 -14
-10 -14 -11 0 -14 7 -11 26 4 23 2 26 -17 21 -22 -6 -69 10 -69 24 0 4 9 9 20
11 26 4 22 23 -5 24 -39 2 -46 4 -42 12 3 4 -9 8 -26 8 -18 1 -72 4 -122 7
-94 6 -163 -3 -175 -23 -5 -9 -9 -9 -14 -1 -4 6 -16 11 -27 11 -16 0 -19 -5
-14 -20 8 -24 2 -25 -19 -4 -9 8 -21 12 -27 8 -8 -4 -7 -9 2 -15 9 -6 -3 -8
-31 -7 l-45 1 30 13 c28 13 26 13 -34 11 -41 -1 -66 -7 -69 -14 -2 -8 5 -13
20 -13 27 0 51 -33 43 -60 -4 -12 -12 -16 -25 -13 -11 3 -20 0 -20 -6 0 -6 3
-12 8 -12 4 -1 23 -3 41 -5 33 -4 34 -3 15 11 -18 13 -18 14 -1 15 10 0 16 4
13 8 -3 5 8 6 25 4 18 -3 29 0 29 8 0 7 -6 10 -13 7 -17 -6 -77 22 -77 35 0 6
11 3 24 -5 15 -10 27 -12 35 -6 6 5 9 6 6 2 -8 -11 53 -33 72 -26 11 4 14 3 9
-5 -4 -7 -1 -12 9 -12 9 0 13 -5 10 -10 -4 -6 -11 -7 -17 -4 -7 4 -8 2 -4 -4
4 -7 1 -12 -6 -12 -9 0 -9 -3 2 -10 13 -8 13 -10 -2 -10 -9 0 -25 -3 -35 -6
-15 -5 -15 -4 -3 4 12 9 9 13 -14 22 -22 8 -31 7 -40 -4 -16 -19 -38 -25 -59
-14 -12 6 -23 5 -33 -3 -12 -10 -18 -8 -30 9 -9 14 -21 19 -31 15 -15 -6 -14
-7 3 -14 13 -5 14 -8 4 -8 -8 0 -22 4 -30 9 -13 9 -13 11 0 20 8 5 22 10 31
10 9 0 19 7 23 15 3 8 11 15 18 15 10 0 10 -2 1 -8 -8 -5 1 -8 22 -9 19 -1 32
3 29 8 -3 5 -9 7 -14 4 -5 -3 -11 -1 -15 5 -3 5 -1 10 6 10 10 0 10 3 1 12
-10 10 -15 10 -22 -2 -9 -13 -11 -13 -20 0 -5 8 -10 21 -10 28 0 24 -117 4
-184 -31 -15 -8 -39 -13 -53 -11 -13 3 -22 1 -20 -3 3 -4 -15 -8 -40 -9 -25
-1 -48 -5 -51 -10 -4 -5 -16 -10 -27 -12 -11 -2 -41 -17 -66 -33 -25 -16 -50
-29 -54 -29 -5 0 -17 -8 -27 -17 -13 -11 -33 -16 -62 -14 -34 1 -59 -6 -112
-35 -38 -20 -78 -44 -89 -54 -11 -9 -36 -24 -56 -33 -19 -9 -44 -26 -55 -38
-10 -11 -39 -33 -64 -47 -25 -14 -47 -29 -50 -32 -3 -3 -18 -13 -35 -22 -16
-10 -29 -21 -28 -26 1 -5 -10 -7 -25 -5 -21 3 -39 -7 -84 -47 -47 -42 -61 -61
-75 -108 -10 -31 -32 -78 -49 -103 -23 -33 -34 -63 -40 -110 l-8 -64 -6 45
c-4 25 -4 56 0 70 4 14 6 39 5 55 -1 17 5 39 14 49 9 11 10 16 4 12 -18 -10
-17 29 0 46 8 7 16 32 19 55 4 29 20 60 53 102 25 34 42 61 37 61 -5 0 -9 16
-9 35 0 23 3 31 9 23 6 -11 10 -10 17 1 5 7 13 11 19 7 13 -8 67 119 57 135
-5 8 -4 10 3 5 8 -5 12 2 12 19 0 14 -4 24 -9 20 -5 -3 -11 9 -13 27 l-4 33
-12 -27 c-6 -16 -15 -28 -19 -28 -13 0 -59 -43 -70 -65 -6 -11 -14 -47 -18
-80 -7 -61 -32 -106 -46 -84 -4 6 -15 12 -25 13 -45 5 -107 46 -70 46 9 0 16
8 17 18 0 13 2 13 9 -4 14 -35 34 -42 26 -10 -4 15 -2 26 4 26 5 0 10 -4 10
-10 0 -5 4 -10 10 -10 5 0 7 13 4 30 -5 22 -2 31 10 36 9 3 16 11 16 18 0 6
14 24 30 40 23 21 28 32 20 41 -11 13 -4 45 11 45 5 0 9 -10 9 -22 0 -21 3
-20 30 12 16 19 30 41 30 48 0 6 5 12 10 12 6 0 15 11 20 25 5 14 14 25 20 25
6 0 8 5 5 10 -4 6 -10 8 -15 5 -10 -6 -25 34 -16 42 3 4 6 -1 6 -10 0 -10 5
-17 10 -17 6 0 19 -9 30 -20 26 -26 80 -26 114 1 26 20 35 49 16 49 -5 0 -10
8 -10 18 0 14 2 15 10 2 7 -11 10 -7 10 17 0 17 -5 35 -10 38 -7 4 -7 12 0 25
27 51 -10 96 -73 87 -51 -7 -77 -24 -77 -52 0 -14 -5 -34 -12 -44 -11 -19 -13
-18 -35 12 -13 17 -23 38 -23 46 0 9 -13 28 -28 43 -26 24 -30 25 -44 11 -14
-14 -17 -13 -23 8 -5 14 -3 25 3 27 6 2 9 9 6 16 -4 11 2 11 31 2 23 -7 33
-16 30 -25 -3 -7 0 -20 6 -27 10 -12 14 -11 27 7 9 13 21 19 33 16 22 -6 23
-3 8 24 -8 16 -7 25 6 39 19 21 47 16 38 -6 -3 -8 3 -24 12 -34 17 -19 17 -20
-1 -21 -15 -1 -13 -3 6 -9 35 -11 52 -12 46 -1 -4 5 0 11 6 14 7 2 10 8 6 12
-4 4 -14 2 -22 -4 -13 -11 -16 -8 -22 13 -3 13 -3 30 2 37 4 7 3 9 -3 6 -14
-9 -29 11 -36 48 -4 17 -4 24 -1 18 3 -7 12 -13 20 -13 8 0 14 -9 14 -20 0
-11 4 -20 9 -20 5 0 7 10 3 22 -4 16 -2 19 8 13 10 -6 12 -4 6 10 -7 18 -6 18
14 0 11 -10 20 -25 20 -33 0 -8 6 -12 14 -9 8 3 17 1 20 -6 4 -7 4 -1 2 13
l-5 25 19 -23 c18 -22 21 -22 41 -8 25 17 49 76 49 121 0 17 7 50 16 74 10 31
12 46 4 51 -12 7 -7 24 30 104 21 43 22 56 16 144 -8 110 -43 206 -74 200 -10
-2 -35 -38 -59 -83 -22 -44 -45 -84 -50 -90 -5 -5 -19 -31 -31 -57 -21 -43
-25 -46 -54 -41 -17 2 -41 9 -54 13 -16 6 -26 5 -34 -6 -7 -7 -21 -14 -31 -14
-13 0 -19 -7 -19 -21 0 -18 -6 -14 -33 22 -18 24 -52 77 -75 116 -50 86 -74
103 -104 76 -41 -36 -58 -92 -58 -191 0 -85 2 -97 31 -147 17 -30 35 -58 40
-61 5 -3 9 -21 9 -41 0 -27 -3 -34 -15 -29 -8 3 -23 -3 -32 -13 -29 -31 -143
-93 -159 -87 -8 3 -22 2 -32 -3 -98 -48 -88 -46 -126 -20 -26 18 -32 27 -24
36 14 17 1 30 -14 15 -7 -7 -19 -12 -27 -12 -12 0 -12 3 -3 12 13 13 35 19 72
20 22 0 21 1 -8 11 -23 7 -43 7 -66 0 -21 -6 -40 -7 -50 -1 -21 12 -58 0 -50
-15 5 -8 2 -8 -7 1 -7 6 -20 12 -28 12 -13 0 -13 -2 -3 -9 10 -6 4 -14 -22
-29 -20 -12 -36 -17 -36 -11 0 6 9 13 21 16 11 3 18 11 16 17 -3 7 15 25 39
40 38 24 42 30 33 48 -12 23 -2 39 11 18 7 -11 10 -7 10 15 0 21 -3 26 -9 16
-7 -10 -10 -10 -16 -1 -4 7 -3 15 3 19 6 3 11 27 12 51 1 53 -27 184 -40 188
-6 2 -10 10 -10 18 0 8 -15 30 -32 48 -18 18 -42 45 -53 60 -14 19 -25 25 -37
21 -20 -8 -41 -62 -27 -70 5 -4 7 -10 4 -16 -9 -14 14 -129 36 -179 11 -25 22
-63 25 -85 3 -22 7 -50 10 -63 4 -22 2 -23 -33 -16 -37 7 -37 6 -21 -12 15
-18 18 -23 18 -40 0 -4 6 -2 13 4 10 8 13 6 14 -9 2 -22 -1 -23 -27 -7 -27 17
-34 5 -16 -29 9 -19 15 -56 14 -104 0 -41 0 -98 0 -126 0 -30 -4 -53 -10 -53
-6 0 -7 7 -4 16 3 9 2 12 -5 9 -6 -4 -19 1 -30 11 -16 15 -22 16 -28 5 -7 -10
-10 -10 -16 -1 -4 7 -1 16 6 21 11 7 10 9 -3 9 -10 0 -18 -7 -18 -15 0 -9 -6
-12 -15 -9 -12 5 -14 0 -8 -27 3 -19 9 -36 13 -39 13 -9 29 -47 24 -53 -4 -3
-20 4 -38 16 -17 12 -33 23 -35 24 -2 2 2 14 9 28 11 20 11 27 0 40 -17 20
-30 19 -30 -4 0 -10 -7 -24 -15 -31 -8 -7 -15 -23 -15 -36 0 -33 -18 -30 -25
4 -13 58 -13 64 -8 58 4 -3 19 20 34 51 16 34 24 60 18 64 -6 4 -6 16 1 34 8
20 7 31 -1 41 -6 8 -7 14 -2 14 5 0 9 21 9 46 1 32 12 67 37 115 19 38 31 66
25 63 -6 -4 -14 -1 -18 6 -10 16 -29 0 -53 -45 -9 -17 -16 -25 -17 -20 0 6 8
24 19 40 22 38 45 104 37 112 -3 3 -14 -15 -25 -41 -11 -25 -25 -46 -31 -46
-5 0 -13 0 -17 0 -5 0 -8 3 -9 8 0 4 -6 19 -12 33 -6 15 -8 36 -5 48 9 36 -23
61 -79 61 -59 0 -93 -27 -84 -66 9 -33 -9 -65 -32 -57 -16 6 -16 6 1 -11 9 -9
17 -22 17 -28 0 -15 -89 84 -90 99 0 6 6 14 13 16 11 5 -18 11 -37 8 -4 -1
-14 6 -21 16 -15 20 -32 12 -19 -8 4 -7 9 -34 10 -60 2 -38 -1 -47 -12 -42 -9
3 -12 13 -9 24 3 10 -1 30 -11 44 -13 20 -14 28 -4 40 7 9 10 18 7 22 -4 3 -9
-2 -13 -11 -3 -9 -10 -16 -15 -16 -17 0 -9 22 16 42 14 11 23 23 21 27 -6 9
30 41 38 34 3 -3 1 -14 -5 -24 -9 -17 -6 -19 26 -20 56 -2 60 -4 59 -22 -2
-21 14 -23 22 -2 4 8 13 15 21 15 8 0 11 5 8 10 -3 6 -15 10 -26 10 -11 0 -17
5 -14 10 4 6 10 8 14 6 4 -3 14 5 22 16 8 12 22 30 32 40 9 10 14 18 11 18 -4
0 -1 7 6 15 7 9 19 14 26 11 7 -3 16 -1 19 5 4 5 10 7 15 4 5 -3 11 3 13 12 3
12 5 9 6 -8 0 -15 8 -29 16 -33 8 -3 15 -13 15 -21 0 -9 5 -13 10 -10 6 3 10
-1 10 -11 0 -12 3 -14 13 -6 8 7 18 6 31 -4 11 -8 16 -14 12 -14 -5 0 -3 -6 3
-13 6 -8 8 -16 5 -19 -3 -3 7 -9 22 -12 17 -5 30 -3 34 4 5 7 17 9 31 5 13 -3
20 -3 14 2 -5 4 -11 23 -12 42 -1 23 2 30 7 21 13 -21 24 13 17 50 -4 18 -2
30 6 34 7 2 5 5 -5 5 -21 1 -28 -18 -16 -44 5 -12 0 -9 -12 8 -12 15 -27 27
-34 27 -18 0 -49 37 -42 49 4 7 18 3 38 -8 17 -11 41 -17 54 -15 18 3 27 -1
34 -18 10 -22 10 -21 6 5 -2 20 0 27 10 23 8 -3 11 0 8 8 -3 8 -1 17 5 21 6 3
11 14 11 23 0 9 14 35 30 56 30 39 30 40 25 145 -6 115 -24 192 -54 231 -17
21 -22 23 -44 13 -14 -7 -40 -37 -58 -68 -115 -193 -169 -259 -198 -240 -16 9
-23 -13 -11 -35 9 -16 8 -18 -5 -14 -8 4 -15 15 -15 25 0 15 -7 19 -35 19 -19
0 -37 -1 -39 -2 -8 -5 -79 108 -122 195 -46 90 -74 127 -98 127 -7 0 -28 -27
-45 -60z m499 -276 c0 -8 4 -14 8 -14 5 0 25 -17 46 -37 33 -33 35 -38 19 -44
-15 -6 -13 -8 7 -8 20 -1 26 -7 28 -27 1 -14 0 -30 -3 -34 -6 -10 -72 52 -67
63 3 7 -13 11 -37 7 -13 -1 -13 1 -2 14 11 14 11 16 -4 16 -10 0 -15 -6 -13
-17 2 -10 11 -17 20 -17 9 1 15 -4 12 -10 -2 -6 10 -19 27 -29 18 -10 29 -20
27 -23 -3 -3 -26 9 -51 26 -25 16 -48 30 -51 30 -10 0 6 -54 18 -62 11 -7 -7
-13 -28 -9 -4 1 -14 -3 -22 -10 -11 -9 -15 -8 -20 4 -3 9 -14 14 -25 12 -14
-3 -19 2 -19 20 0 18 4 23 15 19 11 -4 15 0 15 16 0 20 1 20 16 5 9 -9 19 -13
22 -10 4 3 2 9 -4 13 -6 4 -13 17 -16 29 -4 16 -2 20 8 16 8 -3 14 0 14 7 0 6
-13 17 -30 23 -32 12 -40 27 -15 27 8 0 15 -6 15 -12 0 -9 4 -8 10 2 8 12 10
12 10 1 0 -8 9 -3 20 12 21 27 50 27 50 1z m-293 9 c-11 -10 30 -34 46 -27 15
6 35 -32 23 -43 -3 -4 -6 2 -6 11 0 12 -5 16 -16 12 -8 -3 -24 3 -36 14 -12
11 -25 17 -30 14 -17 -11 -7 -23 27 -34 19 -6 35 -18 35 -26 0 -8 4 -14 8 -14
5 0 19 -8 31 -19 17 -15 18 -20 7 -24 -8 -3 -16 -18 -18 -34 -2 -19 -8 -27
-18 -24 -8 2 -24 4 -35 3 -11 0 -14 2 -7 5 6 3 10 9 6 14 -9 15 -22 10 -28 -9
-6 -19 -46 -25 -46 -7 0 17 72 45 100 39 18 -4 14 0 -11 13 -20 10 -38 23 -40
28 -2 6 -16 10 -31 10 -14 1 -25 -2 -24 -5 2 -3 -5 -13 -16 -22 -10 -10 -18
-13 -18 -8 0 6 -4 10 -9 10 -5 0 -7 -8 -4 -19 3 -11 -2 -21 -11 -24 -18 -7
-22 8 -5 19 8 4 8 8 1 13 -11 7 105 141 122 141 5 0 6 -3 3 -7z m43 -13 c0 -5
-2 -10 -4 -10 -3 0 -8 5 -11 10 -3 6 -1 10 4 10 6 0 11 -4 11 -10z m80 -30 c0
-11 -2 -20 -4 -20 -2 0 -6 9 -9 20 -3 11 -1 20 4 20 5 0 9 -9 9 -20z m-20
-119 c0 -6 -4 -13 -10 -16 -5 -3 -10 1 -10 9 0 9 5 16 10 16 6 0 10 -4 10 -9z
m20 -26 c0 -8 -4 -15 -10 -15 -5 0 -10 7 -10 15 0 8 5 15 10 15 6 0 10 -7 10
-15z m-197 -2 c-7 -2 -13 -12 -13 -21 0 -15 -2 -15 -10 -2 -9 15 4 30 25 29 6
0 4 -3 -2 -6z m1737 -22 c0 -5 -7 -12 -16 -15 -14 -5 -15 -4 -4 9 14 17 20 19
20 6z m-1716 -55 c31 -28 32 -36 7 -36 -17 0 -32 18 -30 36 0 4 -5 11 -13 15
-9 6 -9 9 -1 9 7 0 23 -11 37 -24z m413 5 c2 -24 -51 -46 -76 -31 -14 8 -13 9
5 10 11 0 29 9 39 20 23 25 30 25 32 1z m1283 5 c0 -3 -4 -8 -10 -11 -5 -3
-10 -1 -10 4 0 6 5 11 10 11 6 0 10 -2 10 -4z m-1787 -96 c-6 -24 -19 -34 -27
-21 -9 14 4 41 19 41 8 0 11 -8 8 -20z m76 -125 c-2 0 9 -22 24 -50 21 -37 23
-43 7 -25 -22 26 -33 48 -44 90 -6 23 -6 24 5 5 7 -11 11 -20 8 -20z m1641 3
c0 -5 21 -30 48 -54 l47 -45 -40 24 c-22 13 -47 22 -55 19 -8 -3 -12 -1 -8 3
4 5 3 14 -3 22 -6 7 -8 13 -5 13 4 0 2 9 -4 20 -9 16 -8 18 5 14 8 -4 15 -11
15 -16z m-14 -76 c6 -4 14 -17 18 -28 5 -18 2 -21 -16 -20 -17 1 -23 8 -25 29
-2 28 4 32 23 19z m58 -8 c19 -19 19 -21 4 -30 -7 -4 -10 -4 -6 1 4 4 -3 16
-15 26 -12 10 -17 18 -10 19 6 0 19 -7 27 -16z m-1390 -28 l-7 -21 23 20 22
20 -12 -27 c-9 -18 -18 -25 -29 -20 -14 5 -14 4 -2 -11 7 -9 9 -17 5 -17 -5 0
-17 -12 -26 -27 -12 -20 -18 -23 -18 -11 0 9 4 19 9 23 6 3 10 13 11 23 4 73
6 79 18 75 8 -4 10 -13 6 -27z m1046 25 c0 -5 -7 -12 -16 -15 -14 -5 -15 -4
-4 9 14 17 20 19 20 6z m-1265 -51 c9 -16 13 -30 11 -30 -3 0 -12 14 -21 30
-9 17 -13 30 -11 30 3 0 12 -13 21 -30z m1335 10 c0 -5 -5 -10 -11 -10 -5 0
-7 5 -4 10 3 6 8 10 11 10 2 0 4 -4 4 -10z m170 -10 c0 -5 -5 -10 -11 -10 -5
0 -7 5 -4 10 3 6 8 10 11 10 2 0 4 -4 4 -10z m-1611 -84 c-5 -6 -9 10 -8 40
l1 49 8 -40 c5 -22 4 -44 -1 -49z m1676 74 c4 -6 14 -10 23 -8 10 1 29 -1 45
-5 24 -7 27 -11 25 -50 -1 -35 -2 -37 -5 -10 -4 28 -33 57 -33 32 0 -6 -10 -3
-22 5 -28 20 -38 20 -38 1 0 -8 -8 -15 -18 -15 -24 0 -33 10 -24 24 4 6 7 14
8 19 1 4 2 9 3 12 2 9 30 5 36 -5z m-1495 -18 c0 -10 5 -23 12 -30 9 -9 9 -12
0 -12 -7 0 -17 12 -22 26 -12 32 -12 34 0 34 6 0 10 -8 10 -18z m168 -7 c-6
-14 -13 -23 -15 -21 -5 5 15 46 22 46 3 0 -1 -11 -7 -25z m1125 -3 c3 -9 8
-25 12 -34 6 -15 2 -18 -19 -18 -16 0 -26 6 -26 15 0 8 -6 15 -12 15 -8 0 -6
5 4 11 10 5 15 16 11 24 -3 11 -1 13 10 9 8 -3 17 -13 20 -22z m-1145 -68
c-10 -21 -58 -55 -77 -54 -3 0 11 16 32 34 34 31 50 55 27 41 -5 -3 -10 -2
-10 3 0 16 13 22 26 11 10 -8 10 -16 2 -35z m-143 -22 c-7 -7 -45 29 -45 41 0
6 11 0 25 -13 14 -13 23 -26 20 -28z m1062 26 c-3 -8 -6 -5 -6 6 -1 11 2 17 5
13 3 -3 4 -12 1 -19z m-1460 -33 c9 -28 8 -35 -2 -35 -7 0 -16 11 -19 25 -4
14 -11 25 -17 25 -6 0 -7 5 -4 10 13 20 32 9 42 -25z m1954 12 c-10 -9 -11 -8
-5 6 3 10 9 15 12 12 3 -3 0 -11 -7 -18z m-1033 -45 c2 -15 -2 -22 -12 -22 -9
0 -16 -4 -16 -9 0 -5 -10 -11 -22 -14 -20 -5 -18 -2 10 23 33 31 32 41 -2 15
-33 -25 -43 -16 -12 10 34 29 50 28 54 -3z m539 -4 c-3 -7 -5 -2 -5 12 0 14 2
19 5 13 2 -7 2 -19 0 -25z m-3157 -10 c8 -4 24 -9 35 -14 l20 -7 -20 -5 c-35
-7 -41 -22 -10 -23 l30 0 -25 -11 c-23 -10 -23 -11 -5 -16 11 -2 29 -11 40
-19 19 -15 19 -15 -7 -9 -14 3 -34 9 -45 12 -17 5 -17 4 1 -10 11 -9 27 -16
35 -16 14 0 14 -1 1 -10 -12 -8 -12 -10 -1 -10 8 0 12 -3 9 -6 -10 -9 -80 25
-73 36 3 5 1 10 -5 10 -7 0 -10 6 -7 14 3 8 -1 20 -10 27 -13 12 -13 14 4 20
14 6 12 8 -10 8 -16 1 -26 -3 -22 -8 3 -5 0 -13 -6 -16 -13 -9 -62 36 -52 46
17 16 88 20 123 7z m2050 8 c0 -3 -4 -8 -10 -11 -5 -3 -10 -1 -10 4 0 6 5 11
10 11 6 0 10 -2 10 -4z m167 -18 c-3 -8 -6 -5 -6 6 -1 11 2 17 5 13 3 -3 4
-12 1 -19z m930 -23 c0 -8 -6 -15 -14 -15 -14 0 -17 12 -6 23 11 11 20 8 20
-8z m-3067 -5 c0 -5 -5 -10 -11 -10 -5 0 -7 5 -4 10 3 6 8 10 11 10 2 0 4 -4
4 -10z m58 -36 c0 -21 -4 -25 -22 -20 -11 3 -29 6 -38 6 -10 0 -18 5 -18 10 0
6 9 10 20 10 11 0 20 5 20 10 0 6 8 10 19 10 13 0 19 -7 19 -26z m312 6 c0 -5
-5 -10 -11 -10 -5 0 -7 5 -4 10 3 6 8 10 11 10 2 0 4 -4 4 -10z m-493 -6 c-3
-3 -12 -4 -19 -1 -8 3 -5 6 6 6 11 1 17 -2 13 -5z m2916 -11 c-8 -23 -23 -33
-47 -33 -17 0 -17 2 5 24 29 29 51 33 42 9z m236 -11 c-7 -3 -20 -10 -28 -16
-12 -9 -12 -8 -2 11 7 15 17 20 28 16 14 -5 14 -8 2 -11z m-2769 -3 c0 -6 9
-9 20 -6 13 3 20 0 20 -8 0 -21 -22 -23 -42 -3 -20 20 -23 28 -8 28 6 0 10 -5
10 -11z m-240 -25 c0 -8 -5 -12 -10 -9 -6 4 -8 11 -5 16 9 14 15 11 15 -7z
m2007 -21 c-3 -10 -5 -4 -5 12 0 17 2 24 5 18 2 -7 2 -21 0 -30z m983 2 c-7
-9 -15 -13 -17 -11 -6 6 20 36 26 30 2 -2 -2 -10 -9 -19z m-250 6 c0 -6 -5
-13 -11 -16 -6 -4 -8 -13 -5 -21 3 -9 -4 -16 -20 -20 -36 -9 -37 -2 -6 34 27
32 42 40 42 23z m476 -39 c-12 -11 -18 7 -10 30 l8 23 4 -23 c2 -13 1 -26 -2
-30z m-3121 28 c19 -8 19 -9 -2 -9 -12 -1 -25 4 -28 9 -7 12 2 12 30 0z m375
-6 c0 -14 -3 -14 -15 -4 -8 7 -15 14 -15 16 0 2 7 4 15 4 8 0 15 -7 15 -16z
m2461 -15 c-9 -22 -10 -22 -10 -3 -1 11 2 24 6 27 12 12 14 0 4 -24z m-3121
11 c0 -5 -2 -10 -4 -10 -3 0 -8 5 -11 10 -3 6 -1 10 4 10 6 0 11 -4 11 -10z
m450 -16 c0 -8 -4 -14 -10 -14 -5 0 -10 9 -10 21 0 11 5 17 10 14 6 -3 10 -13
10 -21z m2410 6 c0 -5 -5 -10 -11 -10 -5 0 -7 5 -4 10 3 6 8 10 11 10 2 0 4
-4 4 -10z m-1190 -30 c0 -5 -5 -10 -11 -10 -5 0 -7 5 -4 10 3 6 8 10 11 10 2
0 4 -4 4 -10z m1750 -6 c0 -8 -4 -12 -10 -9 -5 3 -10 10 -10 16 0 5 5 9 10 9
6 0 10 -7 10 -16z m-3227 -1 c3 -5 -5 -8 -18 -8 -13 0 -21 3 -18 8 2 4 10 7
18 7 8 0 16 -3 18 -7z m2697 -18 c11 -13 8 -15 -15 -15 -23 0 -26 2 -15 15 7
8 14 15 15 15 1 0 8 -7 15 -15z m-1230 -5 c0 -5 -4 -10 -10 -10 -5 0 -10 5
-10 10 0 6 5 10 10 10 6 0 10 -4 10 -10z m670 -50 c17 -11 20 -48 5 -63 -18
-19 -19 -46 -1 -69 10 -14 15 -15 26 -5 10 10 12 8 6 -6 -3 -10 -6 -25 -6 -33
0 -9 -5 -12 -10 -9 -6 4 -8 11 -5 16 4 5 2 9 -4 9 -16 0 -42 56 -35 74 3 9 1
16 -4 16 -7 0 -4 13 6 30 13 24 14 32 4 38 -8 6 -10 16 -5 28 7 18 8 18 11 -1
3 -11 8 -22 12 -25z m119 -35 l0 -20 -9 20 c-5 11 -9 27 -9 35 -1 13 0 13 9 0
5 -8 9 -24 9 -35z m1231 25 c0 -5 -4 -10 -10 -10 -5 0 -10 5 -10 10 0 6 5 10
10 10 6 0 10 -4 10 -10z m-2900 -87 c0 -22 -2 -25 -10 -13 -13 20 -13 40 0 40
6 0 10 -12 10 -27z m1602 15 c9 -7 19 -24 22 -38 6 -21 5 -22 -4 -7 -6 9 -15
15 -20 12 -5 -3 -11 -1 -15 5 -4 6 -11 8 -16 5 -5 -4 -9 3 -9 14 0 24 18 27
42 9z m-1457 -27 c-3 -12 -13 -21 -21 -21 -18 0 -18 9 3 32 20 22 27 17 18
-11z m4067 -3 c28 -13 38 -38 16 -38 -7 -1 -3 -6 9 -13 16 -9 20 -16 13 -27
-8 -13 -14 -12 -47 5 -20 11 -41 19 -45 18 -4 -2 -8 2 -8 7 0 6 -7 10 -15 10
-9 0 -12 -6 -9 -17 5 -17 5 -17 -6 0 -6 9 -23 17 -38 18 -27 0 -27 0 -3 10 15
6 21 15 17 24 -8 21 0 19 23 -6 16 -17 23 -19 40 -10 12 7 21 9 21 5 0 -4 3
-4 7 -1 3 4 -2 14 -13 23 -21 17 -7 14 38 -8z m90 -22 c4 -6 4 -13 1 -16 -3
-3 -8 1 -10 8 -3 6 -13 12 -24 12 -10 0 -19 5 -19 11 0 13 42 1 52 -15z m72 9
c-4 -8 -1 -15 5 -15 7 0 8 -8 1 -25 -7 -20 -6 -25 5 -25 8 0 15 -4 15 -9 0 -5
18 0 40 12 30 17 42 19 51 10 9 -9 7 -11 -11 -6 -15 4 -21 2 -17 -4 4 -6 21
-13 38 -17 43 -8 33 -14 -13 -8 -21 2 -35 8 -32 13 3 5 1 9 -5 9 -5 0 -12 -3
-15 -8 -6 -10 19 -43 27 -35 4 3 7 1 7 -5 0 -13 -60 -8 -69 6 -8 12 -66 42
-82 42 -7 0 0 -11 15 -25 15 -14 23 -25 19 -25 -5 0 -21 11 -36 25 -15 14 -27
21 -27 15 0 -6 -4 -8 -10 -5 -23 14 -7 25 35 25 45 0 62 17 26 27 -18 5 -18 6
-3 23 21 22 44 26 36 5z m-534 -5 c12 -8 9 -10 -13 -10 -19 0 -37 -11 -58 -35
-29 -33 -66 -52 -40 -21 10 11 7 14 -14 12 -26 -1 -32 -10 -15 -21 6 -3 10
-11 10 -18 0 -6 -6 -4 -12 5 -7 9 -19 17 -26 20 -9 2 -3 9 15 18 15 8 32 21
36 27 11 18 37 16 37 -3 0 -8 4 -13 10 -9 5 3 6 13 3 22 -4 9 -2 14 3 10 6 -3
16 -2 24 4 19 11 22 11 40 -1z m-2191 -57 c31 -25 24 -38 -13 -24 -16 7 -26
18 -26 31 0 11 -4 20 -10 20 -5 0 -7 7 -3 16 5 14 7 14 16 -2 5 -11 22 -29 36
-41z m2811 41 c0 -2 -12 -4 -26 -4 -14 0 -23 4 -20 9 6 8 46 4 46 -5z m-4100
-14 c6 -11 8 -20 5 -20 -3 0 0 -10 7 -22 11 -21 18 -54 33 -148 l5 -35 -14 29
-13 29 -5 -31 c-3 -24 -1 -32 11 -32 14 0 14 -1 1 -10 -12 -7 -18 -3 -27 18
-12 27 -12 27 -13 -14 0 -22 -7 -49 -15 -60 -20 -27 -19 -33 10 -29 34 3 38
-8 13 -35 -19 -21 -22 -21 -33 -6 -7 9 -17 16 -24 16 -16 0 -14 8 10 47 13 21
19 44 16 60 -3 14 -1 39 3 54 9 31 2 72 -10 64 -4 -3 -11 2 -14 11 -3 8 -10
13 -14 10 -5 -3 -9 8 -9 24 0 34 13 40 22 10 8 -24 21 -26 29 -4 3 8 2 13 -3
9 -5 -3 -5 11 1 31 7 28 7 39 -4 45 -10 7 -9 9 4 9 10 0 22 -9 28 -20z m1157
5 c0 -8 -4 -15 -9 -15 -10 0 -11 14 -1 23 9 10 10 9 10 -8z m-1097 -40 c0 -5
-5 -3 -10 5 -5 8 -10 20 -10 25 0 6 5 3 10 -5 5 -8 10 -19 10 -25z m3440 31
c0 -3 -14 -14 -31 -27 -23 -16 -33 -19 -42 -10 -8 8 -6 11 9 11 16 0 17 2 4
11 -12 8 -10 9 7 4 12 -3 24 -1 28 5 6 10 25 14 25 6z m-3956 -185 c-2 -2 -4
1 -4 8 0 7 -4 10 -9 6 -5 -3 -9 7 -9 23 1 15 -4 37 -11 49 -6 12 -11 39 -10
60 0 30 5 20 24 -52 12 -49 21 -92 19 -94z m4513 173 c-3 -3 -12 -4 -19 -1 -8
3 -5 6 6 6 11 1 17 -2 13 -5z m-4022 -15 c11 -17 -1 -21 -15 -4 -8 9 -8 15 -2
15 6 0 14 -5 17 -11z m3782 -24 c-12 -8 -14 -15 -8 -20 6 -3 11 -1 11 4 0 6 4
11 9 11 5 0 8 -10 7 -23 -1 -21 -3 -22 -34 -12 -18 7 -38 17 -44 23 -16 16 4
15 22 0 8 -7 11 -9 7 -4 -9 11 12 38 24 30 5 -3 9 0 9 7 0 7 3 9 7 5 5 -4 0
-14 -10 -21z m-538 -11 c-25 -13 -43 -9 -34 6 3 5 13 6 22 3 11 -4 14 -3 9 5
-5 8 -2 10 10 5 14 -5 13 -8 -7 -19z m125 11 c-4 -8 -16 -15 -28 -15 -20 0
-20 1 4 14 14 8 26 14 27 15 1 1 0 -6 -3 -14z m456 5 c0 -5 -4 -10 -10 -10 -5
0 -10 5 -10 10 0 6 5 10 10 10 6 0 10 -4 10 -10z m44 -11 c-4 -8 1 -9 17 -4
23 7 24 7 4 -9 -26 -20 -30 -20 -32 4 -1 11 3 20 8 20 6 0 7 -5 3 -11z m-3788
-37 c-4 -3 -11 0 -16 8 -15 24 -11 33 6 15 9 -9 13 -19 10 -23z m3084 28 c-19
-5 -38 -6 -43 -3 -5 3 -4 -5 3 -17 10 -18 14 -20 21 -9 6 11 11 11 21 1 9 -9
9 -12 -4 -12 -9 0 -20 -4 -23 -10 -4 -6 5 -10 19 -10 16 0 26 6 26 15 0 10 9
14 25 13 29 -3 34 -18 6 -18 -10 0 -24 -6 -31 -14 -13 -17 -57 -5 -52 14 1 7
-5 9 -17 5 -11 -3 -22 -1 -26 4 -3 7 0 8 9 5 11 -4 16 0 16 10 0 19 -1 19 -37
5 -31 -11 -26 -3 9 17 13 6 43 12 68 12 l45 0 -35 -8z m1006 -16 c2 -22 1 -23
-11 -8 -6 9 -17 14 -23 10 -7 -4 -12 -3 -12 3 0 8 9 13 40 20 3 0 6 -10 6 -25z
m-4378 -15 c-3 -8 -7 -3 -11 10 -4 17 -3 21 5 13 5 -5 8 -16 6 -23z m4052 27
c0 -2 -7 -7 -16 -10 -8 -3 -12 -2 -9 4 6 10 25 14 25 6z m-508 -18 c10 0 17
-2 17 -6 -3 -20 2 -32 11 -27 6 4 8 11 5 16 -4 5 4 9 16 9 22 0 22 0 3 -22
-10 -12 -13 -18 -6 -14 6 4 12 3 12 -3 0 -6 8 -8 18 -5 13 5 14 4 3 -4 -8 -6
-23 -7 -35 -2 -12 5 -33 11 -47 14 -14 3 -38 17 -54 32 l-29 26 35 -7 c19 -5
42 -8 51 -7z m686 -20 l21 -23 -23 0 c-15 0 -23 5 -21 15 1 8 -3 18 -9 22 -8
5 -8 8 0 8 6 0 20 -10 32 -22z m-535 3 c10 0 16 -5 13 -10 -3 -4 5 -6 18 -4
13 3 27 -1 31 -8 5 -7 4 -10 -3 -5 -6 3 -15 -2 -21 -11 -6 -10 -11 -12 -11 -5
0 18 -30 15 -30 -4 0 -8 -4 -12 -10 -9 -5 3 -10 15 -10 27 0 18 -2 19 -17 7
-10 -7 -15 -9 -11 -5 4 5 3 15 -2 21 -8 9 -4 12 12 10 13 -1 31 -3 41 -4z
m285 -4 c-1 -2 3 -11 10 -20 12 -14 10 -15 -20 -7 -18 6 -35 10 -38 10 -3 1 6
7 20 15 23 12 37 13 28 2z m96 -16 c-2 -3 -12 3 -22 13 -16 17 -16 18 5 5 12
-7 20 -15 17 -18z m240 23 c28 -11 17 -29 -17 -30 -17 -1 -24 1 -14 3 11 3 16
11 13 19 -6 16 -4 17 18 8z m-1050 -16 c-5 -8 -2 -9 10 -5 10 4 15 3 11 -3 -3
-6 -1 -10 6 -10 7 0 10 -2 8 -5 -3 -2 -15 -2 -27 2 -22 5 -31 33 -11 33 5 0 7
-5 3 -12z m-3223 -12 c5 3 9 1 9 -5 0 -5 -4 -13 -10 -16 -5 -3 -10 -4 -10 -1
0 2 -2 10 -3 18 -2 7 -2 10 0 5 3 -4 9 -5 14 -1z m246 -6 c4 -12 3 -13 -5 -1
-5 7 -15 10 -21 7 -6 -4 -11 -2 -11 4 0 17 33 8 37 -10z m2904 6 c4 -4 16 -3
28 3 12 7 21 8 21 2 0 -5 3 -16 6 -25 5 -14 2 -14 -34 -2 -22 8 -42 13 -44 10
-3 -2 -5 3 -5 10 0 16 18 17 28 2z m289 4 c8 -5 11 -10 5 -10 -5 0 -17 5 -25
10 -8 5 -10 10 -5 10 6 0 17 -5 25 -10z m364 -11 c5 -5 3 -15 -5 -25 -13 -16
-12 -17 6 -11 17 6 18 5 4 -5 -9 -7 -14 -19 -12 -25 3 -7 -2 -16 -11 -19 -9
-3 -13 -10 -10 -15 3 -5 -2 -6 -9 -3 -8 3 -14 13 -12 22 1 9 -7 22 -19 29 -11
7 -15 12 -8 13 6 0 21 -9 32 -20 11 -11 21 -20 23 -20 2 0 3 16 3 35 0 37 -2
37 -55 17 -10 -4 -12 -1 -5 9 5 8 9 17 10 22 1 4 2 9 3 12 1 7 54 -6 65 -16z
m202 -20 c-26 -20 -96 -26 -96 -8 0 7 14 8 40 4 31 -5 39 -4 35 7 -3 8 3 13
20 14 l25 2 -24 -19z m-4142 -5 c3 -8 2 -13 -3 -9 -5 3 -11 -1 -14 -7 -2 -7
-8 -10 -12 -6 -9 9 1 38 14 38 5 0 12 -7 15 -16z m216 -104 c-5 -15 -7 4 -7
50 0 69 0 71 7 25 4 -27 4 -61 0 -75z m160 77 c0 -16 -18 3 -23 25 -6 22 -5
22 8 4 8 -11 15 -24 15 -29z m2776 4 c-20 -19 -29 -23 -35 -13 -4 7 -15 10
-23 7 -9 -4 -19 -1 -23 6 -5 7 -3 10 6 7 8 -3 22 -1 33 4 13 7 16 7 12 -1 -4
-6 0 -11 9 -11 9 0 19 9 22 20 3 11 10 17 15 14 6 -4 -1 -18 -16 -33z m868 22
c-18 -19 -58 -27 -47 -11 3 6 -1 14 -8 19 -9 6 1 9 29 9 41 0 43 -1 26 -17z
m186 2 c-14 -17 -30 -20 -30 -6 0 5 8 12 18 14 9 3 19 5 21 6 2 0 -2 -6 -9
-14z m-783 -1 c-3 -3 -12 -4 -19 -1 -8 3 -5 6 6 6 11 1 17 -2 13 -5z m63 -4
c12 -6 28 -7 43 -1 21 8 26 6 30 -10 3 -10 10 -19 16 -19 6 0 8 8 5 18 -5 16
-5 16 6 0 6 -10 18 -18 25 -18 8 0 15 -4 15 -10 0 -5 -6 -7 -14 -4 -8 3 -17 0
-21 -7 -6 -8 1 -10 23 -7 17 2 29 1 26 -4 -9 -15 -64 -9 -64 7 0 8 -10 17 -22
20 -50 10 -82 9 -74 -4 9 -13 -26 -23 -38 -11 -5 5 -18 10 -27 10 -9 0 -19 7
-23 15 -4 13 -2 13 14 5 24 -13 33 -13 25 0 -3 6 1 7 10 3 12 -4 13 -8 5 -13
-9 -6 -9 -9 0 -15 6 -4 14 -5 16 -2 11 11 11 42 0 49 -17 11 3 9 24 -2z m150
-5 c0 -13 4 -14 23 -4 21 12 21 11 7 -7 -8 -10 -15 -20 -16 -22 -3 -5 -44 36
-44 43 0 3 7 5 15 5 8 0 15 -7 15 -15z m175 -6 c-4 -5 -13 -9 -21 -9 -12 0
-12 2 -2 14 14 15 32 11 23 -5z m-469 -4 c18 -9 23 -15 12 -15 -9 0 -20 5 -24
11 -3 6 -15 9 -25 6 -10 -3 -22 -1 -25 4 -8 14 31 11 62 -6z m1054 5 c-13 -8
-11 -11 8 -16 23 -7 31 -24 11 -24 -12 0 -38 29 -39 43 0 4 8 7 18 7 14 0 15
-2 2 -10z m-630 -9 c0 -5 -9 -7 -20 -4 -11 3 -20 7 -20 9 0 2 9 4 20 4 11 0
20 -4 20 -9z m-3743 -23 c-3 -8 -6 -5 -6 6 -1 11 2 17 5 13 3 -3 4 -12 1 -19z
m4141 3 c12 -11 22 -22 22 -25 0 -3 -10 -1 -22 5 -13 6 -31 15 -40 20 -23 11
-31 11 -24 0 4 -5 -4 -7 -16 -3 -21 5 -21 6 -2 13 32 13 58 9 82 -10z m307 9
c3 -6 -1 -7 -9 -4 -18 7 -21 14 -7 14 6 0 13 -4 16 -10z m-779 -15 c-8 -8 -18
-15 -22 -15 -3 0 -1 7 6 15 7 8 17 15 22 15 5 0 3 -7 -6 -15z m570 4 c3 -6 17
-8 30 -5 14 4 24 2 24 -4 0 -6 -4 -8 -10 -5 -5 3 -10 1 -10 -5 0 -7 6 -10 13
-7 43 16 57 18 57 6 0 -7 -3 -9 -7 -6 -9 10 -34 -13 -27 -25 7 -10 -37 10 -46
22 -3 3 -16 14 -30 23 -13 9 -19 17 -13 17 7 0 15 -5 19 -11z m-1172 -14 c-4
-8 -11 -15 -16 -15 -6 0 -5 6 2 15 7 8 14 15 16 15 2 0 1 -7 -2 -15z m896 -1
c0 -8 -5 -12 -10 -9 -6 4 -8 11 -5 16 9 14 15 11 15 -7z m85 3 c16 -13 14 -14
-23 -14 -37 0 -39 2 -24 13 22 17 24 17 47 1z m-3697 -22 c-3 -3 -9 2 -12 12
-6 14 -5 15 5 6 7 -7 10 -15 7 -18z m2649 11 c0 -8 -6 -12 -14 -9 -7 3 -10 9
-7 14 8 14 21 11 21 -5z m33 10 c0 -3 -4 -8 -10 -11 -5 -3 -10 -1 -10 4 0 6 5
11 10 11 6 0 10 -2 10 -4z m180 -6 c0 -11 33 -14 43 -3 4 3 31 7 59 8 39 2 46
0 29 -7 -13 -4 -53 -10 -91 -12 -37 -1 -73 -6 -79 -11 -10 -6 -11 -3 -2 14 12
21 41 29 41 11z m610 -2 c0 -4 -4 -8 -9 -8 -6 0 -12 4 -15 8 -3 5 1 9 9 9 8 0
15 -4 15 -9z m-725 -8 c-8 -13 11 -13 37 1 11 6 22 8 24 6 8 -8 -50 -34 -64
-29 -15 5 -16 32 -1 32 5 0 7 -4 4 -10z m405 -16 c0 -22 -16 -17 -17 6 -1 11
2 18 8 15 5 -4 9 -13 9 -21z m37 11 c0 -8 -4 -12 -9 -9 -5 3 -6 10 -3 15 9 13
12 11 12 -6z m563 6 c0 -5 -6 -11 -13 -14 -8 -3 -14 1 -14 9 0 8 6 14 14 14 7
0 13 -4 13 -9z m-3427 -16 c-3 -9 -8 -14 -10 -11 -3 3 -2 9 2 15 9 16 15 13 8
-4z m2744 9 c-3 -3 -12 -4 -19 -1 -8 3 -5 6 6 6 11 1 17 -2 13 -5z m228 -4
c-3 -5 -12 -10 -18 -10 -7 0 -6 4 3 10 19 12 23 12 15 0z m30 0 c3 -5 1 -10
-4 -10 -6 0 -11 5 -11 10 0 6 2 10 4 10 3 0 8 -4 11 -10z m69 -4 c-3 -8 -15
-11 -32 -8 -24 5 -25 6 -7 13 31 12 45 10 39 -5z m106 4 c0 -5 -8 -10 -17 -10
-15 0 -16 -2 -3 -10 9 -5 19 -5 27 2 8 6 16 8 20 5 3 -4 -6 -12 -21 -18 -22
-11 -29 -10 -43 4 -15 15 -15 17 8 26 13 5 25 10 27 10 1 1 2 -3 2 -9z m-4786
-56 c3 -27 1 -67 -4 -89 -6 -32 -8 -22 -9 54 -1 99 6 118 13 35z m1105 18 c0
-24 -1 -25 -9 -7 -12 28 -12 47 0 40 6 -3 10 -18 9 -33z m3815 23 c-18 -13
-18 -14 3 -22 l22 -8 -24 -11 c-19 -9 -22 -9 -18 2 3 8 0 20 -6 28 -13 16 -9
21 20 23 20 2 21 1 3 -12z m146 11 c0 -2 -7 -7 -16 -10 -8 -3 -12 -2 -9 4 6
10 25 14 25 6z m80 -37 c0 -9 -69 24 -70 33 0 4 16 0 35 -9 19 -9 35 -20 35
-24z m-4160 15 c0 -14 -3 -14 -15 -4 -8 7 -15 14 -15 16 0 2 7 4 15 4 8 0 15
-7 15 -16z m328 -22 c9 2 16 -3 15 -9 -2 -7 1 -13 7 -13 5 0 15 -10 21 -22 12
-22 11 -22 -7 -8 -48 36 -64 55 -63 74 2 19 2 19 6 -2 3 -14 11 -22 21 -20z
m2942 34 c0 -2 -15 -6 -34 -8 -19 -2 -32 0 -30 4 5 8 64 12 64 4z m100 0 c0
-3 -4 -8 -10 -11 -5 -3 -10 -1 -10 4 0 6 5 11 10 11 6 0 10 -2 10 -4z m937
-15 c10 -15 10 -20 0 -24 -9 -3 -9 -8 2 -20 9 -11 10 -17 2 -17 -6 0 -11 5
-11 11 0 5 -5 7 -12 3 -8 -5 -9 2 -5 25 5 23 3 30 -5 25 -7 -4 -8 -3 -4 4 10
17 19 15 33 -7z m-950 -15 c4 -3 -4 -6 -17 -6 -32 0 -22 -7 18 -13 33 -5 55
-16 36 -18 -5 0 -17 -2 -26 -4 -10 -2 -20 1 -24 6 -6 11 -35 12 -33 2 4 -22
-3 -33 -18 -33 -13 0 -15 2 -5 8 7 5 10 16 6 25 -3 10 -1 17 5 17 6 0 11 5 11
10 0 6 -7 10 -15 10 -8 0 -15 4 -15 9 0 9 67 -2 77 -13z m89 3 c4 3 4 0 0 -6
-5 -9 0 -13 13 -13 12 0 21 4 21 8 0 11 69 12 75 2 3 -4 -4 -6 -15 -3 -11 3
-20 1 -20 -5 0 -5 -6 -10 -12 -9 -46 1 -78 -4 -73 -13 10 -16 -4 -12 -35 12
-39 29 -38 38 4 28 19 -4 38 -5 42 -1z m199 -5 c-17 -13 -18 -16 -5 -24 10 -7
11 -10 3 -10 -22 0 -14 -16 13 -28 14 -7 23 -8 20 -3 -3 5 9 8 27 7 21 0 31 3
30 12 -2 6 2 12 8 12 6 0 8 -9 4 -21 -6 -17 -4 -20 6 -13 8 5 23 10 34 12 11
2 26 5 33 6 27 5 34 23 15 42 -17 16 -17 17 0 11 10 -4 17 -2 17 6 0 7 8 0 18
-15 9 -16 22 -28 29 -28 17 0 25 -17 12 -26 -8 -4 -9 -3 -5 4 4 7 0 12 -11 13
-30 2 -48 -2 -55 -14 -12 -19 -9 -24 14 -31 18 -4 20 -8 11 -17 -9 -9 -16 -9
-27 0 -15 12 -56 7 -56 -8 0 -4 -10 -7 -22 -8 l-23 -1 23 11 c12 5 21 15 19
21 -4 13 -45 17 -53 5 -2 -4 -11 -6 -18 -3 -7 3 -16 -2 -20 -12 -5 -12 -2 -15
11 -10 13 5 15 4 7 -4 -16 -16 -43 -1 -50 26 -3 13 -13 24 -22 24 -8 0 -12 -3
-9 -7 4 -3 -1 -12 -11 -19 -16 -12 -16 -13 3 -15 14 -1 11 -4 -10 -9 -34 -9
-77 -11 -57 -3 6 2 9 9 6 15 -4 6 1 8 13 4 13 -4 25 0 34 11 12 15 12 16 -3
10 -20 -7 -25 9 -5 16 8 4 7 6 -3 6 -9 1 -21 -4 -28 -11 -6 -6 -15 -9 -18 -5
-4 3 6 12 21 19 24 11 25 13 8 20 -12 6 -6 7 19 5 21 -2 34 1 31 7 -6 8 23 36
36 36 3 0 -3 -7 -14 -16z m368 4 c4 -10 8 -10 15 1 7 10 14 11 28 2 20 -11 22
-11 -51 -15 -29 -2 -39 5 -24 15 19 12 26 11 32 -3z m-2126 -112 c59 -21 111
-58 117 -82 6 -21 -6 -102 -19 -135 -4 -10 5 -27 24 -45 51 -50 76 -160 51
-219 -7 -15 -9 -10 -9 24 -1 24 -4 41 -8 38 -3 -4 -12 1 -20 11 -13 15 -14 13
-10 -23 3 -22 3 -34 0 -26 -5 11 -7 11 -14 0 -7 -11 -10 -9 -15 9 -4 13 -17
24 -33 28 -14 3 -37 9 -51 14 -27 9 -54 8 -82 -5 -10 -4 -24 -4 -30 -1 -39 20
-53 33 -53 46 0 9 -11 16 -27 18 -20 2 -28 -1 -28 -12 0 -9 8 -17 18 -17 16
-1 16 -2 -1 -6 -30 -8 -13 -28 26 -31 51 -4 47 -19 -6 -23 -38 -4 -43 -2 -39
14 5 18 -5 21 -32 11 -11 -4 -16 -18 -15 -43 l1 -36 8 30 8 30 1 -28 c0 -16 5
-26 10 -22 5 3 13 0 17 -7 5 -8 9 -7 13 5 6 15 9 15 35 2 33 -17 58 -20 36 -4
-11 8 -4 9 27 5 33 -5 44 -2 53 11 10 16 11 16 7 -3 -4 -17 -1 -20 14 -17 11
3 22 9 25 14 8 13 52 11 60 -2 4 -8 -3 -9 -25 -4 -22 5 -31 3 -32 -7 0 -7 -14
-24 -30 -37 -24 -18 -33 -21 -42 -12 -9 9 -8 11 7 5 14 -5 17 -3 14 7 -6 19
-68 25 -68 6 0 -10 -11 -12 -50 -7 -38 5 -50 3 -50 -7 0 -8 13 -13 33 -14 31
0 31 0 7 -10 -21 -9 -28 -6 -47 18 -13 15 -23 23 -23 17 0 -6 9 -23 20 -37 25
-32 25 -41 1 -28 -10 6 -21 7 -25 4 -3 -3 -6 4 -6 16 0 12 -6 34 -14 49 -12
23 -12 39 -1 107 7 44 20 107 29 140 9 32 16 68 16 79 0 10 11 39 26 63 16 28
28 68 33 116 5 39 14 85 20 101 l11 28 49 -51 c28 -30 65 -57 88 -65z m980 94
c14 -11 20 -20 14 -20 -7 0 -21 9 -33 20 -12 11 -18 20 -14 20 4 0 19 -9 33
-20z m85 -12 c-12 -12 -35 -1 -27 12 3 5 13 6 21 3 10 -4 12 -9 6 -15z m42 16
c18 -7 12 -24 -8 -24 -7 0 -13 7 -13 15 0 17 0 17 21 9z m269 -11 c4 -2 7 -10
7 -16 0 -7 -4 -6 -10 3 -5 8 -12 12 -15 8 -9 -9 17 -48 32 -48 6 0 14 -4 17
-8 3 -5 -8 -6 -24 -4 -17 2 -27 8 -24 13 3 6 -6 8 -20 5 -14 -3 -28 0 -31 5
-4 5 4 9 17 10 22 0 22 1 3 9 l-20 9 20 1 c18 0 18 2 3 10 -21 13 -48 3 -48
-18 0 -12 -3 -13 -12 -4 -7 7 -20 12 -30 12 -10 0 -18 4 -18 10 0 5 16 9 35 8
19 -1 38 2 42 6 7 6 59 -1 76 -11z m467 12 c0 -9 -58 -34 -64 -28 -4 4 8 12
26 19 18 6 34 12 36 13 1 0 2 -1 2 -4z m450 -10 c19 0 41 -5 48 -12 19 -19 14
-23 -15 -12 -18 7 -30 6 -37 -1 -5 -5 -17 -10 -25 -9 -11 0 -10 3 4 9 19 8 19
9 -2 9 -15 1 -23 7 -23 19 0 10 3 13 8 7 4 -6 23 -10 42 -10z m-1145 -4 c3 -5
1 -12 -5 -16 -5 -3 -10 1 -10 9 0 18 6 21 15 7z m-2925 -11 c0 -5 -5 -10 -11
-10 -5 0 -7 5 -4 10 3 6 8 10 11 10 2 0 4 -4 4 -10z m3850 -5 c0 -8 -2 -15 -4
-15 -2 0 -6 7 -10 15 -3 8 -1 15 4 15 6 0 10 -7 10 -15z m93 2 c27 -2 20 -17
-8 -17 -14 0 -25 6 -25 13 -1 6 -8 1 -16 -13 -8 -14 -13 -17 -10 -7 3 9 1 17
-4 17 -6 0 -10 4 -10 9 0 5 12 7 28 5 15 -3 35 -6 45 -7z m54 -1 c-3 -8 -1
-17 6 -20 7 -2 4 -5 -6 -5 -10 -1 -15 -5 -12 -11 3 -5 2 -10 -4 -10 -5 0 -13
5 -16 10 -3 6 -2 10 4 10 5 0 8 9 6 20 -3 13 2 20 12 20 9 0 13 -6 10 -14z
m253 4 c-13 -8 -13 -10 2 -10 9 0 18 5 20 12 3 7 7 4 12 -7 4 -11 4 -16 0 -12
-4 4 -13 2 -20 -3 -6 -6 -18 -9 -25 -8 -8 2 -14 -5 -14 -17 0 -11 7 -20 15
-20 8 -1 23 -6 34 -11 15 -9 12 -12 -25 -17 -24 -3 -48 -2 -53 3 -5 5 1 6 15
3 17 -4 21 -2 14 5 -5 6 -26 12 -45 14 -26 2 -36 8 -38 23 -2 15 3 21 18 22
18 2 19 0 5 -13 -19 -19 -19 -21 0 -21 8 0 12 4 9 9 -3 4 0 8 5 8 6 0 11 -6
11 -12 0 -7 12 4 27 25 14 20 31 37 37 37 6 0 4 -5 -4 -10z m-1280 -11 c0 -6
8 -9 18 -7 12 4 18 -1 18 -13 0 -11 -7 -19 -17 -19 -10 0 -19 -5 -21 -12 -3
-8 -11 -7 -28 5 -14 9 -35 17 -47 17 -13 0 -23 5 -23 11 0 7 10 9 24 5 14 -3
28 -1 31 5 4 6 14 8 22 5 8 -3 11 -1 8 4 -3 6 -1 10 4 10 6 0 11 -5 11 -11z
m-223 -5 c-3 -3 -12 -4 -19 -1 -8 3 -5 6 6 6 11 1 17 -2 13 -5z m110 -21 c-7
-6 -46 10 -41 18 3 5 14 3 24 -3 11 -7 18 -13 17 -15z m183 17 c0 -5 -4 -10
-10 -10 -5 0 -10 5 -10 10 0 6 5 10 10 10 6 0 10 -4 10 -10z m-819 -9 c6 11 9
9 9 -7 0 -12 -7 -27 -15 -34 -18 -15 -20 -34 -3 -24 6 4 -1 -9 -16 -29 -41
-54 -52 -161 -26 -262 10 -40 26 -87 34 -103 8 -16 25 -58 37 -93 12 -35 39
-100 59 -145 21 -44 40 -101 44 -125 4 -25 15 -58 25 -74 32 -53 122 -145 142
-145 11 0 36 -16 57 -36 21 -21 29 -33 19 -30 -17 5 -16 3 2 -20 21 -27 28
-54 13 -54 -5 0 -23 18 -41 40 -39 49 -60 53 -31 5 12 -19 20 -35 18 -35 -2 0
-18 4 -36 10 -28 8 -33 7 -28 -6 4 -9 2 -12 -5 -8 -6 4 -15 1 -19 -6 -4 -6 -6
6 -4 28 2 31 -1 39 -11 36 -7 -3 -16 0 -20 5 -3 6 -11 9 -16 5 -5 -3 -7 -10
-3 -15 3 -6 3 -17 0 -26 -5 -12 -9 -13 -21 -3 -12 10 -16 8 -23 -11 l-9 -24
-7 23 c-4 12 -11 20 -16 17 -12 -8 -39 80 -29 96 5 8 3 16 -4 21 -7 4 7 5 30
2 36 -4 42 -2 37 11 -5 11 -2 14 10 9 21 -8 20 5 -1 22 -17 13 -17 15 0 28 15
11 15 15 3 25 -11 10 -16 9 -24 -5 -7 -12 -11 -13 -17 -5 -12 21 -16 69 -6 75
6 4 8 13 5 21 -4 8 -11 12 -17 8 -7 -4 -8 0 -2 13 12 28 8 53 -12 82 -27 40
-43 72 -36 72 3 0 -1 8 -10 18 -10 10 -14 22 -10 26 4 4 3 10 -3 14 -6 4 -21
39 -33 77 -26 79 -63 177 -71 185 -11 11 -19 170 -8 164 4 -3 8 1 8 8 0 19 23
68 33 68 4 0 7 11 7 23 0 13 3 27 8 31 7 8 8 11 12 49 1 13 4 17 7 8 5 -11 7
-11 14 0z m574 -1 c4 -6 -1 -7 -12 -4 -17 5 -17 5 -1 -8 15 -13 12 -14 -20
-15 l-37 -1 24 19 c26 21 37 24 46 9z m619 -6 c9 -24 7 -34 -7 -28 -7 2 -13
13 -13 24 0 24 11 26 20 4z m399 -7 c4 3 7 1 7 -5 0 -18 -15 -15 -41 9 l-24
20 26 -15 c14 -9 29 -13 32 -9z m-1553 -7 c-6 -11 -12 -20 -14 -20 -2 0 -2 9
1 20 3 11 9 20 15 20 5 0 4 -9 -2 -20z m1814 8 c-3 -5 -10 -6 -15 -3 -5 4 -9
1 -9 -4 0 -6 -10 -11 -22 -11 -23 0 -23 1 2 13 29 15 52 18 44 5z m-1359 -8
c3 -5 1 -10 -4 -10 -6 0 -11 5 -11 10 0 6 2 10 4 10 3 0 8 -4 11 -10z m115 0
c0 -5 -4 -10 -10 -10 -5 0 -10 5 -10 10 0 6 5 10 10 10 6 0 10 -4 10 -10z
m225 -8 c-3 -3 -11 0 -18 7 -9 10 -8 11 6 5 10 -3 15 -9 12 -12z m305 2 c0 -2
-9 -4 -20 -4 -11 0 -20 4 -20 9 0 5 9 7 20 4 11 -3 20 -7 20 -9z m-240 -9 c8
-9 9 -15 2 -15 -6 0 -14 5 -17 10 -4 7 -14 6 -28 -1 -21 -10 -21 -10 -3 5 25
20 30 20 46 1z m167 -7 c-3 -8 -6 -5 -6 6 -1 11 2 17 5 13 3 -3 4 -12 1 -19z
m-257 2 c8 -5 11 -10 5 -10 -5 0 -17 5 -25 10 -8 5 -10 10 -5 10 6 0 17 -5 25
-10z m815 0 c-3 -5 -2 -10 4 -10 5 0 11 6 14 13 2 6 4 -3 3 -20 -1 -26 -5 -33
-21 -32 -11 0 -14 3 -7 6 6 2 12 9 12 15 0 6 -6 8 -14 5 -10 -4 -12 0 -9 14 3
10 10 19 15 19 5 0 6 -4 3 -10z m-1237 -25 c-3 -3 -13 -2 -22 1 -14 5 -15 9
-4 15 13 8 36 -6 26 -16z m192 15 c-11 -7 -60 -2 -60 6 0 2 16 3 35 2 20 -1
31 -4 25 -8z m73 3 c-7 -2 -19 -2 -25 0 -7 3 -2 5 12 5 14 0 19 -2 13 -5z m55
-28 c-9 -20 -14 -22 -31 -14 -14 8 -26 8 -42 -1 -19 -10 -27 -10 -45 3 -15 11
-18 17 -9 22 7 5 18 0 26 -11 9 -12 16 -15 21 -8 10 16 50 24 56 10 3 -7 8 -6
15 4 5 8 7 18 4 24 -3 5 -1 6 5 2 8 -5 8 -13 0 -31z m239 29 c-3 -3 -12 -4
-19 -1 -8 3 -5 6 6 6 11 1 17 -2 13 -5z m83 2 c0 -3 -7 -12 -16 -20 -14 -15
-14 -16 3 -17 16 0 16 -1 -2 -9 -28 -12 -37 -12 -30 0 4 6 -6 10 -24 10 -16 0
-33 -5 -37 -12 -5 -7 -2 -9 9 -5 9 3 26 -3 39 -14 13 -11 17 -18 10 -14 -7 4
-24 8 -38 10 -19 2 -22 0 -13 -11 6 -8 19 -14 28 -15 11 0 12 -2 3 -6 -7 -3
-19 1 -27 7 -8 7 -35 13 -60 14 -25 0 -45 5 -45 10 0 4 9 6 20 3 27 -7 26 20
-1 28 -11 4 -18 9 -15 12 3 3 19 0 36 -7 23 -9 28 -15 18 -21 -10 -7 -9 -9 5
-9 9 0 17 6 17 14 0 15 10 19 67 31 18 4 35 11 38 16 6 9 15 12 15 5z m140
-37 c18 -17 30 -32 28 -35 -3 -2 -19 9 -36 26 -18 16 -39 30 -47 30 -8 0 -15
4 -15 9 0 16 36 0 70 -30z m316 32 c-4 -5 0 -12 6 -14 8 -3 6 -6 -4 -6 -10 -1
-18 6 -18 14 0 8 5 15 11 15 5 0 8 -4 5 -9z m-716 -10 c0 -5 -9 -7 -20 -4 -11
3 -20 7 -20 9 0 2 9 4 20 4 11 0 20 -4 20 -9z m427 -6 c0 -8 -4 -12 -9 -9 -5
3 -6 10 -3 15 9 13 12 11 12 -6z m-379 -15 c12 -19 11 -20 -8 -8 -11 7 -20 16
-20 20 0 15 15 8 28 -12z m82 10 c0 -5 -2 -10 -4 -10 -3 0 -8 5 -11 10 -3 6
-1 10 4 10 6 0 11 -4 11 -10z m-466 -16 c5 -14 4 -15 -9 -4 -17 14 -19 20 -6
20 5 0 12 -7 15 -16z m116 9 c-8 -3 -21 -10 -27 -16 -9 -7 -13 -5 -13 7 0 11
8 16 28 15 15 0 21 -3 12 -6z m171 -16 c-10 -9 -11 -8 -5 6 3 10 9 15 12 12 3
-3 0 -11 -7 -18z m436 -18 c10 0 13 -3 6 -5 -6 -3 -26 2 -43 11 -32 17 -66 14
-55 -5 8 -13 -26 -13 -45 1 -12 9 -11 10 7 6 12 -3 24 0 25 5 2 5 19 13 38 17
29 6 36 4 42 -11 4 -10 15 -18 25 -19z m373 31 c-8 -5 -19 -10 -25 -10 -5 0
-3 5 5 10 8 5 20 10 25 10 6 0 3 -5 -5 -10z m157 4 c-3 -3 -12 -4 -19 -1 -8 3
-5 6 6 6 11 1 17 -2 13 -5z m-97 -30 c0 -21 -17 -17 -23 5 -3 14 -1 18 9 14 8
-3 14 -11 14 -19z m396 7 c14 -11 21 -22 17 -24 -5 -3 -19 5 -32 19 -28 29
-19 32 15 5z m-1206 -1 c0 -5 -9 -10 -20 -10 -17 0 -19 -2 -8 -15 11 -12 16
-11 32 8 16 18 18 19 13 3 -6 -14 -4 -17 9 -12 14 5 15 4 4 -9 -11 -13 -8 -15
18 -15 17 0 33 -4 36 -9 3 -5 -15 -5 -41 0 -30 6 -50 5 -58 -1 -10 -8 -13 -6
-11 7 0 9 -10 22 -23 29 l-24 13 34 9 c19 6 35 11 37 11 1 1 2 -3 2 -9z m497
3 c-9 -2 -15 -9 -12 -14 3 -5 -1 -6 -9 -3 -9 3 -16 1 -16 -5 0 -6 -7 -8 -16
-4 -18 7 -8 19 21 26 26 6 56 6 32 0z m-987 -13 c0 -5 -2 -10 -4 -10 -3 0 -8
5 -11 10 -3 6 -1 10 4 10 6 0 11 -4 11 -10z m1374 -5 c-10 -8 -28 -14 -39 -14
-16 1 -13 4 10 14 40 19 53 19 29 0z m99 8 c3 -5 -5 -8 -18 -8 -13 0 -21 3
-18 8 2 4 10 7 18 7 8 0 16 -3 18 -7z m-433 -13 c0 -6 9 -6 26 0 29 11 74 13
74 3 0 -10 -32 -43 -42 -43 -16 0 -8 17 15 28 22 11 22 11 -5 11 -22 1 -28 -5
-33 -30 -5 -23 -10 -28 -16 -18 -4 8 -3 19 3 26 11 13 -3 19 -16 6 -11 -11
-36 -12 -36 -2 0 6 -4 7 -10 4 -11 -7 -14 8 -3 18 10 11 43 8 43 -3z m168 -18
c6 -9 12 -11 12 -6 0 5 9 10 20 11 27 2 25 -3 -9 -20 -27 -14 -30 -13 -36 7
-4 13 -8 16 -11 9 -4 -10 -9 -10 -20 1 -8 8 -14 17 -14 19 0 11 46 -6 58 -21z
m567 18 c13 -6 15 -9 5 -9 -8 0 -22 4 -30 9 -18 12 -2 12 25 0z m-1390 -22 c6
-5 0 -7 -15 -4 -14 2 -31 5 -37 5 -7 1 -13 6 -13 11 0 12 49 3 65 -12z m378
-7 c39 -24 45 -36 25 -45 -7 -3 5 -3 27 -1 l40 5 -35 -14 c-25 -9 -39 -10 -48
-3 -11 9 -10 12 3 20 14 8 13 11 -11 23 -20 11 -29 12 -34 3 -5 -7 -10 -8 -14
-1 -3 6 0 13 6 15 10 4 9 8 -2 17 -23 18 1 7 43 -19z m627 11 c0 -10 -7 -19
-15 -19 -18 0 -19 4 -2 22 16 19 17 18 17 -3z m-1245 -10 c-3 -3 -11 0 -18 7
-9 10 -8 11 6 5 10 -3 15 -9 12 -12z m75 14 c0 -3 -4 -8 -10 -11 -5 -3 -10 -1
-10 4 0 6 5 11 10 11 6 0 10 -2 10 -4z m67 -2 c-3 -3 -12 -4 -19 -1 -8 3 -5 6
6 6 11 1 17 -2 13 -5z m341 -8 c-2 -1 -10 -7 -18 -13 -13 -10 -16 -8 -17 6 -1
14 4 17 18 14 11 -3 18 -6 17 -7z m673 5 c-11 -7 -9 -10 8 -16 11 -3 21 -11
21 -16 0 -14 -9 -11 -36 10 -17 13 -20 21 -12 24 21 9 34 7 19 -2z m566 3 c-3
-3 -12 -4 -19 -1 -8 3 -5 6 6 6 11 1 17 -2 13 -5z m-4663 -64 c-8 -7 -24 24
-23 45 0 15 4 13 14 -10 7 -16 11 -32 9 -35z m4569 40 c5 -4 -3 -5 -17 -3 -15
3 -29 10 -32 15 -7 11 36 1 49 -12z m-895 -3 c10 4 13 2 9 -3 -12 -12 -77 -15
-77 -2 0 5 7 8 15 5 8 -4 18 -1 22 5 5 9 8 9 10 1 3 -7 12 -9 21 -6z m932 3
c0 -5 -5 -10 -11 -10 -5 0 -7 5 -4 10 3 6 8 10 11 10 2 0 4 -4 4 -10z m-1606
-8 c3 -5 -1 -9 -9 -9 -8 0 -12 4 -9 9 3 4 7 8 9 8 2 0 6 -4 9 -8z m91 -10 c-3
-3 -11 0 -18 7 -9 10 -8 11 6 5 10 -3 15 -9 12 -12z m635 -4 c0 -6 -6 -5 -15
2 -8 7 -15 14 -15 16 0 2 7 1 15 -2 8 -4 15 -11 15 -16z m934 13 c4 -5 -3 -7
-14 -4 -23 6 -26 13 -6 13 8 0 17 -4 20 -9z m-1539 -11 c3 -5 1 -10 -4 -10 -6
0 -11 5 -11 10 0 6 2 10 4 10 3 0 8 -4 11 -10z m382 -5 c0 -8 -4 -12 -9 -9 -5
3 -6 10 -3 15 9 13 12 11 12 -6z m781 -10 c-3 -3 -9 2 -12 12 -6 14 -5 15 5 6
7 -7 10 -15 7 -18z m-448 11 c0 -3 -4 -8 -10 -11 -5 -3 -10 -1 -10 4 0 6 5 11
10 11 6 0 10 -2 10 -4z m355 -55 c-2 -1 -14 4 -27 13 -12 9 -19 16 -14 16 5 0
2 8 -5 18 -7 9 1 4 18 -13 17 -16 30 -32 28 -34z m47 44 c2 3 5 -2 5 -10 0
-19 0 -19 -23 7 -12 14 -13 18 -3 10 9 -6 18 -10 21 -7z m-1037 -16 c-4 -5
-16 -9 -28 -9 -18 0 -19 -2 -7 -10 11 -7 12 -10 2 -10 -7 0 -21 8 -30 17 -16
15 -16 16 0 11 9 -4 24 -1 34 7 20 14 38 10 29 -6z m170 -12 c1 -18 -4 -23
-24 -25 -21 -1 -23 0 -11 8 11 8 7 9 -15 4 -16 -4 -35 -11 -42 -16 -7 -6 -14
-5 -18 2 -4 7 -20 10 -36 8 -23 -4 -26 -2 -17 9 7 9 21 12 40 8 17 -4 28 -2
28 4 0 6 6 9 13 7 6 -3 26 -7 44 -10 28 -5 31 -3 28 16 -3 11 -1 18 2 14 4 -4
8 -17 8 -29z m432 13 c3 -10 2 -11 -4 -4 -4 7 -17 14 -28 17 -16 5 -15 5 4 4
14 -1 26 -9 28 -17z m113 3 c0 -3 -7 -3 -15 1 -8 3 -15 0 -15 -6 0 -6 -3 -9
-6 -5 -11 10 6 26 21 20 8 -3 15 -7 15 -10z m720 7 c8 -5 11 -10 5 -10 -5 0
-17 5 -25 10 -8 5 -10 10 -5 10 6 0 17 -5 25 -10z m-1610 -20 c5 0 8 -9 7 -19
0 -11 -5 -17 -10 -14 -4 3 -6 8 -2 11 3 3 -5 12 -17 20 -15 9 -17 11 -5 8 10
-3 22 -6 27 -6z m402 -5 c0 -5 -5 -10 -11 -11 -8 -2 -7 -1 0 3 8 4 7 8 -2 15
-11 8 -11 9 -1 6 8 -2 14 -8 14 -13z m625 9 c-3 -3 -12 -4 -19 -1 -8 3 -5 6 6
6 11 1 17 -2 13 -5z m-337 -13 c0 -5 -7 -12 -16 -15 -14 -5 -15 -4 -4 9 14 17
20 19 20 6z m860 -1 c0 -5 -2 -10 -4 -10 -3 0 -8 5 -11 10 -3 6 -1 10 4 10 6
0 11 -4 11 -10z m-810 -10 c0 -5 -4 -10 -9 -10 -6 0 -13 5 -16 10 -3 6 1 10 9
10 9 0 16 -4 16 -10z m219 -13 c0 -9 -2 -8 -6 1 -2 6 -10 9 -15 6 -7 -4 -8 -2
-4 5 9 13 26 5 25 -12z m-441 -4 c-7 -9 -15 -10 -30 -2 -11 6 -29 9 -39 6 -10
-3 -17 -1 -14 3 3 5 25 8 49 7 34 -2 42 -5 34 -14z m343 0 c13 -15 12 -15 -8
-4 -24 12 -29 21 -14 21 5 0 15 -7 22 -17z m384 7 c-3 -5 -1 -10 6 -10 7 0 10
-3 6 -6 -9 -9 -28 6 -22 17 4 5 8 9 11 9 3 0 2 -4 -1 -10z m-956 -21 c-9 -17
-13 -19 -19 -8 -11 16 -4 29 16 29 12 0 13 -4 3 -21z m906 3 c-3 -3 -11 0 -18
7 -9 10 -8 11 6 5 10 -3 15 -9 12 -12z m-845 -1 c0 -6 -9 -9 -20 -8 -11 1 -20
5 -20 9 0 4 9 8 20 8 11 0 20 -4 20 -9z m670 -9 c0 -4 -9 -8 -20 -9 -16 -1
-17 1 -7 12 12 13 27 11 27 -3z m-620 -9 c0 -10 -4 -14 -8 -8 -4 6 -11 13 -16
18 -5 4 -2 7 7 7 10 0 17 -8 17 -17z m-1746 -54 c15 -58 17 -171 2 -162 -4 3
-5 -4 -2 -15 4 -11 0 -40 -9 -65 -9 -27 -13 -62 -10 -89 11 -92 12 -158 3
-152 -6 4 -9 -15 -7 -47 1 -30 -3 -64 -9 -76 -17 -30 -15 -56 5 -92 14 -24 15
-33 5 -43 -9 -9 -12 -8 -12 6 0 20 -29 77 -45 88 -5 4 -15 6 -22 3 -18 -6 -21
18 -5 35 12 11 16 12 20 2 5 -15 22 -16 22 0 0 6 8 20 18 31 12 15 14 21 5 24
-10 4 -10 10 -2 25 8 15 7 24 -8 41 -17 21 -17 21 1 7 17 -13 18 -13 15 5 -3
11 -11 20 -19 20 -10 0 -17 -14 -20 -47 -4 -39 -8 -46 -20 -38 -12 7 -12 10
-1 10 8 0 11 6 7 17 -9 22 4 123 15 123 5 0 9 -7 9 -15 0 -8 4 -15 10 -15 12
0 3 54 -17 102 -12 28 -14 53 -8 102 8 75 20 85 30 24 6 -33 9 -38 17 -24 10
18 2 73 -15 94 -12 15 -3 117 15 154 7 14 14 25 16 24 1 -2 9 -27 16 -57z
m-1494 30 c0 -6 -4 -7 -10 -4 -5 3 -10 11 -10 16 0 6 5 7 10 4 6 -3 10 -11 10
-16z m185 -9 c10 -11 16 -20 13 -20 -3 0 -13 9 -23 20 -10 11 -16 20 -13 20 3
0 13 -9 23 -20z m3205 10 c0 -5 -2 -10 -4 -10 -3 0 -8 5 -11 10 -3 6 -1 10 4
10 6 0 11 -4 11 -10z m-123 -6 c-3 -3 -12 -4 -19 -1 -8 3 -5 6 6 6 11 1 17 -2
13 -5z m902 -18 c9 -10 8 -16 -3 -25 -12 -10 -13 -8 -9 10 4 15 2 20 -5 15 -6
-3 -13 -2 -17 4 -9 15 21 12 34 -4z m251 6 c0 -5 -7 -9 -15 -9 -8 0 -12 4 -9
9 3 4 9 8 15 8 5 0 9 -4 9 -8z m-464 -17 c-20 -15 -13 -37 11 -33 9 2 18 -2
20 -9 7 -19 -36 -3 -53 21 -13 19 -13 21 8 28 34 9 35 9 14 -7z m374 11 c0 -2
-7 -6 -15 -10 -8 -3 -15 -1 -15 4 0 6 7 10 15 10 8 0 15 -2 15 -4z m-1219 -63
c13 -16 12 -17 -3 -4 -17 13 -22 21 -14 21 2 0 10 -8 17 -17z m684 7 c3 -5 1
-10 -4 -10 -6 0 -11 5 -11 10 0 6 2 10 4 10 3 0 8 -4 11 -10z m95 0 c-20 -13
-33 -13 -25 0 3 6 14 10 23 10 15 0 15 -2 2 -10z m-2755 -9 c3 -5 1 -12 -5
-16 -5 -3 -10 1 -10 9 0 18 6 21 15 7z m2710 -9 c-3 -3 -11 0 -18 7 -9 10 -8
11 6 5 10 -3 15 -9 12 -12z m-288 2 c-3 -3 -12 -4 -19 -1 -8 3 -5 6 6 6 11 1
17 -2 13 -5z m170 -20 c17 -12 17 -13 1 -10 -10 1 -20 5 -24 8 -3 4 -11 5 -18
2 -7 -3 -23 0 -37 5 -21 8 -19 9 18 9 23 0 50 -6 60 -14z m443 8 c0 -5 -7 -9
-15 -9 -8 0 -12 4 -9 9 3 4 9 8 15 8 5 0 9 -4 9 -8z m297 -18 c-3 -3 -12 -4
-19 -1 -8 3 -5 6 6 6 11 1 17 -2 13 -5z m-3480 -26 c-3 -8 -6 -5 -6 6 -1 11 2
17 5 13 3 -3 4 -12 1 -19z m2713 7 c14 -8 21 -14 15 -14 -5 0 -21 6 -35 14
-14 8 -20 14 -15 14 6 0 21 -6 35 -14z m103 -13 c-1 -5 4 -13 12 -16 8 -3 15
0 15 6 0 6 3 9 6 5 14 -14 -7 -27 -27 -17 -11 6 -16 16 -13 22 5 8 1 9 -10 5
-11 -4 -15 -3 -11 4 8 12 31 5 28 -9z m632 8 c-3 -5 -12 -10 -18 -10 -7 0 -6
4 3 10 19 12 23 12 15 0z m-2358 -22 c-3 -8 -6 -5 -6 6 -1 11 2 17 5 13 3 -3
4 -12 1 -19z m2208 12 c3 -5 1 -10 -4 -10 -6 0 -11 5 -11 10 0 6 2 10 4 10 3
0 8 -4 11 -10z m-4145 -32 c0 -5 -4 -8 -10 -8 -5 0 -10 10 -10 23 0 18 2 19
10 7 5 -8 10 -18 10 -22z m1733 25 c-7 -2 -21 -2 -30 0 -10 3 -4 5 12 5 17 0
24 -2 18 -5z m1437 -1 c0 -4 -9 -8 -19 -8 -11 0 -17 4 -15 8 3 4 12 8 20 8 8
0 14 -4 14 -8z m1067 -4 c-15 -5 -25 -14 -21 -19 3 -5 0 -9 -5 -9 -6 0 -11 4
-11 10 0 12 30 30 50 29 8 0 3 -5 -13 -11z m-2557 -8 c0 -5 -13 -10 -30 -10
-16 0 -30 5 -30 10 0 6 14 10 30 10 17 0 30 -4 30 -10z m1534 -9 c4 -5 -3 -7
-14 -4 -23 6 -26 13 -6 13 8 0 17 -4 20 -9z m528 -9 c-7 -2 -9 -9 -5 -15 4 -7
-1 -6 -11 2 -13 11 -14 16 -4 22 6 4 17 5 22 2 6 -4 5 -8 -2 -11z m-2875 -34
c-3 -7 -5 -2 -5 12 0 14 2 19 5 13 2 -7 2 -19 0 -25z m143 -113 c-3 -5 -6 1
-8 15 -1 14 -7 45 -13 69 -8 34 -7 46 3 52 10 7 14 -7 18 -59 3 -37 3 -71 0
-77z m2890 86 c0 6 7 6 18 0 9 -5 36 -11 60 -14 33 -3 42 -1 38 9 -3 7 -1 16
4 19 4 3 7 -6 6 -20 -2 -17 3 -26 16 -31 17 -5 17 -7 -6 -25 -25 -20 -25 -20
-46 1 -11 11 -34 20 -52 21 -18 0 -27 3 -20 6 20 8 14 25 -7 18 -20 -6 -52 5
-91 32 -24 17 -24 17 -11 0 12 -15 12 -17 -3 -11 -9 3 -16 12 -16 20 0 8 -4
14 -10 14 -5 0 -10 -5 -10 -11 0 -5 -4 -7 -10 -4 -6 4 -5 11 3 19 10 12 23 8
75 -19 34 -19 62 -29 62 -24z m214 44 c-4 -8 -11 -12 -16 -9 -6 4 -5 10 3 15
19 12 19 11 13 -6z m46 5 c0 -5 -2 -10 -4 -10 -3 0 -8 5 -11 10 -3 6 -1 10 4
10 6 0 11 -4 11 -10z m-260 -14 c0 -2 -7 -7 -16 -10 -8 -3 -12 -2 -9 4 6 10
25 14 25 6z m74 -11 c3 -8 1 -15 -3 -15 -5 0 -11 7 -15 15 -3 8 -1 15 3 15 5
0 11 -7 15 -15z m261 5 c3 -5 2 -10 -4 -10 -5 0 -13 5 -16 10 -3 6 -2 10 4 10
5 0 13 -4 16 -10z m-2241 -51 l16 -51 -50 -46 c-28 -25 -50 -54 -50 -64 0 -10
-5 -18 -12 -18 -6 0 -9 -3 -5 -6 3 -3 -8 -19 -24 -35 -16 -16 -25 -29 -20 -29
5 0 13 5 16 10 4 6 11 8 16 5 5 -4 12 1 15 10 5 13 8 14 15 3 5 -7 2 -22 -6
-35 -20 -30 -19 -34 9 -23 24 9 32 0 40 -45 3 -14 -16 -55 -24 -55 -4 0 -12
-11 -18 -25 -6 -14 -16 -25 -21 -25 -6 0 3 19 19 43 16 24 27 52 25 63 -2 10
-4 24 -5 29 -1 10 -22 -32 -24 -50 -3 -26 -18 -54 -31 -59 -8 -3 -15 -1 -15 4
0 6 4 10 9 10 5 0 11 9 14 20 6 24 -1 25 -31 4 -14 -10 -21 -22 -17 -31 4 -13
3 -14 -10 -3 -13 11 -11 17 15 47 29 33 40 73 20 73 -6 0 -10 -6 -8 -12 3 -13
-3 -18 -23 -18 -5 0 -8 4 -4 9 3 5 1 12 -5 16 -17 10 -12 22 25 56 34 32 43
53 28 62 -5 2 -2 2 5 1 17 -5 15 6 -5 28 -19 22 -41 25 -23 3 10 -12 9 -15 -6
-16 -43 -2 -79 4 -86 15 -6 8 -8 8 -8 -1 0 -7 -7 -13 -15 -13 -8 0 -15 -3 -15
-7 0 -5 29 -8 65 -7 36 0 62 -3 59 -8 -3 -5 -13 -7 -21 -4 -9 4 -21 2 -27 -3
-6 -4 -40 -11 -75 -15 -54 -5 -66 -3 -80 13 -17 19 -53 20 -59 2 -2 -6 -19
-11 -37 -11 -24 0 -35 -5 -38 -17 -3 -11 -5 -5 -6 12 -2 38 -17 15 -24 -35 -5
-44 11 -80 35 -80 11 0 17 4 14 9 -3 4 6 6 19 3 14 -2 28 -8 30 -12 7 -12 -25
-21 -53 -15 -31 6 -28 -13 3 -21 22 -5 23 -8 11 -18 -8 -6 -17 -27 -18 -46
l-4 -35 -14 48 c-19 63 -31 64 -34 2 -1 -11 -7 -20 -15 -20 -8 0 -15 9 -17 20
-1 11 -5 32 -8 48 -4 19 -1 27 9 27 9 0 12 6 9 15 -4 8 -1 15 5 15 7 0 7 8 0
27 -7 19 -7 28 2 34 10 6 9 12 -2 25 -9 11 -9 15 -1 10 8 -5 12 -1 13 11 2 45
0 91 -5 123 -5 27 -4 30 3 14 5 -12 14 -25 20 -28 6 -4 8 -22 5 -44 l-6 -37
21 19 c15 13 18 23 11 30 -23 23 -7 29 79 24 49 -3 95 -1 103 4 9 6 5 7 -12 3
-23 -5 -23 -5 -6 6 15 9 24 9 37 0 22 -13 32 -14 25 -3 -7 11 31 13 59 2 38
-14 38 5 0 25 -27 15 -36 16 -48 7 -12 -11 -14 -8 -13 17 2 37 12 49 20 24 5
-17 14 -19 64 -15 68 5 81 -5 85 -67 1 -23 7 -41 13 -41 7 0 26 16 44 36 32
37 34 51 15 112 -4 12 -5 22 -2 22 4 0 13 -23 21 -51z m-97 9 c-3 -7 -5 -2 -5
12 0 14 2 19 5 13 2 -7 2 -19 0 -25z m2357 11 c3 -3 -4 -5 -14 -6 -11 -1 -22
2 -24 6 -5 8 30 8 38 0z m-3444 -24 c7 -9 8 -15 2 -15 -5 0 -12 7 -16 15 -3 8
-4 15 -2 15 2 0 9 -7 16 -15z m817 -6 c-14 -8 -22 -8 -30 0 -8 8 -3 11 19 11
25 -1 27 -2 11 -11z m2691 -14 c-3 -3 -9 2 -12 12 -6 14 -5 15 5 6 7 -7 10
-15 7 -18z m-178 -25 c0 -5 7 -10 15 -10 8 0 15 -9 15 -21 0 -11 5 -17 10 -14
6 3 10 2 10 -4 0 -5 6 -11 13 -14 6 -2 4 -3 -5 -2 -10 2 -21 -1 -24 -6 -13
-21 -26 -8 -20 21 4 22 2 30 -9 30 -8 0 -15 -4 -15 -10 0 -5 -7 -7 -15 -4 -8
4 -12 10 -9 15 3 5 10 7 15 4 5 -3 6 1 3 9 -3 9 -1 16 5 16 6 0 11 -4 11 -10z
m-3118 -65 c2 -19 0 -35 -4 -35 -4 0 -8 16 -8 35 0 19 2 35 4 35 2 0 6 -16 8
-35z m3252 9 c3 -9 11 -12 18 -8 10 5 10 4 2 -5 -12 -13 -64 1 -64 17 0 25 34
22 44 -4z m-2990 -5 c-3 -5 -10 -7 -15 -3 -5 3 -7 10 -3 15 3 5 10 7 15 3 5
-3 7 -10 3 -15z m2804 -13 c-7 -8 -15 -12 -17 -11 -5 6 10 25 20 25 5 0 4 -6
-3 -14z m148 -21 c9 -8 11 -15 6 -15 -5 0 -15 7 -22 15 -7 8 -9 15 -6 15 4 0
14 -7 22 -15z m-2298 -19 c-7 -8 -15 -12 -17 -11 -5 6 10 25 20 25 5 0 4 -6
-3 -14z m2357 4 c3 -5 1 -10 -4 -10 -6 0 -11 5 -11 10 0 6 2 10 4 10 3 0 8 -4
11 -10z m-204 -16 c-41 -17 -56 -18 -40 -1 6 6 26 13 43 14 l31 2 -34 -15z
m79 6 c0 -5 -5 -10 -11 -10 -5 0 -7 5 -4 10 3 6 8 10 11 10 2 0 4 -4 4 -10z
m28 -4 c-7 -8 -15 -12 -17 -11 -5 6 10 25 20 25 5 0 4 -6 -3 -14z m-191 -2
c-3 -3 -12 -4 -19 -1 -8 3 -5 6 6 6 11 1 17 -2 13 -5z m-2376 -14 c5 0 9 -4 9
-10 0 -16 -26 -12 -41 7 -12 15 -12 16 4 10 10 -4 23 -7 28 -7z m2309 1 c0 -5
-9 -7 -20 -4 -12 3 -20 0 -20 -7 0 -7 -6 -10 -14 -7 -8 3 -16 2 -18 -3 -2 -4
-10 -1 -18 8 -13 14 -12 15 3 9 9 -3 17 -3 17 2 0 4 16 8 35 9 19 1 35 -3 35
-7z m280 5 c0 -3 -4 -8 -10 -11 -5 -3 -10 -1 -10 4 0 6 5 11 10 11 6 0 10 -2
10 -4z m84 -12 c3 -8 2 -12 -4 -9 -6 3 -10 10 -10 16 0 14 7 11 14 -7z m-3255
-53 c1 -35 -5 -22 -12 24 -5 28 -4 34 3 20 5 -11 9 -31 9 -44z m3065 47 c-3
-4 -9 -8 -15 -8 -5 0 -9 4 -9 8 0 5 7 9 15 9 8 0 12 -4 9 -9z m74 -13 c12 -14
18 -25 12 -25 -5 0 -14 9 -20 19 -6 13 -18 18 -30 16 -11 -2 -18 0 -15 6 10
16 31 10 53 -16z m-2613 5 c-27 -12 -35 -12 -35 0 0 6 12 10 28 9 24 0 25 -1
7 -9z m1790 0 c3 -5 2 -10 -4 -10 -5 0 -13 5 -16 10 -3 6 -2 10 4 10 5 0 13
-4 16 -10z m80 -18 c-6 -7 -34 11 -29 19 3 5 11 3 19 -4 7 -6 12 -13 10 -15z
m69 9 c4 -5 -3 -7 -14 -4 -23 6 -26 13 -6 13 8 0 17 -4 20 -9z m312 -5 c18
-19 18 -27 0 -20 -14 5 -31 34 -20 34 3 0 12 -6 20 -14z m414 -1 c0 -8 -4 -15
-10 -15 -5 0 -7 7 -4 15 4 8 8 15 10 15 2 0 4 -7 4 -15z m-300 -5 c-20 -13
-33 -13 -25 0 3 6 14 10 23 10 15 0 15 -2 2 -10z m115 -36 c17 0 36 6 43 13 7
7 10 13 6 13 -4 0 -5 3 -1 6 3 4 13 -1 22 -9 9 -10 11 -18 5 -22 -5 -3 -10 -1
-10 6 0 8 -6 6 -18 -4 -36 -33 -104 -12 -94 27 6 20 6 20 12 -4 5 -19 12 -25
35 -26z m115 26 c8 -5 11 -10 5 -10 -5 0 -17 5 -25 10 -8 5 -10 10 -5 10 6 0
17 -5 25 -10z m135 0 c3 -5 1 -10 -4 -10 -6 0 -11 5 -11 10 0 6 2 10 4 10 3 0
8 -4 11 -10z m-377 -15 c1 -1 -6 -5 -16 -7 -10 -3 -30 1 -43 8 -22 12 -21 13
16 7 22 -3 41 -7 43 -8z m52 11 c0 -11 -19 -15 -25 -6 -3 5 1 10 9 10 9 0 16
-2 16 -4z m252 -35 c-11 -7 -10 -10 3 -15 9 -3 21 -4 26 0 5 3 9 1 9 -4 0 -5
-8 -12 -17 -14 -21 -5 -58 28 -40 36 20 8 33 6 19 -3z m-52 -8 c0 -5 -16 -9
-36 -9 -24 -1 -31 1 -23 7 17 11 59 12 59 2z m-370 -43 c0 -14 -28 -1 -34 16
-4 12 -2 12 14 4 11 -6 20 -15 20 -20z m-4150 11 c0 -5 -7 -11 -15 -15 -9 -3
-20 -16 -25 -28 -5 -13 -9 -17 -9 -10 -1 15 30 61 42 62 4 0 7 -4 7 -9z m3666
-6 c27 -14 27 -15 7 -15 -13 0 -23 4 -23 9 0 5 -8 12 -17 14 -10 3 -13 5 -7 6
7 0 25 -6 40 -14z m799 4 c4 -6 14 -8 24 -4 12 5 13 3 4 -6 -9 -9 -17 -8 -34
5 -13 9 -18 16 -12 16 7 0 15 -5 18 -11z m-2720 -10 c-4 -6 -13 -8 -21 -5 -9
3 -17 -2 -20 -12 -3 -9 -10 -26 -15 -37 -6 -15 -7 -12 -2 10 3 17 10 36 16 43
12 15 51 16 42 1z m2542 -4 c0 -8 -4 -12 -9 -9 -4 3 -8 9 -8 15 0 5 4 9 8 9 5
0 9 -7 9 -15z m246 -3 c-10 -10 -20 -14 -22 -9 -2 5 3 13 10 18 24 15 30 10
12 -9z m-3733 -2 c0 -5 8 -7 18 -3 9 3 14 3 10 -2 -4 -4 -24 -10 -45 -12 -36
-4 -37 -3 -18 11 23 18 35 20 35 6z m170 -6 c0 -9 -5 -14 -12 -12 -18 6 -21
28 -4 28 9 0 16 -7 16 -16z m955 6 c3 -5 2 -10 -4 -10 -5 0 -13 5 -16 10 -3 6
-2 10 4 10 5 0 13 -4 16 -10z m2155 6 c0 -3 -4 -8 -10 -11 -5 -3 -10 -1 -10 4
0 6 5 11 10 11 6 0 10 -2 10 -4z m-3213 -12 c-3 -3 -12 -4 -19 -1 -8 3 -5 6 6
6 11 1 17 -2 13 -5z m108 -19 c73 -4 155 -18 155 -26 0 -12 -67 -11 -75 1 -3
6 -16 10 -28 10 -18 0 -19 -2 -7 -10 17 -11 15 -11 -52 -14 -27 -1 -44 2 -41
8 4 5 -1 7 -11 3 -10 -4 -15 -3 -11 3 8 12 -7 13 -20 2 -6 -5 -20 -6 -32 -3
-16 4 -20 10 -13 20 6 12 12 12 23 3 16 -14 28 -6 20 14 -4 11 1 11 29 2 18
-6 47 -12 63 -13z m1175 21 c0 -3 -4 -8 -10 -11 -5 -3 -10 -1 -10 4 0 6 5 11
10 11 6 0 10 -2 10 -4z m1395 -16 c-3 -5 -12 -10 -18 -10 -7 0 -6 4 3 10 19
12 23 12 15 0z m-1560 -10 c3 -5 15 -10 26 -10 10 0 19 -4 19 -9 0 -4 -29 -9
-65 -9 -60 -1 -80 7 -55 23 6 3 10 1 10 -5 0 -6 5 -8 10 -5 6 4 8 11 5 16 -4
5 5 9 19 9 14 0 28 -4 31 -10z m1335 0 c8 -5 11 -10 5 -10 -5 0 -17 5 -25 10
-8 5 -10 10 -5 10 6 0 17 -5 25 -10z m-2815 -10 c3 -5 1 -10 -4 -10 -6 0 -11
5 -11 10 0 6 2 10 4 10 3 0 8 -4 11 -10z m1216 -13 c-10 -9 -11 -8 -5 6 3 10
9 15 12 12 3 -3 0 -11 -7 -18z m169 14 c0 -6 -4 -13 -10 -16 -5 -3 -10 1 -10
9 0 9 5 16 10 16 6 0 10 -4 10 -9z m-545 -11 c3 -5 1 -10 -4 -10 -6 0 -11 5
-11 10 0 6 2 10 4 10 3 0 8 -4 11 -10z m1742 4 c-3 -3 -12 -4 -19 -1 -8 3 -5
6 6 6 11 1 17 -2 13 -5z m740 0 c-3 -3 -12 -4 -19 -1 -8 3 -5 6 6 6 11 1 17
-2 13 -5z m786 -1 c-7 -2 -19 -2 -25 0 -7 3 -2 5 12 5 14 0 19 -2 13 -5z
m-1183 -13 c0 -7 7 -7 23 0 21 11 21 10 3 -4 -14 -11 -23 -13 -32 -5 -7 6 -18
8 -23 5 -5 -4 -12 -2 -16 4 -4 6 5 10 19 10 14 0 26 -5 26 -10z m325 0 c-3 -5
-13 -10 -21 -10 -8 0 -12 5 -9 10 3 6 13 10 21 10 8 0 12 -4 9 -10z m559 -19
c-4 -3 -9 0 -11 7 -3 6 -10 9 -15 6 -7 -4 -8 -2 -4 5 6 9 11 9 22 0 8 -6 12
-15 8 -18z m-5084 4 c0 -12 -19 -12 -23 0 -4 9 -1 12 9 8 7 -3 14 -7 14 -8z
m4030 0 c10 -12 10 -15 -4 -15 -9 0 -16 7 -16 15 0 8 2 15 4 15 2 0 9 -7 16
-15z m868 -2 l24 -9 -27 -12 c-24 -11 -27 -11 -22 3 4 9 1 15 -9 15 -9 0 -12
-5 -8 -12 4 -7 -2 -5 -13 5 -11 9 -22 15 -25 12 -8 -8 -58 -17 -58 -10 0 8 63
22 90 19 14 -1 35 -6 48 -11z m-218 -3 c13 -9 13 -10 0 -9 -8 0 -24 4 -35 9
l-20 9 20 0 c11 0 27 -4 35 -9z m574 -6 c5 -14 4 -15 -9 -4 -17 14 -19 20 -6
20 5 0 12 -7 15 -16z m-675 -7 c13 4 13 3 2 -5 -11 -8 -11 -10 0 -15 9 -3 10
-6 2 -6 -6 -1 -15 4 -18 9 -3 6 -16 10 -28 10 -18 0 -19 2 -7 10 9 5 19 5 24
0 4 -4 16 -6 25 -3z m616 -15 c-6 -7 -55 11 -50 18 3 5 16 3 29 -3 14 -7 23
-13 21 -15z m-2975 -1 c0 -6 -4 -13 -10 -16 -5 -3 -10 1 -10 9 0 9 5 16 10 16
6 0 10 -4 10 -9z m2750 -2 c0 -5 -9 -9 -19 -9 -11 0 -22 4 -25 9 -3 5 6 9 19
9 14 0 25 -4 25 -9z m265 1 c3 -5 1 -10 -4 -10 -6 0 -11 5 -11 10 0 6 2 10 4
10 3 0 8 -4 11 -10z m50 0 c-3 -5 -14 -10 -23 -9 -14 0 -13 2 3 9 27 11 27 11
20 0z m-855 -10 c0 -5 -2 -10 -4 -10 -3 0 -8 5 -11 10 -3 6 -1 10 4 10 6 0 11
-4 11 -10z m-585 -18 c-3 -3 -11 0 -18 7 -9 10 -8 11 6 5 10 -3 15 -9 12 -12z
m1262 12 c-3 -3 -12 -4 -19 -1 -8 3 -5 6 6 6 11 1 17 -2 13 -5z m-602 -14 c14
7 28 10 32 7 3 -4 -1 -7 -9 -7 -9 0 -18 -5 -20 -12 -5 -14 -58 -2 -58 13 0 8
5 7 15 -1 13 -11 20 -11 40 0z m-170 -10 c3 -5 0 -7 -8 -4 -8 3 -18 1 -22 -5
-8 -14 -105 -14 -125 -1 -10 7 2 9 42 6 32 -3 60 -1 63 5 8 12 42 12 50 -1z
m674 -14 c9 -11 9 -16 0 -22 -8 -4 -9 -3 -5 4 4 7 1 12 -8 12 -8 0 -18 5 -21
10 -10 15 21 12 34 -4z m56 -26 c-3 -5 -2 -10 4 -10 5 0 11 5 13 11 2 7 8 6
15 -3 9 -11 8 -14 -5 -15 -9 -1 -30 -5 -47 -9 l-30 -7 20 21 c21 22 41 30 30
12z m171 -16 c18 -15 18 -15 -6 -10 -14 3 -33 6 -42 6 -10 0 -18 5 -18 10 0
16 44 12 66 -6z m121 -10 c-3 -3 -12 -4 -19 -1 -8 3 -5 6 6 6 11 1 17 -2 13
-5z m-52 -14 c3 -6 -1 -7 -9 -4 -18 7 -21 14 -7 14 6 0 13 -4 16 -10z m-101
-20 c4 -5 3 -16 -3 -27 -11 -16 -11 -16 -6 5 5 17 2 22 -14 22 -11 0 -23 5
-27 11 -7 12 34 3 50 -11z m60 -10 c14 -5 26 -15 26 -22 0 -8 -3 -9 -8 -3 -4
6 -18 16 -32 22 -31 14 -21 17 14 3z m84 1 c10 -6 9 -10 -7 -14 -12 -3 -19 -1
-16 3 3 5 -3 11 -12 13 -15 4 -15 5 2 6 11 0 26 -3 33 -8z m-4717 -19 c-7 -2
-18 1 -23 6 -8 8 -4 9 13 5 13 -4 18 -8 10 -11z m4764 8 c3 -5 1 -10 -4 -10
-6 0 -11 5 -11 10 0 6 2 10 4 10 3 0 8 -4 11 -10z m-158 -25 c0 -8 -4 -12 -9
-9 -4 3 -8 9 -8 15 0 5 4 9 8 9 5 0 9 -7 9 -15z m-3626 -28 c-10 -9 -11 -8 -5
6 3 10 9 15 12 12 3 -3 0 -11 -7 -18z m1834 4 c-3 -6 -14 -10 -23 -10 -15 1
-15 2 1 6 9 2 17 9 17 15 0 6 3 9 6 5 3 -3 3 -10 -1 -16z m252 13 c-3 -3 -12
-4 -19 -1 -8 3 -5 6 6 6 11 1 17 -2 13 -5z m1494 -17 c-10 -9 -11 -8 -5 6 3
10 9 15 12 12 3 -3 0 -11 -7 -18z m109 -7 c0 -5 -2 -10 -4 -10 -3 0 -8 5 -11
10 -3 6 -1 10 4 10 6 0 11 -4 11 -10z m-4340 -10 c20 -6 21 -8 5 -8 -11 0 -29
3 -40 8 -25 11 1 11 35 0z m2923 0 c8 0 8 -3 0 -11 -9 -9 -16 -7 -30 7 -17 17
-17 18 0 11 10 -4 24 -7 30 -7z m-313 -10 c0 -5 -2 -10 -4 -10 -3 0 -8 5 -11
10 -3 6 -1 10 4 10 6 0 11 -4 11 -10z m232 -38 c20 -20 4 -22 -22 -2 -19 14
-21 18 -7 16 9 -1 22 -7 29 -14z m1625 -4 c-3 -8 -6 -5 -6 6 -1 11 2 17 5 13
3 -3 4 -12 1 -19z m-1743 -18 c-6 -6 -10 -2 -11 12 -2 16 1 18 10 9 7 -7 8
-14 1 -21z m870 23 c4 -5 17 -8 29 -8 11 0 22 -5 24 -11 2 -7 -8 -9 -27 -6
-16 2 -30 8 -30 12 0 5 -10 11 -22 13 -21 4 -21 4 -2 6 11 0 24 -2 28 -6z
m-1674 -29 c0 -2 -9 0 -20 6 -11 6 -20 13 -20 16 0 2 9 0 20 -6 11 -6 20 -13
20 -16z m1170 6 c8 -5 11 -10 5 -10 -5 0 -17 5 -25 10 -8 5 -10 10 -5 10 6 0
17 -5 25 -10z m475 0 c16 -7 14 -8 -12 -7 -17 1 -29 5 -26 10 5 9 12 8 38 -3z
m115 0 c0 -5 -4 -10 -10 -10 -5 0 -10 5 -10 10 0 6 5 10 10 10 6 0 10 -4 10
-10z m-4243 -6 c-3 -3 -12 -4 -19 -1 -8 3 -5 6 6 6 11 1 17 -2 13 -5z m4008
-4 c-3 -5 -12 -10 -18 -10 -7 0 -6 4 3 10 19 12 23 12 15 0z m-398 -6 c-3 -3
-12 -4 -19 -1 -8 3 -5 6 6 6 11 1 17 -2 13 -5z m-259 -29 c-3 -3 -9 2 -12 12
-6 14 -5 15 5 6 7 -7 10 -15 7 -18z m432 11 c0 -3 -4 -8 -10 -11 -5 -3 -10 -1
-10 4 0 6 5 11 10 11 6 0 10 -2 10 -4z m57 -2 c-3 -3 -12 -4 -19 -1 -8 3 -5 6
6 6 11 1 17 -2 13 -5z m398 -22 c-8 -8 -25 10 -19 20 4 6 9 5 15 -3 4 -7 6
-15 4 -17z m-511 2 c5 -14 4 -15 -9 -4 -17 14 -19 20 -6 20 5 0 12 -7 15 -16z
m459 9 c-13 -2 -33 -2 -45 0 -13 2 -3 4 22 4 25 0 35 -2 23 -4z m-4589 -15
c-3 -4 -11 -5 -19 -1 -21 7 -19 12 4 10 11 0 18 -5 15 -9z m76 8 c0 -2 -9 -6
-20 -9 -11 -3 -18 -1 -14 4 5 9 34 13 34 5z m3540 -6 c3 0 -3 -5 -13 -11 -18
-11 -41 -3 -32 11 4 7 14 7 45 0z m-73 -6 c-3 -3 -12 -4 -19 -1 -8 3 -5 6 6 6
11 1 17 -2 13 -5z m626 -9 c-3 -9 -8 -14 -10 -11 -3 3 -2 9 2 15 9 16 15 13 8
-4z m527 5 c24 -15 7 -19 -20 -5 -15 8 -19 14 -10 14 8 1 22 -3 30 -9z m-355
-10 c3 -5 2 -10 -4 -10 -5 0 -13 5 -16 10 -3 6 -2 10 4 10 5 0 13 -4 16 -10z
m39 2 c3 -5 -1 -9 -9 -9 -8 0 -12 4 -9 9 3 4 7 8 9 8 2 0 6 -4 9 -8z m446 4
c0 -3 -4 -8 -10 -11 -5 -3 -10 -1 -10 4 0 6 5 11 10 11 6 0 10 -2 10 -4z
m-1045 -24 c-3 -3 -11 0 -18 7 -9 10 -8 11 6 5 10 -3 15 -9 12 -12z m1012 12
c-3 -3 -12 -4 -19 -1 -8 3 -5 6 6 6 11 1 17 -2 13 -5z m-792 -33 c-6 -5 -25
10 -25 20 0 5 6 4 14 -3 8 -7 12 -15 11 -17z m-430 -1 c3 -5 -3 -10 -15 -10
-12 0 -18 5 -15 10 3 6 10 10 15 10 5 0 12 -4 15 -10z m639 -1 c-6 -11 -31
-12 -37 -1 -3 4 6 8 19 8 13 1 21 -2 18 -7z m181 0 c11 -17 -1 -21 -15 -4 -8
9 -8 15 -2 15 6 0 14 -5 17 -11z m389 -5 c3 -8 2 -12 -4 -9 -6 3 -10 10 -10
16 0 14 7 11 14 -7z m113 10 c-3 -3 -12 -4 -19 -1 -8 3 -5 6 6 6 11 1 17 -2
13 -5z m130 -18 c-3 -8 5 -18 20 -25 32 -15 38 -9 22 21 -12 23 -12 23 10 4
31 -28 27 -47 -9 -44 -16 1 -30 6 -30 11 0 4 -4 6 -9 2 -5 -3 -12 -1 -15 4 -6
10 2 41 11 41 3 0 3 -6 0 -14z m-270 -2 c-3 -3 -12 -4 -19 -1 -8 3 -5 6 6 6
11 1 17 -2 13 -5z m228 -14 c-27 -12 -35 -12 -35 0 0 6 12 10 28 9 24 0 25 -1
7 -9z m-64 -10 c5 0 9 -4 9 -10 0 -14 -13 -12 -36 6 -17 14 -17 15 -1 10 10
-3 23 -6 28 -6z m259 0 c12 -8 11 -10 -7 -10 -13 0 -23 5 -23 10 0 13 11 13
30 0z m-5180 -10 c0 -5 -5 -10 -11 -10 -5 0 -7 5 -4 10 3 6 8 10 11 10 2 0 4
-4 4 -10z m5140 6 c0 -3 -4 -8 -10 -11 -5 -3 -10 -1 -10 4 0 6 5 11 10 11 6 0
10 -2 10 -4z m-4690 -10 c0 -3 -4 -8 -10 -11 -5 -3 -10 -1 -10 4 0 6 5 11 10
11 6 0 10 -2 10 -4z m3410 -20 c0 -2 -7 -7 -16 -10 -8 -3 -12 -2 -9 4 6 10 25
14 25 6z m-3887 -32 c-7 -20 -19 -17 -19 5 0 11 6 17 13 14 6 -3 9 -11 6 -19z
m158 10 c7 -8 21 -13 31 -11 10 3 16 1 12 -4 -8 -14 -24 -11 -51 11 -14 11
-21 20 -16 20 6 0 16 -7 24 -16z m5166 10 c-3 -3 -12 -4 -19 -1 -8 3 -5 6 6 6
11 1 17 -2 13 -5z m-4612 -24 c3 -5 -1 -10 -10 -10 -9 0 -13 5 -10 10 3 6 8
10 10 10 2 0 7 -4 10 -10z m2840 0 c3 -5 1 -10 -4 -10 -6 0 -11 5 -11 10 0 6
2 10 4 10 3 0 8 -4 11 -10z m30 0 c3 -5 1 -10 -4 -10 -6 0 -11 5 -11 10 0 6 2
10 4 10 3 0 8 -4 11 -10z m-3228 -6 c-3 -3 -12 -4 -19 -1 -8 3 -5 6 6 6 11 1
17 -2 13 -5z m-247 -16 c0 -4 -4 -8 -9 -8 -6 0 -12 4 -15 8 -3 5 1 9 9 9 8 0
15 -4 15 -9z m-34 -13 c9 -8 11 -15 6 -15 -5 0 -15 7 -22 15 -7 8 -9 15 -6 15
4 0 14 -7 22 -15z m-51 -4 c3 -5 -4 -12 -14 -16 -14 -4 -18 -11 -14 -23 6 -14
5 -15 -9 -2 -13 12 -15 26 -9 48 2 6 41 1 46 -7z m275 -3 c0 -4 -4 -8 -9 -8
-6 0 -12 4 -15 8 -3 5 1 9 9 9 8 0 15 -4 15 -9z m65 0 c5 4 5 1 1 -5 -10 -19
-36 -16 -36 3 0 13 3 14 13 5 8 -6 18 -7 22 -3z m3825 2 c0 -5 -4 -10 -9 -10
-6 0 -13 5 -16 10 -3 6 1 10 9 10 9 0 16 -4 16 -10z m-3765 -10 c3 -5 -1 -10
-9 -10 -9 0 -16 5 -16 10 0 6 4 10 9 10 6 0 13 -4 16 -10z m50 -18 c-3 -3 -11
0 -18 7 -9 10 -8 11 6 5 10 -3 15 -9 12 -12z m3670 8 c3 -5 1 -10 -4 -10 -6 0
-11 5 -11 10 0 6 2 10 4 10 3 0 8 -4 11 -10z m-3360 -10 c3 -5 1 -10 -4 -10
-6 0 -11 5 -11 10 0 6 2 10 4 10 3 0 8 -4 11 -10z m1469 -6 c3 -8 2 -12 -4 -9
-6 3 -10 10 -10 16 0 14 7 11 14 -7z m1696 -8 c0 -2 -9 -6 -20 -9 -11 -3 -20
-1 -20 4 0 5 9 9 20 9 11 0 20 -2 20 -4z m-3933 -34 c8 -5 9 -13 3 -22 -7 -10
-10 -11 -10 -2 0 6 -7 12 -15 12 -8 0 -15 5 -15 10 0 12 20 13 37 2z m1297
-20 c3 -5 -1 -9 -9 -9 -8 0 -12 4 -9 9 3 4 7 8 9 8 2 0 6 -4 9 -8z"/>
<path d="M2440 4016 c0 -9 5 -16 10 -16 6 0 10 4 10 9 0 6 -4 13 -10 16 -5 3
-10 -1 -10 -9z"/>
<path d="M2190 3960 c0 -5 5 -10 10 -10 6 0 10 5 10 10 0 6 -4 10 -10 10 -5 0
-10 -4 -10 -10z"/>
<path d="M90 3230 c-18 -12 -2 -12 25 0 13 6 15 9 5 9 -8 0 -22 -4 -30 -9z"/>
<path d="M5040 2820 c20 -13 40 -13 40 0 0 6 -12 10 -27 10 -22 0 -25 -2 -13
-10z"/>
<path d="M1241 2674 c0 -11 3 -14 6 -6 3 7 2 16 -1 19 -3 4 -6 -2 -5 -13z"/>
<path d="M4568 2698 c6 -6 18 -8 28 -6 14 3 12 5 -9 10 -19 3 -25 2 -19 -4z"/>
<path d="M5020 2690 c-9 -6 -10 -10 -3 -10 6 0 15 5 18 10 8 12 4 12 -15 0z"/>
<path d="M4830 2440 c0 -5 5 -10 10 -10 6 0 10 5 10 10 0 6 -4 10 -10 10 -5 0
-10 -4 -10 -10z"/>
<path d="M2848 2143 c-27 -7 -22 -23 7 -23 16 0 25 6 25 15 0 15 -2 16 -32 8z"/>
<path d="M2988 2143 c7 -3 16 -2 19 1 4 3 -2 6 -13 5 -11 0 -14 -3 -6 -6z"/>
<path d="M2915 2119 c11 -7 24 -18 28 -26 10 -17 61 -17 76 1 14 17 1 23 -71
31 -44 5 -50 4 -33 -6z"/>
<path d="M2764 2109 c-7 -12 15 -31 28 -23 4 3 8 -5 8 -18 0 -19 8 -26 42 -35
31 -8 46 -8 60 0 28 18 23 40 -7 33 -28 -7 -60 6 -88 35 -20 22 -33 24 -43 8z"/>
<path d="M2936 2021 c-7 -11 37 -23 58 -15 9 3 13 10 10 15 -7 12 -61 12 -68
0z"/>
<path d="M4080 2446 c0 -9 39 -13 51 -5 10 6 4 9 -18 9 -18 0 -33 -2 -33 -4z"/>
<path d="M2506 2085 c-8 -47 -1 -85 14 -85 5 0 11 9 15 20 8 24 -4 110 -15
110 -4 0 -11 -20 -14 -45z"/>
<path d="M2471 1844 c0 -11 3 -14 6 -6 3 7 2 16 -1 19 -3 4 -6 -2 -5 -13z"/>
<path d="M5192 1836 c10 -7 14 -17 10 -22 -4 -4 1 -2 11 5 18 14 24 26 7 16
-5 -3 -10 -1 -10 4 0 6 -8 11 -17 11 -17 -1 -17 -1 -1 -14z"/>
<path d="M3070 1789 c0 -6 -7 -9 -14 -6 -10 4 -13 1 -10 -8 7 -17 34 -8 34 11
0 8 -2 14 -5 14 -3 0 -5 -5 -5 -11z"/>
<path d="M2974 1766 c22 -18 46 -21 46 -6 0 6 -6 10 -14 10 -8 0 -23 3 -33 6
-16 5 -16 4 1 -10z"/>
<path d="M2900 1760 c12 -7 11 -12 -5 -30 -10 -11 -21 -17 -24 -12 -3 5 -17 5
-31 2 -24 -6 -24 -7 8 -14 18 -4 30 -12 26 -17 -3 -5 2 -9 11 -9 9 0 15 5 13
12 -5 13 37 58 55 59 14 1 -31 17 -53 18 -13 1 -13 -1 0 -9z"/>
<path d="M2714 1738 c-4 -13 -12 -26 -18 -30 -7 -4 -5 -9 6 -13 19 -8 98 12
98 25 0 5 12 10 27 12 14 2 28 8 30 15 5 14 -65 7 -81 -8 -13 -12 -36 -11 -36
0 0 5 8 12 18 14 11 3 7 5 -10 6 -19 1 -29 -5 -34 -21z m26 -28 c0 -5 -4 -10
-10 -10 -5 0 -10 5 -10 10 0 6 5 10 10 10 6 0 10 -4 10 -10z"/>
<path d="M2968 1733 c7 -3 16 -2 19 1 4 3 -2 6 -13 5 -11 0 -14 -3 -6 -6z"/>
<path d="M2631 1494 c0 -11 3 -14 6 -6 3 7 2 16 -1 19 -3 4 -6 -2 -5 -13z"/>
<path d="M5430 1760 c0 -5 5 -10 11 -10 5 0 7 5 4 10 -3 6 -8 10 -11 10 -2 0
-4 -4 -4 -10z"/>
<path d="M1785 1480 c11 -5 27 -9 35 -9 9 0 8 4 -5 9 -11 5 -27 9 -35 9 -9 0
-8 -4 5 -9z"/>
<path d="M4394 4349 c0 -10 4 -19 8 -19 4 0 8 6 8 14 0 8 -4 17 -8 20 -4 2 -8
-4 -8 -15z"/>
<path d="M1141 4277 c0 -7 4 -20 8 -31 7 -17 8 -17 24 -1 10 9 15 20 12 25 -8
13 -45 19 -44 7z"/>
<path d="M1174 4209 c-8 -25 -6 -117 4 -133 7 -13 20 22 21 55 1 18 8 28 21
32 25 6 26 25 3 34 -10 4 -23 14 -29 22 -10 12 -13 11 -20 -10z"/>
<path d="M5380 4094 c0 -18 24 -44 40 -44 15 0 20 7 20 25 0 21 -5 25 -30 25
-16 0 -30 -3 -30 -6z"/>
<path d="M1020 4073 c0 -24 18 -84 30 -103 8 -13 15 -10 41 18 36 38 33 54
-13 82 -41 25 -58 25 -58 3z"/>
<path d="M626 3978 c-17 -36 -27 -77 -31 -128 -3 -41 -8 -92 -11 -112 -3 -23
0 -55 9 -80 9 -24 18 -60 22 -80 6 -39 7 -39 54 -10 3 1 -4 9 -15 17 -17 13
-16 14 13 4 30 -10 37 -8 80 23 27 19 54 47 61 62 8 15 25 32 38 38 13 6 24
17 24 23 0 11 -33 60 -50 75 -3 3 -23 39 -45 80 -68 131 -70 135 -97 138 -22
3 -29 -4 -52 -50z"/>
<path d="M1590 3995 c-7 -14 -21 -25 -31 -25 -14 0 -18 -11 -21 -56 -3 -58 4
-85 16 -65 4 6 5 25 1 41 -5 24 -3 30 10 30 11 0 15 5 11 15 -3 8 1 18 9 22
12 7 33 63 23 63 -3 0 -11 -11 -18 -25z"/>
<path d="M1372 3954 c-12 -8 -41 -41 -64 -72 -23 -31 -68 -85 -101 -119 l-59
-62 26 -26 c14 -14 26 -30 26 -36 0 -14 87 -97 134 -128 37 -24 39 -25 52 -6
8 10 14 23 14 27 0 5 11 25 24 46 19 29 27 60 35 142 12 113 5 182 -23 225
-19 29 -33 31 -64 9z m-65 -230 c-3 -3 -12 -4 -19 -1 -8 3 -5 6 6 6 11 1 17
-2 13 -5z"/>
<path d="M1800 3945 l-45 -14 55 5 55 5 -35 -17 c-19 -10 -44 -21 -55 -25 -19
-7 -19 -7 2 -8 30 -1 40 -21 19 -37 -10 -7 -15 -17 -12 -23 4 -5 2 -12 -4 -16
-18 -11 -11 -25 13 -25 13 0 46 -11 73 -25 50 -25 90 -33 79 -15 -3 6 -1 10 5
10 7 0 9 17 6 48 -2 26 -5 58 -5 71 -1 16 -5 21 -15 18 -10 -4 -13 -1 -10 7 3
8 -7 19 -25 27 -17 8 -31 17 -31 21 0 10 -16 9 -70 -7z"/>
<path d="M990 3730 c0 -5 7 -10 15 -10 8 0 15 5 15 10 0 6 -7 10 -15 10 -8 0
-15 -4 -15 -10z"/>
<path d="M2560 3651 c0 -6 5 -13 10 -16 6 -4 7 -11 4 -17 -4 -7 -2 -8 4 -4 17
10 15 46 -3 46 -8 0 -15 -4 -15 -9z"/>
<path d="M1003 3605 c-3 -9 -3 -18 -1 -21 3 -3 8 4 11 16 6 23 -1 27 -10 5z"/>
<path d="M1810 3574 c14 -16 25 -30 25 -30 0 -1 10 -5 23 -8 16 -6 22 -3 22 9
0 8 -8 18 -17 21 -10 3 -31 13 -48 21 l-30 16 25 -29z"/>
<path d="M2525 3581 c-11 -19 -16 -61 -6 -61 5 0 12 14 16 31 7 32 2 48 -10
30z"/>
<path d="M4949 3583 c-20 -5 -32 -40 -17 -50 6 -3 16 1 23 10 7 10 18 17 24
17 14 0 10 23 -5 26 -5 1 -16 0 -25 -3z"/>
<path d="M1010 3541 c0 -12 5 -21 10 -21 6 0 10 6 10 14 0 8 -4 18 -10 21 -5
3 -10 -3 -10 -14z"/>
<path d="M2880 3530 c0 -5 5 -10 10 -10 6 0 10 5 10 10 0 6 -4 10 -10 10 -5 0
-10 -4 -10 -10z"/>
<path d="M880 3520 c0 -7 24 -20 36 -20 13 0 1 19 -16 23 -11 3 -20 2 -20 -3z"/>
<path d="M1045 3520 c3 -5 14 -10 23 -10 15 0 15 2 2 10 -20 13 -33 13 -25 0z"/>
<path d="M607 3513 c-11 -20 -17 -67 -10 -72 5 -3 16 -17 25 -30 l17 -23 6 38
c3 22 10 46 14 54 4 8 6 21 4 28 -5 13 -49 17 -56 5z"/>
<path d="M828 3513 c7 -3 16 -2 19 1 4 3 -2 6 -13 5 -11 0 -14 -3 -6 -6z"/>
<path d="M1906 3512 c-4 -7 -12 -10 -17 -7 -21 13 -2 -42 25 -70 8 -9 15 -6
28 11 24 29 23 36 -4 34 -36 -3 -44 0 -29 9 7 5 11 15 9 22 -3 10 -6 10 -12 1z"/>
<path d="M773 3503 c-18 -7 -16 -23 2 -23 8 0 15 7 15 15 0 8 -1 15 -2 14 -2
0 -9 -3 -15 -6z"/>
<path d="M1080 3490 c0 -6 7 -10 15 -10 8 0 15 2 15 4 0 2 -7 6 -15 10 -8 3
-15 1 -15 -4z"/>
<path d="M2960 3490 c0 -5 4 -10 9 -10 6 0 13 5 16 10 3 6 -1 10 -9 10 -9 0
-16 -4 -16 -10z"/>
<path d="M1155 3480 c21 -4 41 -13 43 -19 2 -6 9 -11 15 -11 7 1 1 10 -12 20
-13 12 -37 20 -55 19 -29 -1 -28 -2 9 -9z"/>
<path d="M5040 3455 c0 -33 2 -36 15 -25 18 15 16 51 -2 58 -9 2 -13 -8 -13
-33z"/>
<path d="M1322 3473 c-8 -3 -4 -12 14 -25 18 -15 25 -28 21 -45 -6 -30 9 -39
23 -14 8 15 6 28 -7 55 -18 35 -26 39 -51 29z"/>
<path d="M2939 3461 c7 -5 10 -14 6 -21 -4 -7 -2 -11 6 -9 28 3 39 -1 39 -16
0 -8 8 -15 17 -15 9 0 14 -3 10 -6 -9 -9 -44 5 -75 30 -15 13 -37 25 -50 29
-19 4 -22 2 -17 -14 4 -10 2 -19 -3 -19 -6 0 -8 -9 -5 -19 4 -17 14 -20 63
-19 45 1 73 -6 125 -31 37 -17 69 -31 72 -31 2 0 -5 12 -16 26 -11 15 -18 30
-16 35 3 4 -2 23 -12 41 -14 26 -24 32 -43 30 -15 -2 -20 0 -14 5 7 4 -13 9
-44 10 -34 1 -51 -1 -43 -6z m-22 -37 c-3 -3 -12 -4 -19 -1 -8 3 -5 6 6 6 11
1 17 -2 13 -5z"/>
<path d="M550 3456 c0 -4 9 -16 20 -28 11 -12 20 -17 20 -11 0 5 -9 18 -20 28
-11 10 -20 15 -20 11z"/>
<path d="M980 3431 c0 -16 3 -36 6 -45 10 -27 24 -7 24 35 0 28 -4 39 -15 39
-10 0 -15 -10 -15 -29z"/>
<path d="M4761 3432 c-11 -17 -21 -33 -21 -38 0 -16 -76 -74 -97 -74 -13 0
-30 -11 -39 -25 -9 -14 -23 -25 -30 -25 -8 0 -14 -5 -14 -11 0 -6 -21 -8 -61
-5 -55 5 -60 4 -57 -13 2 -10 -6 -29 -17 -41 -20 -22 -20 -22 0 -36 16 -12 17
-16 6 -23 -25 -16 -6 -74 29 -89 41 -18 76 -12 72 12 -7 42 8 65 59 90 46 22
53 23 79 9 37 -18 70 -59 70 -87 0 -32 -95 -79 -152 -75 -26 2 -43 -1 -46 -9
-2 -6 2 -12 10 -13 7 0 3 -4 -9 -9 -28 -12 -29 -25 -2 -43 25 -18 60 -10 66
14 5 19 33 35 33 19 0 -6 16 -10 36 -10 23 0 41 -6 49 -17 10 -13 28 -16 95
-15 64 2 87 -2 101 -14 19 -17 39 -12 39 10 0 20 66 36 101 24 22 -8 46 -6 99
7 39 9 70 21 70 26 0 5 7 9 15 9 8 0 15 5 15 10 0 20 32 10 60 -19 27 -27 31
-28 74 -18 34 8 52 7 83 -5 50 -20 63 -14 63 29 0 30 -3 34 -20 28 -20 -6 -58
12 -88 42 -7 7 -19 13 -25 13 -7 0 -18 9 -25 20 -7 12 -17 18 -22 15 -20 -12
-14 63 6 86 8 8 14 19 14 23 0 13 52 50 72 51 37 3 64 -59 43 -99 -13 -25 -13
-27 11 -36 14 -6 27 -10 30 -10 2 0 4 54 4 120 0 73 -4 120 -10 120 -5 0 -10
-6 -10 -13 0 -17 -46 -57 -65 -57 -18 0 -20 17 -2 23 6 2 2 2 -10 0 -18 -3
-24 3 -31 29 -8 31 -9 32 -57 29 -27 -1 -61 -8 -75 -15 -67 -34 -132 -24 -186
27 -26 25 -54 30 -54 11 0 -7 6 -11 13 -8 12 4 15 -7 18 -58 1 -31 -32 -88
-51 -88 -22 0 -33 29 -33 82 0 21 -6 43 -13 49 -8 6 -14 18 -14 25 0 8 -9 14
-20 14 -13 0 -20 7 -20 20 0 11 -3 21 -7 21 -5 1 -19 3 -33 4 -14 1 -41 5 -61
9 -33 7 -38 5 -58 -22z m133 -117 c4 -10 -1 -15 -14 -15 -13 0 -18 5 -14 15 4
8 10 15 14 15 4 0 10 -7 14 -15z m467 -37 c5 1 9 -7 9 -19 0 -11 -4 -18 -9
-14 -5 3 -16 -4 -24 -16 -11 -15 -21 -19 -36 -14 -12 3 -21 11 -21 16 0 6 -5
7 -11 3 -8 -4 -7 -9 2 -15 22 -13 16 -77 -9 -95 -12 -8 -22 -22 -22 -30 0 -20
-28 -18 -33 4 -4 13 -5 11 -6 -5 0 -13 -7 -23 -13 -24 -10 0 -10 -2 0 -6 6 -2
12 -11 12 -19 0 -8 -6 -14 -12 -14 -20 0 -43 18 -35 26 4 4 2 13 -4 20 -6 7
-8 23 -4 34 5 17 13 21 31 17 20 -3 23 -1 18 17 -7 30 10 71 41 98 16 14 23
28 19 40 -3 10 -2 18 3 19 23 2 46 8 51 14 4 3 15 -4 26 -17 10 -13 23 -22 27
-20z m-446 -28 c14 -16 26 -19 47 -15 17 4 28 2 28 -4 0 -6 11 -11 25 -11 38
0 30 -17 -11 -25 -20 -3 -55 -18 -77 -32 -45 -29 -81 -24 -101 12 -6 11 -15
23 -20 26 -5 4 1 21 13 38 27 37 68 42 96 11z m26 -170 c14 -8 19 -21 19 -50
0 -36 -3 -41 -36 -55 -20 -8 -47 -15 -60 -15 -28 0 -54 34 -55 75 0 16 -3 24
-6 17 -2 -6 -9 -10 -14 -7 -5 4 -3 12 4 20 9 9 16 10 25 2 9 -7 18 -6 30 6 18
19 64 22 93 7z"/>
<path d="M825 3424 c-11 -8 -32 -14 -47 -11 -22 3 -28 0 -28 -16 0 -43 38 -84
73 -78 12 2 8 -17 -8 -32 -18 -19 -52 -11 -66 15 -13 25 -21 17 -24 -24 -3
-37 10 -50 42 -41 14 3 23 1 23 -6 0 -6 4 -11 9 -11 5 0 7 10 3 22 -3 14 -2
19 6 14 7 -4 12 -1 12 8 0 9 6 16 14 16 7 0 19 6 26 14 6 8 18 12 26 9 8 -3
14 0 14 6 0 7 9 21 20 33 23 25 26 58 6 58 -8 0 -18 -4 -21 -10 -3 -5 -18 4
-33 20 -25 27 -28 28 -47 14z"/>
<path d="M1117 3419 c7 -7 15 -10 18 -7 3 3 -2 9 -12 12 -14 6 -15 5 -6 -5z"/>
<path d="M135 3410 c-3 -5 -16 -10 -27 -10 -12 0 -19 -2 -16 -5 8 -9 128 7
122 16 -7 12 -71 11 -79 -1z"/>
<path d="M700 3412 c0 -5 7 -13 16 -16 10 -4 14 -1 12 6 -5 15 -28 23 -28 10z"/>
<path d="M950 3410 c0 -5 5 -10 10 -10 6 0 10 5 10 10 0 6 -4 10 -10 10 -5 0
-10 -4 -10 -10z"/>
<path d="M1029 3389 c-12 -7 -12 -9 0 -9 7 0 11 -6 8 -14 -3 -8 3 -26 14 -39
12 -16 17 -32 12 -44 -6 -16 -5 -16 10 -4 14 11 20 11 34 0 11 -10 17 -10 20
-3 2 6 15 9 29 6 17 -3 30 2 44 18 11 13 20 27 20 32 0 4 7 8 15 8 8 0 15 5
15 10 0 6 -7 10 -15 10 -8 0 -15 5 -15 10 0 6 -5 10 -11 10 -5 0 -7 -4 -4 -10
3 -5 0 -7 -9 -4 -8 3 -17 12 -20 20 -6 17 -33 19 -38 2 -4 -12 -58 -19 -58 -7
0 11 -37 17 -51 8z"/>
<path d="M251 3366 c7 -14 18 -26 26 -26 7 0 15 0 18 0 15 0 3 15 -24 33 l-32
19 12 -26z"/>
<path d="M961 3364 c0 -11 3 -14 6 -6 3 7 2 16 -1 19 -3 4 -6 -2 -5 -13z"/>
<path d="M35 3360 c-25 -6 -27 -8 -12 -15 9 -4 26 -5 37 -2 12 3 20 0 20 -7 0
-7 12 -18 27 -25 27 -12 27 -12 10 6 -9 11 -14 23 -10 27 8 8 -16 26 -32 25
-5 -1 -23 -5 -40 -9z"/>
<path d="M1273 3354 c-15 -16 -16 -24 -4 -24 8 0 24 30 19 35 -2 2 -9 -3 -15
-11z"/>
<path d="M130 3349 c0 -13 38 -49 52 -49 6 0 3 7 -8 15 -15 12 -16 16 -6 23
10 7 7 11 -12 14 -14 3 -26 1 -26 -3z"/>
<path d="M220 3346 c0 -2 7 -7 16 -10 8 -3 12 -2 9 4 -6 10 -25 14 -25 6z"/>
<path d="M2870 3335 c0 -8 2 -15 4 -15 2 0 6 7 10 15 3 8 1 15 -4 15 -6 0 -10
-7 -10 -15z"/>
<path d="M20 3300 c0 -13 11 -13 30 0 12 8 11 10 -7 10 -13 0 -23 -4 -23 -10z"/>
<path d="M1345 3300 c-3 -5 -1 -10 4 -10 6 0 11 5 11 10 0 6 -2 10 -4 10 -3 0
-8 -4 -11 -10z"/>
<path d="M358 3273 c7 -3 16 -2 19 1 4 3 -2 6 -13 5 -11 0 -14 -3 -6 -6z"/>
<path d="M2988 3273 c-22 -5 -24 -23 -3 -23 8 0 15 -4 15 -10 0 -5 8 -10 18
-10 15 1 15 2 -3 16 -17 13 -18 16 -5 24 16 10 8 11 -22 3z"/>
<path d="M661 3260 c0 -18 37 -65 45 -57 3 3 1 12 -5 19 -7 7 -18 22 -26 33
-11 15 -14 16 -14 5z"/>
<path d="M398 3253 c7 -3 16 -2 19 1 4 3 -2 6 -13 5 -11 0 -14 -3 -6 -6z"/>
<path d="M1505 3241 c-3 -5 -1 -12 5 -16 5 -3 10 1 10 9 0 18 -6 21 -15 7z"/>
<path d="M480 3230 c0 -9 39 -25 46 -18 2 3 -7 10 -21 16 -14 6 -25 7 -25 2z"/>
<path d="M1660 3219 c0 -5 7 -9 15 -9 7 0 18 -7 23 -16 5 -9 14 -14 20 -10 18
11 -8 44 -35 44 -12 0 -23 -4 -23 -9z"/>
<path d="M410 3210 c0 -12 8 -12 35 0 18 8 17 9 -7 9 -16 1 -28 -3 -28 -9z"/>
<path d="M820 3206 c0 -8 -6 -16 -12 -19 -7 -2 -10 -7 -6 -11 7 -8 48 23 48
36 0 5 -7 8 -15 8 -8 0 -15 -6 -15 -14z"/>
<path d="M1620 3191 c0 -9 52 -22 60 -15 7 7 -23 24 -42 24 -10 0 -18 -4 -18
-9z"/>
<path d="M1552 3171 c16 -25 31 -27 26 -4 -2 10 -11 19 -21 21 -16 3 -17 1 -5
-17z"/>
<path d="M1720 3155 c0 -8 7 -15 16 -15 14 0 14 3 4 15 -7 8 -14 15 -16 15 -2
0 -4 -7 -4 -15z"/>
<path d="M1110 3140 c0 -11 4 -20 9 -20 17 0 19 15 5 28 -12 11 -14 9 -14 -8z"/>
<path d="M1526 3137 c11 -12 20 -24 21 -26 2 -2 3 5 3 16 0 13 -8 23 -21 26
-20 5 -20 5 -3 -16z"/>
<path d="M1567 3119 c-4 -13 -2 -28 3 -33 14 -14 24 19 12 40 -8 14 -10 13
-15 -7z"/>
<path d="M1355 3073 c4 -21 3 -33 -4 -33 -15 0 -14 -57 2 -63 9 -4 9 -7 0 -14
-8 -6 -10 -18 -5 -36 10 -39 27 -28 25 16 -1 20 3 37 9 37 7 0 7 4 0 13 -6 7
-9 27 -7 44 2 18 -3 39 -11 49 -14 18 -14 17 -9 -13z"/>
<path d="M3580 3030 c0 -5 5 -10 11 -10 5 0 7 5 4 10 -3 6 -8 10 -11 10 -2 0
-4 -4 -4 -10z"/>
<path d="M786 2941 c-4 -7 -5 -15 -2 -18 9 -9 19 4 14 18 -4 11 -6 11 -12 0z"/>
<path d="M4800 2889 c0 -5 5 -7 10 -4 6 3 10 8 10 11 0 2 -4 4 -10 4 -5 0 -10
-5 -10 -11z"/>
<path d="M4885 2890 c3 -5 11 -10 16 -10 6 0 7 5 4 10 -3 6 -11 10 -16 10 -6
0 -7 -4 -4 -10z"/>
<path d="M5491 2886 c-6 -8 -26 -12 -46 -10 -31 2 -35 0 -30 -16 3 -11 0 -20
-10 -24 -9 -3 -13 -11 -9 -17 5 -8 8 -8 14 0 5 9 19 9 53 2 25 -6 53 -8 61 -5
19 7 21 34 4 34 -10 0 -10 2 0 9 8 4 14 12 14 16 0 8 -22 25 -33 25 -4 0 -12
-6 -18 -14z m10 -39 c-10 -9 -11 -8 -5 6 3 10 9 15 12 12 3 -3 0 -11 -7 -18z"/>
<path d="M1380 2860 c0 -5 10 -10 23 -10 18 0 19 2 7 10 -19 13 -30 13 -30 0z"/>
<path d="M1 2804 c0 -11 3 -14 6 -6 3 7 2 16 -1 19 -3 4 -6 -2 -5 -13z"/>
<path d="M821 2794 c0 -11 3 -14 6 -6 3 7 2 16 -1 19 -3 4 -6 -2 -5 -13z"/>
<path d="M1470 2800 c0 -5 5 -10 10 -10 6 0 10 5 10 10 0 6 -4 10 -10 10 -5 0
-10 -4 -10 -10z"/>
<path d="M1396 2792 c-3 -6 -1 -14 5 -17 15 -10 25 3 12 16 -7 7 -13 7 -17 1z"/>
<path d="M4746 2755 c4 -8 10 -15 15 -15 5 0 9 7 9 15 0 8 -7 15 -15 15 -9 0
-12 -6 -9 -15z"/>
<path d="M1410 2741 c0 -5 7 -11 15 -15 8 -3 15 -1 15 3 0 5 -7 11 -15 15 -8
3 -15 1 -15 -3z"/>
<path d="M1467 2695 c3 -8 9 -12 14 -9 12 7 11 11 -5 17 -10 4 -13 1 -9 -8z"/>
<path d="M1500 2680 c0 -5 5 -10 10 -10 6 0 10 5 10 10 0 6 -4 10 -10 10 -5 0
-10 -4 -10 -10z"/>
<path d="M1474 2635 c7 -27 -3 -32 -22 -13 -9 9 -12 9 -12 0 0 -7 5 -12 10
-12 6 0 10 -6 8 -12 -1 -7 4 -24 11 -37 7 -13 11 -34 8 -47 -4 -21 -1 -24 17
-19 17 5 18 4 6 -5 -13 -9 -12 -12 4 -25 11 -8 15 -15 9 -15 -7 0 -15 5 -18
10 -3 6 -13 10 -22 10 -12 0 -11 -5 8 -23 15 -14 27 -19 31 -12 5 6 8 3 8 -6
0 -11 12 -19 37 -24 21 -4 41 -11 44 -17 3 -5 9 0 12 12 4 17 2 20 -14 15 -33
-11 -57 3 -51 30 2 14 -4 38 -16 57 -11 18 -20 40 -19 48 3 33 -15 99 -30 104
-12 5 -14 1 -9 -19z"/>
<path d="M1746 2448 c3 -18 10 -46 16 -63 5 -16 14 -43 18 -60 5 -16 15 -55
23 -85 21 -78 40 -198 38 -244 0 -21 6 -64 14 -95 10 -39 11 -68 5 -94 -6 -30
-5 -40 6 -44 8 -3 14 -11 14 -19 0 -8 7 -14 16 -14 10 0 14 6 11 14 -3 8 2 17
11 21 14 5 14 7 2 16 -13 8 -13 11 1 22 10 7 19 36 23 71 10 73 -15 176 -81
346 -14 36 -35 92 -46 125 -24 74 -51 128 -66 133 -7 2 -9 -7 -5 -30z"/>
<path d="M862 2441 c-11 -7 -11 -16 -1 -52 7 -24 21 -57 31 -74 10 -16 18 -37
18 -45 0 -20 48 -119 49 -102 1 7 -8 30 -19 52 -11 22 -20 48 -20 58 0 10 -3
22 -7 26 -5 4 -15 39 -23 76 -11 53 -18 67 -28 61z"/>
<path d="M130 2390 c0 -5 5 -10 10 -10 6 0 10 -4 10 -10 0 -5 -7 -10 -15 -10
-8 0 -15 -4 -15 -10 0 -12 10 -13 29 -1 8 5 11 16 6 30 -6 21 -25 29 -25 11z"/>
<path d="M1440 2390 c0 -5 7 -10 16 -10 8 0 12 5 9 10 -3 6 -10 10 -16 10 -5
0 -9 -4 -9 -10z"/>
<path d="M143 2320 c-1 -11 2 -20 8 -20 5 0 9 9 9 20 0 11 -4 20 -8 20 -4 0
-8 -9 -9 -20z"/>
<path d="M2239 2315 c-14 -22 -21 -75 -9 -75 21 0 40 28 39 57 l-1 28 -7 -25
-8 -25 -4 25 c-2 14 -7 21 -10 15z"/>
<path d="M2321 2285 c0 -35 2 -37 11 -19 7 15 7 28 -1 40 -9 16 -10 12 -10
-21z"/>
<path d="M150 2281 c0 -5 5 -13 10 -16 6 -3 10 -2 10 4 0 5 -4 13 -10 16 -5 3
-10 2 -10 -4z"/>
<path d="M2260 2240 c0 -5 5 -10 11 -10 5 0 7 5 4 10 -3 6 -8 10 -11 10 -2 0
-4 -4 -4 -10z"/>
<path d="M1540 2172 c0 -18 6 -32 16 -36 9 -4 14 -13 10 -21 -6 -16 14 -16 26
0 14 18 9 35 -8 28 -13 -5 -15 -2 -10 15 6 18 4 21 -10 15 -11 -4 -15 -3 -10
5 3 6 2 13 -4 17 -6 4 -10 -6 -10 -23z"/>
<path d="M1788 2110 c-2 -127 -1 -142 14 -151 9 -6 14 -2 16 13 2 12 -1 24 -7
26 -13 4 -15 42 -2 42 10 0 2 129 -10 150 -5 9 -9 -22 -11 -80z"/>
<path d="M360 2114 c-14 -35 -5 -44 33 -37 33 6 62 23 39 23 -7 0 -12 6 -12
14 0 13 -20 26 -41 26 -5 0 -14 -12 -19 -26z"/>
<path d="M1065 2100 c-3 -5 -2 -10 4 -10 5 0 13 5 16 10 3 6 2 10 -4 10 -5 0
-13 -4 -16 -10z"/>
<path d="M2260 2085 c10 -12 10 -18 1 -29 -8 -9 -8 -16 -2 -20 6 -4 8 -13 4
-21 -3 -9 1 -29 8 -46 l12 -31 13 48 c7 27 13 64 14 82 0 29 -3 32 -31 32 -27
0 -30 -2 -19 -15z"/>
<path d="M1085 2070 c3 -5 8 -10 11 -10 2 0 4 5 4 10 0 6 -5 10 -11 10 -5 0
-7 -4 -4 -10z"/>
<path d="M1055 2050 c-3 -5 1 -10 10 -10 9 0 13 5 10 10 -3 6 -8 10 -10 10 -2
0 -7 -4 -10 -10z"/>
<path d="M1507 2000 c3 -11 7 -20 9 -20 2 0 4 9 4 20 0 11 -4 20 -9 20 -5 0
-7 -9 -4 -20z"/>
<path d="M1573 1979 c3 -24 4 -35 1 -24 -12 44 -24 38 -24 -12 0 -29 -5 -55
-11 -58 -5 -4 -10 -34 -9 -68 1 -34 -1 -86 -4 -114 -7 -62 14 -72 26 -13 35
182 46 314 27 326 -8 4 -10 -7 -6 -37z"/>
<path d="M1527 1950 c-3 -11 -1 -23 4 -26 5 -3 9 6 9 20 0 31 -6 34 -13 6z"/>
<path d="M1817 1923 c-3 -10 -8 -28 -12 -40 -4 -13 -2 -23 4 -23 5 0 13 16 17
35 7 38 0 60 -9 28z"/>
<path d="M1010 1918 c1 -29 38 -119 45 -109 4 7 2 18 -5 25 -6 8 -8 27 -5 43
5 21 4 24 -4 13 -9 -12 -11 -11 -11 7 0 12 -4 25 -10 28 -5 3 -10 0 -10 -7z"/>
<path d="M2298 1884 c-5 -4 -8 -23 -8 -43 1 -30 2 -33 11 -18 11 19 8 73 -3
61z"/>
<path d="M1496 1734 c-9 -24 -7 -27 9 -10 17 17 19 26 6 26 -5 0 -12 -7 -15
-16z"/>
<path d="M1825 1740 c-3 -5 3 -10 15 -10 12 0 18 5 15 10 -3 6 -10 10 -15 10
-5 0 -12 -4 -15 -10z"/>
<path d="M1763 1716 c-4 -7 -15 -16 -23 -19 -11 -4 -9 -6 6 -6 11 -1 29 8 39
19 16 18 16 20 2 20 -9 0 -20 -6 -24 -14z"/>
<path d="M1940 1708 c0 -32 15 -45 24 -21 4 9 0 23 -9 32 -13 14 -15 13 -15
-11z"/>
<path d="M36 1671 c-8 -12 3 -41 15 -41 12 0 12 37 0 45 -5 3 -12 1 -15 -4z"/>
<path d="M1620 1639 c0 -11 38 -22 50 -14 19 12 10 22 -20 22 -16 0 -30 -4
-30 -8z"/>
<path d="M885 1620 c3 -5 8 -10 11 -10 2 0 4 5 4 10 0 6 -5 10 -11 10 -5 0 -7
-4 -4 -10z"/>
<path d="M40 1606 c0 -24 18 -28 30 -6 9 17 8 20 -10 20 -11 0 -20 -6 -20 -14z"/>
<path d="M988 1577 c-18 -42 -18 -42 2 -17 20 27 32 60 22 60 -4 0 -15 -19
-24 -43z"/>
<path d="M53 1551 l-21 -18 28 0 c21 0 28 5 27 19 -2 22 -6 22 -34 -1z"/>
<path d="M2024 1547 c3 -10 6 -25 6 -33 0 -9 5 -12 10 -9 14 9 13 18 -6 41
-14 17 -15 17 -10 1z"/>
<path d="M1402 1470 c0 -14 2 -19 5 -12 2 6 2 18 0 25 -3 6 -5 1 -5 -13z"/>
<path d="M1390 1421 c0 -5 5 -13 10 -16 6 -3 10 -2 10 4 0 5 -4 13 -10 16 -5
3 -10 2 -10 -4z"/>
<path d="M1254 1377 c3 -10 6 -23 6 -28 0 -5 5 -9 10 -9 14 0 12 13 -6 36 -14
17 -15 17 -10 1z"/>
<path d="M1246 1315 c-3 -8 -1 -15 4 -15 6 0 10 7 10 15 0 8 -2 15 -4 15 -2 0
-6 -7 -10 -15z"/>
<path d="M1531 1234 c0 -11 3 -14 6 -6 3 7 2 16 -1 19 -3 4 -6 -2 -5 -13z"/>
<path d="M2061 1214 c0 -11 3 -14 6 -6 3 7 2 16 -1 19 -3 4 -6 -2 -5 -13z"/>
</g>
</svg>
