<?xml version="1.0" standalone="no"?>
<!DOCTYPE svg PUBLIC "-//W3C//DTD SVG 20010904//EN"
 "http://www.w3.org/TR/2001/REC-SVG-20010904/DTD/svg10.dtd">
<svg version="1.0" xmlns="http://www.w3.org/2000/svg"
 width="1080.000000pt" height="1080.000000pt" viewBox="0 0 1080.000000 1080.000000"
 preserveAspectRatio="xMidYMid meet">
<metadata>
Created by potrace 1.16, written by Peter Selinger 2001-2019
</metadata>
<g transform="translate(0.000000,1080.000000) scale(0.100000,-0.100000)"
fill="#000000" stroke="none">
<path d="M0 5400 l0 -5400 943 0 942 0 22 24 c29 30 29 36 2 29 -25 -7 -49 19
-49 53 0 12 -6 27 -14 33 -18 15 -9 51 13 51 9 0 22 4 30 9 12 8 12 12 2 24
-10 13 -8 16 8 22 26 8 49 -4 30 -16 -28 -17 3 -22 31 -5 17 9 33 15 38 13 4
-3 16 -1 27 4 18 7 18 8 2 8 -10 1 -16 5 -12 10 3 5 1 13 -5 16 -8 5 -7 11 1
21 19 24 -37 17 -71 -8 -21 -15 -45 -22 -77 -22 -47 -1 -48 0 -51 33 -3 29 -6
33 -28 28 -16 -3 -24 0 -24 9 0 8 11 14 26 14 16 0 24 5 21 13 -3 7 -21 11
-51 10 -25 -1 -46 2 -46 7 0 12 58 30 96 30 19 0 34 5 34 10 0 6 8 10 18 10
10 0 22 4 27 9 15 14 128 51 156 51 19 0 21 2 9 10 -13 8 -13 9 0 14 41 13 41
15 0 10 -25 -3 -58 -12 -74 -20 -16 -8 -36 -14 -45 -14 -14 0 -14 -2 -1 -10
11 -7 6 -10 -20 -10 -25 0 -31 3 -21 9 16 10 -2 17 -59 23 -20 2 -24 9 -24 33
0 25 5 31 29 36 58 13 115 10 121 -6 4 -8 14 -15 24 -15 13 0 16 6 12 25 -2
14 1 32 7 39 10 12 6 14 -30 12 -24 -2 -45 -9 -47 -15 -2 -6 -8 -11 -13 -11
-16 0 -10 25 11 43 19 16 19 44 1 32 -5 -2 -16 4 -25 14 -16 18 -16 22 -2 50
18 33 18 32 -42 51 -29 9 -42 19 -42 31 0 11 -10 21 -25 25 -14 3 -25 12 -25
20 0 8 -3 14 -7 14 -5 0 -8 -18 -8 -40 0 -22 3 -40 8 -40 4 0 7 -4 7 -10 0 -5
-7 -10 -15 -10 -8 0 -15 5 -15 10 0 6 -6 10 -13 10 -22 0 -60 47 -53 65 3 9 9
14 13 12 5 -3 17 -1 28 4 19 7 19 8 -2 8 -33 1 -53 12 -53 27 0 27 103 10 141
-22 22 -19 29 -17 29 7 0 12 -8 23 -19 26 -12 3 -21 15 -23 32 -2 15 -9 26
-18 26 -15 0 -18 12 -25 110 -4 61 2 85 20 85 8 0 17 9 20 20 8 26 17 25 45
-5 24 -25 60 -34 60 -15 0 6 -8 14 -17 17 -23 9 -52 44 -53 63 0 18 -56 70
-75 70 -16 0 -28 27 -15 35 11 7 40 -5 40 -17 0 -11 40 0 58 16 21 20 4 75
-30 92 l-30 16 26 27 c34 35 33 52 -5 73 -17 10 -27 22 -24 28 3 6 -1 17 -9
26 -23 23 -19 51 9 70 15 10 25 26 25 40 0 20 5 24 29 24 16 0 31 -6 34 -12 3
-7 3 15 2 50 -2 37 -12 81 -24 106 -26 52 -26 58 -1 81 12 11 20 13 20 6 0 -7
4 -10 9 -7 4 3 7 24 5 46 -3 29 1 42 11 46 20 8 21 81 1 86 -12 2 -11 10 4 43
24 49 24 55 5 55 -16 0 -20 12 -8 23 3 4 13 1 22 -6 30 -25 151 -50 151 -31 0
12 -35 33 -53 34 -11 0 -17 5 -14 13 2 6 14 11 26 9 14 -1 21 3 19 10 -3 7
-19 13 -36 14 -36 2 -62 19 -62 40 0 8 -8 14 -18 14 -25 0 -34 11 -22 25 7 9
-1 16 -31 28 -26 10 -38 20 -34 28 4 6 2 15 -5 19 -9 6 -8 15 5 39 l16 32 52
-28 c48 -26 105 -61 117 -73 3 -3 18 -12 34 -20 16 -8 29 -19 27 -23 -3 -10
43 -47 58 -47 6 0 11 -4 11 -9 0 -5 10 -12 23 -15 21 -6 20 -7 -11 -21 -51
-22 -41 -39 21 -32 28 3 41 2 27 -2 l-25 -7 25 -16 c14 -9 38 -16 54 -16 19 0
36 -8 48 -22 9 -12 22 -19 27 -16 5 4 12 2 16 -4 3 -5 1 -10 -4 -10 -6 0 -11
-5 -11 -11 0 -6 11 -8 29 -4 23 5 29 2 33 -13 3 -11 18 -21 36 -25 23 -5 30
-11 26 -22 -5 -11 1 -15 22 -17 16 -1 37 -2 46 -3 20 -1 37 -15 19 -15 -30 0
4 -19 51 -29 29 -7 60 -21 72 -34 21 -23 102 -51 181 -62 22 -4 71 -13 108
-20 38 -8 81 -12 96 -9 16 4 32 1 35 -5 4 -6 27 -11 52 -11 24 0 44 -4 44 -10
0 -5 7 -10 16 -10 10 0 14 5 10 16 -3 8 -2 13 3 9 5 -3 20 -1 33 4 15 5 31 5
41 0 11 -7 17 -6 17 0 0 5 19 12 43 16 23 4 48 12 55 18 7 5 15 7 19 4 3 -4
-6 -12 -21 -18 -30 -14 -33 -27 -9 -45 27 -19 10 -27 -73 -32 -109 -7 -71 -21
65 -23 78 -2 115 -7 122 -16 9 -10 -2 -13 -57 -14 -68 -1 -68 -1 -24 -10 25
-5 61 -12 80 -17 l35 -8 -30 -9 c-29 -9 -28 -9 20 -15 l50 -7 -65 -2 c-47 -2
-59 -5 -45 -11 17 -7 17 -9 3 -9 -29 -1 -20 -21 10 -22 l27 -1 -30 -7 -30 -7
38 -6 c55 -10 98 -31 92 -45 -2 -7 5 -17 15 -23 23 -12 28 -65 7 -73 -8 -3 0
-17 22 -40 33 -35 33 -35 15 -61 -11 -14 -29 -26 -41 -26 -13 0 -23 -6 -23
-14 0 -14 29 -26 68 -26 13 0 22 -3 20 -7 -3 -5 -10 -23 -17 -41 -7 -17 -18
-32 -23 -32 -6 0 -5 -6 2 -15 19 -23 4 -45 -30 -45 -23 0 -30 -4 -30 -20 0
-11 -8 -23 -17 -26 -53 -17 -72 -27 -67 -36 3 -5 22 -8 42 -6 21 2 38 -1 39
-6 1 -5 14 -15 30 -22 l28 -12 -42 -1 c-50 -1 -55 -14 -14 -35 16 -9 31 -21
34 -29 3 -8 27 -20 54 -27 52 -15 93 -37 93 -51 0 -14 -38 -11 -71 6 -37 20
-118 35 -124 24 -3 -4 15 -11 39 -14 57 -9 73 -26 58 -60 -14 -30 -48 -33 -98
-9 -27 13 -37 14 -49 4 -8 -7 -28 -9 -47 -6 l-33 5 33 -11 c33 -11 42 -31 20
-45 -19 -11 -117 -11 -115 1 2 12 -97 21 -122 11 -32 -13 -227 -8 -252 6 -17
10 -55 13 -132 10 -62 -1 -113 1 -120 7 -7 6 -55 13 -107 16 -82 5 -90 4 -60
-6 l35 -12 -35 -4 -35 -4 41 -19 c50 -22 272 -40 260 -21 -5 8 -40 12 -94 13
-48 0 -105 4 -127 9 -27 6 0 7 85 4 119 -5 200 -19 200 -35 0 -4 -10 -5 -22
-3 -20 4 -21 3 -6 -7 15 -12 14 -14 -8 -32 -27 -20 -59 -19 -59 2 0 8 -6 16
-14 19 -8 3 -11 0 -7 -7 5 -7 -1 -11 -13 -11 -11 0 -24 6 -28 14 -9 17 -163
31 -163 16 0 -11 21 -13 85 -12 36 1 37 0 15 -8 -21 -8 -18 -9 18 -6 23 2 42
1 42 -3 0 -11 54 -39 68 -34 6 3 12 -3 12 -12 0 -9 -9 -19 -20 -22 -24 -6 -27
-23 -4 -23 10 0 14 -6 11 -14 -3 -8 -1 -16 5 -18 22 -8 -4 -28 -35 -28 -23 0
-28 -3 -18 -9 8 -5 19 -7 26 -5 6 3 24 -2 39 -10 26 -13 26 -15 9 -25 -15 -10
-11 -11 22 -6 22 3 60 5 83 5 28 -1 41 3 37 9 -3 6 -23 11 -43 11 -47 0 -112
18 -112 30 0 13 53 13 65 1 6 -6 33 -6 65 -2 l55 8 -35 10 -35 10 38 7 c52 10
50 36 -4 36 -26 0 -38 4 -34 11 5 7 -5 8 -29 4 -22 -5 -36 -3 -36 3 0 14 55
20 73 7 9 -6 51 -12 94 -13 69 -2 76 0 60 12 -12 9 -31 12 -52 9 -24 -4 -39
-1 -51 11 -9 10 -22 15 -30 12 -7 -3 -18 2 -24 10 -7 8 -19 14 -26 14 -8 0
-14 5 -14 10 0 6 11 8 25 4 16 -4 36 1 58 15 38 24 83 27 122 9 21 -9 28 -9
35 1 6 10 24 12 71 7 35 -4 87 -9 116 -11 28 -3 62 -10 75 -15 18 -8 10 -9
-34 -5 -31 3 -62 6 -70 8 -7 2 -10 2 -5 0 4 -3 5 -9 1 -14 -5 -9 32 -14 86
-12 14 1 19 -1 13 -4 -26 -10 -12 -18 26 -15 26 3 40 -1 44 -10 4 -12 -5 -13
-47 -7 -28 3 -55 4 -61 0 -5 -3 8 -8 30 -11 l40 -6 -40 -18 -40 -19 30 -7 c25
-6 26 -8 7 -9 -27 -1 -63 16 -75 35 -5 10 -29 14 -74 14 -37 0 -64 -3 -61 -6
4 -3 26 -6 50 -6 25 0 51 -4 59 -9 10 -6 5 -9 -18 -9 -17 0 -34 -4 -37 -9 -7
-11 50 -22 79 -15 12 3 26 1 29 -5 4 -6 28 -11 54 -12 35 0 42 -3 27 -9 -19
-8 -19 -9 3 -9 12 -1 21 -7 20 -13 -4 -16 -55 -27 -130 -27 -47 -1 -56 -4 -52
-16 4 -8 5 -15 3 -15 -2 0 -22 -7 -44 -15 -28 -11 -32 -15 -15 -13 34 3 169
-31 199 -50 20 -12 22 -17 10 -26 -8 -6 -14 -24 -14 -41 0 -24 7 -33 35 -47
19 -9 43 -17 53 -18 18 0 24 -25 7 -35 -18 -11 -11 -23 34 -53 30 -21 51 -28
70 -25 15 3 26 1 26 -6 0 -6 -7 -11 -15 -11 -8 0 -15 -7 -15 -15 0 -8 -7 -15
-15 -15 -21 0 -19 -13 5 -28 17 -10 18 -16 8 -37 -14 -30 -44 -40 -81 -26 -33
13 -46 -3 -23 -28 21 -23 20 -28 -10 -56 l-27 -25 1539 0 c1118 0 1535 3 1527
11 -18 18 18 45 71 52 51 7 86 22 86 37 0 6 -9 10 -20 10 -29 0 -104 40 -94
49 5 4 29 13 53 20 24 7 50 19 57 26 7 7 30 16 51 19 154 28 144 49 -23 44
-81 -2 -123 0 -121 7 2 5 21 11 43 13 45 4 66 18 45 31 -21 13 -6 27 49 47 57
21 64 45 15 55 l-30 6 28 11 c16 7 53 12 83 12 30 0 71 7 92 16 33 14 35 17
17 23 -11 5 -58 11 -105 15 -85 7 -119 19 -87 32 9 3 17 17 17 30 0 19 12 30
58 53 31 16 66 38 76 50 11 12 25 21 32 21 7 0 16 5 20 12 5 8 -11 10 -62 5
-38 -3 -78 -9 -88 -13 -16 -6 -18 -4 -14 14 4 12 0 26 -8 33 -22 18 -10 25 68
45 47 11 78 24 87 37 13 19 186 107 210 107 21 0 11 20 -14 30 -26 10 -32 24
-15 35 6 3 10 14 10 24 0 10 9 21 20 24 11 3 24 17 30 31 5 14 14 26 20 26 6
0 30 9 53 21 23 11 92 36 152 55 61 20 117 44 125 54 8 9 24 20 34 24 10 3 16
9 12 13 -3 4 14 19 39 35 25 15 45 35 45 43 0 12 -5 12 -41 0 -42 -15 -101
-20 -112 -9 -12 12 7 35 55 64 35 22 48 36 44 46 -3 9 -6 22 -6 30 0 11 -9 13
-41 8 -39 -7 -40 -6 -29 13 7 11 30 27 51 36 27 12 37 21 33 32 -4 10 3 18 21
25 15 6 25 13 22 16 -7 8 -67 -28 -62 -36 4 -7 -121 -80 -136 -80 -31 0 40 65
88 81 18 6 31 14 28 19 -8 13 19 29 60 34 50 6 71 26 27 26 -41 0 -40 11 2 48
19 17 32 32 29 35 -2 3 -28 3 -56 0 -48 -5 -51 -4 -36 12 9 9 39 19 73 22 83
9 76 19 -10 15 -72 -4 -86 2 -62 26 16 16 -7 42 -38 42 -12 0 -26 4 -29 10 -7
11 -5 11 65 15 53 4 100 20 100 35 0 6 12 15 28 21 23 9 25 12 11 22 -9 7 -14
18 -11 26 4 12 -6 13 -54 8 -33 -3 -66 -2 -74 3 -12 8 -11 10 8 10 37 0 25 19
-15 22 l-38 3 35 17 c19 9 46 19 60 23 55 14 110 41 110 53 0 13 40 11 95 -6
17 -5 36 -7 43 -5 6 3 12 -1 12 -7 0 -19 29 -42 45 -36 19 7 19 22 0 30 -8 3
-12 12 -9 21 5 12 -2 15 -35 15 -34 0 -41 3 -41 20 0 11 -6 20 -13 20 -7 0
-22 6 -33 14 -16 13 -17 18 -6 36 10 16 10 25 2 35 -16 19 4 29 31 15 11 -7
23 -10 25 -8 8 8 -38 49 -50 45 -14 -6 -19 30 -5 38 20 13 7 37 -28 52 -21 8
-46 22 -56 31 -15 14 -17 13 -18 -4 -1 -10 -1 -22 0 -26 0 -5 -2 -8 -5 -8 -9
0 -84 81 -84 91 0 4 -23 30 -51 56 -28 26 -63 61 -78 77 -30 32 -77 59 -91 51
-15 -10 -90 26 -90 44 -1 15 -1 15 -10 -1 -8 -12 1 -35 35 -93 58 -98 56 -134
-3 -48 -23 34 -42 66 -42 71 0 5 -10 8 -22 7 -14 -2 -21 -8 -19 -16 2 -8 6
-27 9 -44 2 -16 8 -35 13 -40 9 -12 -6 -43 -16 -33 -4 3 -12 37 -18 75 -13 76
-42 123 -76 123 -12 0 -24 8 -27 17 -11 37 -57 123 -66 123 -5 0 -6 4 -3 10 9
14 -24 72 -38 67 -30 -10 -4 -99 46 -154 36 -39 42 -48 51 -80 5 -16 3 -23 -6
-23 -7 0 -25 26 -40 58 -15 31 -35 66 -45 77 -10 11 -25 35 -32 53 -8 18 -22
37 -32 43 -12 6 -19 21 -19 37 0 38 -71 179 -96 191 -13 6 -25 24 -31 48 -6
28 -14 39 -31 41 -17 3 -21 8 -17 23 4 10 2 19 -4 19 -5 0 -11 10 -13 23 -3
14 -7 5 -12 -26 -8 -43 -6 -51 20 -89 16 -22 35 -51 42 -63 16 -30 5 -58 -20
-52 -11 3 -18 1 -16 -5 2 -5 7 -9 12 -8 5 1 13 -4 17 -12 14 -21 10 -48 -5
-48 -9 0 -16 -12 -18 -27 -3 -25 -7 -28 -42 -30 -30 -1 -39 3 -43 18 -3 10
-13 19 -22 20 -11 0 -10 3 5 9 30 12 39 29 20 36 -9 3 -16 17 -16 29 0 13 -8
38 -17 55 -12 22 -14 34 -7 37 14 5 6 49 -12 64 -8 6 -14 17 -14 24 0 7 -11
16 -25 19 -31 8 -35 46 -5 46 12 0 20 7 20 18 0 14 -2 15 -10 2 -8 -12 -10
-11 -10 7 0 15 -5 21 -13 17 -9 -3 -19 10 -29 35 -18 45 -14 55 13 40 26 -14
25 11 -1 41 -12 13 -18 30 -15 38 3 7 5 22 5 32 0 12 8 20 22 22 18 2 24 12
30 47 4 25 12 49 18 55 19 19 12 46 -12 43 -15 -1 -22 3 -20 12 2 7 -4 21 -13
31 -11 12 -13 20 -6 24 11 7 52 -10 63 -27 9 -15 38 11 38 34 0 11 -6 19 -12
19 -18 1 -120 95 -112 103 4 4 16 7 26 7 10 0 18 5 18 10 0 6 -9 10 -19 10
-11 0 -23 9 -26 20 -3 11 -13 20 -21 20 -16 0 -19 16 -5 24 17 11 -11 53 -33
49 -23 -4 -64 23 -52 34 4 4 11 1 16 -7 7 -11 11 -11 23 -1 10 7 28 10 49 6
22 -4 40 -1 53 9 19 15 19 15 -13 16 -26 0 -35 6 -45 28 -6 15 -17 30 -23 34
-6 4 -10 22 -9 40 2 18 3 39 4 46 1 6 13 12 29 12 23 1 24 2 10 11 -14 8 -18
23 -18 64 0 30 -4 57 -10 60 -5 3 -10 18 -9 33 1 26 1 26 10 -5 5 -18 14 -33
19 -33 6 0 10 -9 10 -20 0 -11 4 -20 9 -20 15 0 20 27 11 57 -11 35 -40 179
-39 196 0 7 11 -10 25 -38 20 -40 24 -44 20 -20 -3 17 -8 55 -12 85 -3 30 -13
67 -20 83 -8 15 -12 27 -10 27 3 0 1 12 -5 28 -6 15 -13 52 -15 82 -4 51 -3
53 11 36 19 -25 19 -13 0 25 -18 34 -27 32 -45 -11 -15 -36 -35 -40 -26 -5 4
15 2 25 -4 25 -6 0 -23 12 -37 26 -23 23 -27 24 -35 10 -9 -15 -11 -15 -26 2
-9 10 -29 24 -43 30 -26 10 -27 9 -38 -31 -12 -45 -16 -98 -13 -163 2 -41 3
-42 49 -53 63 -16 116 6 136 56 l14 35 21 -58 c24 -66 22 -146 -3 -174 -17
-19 -21 -125 -5 -135 6 -3 10 -17 10 -30 0 -13 5 -27 10 -30 13 -8 13 -86 -1
-105 -7 -11 -8 -5 -3 23 7 41 -2 49 -16 15 l-9 -23 0 23 c-1 28 -21 19 -21 -8
0 -12 -5 -17 -13 -14 -8 3 -21 -10 -32 -31 -11 -19 -25 -35 -32 -35 -8 0 -13
-12 -13 -30 0 -33 15 -41 24 -12 3 9 3 -3 0 -28 -6 -42 -5 -44 10 -25 8 11 16
15 16 8 0 -6 -11 -20 -24 -30 -25 -18 -50 -83 -27 -69 6 4 11 16 11 26 0 26
15 33 30 15 10 -12 9 -15 -4 -15 -10 0 -14 -5 -11 -10 9 -15 -5 -51 -17 -44
-6 4 -14 0 -19 -7 -9 -14 -14 20 -11 64 1 9 -2 17 -6 17 -19 0 -30 -25 -25
-55 3 -18 1 -35 -4 -38 -5 -3 -8 8 -6 26 l4 32 -15 -25 c-8 -14 -15 -21 -16
-16 0 6 -7 1 -15 -10 -14 -18 -14 -18 -15 11 0 17 -5 37 -10 45 -7 11 -10 6
-10 -22 0 -36 -20 -64 -28 -40 -7 23 -21 12 -24 -20 -2 -17 -9 -34 -17 -36
-11 -4 -12 4 -7 34 4 24 3 34 -2 26 -5 -8 -13 -12 -18 -10 -7 3 -17 -21 -30
-69 -3 -12 -62 -28 -72 -19 -3 4 3 23 13 44 11 20 21 40 23 45 2 4 -3 7 -12 7
-9 0 -16 -6 -16 -14 0 -20 -19 -31 -32 -18 -8 8 -15 7 -24 -3 -17 -17 -18 -39
-1 -29 6 4 9 3 4 -1 -9 -10 -48 -15 -42 -5 2 3 0 12 -5 20 -7 12 -11 9 -19
-10 -9 -24 -10 -24 -10 -3 -1 16 -5 21 -16 17 -20 -8 -58 35 -50 55 3 9 3 12
-1 8 -4 -4 -13 2 -21 13 -9 12 -26 20 -42 20 -30 0 -45 19 -35 45 4 8 1 15 -5
15 -16 0 -14 29 3 45 12 12 16 12 26 0 7 -8 18 -15 24 -15 18 0 76 -63 76 -82
0 -30 15 -27 30 5 l14 32 9 -35 c8 -32 10 -33 21 -16 6 10 21 31 34 46 12 15
22 35 22 44 0 10 11 19 30 22 16 4 28 10 25 14 -3 4 2 21 10 36 8 16 15 41 15
56 0 25 -2 27 -26 18 -22 -9 -27 -7 -31 10 -5 19 -6 20 -19 3 -7 -10 -14 -13
-14 -6 0 6 -15 11 -32 12 -18 1 -54 2 -80 4 -28 2 -48 -2 -49 -8 0 -5 -4 -1
-9 10 -6 14 -9 16 -9 4 -1 -23 -27 -53 -39 -45 -17 10 -3 36 15 29 11 -4 14
-2 11 8 -7 21 -31 18 -45 -6 -10 -17 -12 -17 -13 -3 0 9 -14 27 -32 39 -17 13
-26 25 -20 27 18 6 14 20 -5 24 -10 2 -24 -3 -31 -12 -12 -13 -13 -12 -8 10 7
31 -48 84 -101 97 -20 5 -38 14 -41 21 -3 11 0 11 16 1 37 -23 35 -1 -3 38
-30 31 -34 39 -22 48 12 8 12 12 1 23 -7 6 -19 12 -27 12 -7 0 -22 7 -33 15
-18 14 -18 14 4 8 12 -3 22 -3 22 0 0 10 -84 55 -115 62 -27 6 -28 5 -12 -8
25 -21 21 -29 -13 -22 -19 4 -30 3 -30 -5 0 -6 -7 -10 -16 -8 -32 6 -25 -21
13 -47 l38 -27 -35 6 c-19 4 -42 8 -50 9 -9 2 -20 6 -26 9 -16 10 -81 -15 -76
-30 2 -7 -6 -12 -23 -12 -15 0 -24 4 -20 10 4 6 -9 9 -32 9 -23 -1 -29 -3 -15
-6 12 -2 20 -9 17 -14 -4 -5 -14 -5 -27 2 -11 6 -31 8 -46 3 -15 -4 -30 -8
-34 -9 -5 -2 -15 -3 -24 -4 -8 0 -13 -5 -10 -10 3 -5 -6 -17 -21 -26 -18 -12
-28 -14 -31 -7 -2 7 -8 12 -13 12 -17 0 -59 -52 -59 -71 0 -20 15 -25 25 -9 3
6 21 9 38 9 27 -2 28 -2 7 -6 -14 -3 -29 -9 -34 -14 -6 -5 -17 -9 -25 -9 -28
0 -91 -34 -91 -49 0 -14 -1 -14 -10 -1 -13 21 -34 -1 -35 -37 0 -14 -6 -28
-13 -31 -9 -3 -11 3 -7 21 4 14 2 28 -4 31 -6 4 -11 0 -11 -9 0 -9 -5 -25 -11
-37 l-11 -20 -14 21 c-9 12 -13 25 -9 30 3 5 1 12 -4 15 -5 4 -12 -2 -16 -13
-8 -25 -42 -34 -50 -12 -6 15 -8 14 -19 -2 -15 -20 -78 -30 -88 -14 -4 7 -12
4 -23 -6 -22 -23 -28 -21 -15 4 6 11 9 25 6 32 -2 7 -5 4 -5 -5 -1 -10 -5 -18
-10 -18 -11 0 -22 -40 -14 -53 3 -5 9 -4 13 3 5 9 16 3 36 -19 29 -33 107 -81
130 -81 8 0 14 -4 14 -9 0 -5 16 -15 35 -21 28 -9 39 -9 50 0 13 11 15 8 15
-18 0 -16 -7 -35 -15 -42 -8 -7 -15 -18 -15 -25 0 -16 -81 -63 -98 -57 -7 2
-12 12 -12 23 0 10 -5 19 -11 19 -7 0 -27 16 -45 35 l-33 35 -7 -35 c-6 -31
-24 -50 -24 -25 0 6 -10 8 -23 5 -15 -4 -28 -1 -36 9 -7 9 -17 14 -21 11 -4
-3 -13 2 -20 10 -6 7 -17 12 -24 9 -8 -3 -20 10 -30 36 -18 44 -41 49 -41 9 0
-17 -6 -25 -23 -27 -20 -3 -22 -1 -16 25 6 25 5 26 -8 15 -11 -9 -18 -10 -23
-2 -3 5 -11 10 -18 10 -8 0 -8 -3 1 -12 7 -7 12 -22 12 -34 0 -25 -21 -45 -28
-26 -6 19 -22 14 -22 -7 0 -14 5 -18 20 -14 11 3 20 1 20 -5 0 -24 -14 -42
-32 -42 -16 0 -19 -5 -14 -22 3 -13 6 -26 6 -30 0 -5 11 -8 25 -8 27 0 34 -15
10 -24 -24 -9 -17 -33 10 -38 14 -3 28 -1 31 3 8 14 56 11 51 -3 -2 -7 -12
-12 -23 -11 -10 1 -29 -8 -43 -19 -15 -11 -27 -15 -29 -9 -5 16 -22 13 -22 -4
0 -8 5 -15 10 -15 6 0 10 -15 10 -34 0 -19 5 -38 10 -41 6 -3 10 3 10 14 0 12
4 21 9 21 5 0 9 -20 8 -44 -2 -33 -7 -46 -19 -49 -23 -6 -30 3 -16 20 9 11 5
13 -18 13 -49 -1 -94 12 -94 26 0 8 7 14 16 14 9 0 14 6 11 13 -2 6 -14 11
-27 9 -15 -1 -24 4 -27 18 -6 24 -23 27 -23 4 0 -16 -11 -16 -52 1 -13 5 -18
2 -18 -9 0 -9 8 -16 19 -16 19 0 37 -26 23 -33 -4 -2 -29 -5 -56 -6 -27 -1
-55 -6 -62 -12 -7 -6 -17 -8 -21 -6 -21 13 -124 15 -164 3 -32 -9 -70 -10
-139 -4 -104 9 -136 5 -163 -20 -10 -9 -37 -17 -60 -18 -67 -3 -137 -16 -132
-25 3 -4 -11 -11 -32 -14 -21 -4 -45 -9 -53 -12 -8 -3 -68 -5 -132 -4 -65 2
-118 -1 -118 -5 0 -4 7 -15 15 -24 14 -16 11 -18 -51 -23 -36 -2 -71 -10 -77
-16 -6 -6 -24 -11 -39 -11 -28 0 -37 -13 -18 -25 26 -16 7 -26 -37 -19 -44 6
-46 6 -31 -10 9 -9 32 -16 52 -16 20 0 36 -4 36 -10 0 -13 67 -13 72 0 2 6 22
11 46 13 36 2 40 4 25 14 -15 11 -15 13 3 19 10 3 29 11 41 17 17 7 33 7 61
-2 34 -12 50 -10 122 8 46 12 87 26 91 33 6 9 12 8 24 -2 24 -20 110 -23 125
-5 11 13 8 15 -18 15 -33 0 -48 22 -27 40 11 9 19 6 36 -11 16 -16 35 -22 70
-23 27 0 49 2 49 7 0 4 19 4 43 1 29 -5 39 -3 32 4 -5 6 -26 12 -45 15 -19 2
-4 5 35 5 54 2 66 -1 57 -10 -16 -16 -15 -28 3 -28 8 0 15 -8 15 -17 0 -22 53
-74 100 -99 27 -14 31 -19 17 -22 -10 -2 -24 1 -32 8 -17 14 -22 4 -20 -42 1
-21 -2 -38 -7 -38 -4 0 -8 8 -8 19 0 52 -279 61 -295 10 -4 -11 -16 -21 -28
-24 -37 -8 -139 -18 -205 -19 -34 0 -62 -4 -62 -8 0 -5 -11 -8 -25 -8 -15 0
-25 -6 -25 -15 0 -17 -38 -24 -130 -25 -36 0 -76 -1 -90 -2 -14 0 -36 3 -50 6
-30 8 -200 -3 -200 -13 0 -9 84 -28 130 -30 35 -2 149 -53 131 -59 -6 -2 -38
4 -71 12 -62 16 -186 31 -162 20 18 -9 15 -24 -6 -24 -22 0 -213 68 -227 81
-13 13 -55 11 -55 -2 0 -6 -8 -8 -19 -4 -27 8 -35 -10 -16 -39 23 -35 11 -70
-20 -62 -21 5 -22 4 -15 -28 4 -18 5 -57 2 -85 l-5 -51 37 0 c53 0 96 25 96
55 0 14 5 25 10 25 6 0 10 18 10 40 0 33 -3 40 -20 40 -11 0 -20 5 -20 10 0 6
11 10 25 10 18 0 23 4 18 15 -4 13 1 12 28 -4 57 -32 126 -41 359 -47 124 -3
238 -5 254 -6 26 -1 27 -2 13 -13 -9 -7 -17 -15 -17 -19 0 -4 48 -6 108 -5 67
1 115 -2 129 -9 13 -7 30 -9 43 -4 20 7 20 9 6 21 -9 8 -16 19 -16 26 0 8 -6
16 -12 18 -8 3 -5 6 5 6 11 1 32 -13 48 -30 19 -21 34 -29 47 -25 10 4 35 0
55 -9 40 -17 57 -19 57 -7 0 4 -13 13 -30 19 -31 12 -41 33 -15 33 8 0 15 -4
15 -10 0 -10 86 -7 97 3 11 11 -6 37 -37 56 -23 13 -28 21 -19 27 7 4 14 3 17
-4 2 -7 12 -12 21 -12 10 0 30 -9 44 -20 16 -13 39 -20 64 -19 l38 1 -37 15
c-21 9 -38 20 -38 24 0 12 27 11 35 -1 3 -5 16 -10 28 -10 21 1 21 2 -5 25
-33 28 -36 45 -8 45 12 0 17 -5 14 -14 -7 -19 10 -28 64 -31 26 -1 68 -6 95
-10 32 -5 47 -4 47 4 0 18 -69 41 -129 42 -43 1 -50 3 -31 9 45 15 150 11 166
-5 19 -19 33 -19 58 0 25 19 15 40 -26 50 l-33 9 33 3 c34 4 66 -12 56 -28
-10 -17 27 -22 44 -6 14 15 14 17 -9 26 -24 9 -24 9 7 16 18 4 41 20 53 36 12
16 30 29 40 29 20 0 34 24 52 88 7 24 21 48 31 53 10 5 18 15 18 22 0 16 78
89 89 83 5 -3 12 -31 16 -61 3 -30 11 -53 16 -50 5 4 9 -6 10 -22 0 -15 3 -22
6 -15 8 19 23 4 23 -24 0 -14 -6 -27 -14 -30 -7 -3 -21 -30 -32 -60 -10 -29
-22 -54 -27 -54 -5 0 -7 -15 -4 -33 4 -17 2 -52 -3 -77 -5 -27 -5 -49 1 -54
15 -16 10 -24 -22 -35 -24 -8 -34 -8 -45 3 -17 18 -18 36 -2 36 6 0 4 8 -6 19
-10 11 -15 24 -12 30 12 19 27 122 21 142 l-7 21 -15 -21 c-8 -12 -22 -21 -32
-21 -29 0 -33 -13 -10 -31 23 -17 18 -42 -6 -32 -18 6 -20 -8 -3 -25 9 -9 6
-12 -13 -12 -22 0 -28 -7 -38 -41 -7 -23 -15 -48 -19 -58 -5 -14 -4 -14 11 -2
14 11 17 11 17 0 -1 -15 -23 -49 -33 -49 -3 0 -13 14 -21 32 -11 22 -13 34 -5
38 6 4 9 22 7 41 l-3 34 -18 -40 c-18 -40 -45 -75 -57 -75 -15 0 3 51 23 65
l22 15 -27 26 c-29 29 -55 25 -38 -6 15 -27 12 -50 -5 -50 -8 0 -15 7 -15 15
0 8 -5 15 -11 15 -6 0 -9 -7 -5 -15 3 -8 0 -15 -7 -15 -7 -1 0 -8 15 -16 30
-16 37 -34 13 -34 -8 0 -15 -7 -15 -15 0 -13 -10 -14 -57 -9 -41 5 -54 4 -49
-5 4 -6 21 -10 38 -9 18 1 33 -3 36 -10 2 -6 12 -12 23 -12 10 0 19 -5 19 -11
0 -6 -17 -8 -47 -5 -30 4 -41 3 -29 -2 18 -8 18 -9 3 -15 -10 -4 -17 -17 -17
-31 0 -14 -4 -28 -10 -31 -6 -3 -10 -12 -10 -20 0 -8 -15 -40 -34 -73 -19 -32
-46 -87 -59 -123 -24 -64 -96 -210 -107 -219 -4 -3 -12 -18 -18 -35 -6 -16
-25 -68 -43 -115 -17 -47 -32 -92 -34 -100 -12 -86 -30 -106 -111 -121 -32 -6
-68 -15 -79 -20 -18 -7 -17 -8 6 -8 18 -1 28 -8 32 -21 4 -14 14 -20 35 -20
17 0 34 -4 37 -10 3 -6 17 -10 30 -10 22 0 42 -16 32 -26 -2 -2 -31 -8 -63
-13 -37 -5 -47 -9 -27 -10 17 0 35 -5 38 -11 8 -13 -20 -13 -70 1 -33 10 -37
13 -20 19 19 7 19 7 -2 14 -27 9 -52 -2 -33 -14 24 -15 -23 -20 -60 -7 -41 14
-50 31 -20 35 25 4 26 29 2 36 -10 3 -40 3 -67 0 -96 -12 -123 -11 -118 3 4 9
-6 13 -35 13 -58 0 -75 8 -58 26 12 12 18 12 43 -1 32 -17 99 -20 108 -5 4 6
15 8 26 5 34 -11 109 -14 109 -4 0 5 12 6 27 3 27 -7 27 -7 10 10 -12 12 -26
16 -42 12 -18 -5 -27 -1 -35 15 -9 16 -14 18 -26 8 -11 -9 -14 -8 -14 5 0 11
9 16 28 17 24 0 25 1 7 9 -17 7 -17 9 -2 9 9 1 17 5 17 10 0 14 -44 22 -88 16
-27 -3 -41 -1 -45 8 -3 9 -29 14 -83 15 -44 0 -105 4 -138 8 -70 8 -74 -9 -9
-41 38 -19 108 -83 100 -91 -8 -8 -98 9 -114 22 -16 12 -15 13 12 14 28 1 29
2 11 15 -11 8 -41 14 -76 14 -32 0 -67 4 -78 10 -12 6 -32 11 -46 11 -14 0
-28 5 -31 10 -3 6 -14 10 -24 10 -10 0 -24 6 -31 14 -6 8 -21 16 -33 18 -27 4
-25 21 3 28 30 7 30 24 0 28 -14 2 -35 8 -47 14 -23 11 -53 5 -53 -11 0 -6 11
-13 25 -17 21 -5 37 -24 20 -24 -15 0 -85 34 -85 41 0 5 -5 9 -11 9 -6 0 -17
6 -24 14 -8 8 -37 17 -65 21 -46 6 -71 25 -33 25 28 0 2 16 -64 40 -35 12 -68
29 -74 36 -6 8 -18 14 -25 14 -8 0 -14 7 -14 16 0 9 -6 14 -13 11 -8 -3 -32
11 -53 30 -21 19 -51 39 -65 45 -28 10 -52 49 -43 71 3 8 -2 20 -11 27 -21 17
-19 47 5 62 11 7 20 19 20 27 0 11 5 10 25 -3 13 -9 39 -16 57 -16 30 1 31 2
15 14 -9 7 -17 26 -17 42 0 27 3 29 40 29 26 1 40 -3 40 -12 0 -7 4 -13 9 -13
19 0 22 21 7 45 -9 13 -16 35 -16 47 0 13 -20 44 -45 71 -36 39 -50 47 -79 47
l-36 0 0 50 c0 28 5 50 10 50 6 0 10 7 10 15 0 8 -9 15 -20 15 -23 0 -54 53
-45 79 3 10 17 23 30 29 14 6 25 20 25 30 0 11 9 27 21 37 18 18 20 28 16 127
-4 120 -14 140 -83 173 -44 21 -35 35 22 35 l46 0 -7 38 c-5 29 -2 44 13 62
22 29 17 51 -20 91 -25 27 -45 99 -27 99 5 0 4 9 -3 19 -10 17 -9 23 6 40 11
12 25 21 32 21 7 0 16 9 19 20 7 23 -2 60 -16 60 -16 0 -9 29 10 39 10 6 26
26 35 45 18 39 21 60 6 51 -6 -4 -25 -2 -43 3 -17 6 -44 13 -59 16 -16 4 -28
13 -28 21 0 8 -6 15 -14 15 -22 0 -38 24 -24 38 8 8 9 12 1 12 -6 0 -9 8 -6
19 3 10 0 22 -6 25 -6 4 -11 25 -11 48 0 35 -2 39 -15 28 -12 -10 -15 -10 -15
2 0 9 -9 27 -20 41 l-21 26 40 41 c44 45 70 49 86 12 12 -27 29 -24 33 7 2 13
-8 35 -27 57 -35 39 -38 56 -15 99 9 17 22 48 30 70 14 39 14 40 -16 67 -17
15 -30 32 -30 38 0 5 -6 10 -14 10 -8 0 -17 8 -21 18 -18 46 -37 151 -35 187
7 94 -3 366 -15 427 -5 26 -2 46 8 68 9 17 19 62 23 100 6 61 4 70 -10 70 -9
0 -16 7 -16 15 0 8 4 15 9 15 5 0 16 6 24 14 19 20 133 56 174 56 26 0 33 4
33 19 0 15 -10 20 -52 25 -116 16 -128 18 -128 31 0 16 -74 30 -120 23 -27 -4
-33 0 -59 42 -21 33 -27 54 -23 78 4 33 -13 46 -21 15 -3 -10 -5 -3 -6 15 0
17 -5 32 -11 32 -5 0 -10 9 -10 20 0 11 -5 20 -11 20 -7 0 -9 -10 -5 -27 3
-16 9 -43 12 -60 4 -18 13 -33 20 -33 8 0 14 -7 14 -15 0 -20 -13 -19 -40 5
-13 12 -30 18 -37 16 -12 -5 -17 8 -25 59 -2 11 -16 26 -31 33 -15 7 -34 27
-43 43 -14 29 -14 32 3 51 13 15 15 22 6 25 -16 6 -17 35 -1 51 8 8 2 22 -24
55 -35 42 -36 44 -20 70 17 27 52 37 52 15 0 -10 3 -10 9 0 11 18 46 11 46 -8
0 -8 7 -16 15 -18 12 -2 14 7 11 44 -2 31 1 49 10 56 9 5 4 6 -13 2 -25 -5
-28 -3 -28 17 0 36 16 57 32 41 17 -17 26 -15 38 7 7 14 7 28 -2 48 -7 15 -12
34 -13 41 0 7 -5 16 -11 20 -17 11 -66 120 -59 132 3 5 3 10 -2 10 -4 0 -8 19
-9 43 -1 54 -13 117 -22 117 -4 0 -6 -34 -4 -76 l4 -76 -32 18 c-53 31 -87 94
-63 117 3 4 8 18 9 32 1 14 10 32 19 41 10 11 13 23 9 38 -4 11 -9 34 -10 49
-4 47 -14 44 -14 -4 0 -33 -6 -49 -20 -62 -12 -10 -25 -15 -29 -12 -10 6 -20
59 -25 131 -3 47 -1 53 21 63 33 15 32 15 49 -21 l15 -33 -6 43 c-3 25 -1 42
5 42 13 0 13 37 0 45 -20 12 -9 30 29 48 20 9 42 17 47 17 33 0 46 158 19 225
-9 21 -20 34 -23 29 -4 -5 -24 -17 -44 -26 -21 -10 -38 -22 -38 -28 0 -7 -6
-7 -20 0 -13 7 -26 7 -37 2 -19 -11 -53 -4 -54 12 0 6 -2 22 -4 36 -3 14 -5
53 -7 88 -2 34 -6 62 -10 62 -3 0 -11 24 -18 52 -9 46 -9 54 7 65 9 7 28 13
42 13 14 0 33 5 41 10 13 8 13 11 1 19 -20 13 -6 41 29 54 17 6 30 15 30 19 0
14 27 8 51 -11 19 -16 22 -22 12 -32 -22 -23 -14 -30 24 -23 49 9 66 22 61 49
-7 34 16 47 40 24 12 -10 28 -19 36 -19 19 0 30 17 15 22 -9 3 -9 9 0 25 6 12
11 29 11 37 0 19 -36 22 -42 4 -3 -8 -12 -6 -29 6 l-24 18 27 -6 c15 -3 30 -1
33 4 7 11 -12 45 -38 71 -20 20 -32 100 -14 93 8 -3 19 2 26 10 10 12 8 23
-11 56 -14 22 -27 37 -31 34 -11 -11 -45 7 -50 26 -3 12 -14 20 -26 20 -17 0
-21 6 -21 35 0 20 7 52 15 71 8 20 12 41 8 47 -3 6 -1 7 6 3 6 -4 14 0 17 9 5
12 9 13 21 3 12 -10 18 -9 29 7 16 22 17 15 3 -45 -5 -25 -21 -62 -34 -82 -27
-41 -29 -48 -17 -48 5 0 14 11 20 25 13 29 29 32 35 8 3 -10 5 -3 6 15 0 17 6
32 11 32 6 0 10 6 10 14 0 8 8 21 18 28 20 15 27 58 11 68 -8 5 -8 25 -2 69 7
45 7 61 -2 61 -12 0 -35 41 -35 62 0 22 44 98 57 98 7 0 13 7 13 15 0 8 5 15
10 15 6 0 10 13 10 28 0 31 -36 72 -63 72 -9 0 -17 7 -17 15 0 8 -6 15 -13 15
-8 0 -22 17 -33 38 -10 20 -23 40 -29 44 -18 13 10 43 44 46 17 2 31 7 31 13
0 14 33 49 47 49 7 0 13 -7 13 -15 0 -8 7 -15 15 -15 8 0 15 -5 15 -11 0 -7
10 -9 25 -7 19 4 25 1 25 -13 0 -11 -5 -19 -11 -19 -6 0 -8 -8 -4 -19 4 -14 0
-23 -15 -31 -27 -14 -25 -26 5 -34 15 -4 25 -13 25 -25 0 -37 76 -41 135 -7
43 25 44 27 29 124 -6 40 -4 46 26 71 26 21 33 35 34 66 1 33 -2 40 -24 45
-17 4 -24 12 -22 25 2 10 -1 28 -6 39 -34 75 -35 79 -10 98 13 10 29 18 36 18
16 0 7 36 -14 61 -25 28 -14 79 16 79 11 0 21 4 24 9 3 4 18 6 33 4 20 -3 24
-2 15 5 -11 7 -8 11 12 16 14 3 30 15 36 26 11 21 12 20 -57 109 -34 43 -29
79 18 129 22 23 45 42 50 42 6 0 33 11 61 25 27 14 58 25 68 25 14 0 21 13 31
55 7 30 16 55 20 55 5 0 19 11 33 25 25 25 26 55 1 85 -7 8 -15 27 -19 42 -4
17 -16 30 -37 37 -26 9 -29 14 -23 33 4 13 8 41 9 62 1 30 6 41 22 47 22 8 37
35 27 51 -4 6 0 14 7 19 10 6 4 9 -19 9 -36 0 -35 20 1 21 22 0 21 0 -2 10
-19 8 -21 12 -11 24 11 13 -24 15 -299 15 -171 0 -311 -4 -311 -9 0 -29 24
-71 41 -71 23 0 27 -48 4 -56 -8 -4 -15 -12 -15 -19 0 -7 -13 -12 -32 -11 -30
1 -33 4 -39 39 -6 40 -19 62 -19 32 0 -14 -3 -15 -14 -6 -12 10 -16 5 -26 -23
-12 -39 -33 -51 -61 -36 -23 13 -25 58 -4 86 20 26 19 34 -5 34 -13 0 -20 7
-20 20 0 18 -7 20 -69 20 l-69 0 8 -32 c5 -18 12 -43 15 -55 5 -14 3 -23 -4
-23 -6 0 -11 6 -11 14 0 8 -7 17 -16 20 -10 4 -14 12 -10 22 3 8 1 24 -4 35
-10 18 -28 19 -535 19 l-525 0 0 -5400z m1240 4745 c0 -8 7 -15 16 -15 15 0
16 -9 10 -64 -5 -51 -3 -65 8 -69 10 -4 13 -1 9 9 -7 19 30 19 46 0 17 -20 -4
-60 -26 -51 -22 8 -32 -12 -26 -50 3 -18 0 -42 -6 -54 -11 -19 -18 -21 -58
-16 -25 3 -52 10 -59 16 -16 14 -19 69 -3 69 6 0 4 7 -5 15 -12 12 -12 21 -4
48 6 17 11 47 11 65 0 31 12 43 19 20 2 -6 12 -9 21 -5 13 5 15 11 7 32 -7 20
-6 30 8 44 21 24 32 26 32 6z m2532 -9588 c103 -27 147 -51 148 -79 0 -10 5
-18 10 -18 6 0 10 -4 10 -9 0 -5 -18 -7 -40 -4 -32 5 -40 2 -40 -10 0 -11 -15
-17 -57 -21 -80 -9 -198 -7 -258 4 -27 5 -71 12 -98 15 -26 4 -45 11 -41 16 3
5 22 7 42 4 35 -6 36 -5 18 9 -19 16 -19 16 2 16 12 0 22 5 22 10 0 6 1 13 1
18 1 4 -16 12 -37 18 -37 10 -59 34 -31 34 8 0 21 7 28 16 20 24 194 13 321
-19z"/>
<path d="M3120 10786 c0 -7 -11 -34 -24 -59 -27 -50 -29 -59 -27 -136 1 -43 4
-51 14 -42 23 19 65 -8 63 -41 -1 -15 -7 -33 -14 -40 -6 -6 -12 -25 -12 -40 0
-17 -5 -28 -14 -28 -21 0 -30 -32 -11 -42 17 -10 20 -41 5 -68 -8 -15 -5 -23
16 -39 29 -23 31 -68 2 -63 -21 3 -35 -18 -17 -28 7 -5 14 -34 17 -69 2 -33
10 -65 17 -71 8 -6 11 -29 8 -63 -7 -83 -11 -97 -34 -97 -11 0 -24 10 -29 23
-9 22 -9 22 -9 1 -1 -12 6 -27 14 -34 14 -12 12 -17 -17 -48 l-33 -34 32 16
c18 9 34 16 38 16 11 0 4 -38 -10 -50 -22 -18 -18 -29 7 -22 22 5 20 -5 -8
-39 -15 -17 -5 -110 15 -148 15 -26 14 -74 -1 -89 -7 -7 -8 -12 -2 -12 16 0
34 -55 32 -93 -3 -42 -5 -43 -29 -21 -17 16 -19 15 -29 -11 -8 -22 -8 -30 2
-37 9 -5 8 -8 -6 -8 -14 0 -17 -5 -12 -22 3 -13 6 -29 6 -36 0 -10 11 -13 38
-10 36 3 37 2 34 -29 -2 -17 2 -41 8 -53 6 -11 8 -25 5 -30 -10 -16 -55 20
-55 43 0 11 -3 17 -6 14 -4 -4 -8 -44 -10 -89 -3 -109 -6 -120 -35 -160 -27
-35 -59 -95 -59 -110 0 -17 19 -7 26 15 3 12 16 35 26 50 19 26 22 27 37 13
10 -9 23 -16 29 -16 19 0 14 -24 -9 -38 -13 -8 -18 -19 -14 -30 6 -22 -35 -81
-52 -75 -7 3 -13 -2 -13 -10 0 -8 9 -17 20 -20 15 -4 24 2 35 21 10 20 14 22
15 9 0 -14 5 -16 28 -11 32 8 41 20 35 45 -7 26 -23 35 -34 18 -6 -10 -9 -8
-9 9 0 15 6 22 19 22 34 0 46 26 31 69 -7 23 -10 51 -5 68 4 15 8 53 9 83 1
47 4 56 26 67 14 7 24 19 22 27 -3 16 30 27 47 16 7 -4 13 -23 14 -43 2 -40
13 -47 33 -20 9 14 10 21 1 32 -9 11 -5 19 21 41 28 23 31 29 18 40 -12 9 -23
9 -47 1 -44 -15 -49 -14 -49 9 0 11 5 20 11 20 8 0 9 13 5 39 -3 23 -2 42 4
46 16 10 11 28 -6 21 -16 -6 -44 9 -44 24 0 4 9 17 20 30 11 13 20 35 20 50 0
15 -9 35 -20 45 -33 29 -21 157 14 154 18 -1 52 -18 39 -18 -15 -1 -18 -41 -4
-41 5 0 15 -2 23 -5 9 -4 13 4 13 22 1 16 -2 30 -6 33 -3 3 -18 25 -32 50 -26
45 -30 89 -12 132 3 9 2 26 -5 37 -6 12 -8 21 -5 21 3 0 1 9 -5 21 -9 16 -8
26 4 44 9 14 16 33 16 44 0 16 18 31 36 31 2 0 3 -19 2 -42 -3 -43 0 -46 36
-32 16 6 18 4 13 -17 -7 -26 7 -58 20 -45 4 4 8 31 8 59 1 29 4 62 8 73 6 18
2 24 -27 38 -31 14 -34 21 -41 73 -6 48 -4 59 11 70 10 7 26 13 35 13 26 0 32
17 12 29 -10 6 -12 11 -5 11 21 0 13 16 -13 28 -34 16 -32 17 -39 -19 -4 -22
-11 -30 -23 -27 -19 4 -20 38 -2 49 6 3 6 16 -1 33 -5 15 -15 24 -20 21 -7 -5
-9 9 -5 42 10 86 13 93 41 93 25 0 25 1 18 56 -5 46 -4 56 7 52 8 -3 13 -12
11 -22 -4 -22 15 -20 35 4 26 29 45 26 37 -6 -5 -19 -4 -25 5 -20 6 4 11 16
11 28 0 14 5 18 15 14 11 -4 15 2 15 24 0 20 -5 30 -15 30 -9 0 -15 9 -15 25
0 20 5 25 25 25 14 0 28 -6 31 -14 3 -8 13 -12 24 -9 18 5 19 0 19 -53 0 -33
2 -75 6 -95 7 -34 5 -37 -23 -50 -17 -7 -29 -16 -26 -20 2 -4 0 -10 -6 -14
-15 -9 -12 -81 4 -94 19 -16 38 36 22 61 -9 14 -6 23 16 45 15 15 30 24 34 21
17 -17 20 -138 4 -168 -7 -14 -6 -31 5 -62 21 -61 20 -125 -2 -132 -10 -3 -30
-17 -44 -30 -14 -13 -35 -27 -46 -30 -28 -9 -55 -51 -51 -79 4 -27 52 -37 61
-13 4 9 2 16 -3 16 -6 0 -10 6 -10 13 0 15 58 39 73 30 6 -4 8 4 5 20 -6 32
11 50 32 36 11 -8 12 -12 3 -16 -8 -2 -13 -22 -13 -44 0 -28 -4 -39 -15 -39
-8 0 -15 -9 -15 -20 0 -13 7 -20 20 -20 17 0 20 -7 20 -44 0 -28 -6 -48 -16
-57 -11 -9 -14 -23 -11 -45 4 -25 -2 -44 -24 -79 -16 -25 -29 -50 -29 -56 0
-6 -7 -17 -16 -26 -11 -11 -12 -19 -4 -27 12 -12 30 8 30 35 0 9 15 24 33 32
28 14 32 14 35 2 5 -22 18 -18 36 10 9 14 21 25 26 25 6 0 15 -11 20 -25 6
-15 17 -25 29 -25 18 0 18 3 9 38 -6 20 -15 40 -20 43 -14 9 2 79 18 79 17 0
10 96 -12 178 -9 33 -11 58 -6 70 17 31 20 131 5 143 -7 6 -13 22 -13 35 0 13
-4 24 -10 24 -5 0 -12 11 -16 24 -3 14 -12 27 -19 29 -8 4 -15 34 -20 81 -4
42 -10 78 -14 80 -4 3 -6 36 -5 75 1 47 -2 69 -9 64 -6 -4 -8 2 -4 17 3 13 1
30 -5 37 -11 14 7 98 23 109 5 3 9 16 9 29 0 13 8 29 18 34 12 7 -21 10 -115
11 -82 0 -133 -4 -133 -10 0 -5 7 -10 16 -10 11 0 14 -8 12 -32 -3 -29 -7 -33
-35 -36 -20 -2 -37 -12 -47 -28 -9 -13 -13 -24 -9 -24 5 0 14 -12 21 -28 11
-24 10 -29 -8 -44 -15 -12 -19 -24 -15 -37 7 -24 -11 -37 -30 -21 -12 10 -15
10 -15 -1 -1 -9 -4 -8 -11 4 -6 10 -22 22 -35 27 -19 7 -24 17 -24 42 0 25 -3
29 -10 18 -8 -13 -10 -13 -10 2 0 9 12 28 27 42 22 21 24 27 14 40 -9 11 -10
16 -2 16 16 0 14 27 -5 55 -13 20 -25 25 -60 25 -30 0 -44 -4 -44 -14z"/>
<path d="M5984 10766 c-10 -32 -9 -36 17 -55 35 -26 36 -26 43 4 4 14 11 23
16 20 6 -4 7 -11 4 -17 -4 -6 -1 -14 7 -18 10 -7 10 -11 -1 -25 -10 -12 -23
-15 -47 -10 -26 5 -33 2 -33 -9 0 -10 6 -13 17 -9 11 4 14 3 9 -5 -4 -7 -17
-12 -30 -12 -31 0 -39 -11 -18 -26 16 -11 16 -13 -1 -32 -12 -13 -15 -22 -8
-27 16 -9 14 -25 -3 -25 -8 0 -17 -7 -20 -16 -8 -21 -8 -24 4 -24 20 0 70 44
70 61 0 40 53 49 67 12 4 -10 16 -26 28 -36 20 -18 20 -18 -13 -13 -43 7 -75
-9 -67 -33 3 -10 -1 -23 -9 -30 -8 -7 -17 -22 -20 -35 -3 -13 -15 -26 -26 -29
-29 -8 -25 -18 25 -66 57 -54 58 -82 1 -72 -4 1 -14 -3 -21 -9 -7 -6 -17 -10
-21 -9 -43 7 -43 -12 -3 -52 22 -21 28 -34 21 -41 -6 -6 -7 -19 -2 -33 4 -12
5 -28 0 -35 -4 -7 -6 -19 -3 -27 3 -7 -2 -24 -10 -37 -15 -23 -15 -24 14 -30
21 -4 29 -11 29 -26 0 -11 3 -20 8 -20 15 0 13 -110 -3 -133 -8 -12 -15 -30
-15 -40 0 -10 -9 -21 -20 -24 -23 -6 -27 -33 -5 -33 16 0 21 -45 6 -54 -4 -3
-6 -17 -3 -31 2 -14 -2 -32 -9 -41 -10 -13 -10 -17 2 -25 8 -5 20 -9 28 -9 9
0 11 -8 7 -25 -4 -14 -2 -25 3 -25 21 0 -2 -29 -31 -39 -41 -15 -44 -14 -25 7
19 21 4 47 -30 49 -26 2 -30 -9 -8 -27 8 -7 15 -23 15 -36 0 -13 3 -24 8 -24
14 0 34 -42 23 -49 -7 -4 1 -19 19 -40 17 -18 28 -36 25 -41 -3 -5 4 -15 15
-23 24 -17 18 -43 -12 -50 -22 -6 -21 -44 1 -39 7 1 11 -1 9 -5 -22 -43 -36
-85 -42 -120 -5 -38 -4 -43 13 -43 20 0 39 -48 24 -59 -4 -3 -9 -18 -10 -33
-1 -23 3 -27 27 -30 23 -2 27 -6 20 -18 -7 -12 -13 -12 -33 -1 -37 20 -47 7
-47 -60 0 -52 -2 -59 -20 -59 -12 0 -20 7 -20 16 0 13 -3 14 -15 4 -12 -10
-20 -9 -39 3 -22 15 -24 14 -34 -6 -20 -42 -20 -54 -1 -71 18 -15 19 -15 14 6
-5 19 0 26 25 36 25 12 32 11 45 -1 19 -19 19 -65 1 -86 -16 -18 -10 -115 6
-105 5 3 2 -11 -7 -32 -10 -25 -12 -40 -5 -42 14 -5 13 -49 -1 -58 -13 -8 27
-43 49 -44 6 0 12 -6 12 -14 0 -21 -64 -40 -89 -27 -26 14 -30 6 -21 -54 4
-27 8 -40 9 -28 0 12 13 31 27 42 28 22 84 29 84 10 0 -22 25 -36 48 -28 18 7
21 14 16 34 -5 22 -3 25 20 25 16 0 26 -5 25 -12 -1 -7 1 -21 6 -31 4 -11 3
-23 -4 -30 -6 -6 -11 -17 -11 -25 0 -13 12 -12 58 5 6 3 12 -2 12 -10 0 -9
-10 -17 -22 -19 -20 -3 -23 -9 -23 -46 0 -23 -5 -46 -11 -50 -15 -10 -28 -82
-14 -82 5 0 10 -8 10 -17 0 -14 -2 -15 -9 -5 -11 18 -22 -8 -14 -36 6 -25 -13
-38 -33 -22 -11 10 -12 16 -3 26 9 11 8 14 -5 14 -9 0 -16 7 -16 16 0 9 -5 12
-11 8 -8 -5 -9 -2 -1 11 10 18 -3 65 -17 65 -23 -2 -55 -50 -33 -50 16 0 6
-50 -10 -56 -10 -3 -18 -9 -18 -14 0 -11 27 -20 43 -14 10 3 14 -4 15 -24 0
-23 -6 -32 -26 -42 -25 -11 -26 -12 -8 -25 13 -10 19 -29 21 -62 1 -26 11 -70
20 -97 15 -39 16 -52 6 -68 -10 -17 -9 -24 11 -48 102 -124 109 -135 97 -139
-22 -7 -39 -35 -28 -46 15 -15 11 -22 -17 -29 -29 -8 -28 -25 4 -37 17 -6 22
-5 22 8 0 12 7 14 30 10 23 -5 33 -2 44 15 14 20 18 21 42 7 21 -11 28 -11 31
-1 3 6 11 12 19 12 8 0 14 6 14 14 0 18 69 88 80 81 5 -3 20 -1 34 5 18 6 29
6 39 -3 7 -7 22 -17 32 -23 13 -7 20 -22 21 -45 1 -53 13 -71 40 -65 26 7 32
-11 14 -44 -8 -15 -5 -19 17 -25 15 -3 43 -19 64 -35 30 -24 37 -38 43 -77 5
-39 3 -53 -14 -75 -25 -35 -25 -44 1 -51 17 -5 20 -11 17 -31 -5 -26 14 -37
27 -16 13 21 23 8 29 -41 6 -46 4 -53 -19 -76 -14 -14 -25 -29 -25 -34 0 -4
-10 -11 -22 -15 -23 -7 -38 -21 -38 -38 0 -5 7 -3 15 4 21 17 32 4 17 -20 -14
-23 -16 -50 -3 -50 5 0 12 -8 16 -17 4 -13 -2 -25 -22 -40 -15 -13 -22 -23
-15 -23 7 0 12 -14 12 -34 0 -41 -28 -56 -66 -35 -13 7 -26 10 -28 8 -2 -2 -1
-24 3 -49 5 -37 10 -46 29 -48 14 -2 22 -10 22 -23 0 -10 5 -20 10 -20 32 -5
35 -3 32 34 -4 44 9 52 59 39 41 -10 49 -35 20 -65 -21 -23 -23 -58 -3 -65 24
-8 12 -24 -13 -18 -22 6 -25 3 -25 -19 0 -14 -4 -25 -10 -25 -5 0 -10 -5 -10
-10 0 -6 10 -8 24 -4 15 3 29 -1 40 -11 16 -16 17 -16 11 8 -8 30 44 130 70
135 14 3 14 1 4 -16 -10 -16 -10 -23 0 -36 13 -15 17 -128 6 -146 -3 -6 -1
-10 4 -10 6 0 11 8 11 18 0 10 6 24 13 31 8 8 11 43 10 113 -1 56 1 106 4 112
4 6 8 32 10 58 1 27 10 64 18 84 21 51 19 56 -20 48 -25 -4 -39 -2 -50 10 -9
9 -12 16 -6 16 21 0 12 59 -10 70 -19 11 -19 13 -4 23 9 7 21 23 28 36 21 43
40 39 35 -8 -2 -22 0 -41 4 -41 5 0 8 -10 9 -22 0 -13 3 -17 6 -10 3 7 16 17
29 22 15 6 24 17 24 32 0 12 5 37 12 55 10 28 10 36 -2 43 -10 6 -11 12 -2 22
8 11 9 25 1 52 -9 34 -8 41 12 62 30 32 73 28 77 -7 5 -33 20 -47 28 -26 3 9
10 17 15 17 12 0 -12 -52 -31 -67 -8 -7 -23 -13 -32 -13 -10 0 -18 -5 -18 -11
0 -8 18 -10 61 -5 63 6 116 25 72 26 -35 0 -35 14 1 53 34 38 50 45 61 27 3
-5 15 -10 25 -10 14 0 21 10 26 35 8 43 3 50 -26 35 -18 -10 -24 -9 -31 1 -14
22 -10 49 9 73 19 25 18 24 49 32 22 6 22 6 3 33 -21 29 -17 81 7 81 11 0 11
4 3 20 -12 23 -4 66 15 74 15 5 10 41 -8 64 -9 11 -12 10 -18 -5 -4 -10 -5
-30 -2 -44 6 -30 -21 -47 -43 -28 -21 17 -17 -3 8 -51 17 -32 20 -45 11 -58
-11 -18 -43 -17 -55 1 -4 7 -12 4 -24 -7 -12 -13 -13 -17 -3 -15 8 1 26 -3 42
-9 19 -8 27 -19 27 -37 0 -14 -7 -28 -15 -31 -8 -3 -17 -14 -20 -25 -8 -23
-50 -35 -70 -19 -7 6 -24 10 -36 8 -19 -2 -24 3 -30 29 -8 40 -1 83 15 83 6 0
2 7 -8 15 -19 15 -19 15 1 37 12 13 23 32 25 43 3 19 3 19 23 -1 20 -20 55
-38 55 -28 0 3 -7 19 -16 36 -15 28 -19 30 -55 24 -48 -8 -51 7 -7 30 l32 16
-26 20 c-15 10 -29 32 -33 48 -4 17 -11 27 -16 24 -16 -9 -39 16 -39 42 0 17
6 24 18 24 16 0 19 8 19 54 0 58 7 76 29 76 8 0 14 5 14 10 0 17 -21 11 -39
-11 -10 -13 -30 -21 -51 -22 -29 -2 -36 2 -38 21 -5 32 -15 27 -34 -18 -9 -22
-12 -40 -7 -40 5 0 9 -7 9 -15 0 -7 7 -18 16 -23 18 -10 20 -41 6 -93 -8 -30
-6 -40 9 -60 21 -28 25 -72 7 -86 -20 -16 -50 -24 -43 -12 4 5 2 15 -3 22 -6
7 -13 29 -17 50 -7 35 -9 37 -24 22 -25 -22 -28 -19 -36 25 -4 22 -11 40 -16
40 -21 0 16 48 47 60 42 17 45 35 4 27 -18 -4 -32 -2 -37 6 -4 7 -17 17 -28
23 -16 9 -20 22 -21 69 0 35 5 63 13 71 9 8 10 15 3 19 -14 9 6 35 26 35 8 0
14 9 14 21 0 16 -4 19 -17 14 -45 -18 -47 -15 -50 87 -2 102 6 124 44 116 16
-3 18 -13 15 -78 -2 -51 0 -70 7 -61 7 11 11 6 16 -22 9 -45 28 -48 83 -13 48
30 72 58 55 63 -10 4 -9 8 1 19 8 8 19 14 25 14 6 0 11 3 12 8 0 4 2 17 5 30
3 17 -1 22 -16 22 -11 0 -20 5 -20 11 0 8 -5 8 -15 -1 -13 -11 -15 -7 -15 24
0 24 4 36 13 35 26 -3 36 2 31 16 -9 23 -40 18 -59 -11 -14 -22 -15 -31 -5
-52 6 -15 20 -32 31 -40 30 -21 25 -44 -8 -36 -25 7 -27 6 -14 -9 12 -15 10
-17 -14 -17 -25 0 -27 3 -22 29 5 25 3 28 -13 24 -17 -5 -18 -1 -13 32 5 32 2
40 -17 55 -21 16 -22 20 -10 34 10 13 10 20 2 28 -7 7 -12 23 -12 36 0 17 -4
22 -14 19 -21 -8 -35 14 -29 46 4 19 11 27 27 27 41 0 51 15 39 54 -7 21 -7
38 -2 42 5 3 9 -2 9 -10 0 -9 4 -16 9 -16 6 0 5 15 -1 36 -5 20 -7 47 -4 60 5
17 2 26 -9 30 -28 11 -15 23 27 26 49 4 61 24 23 38 -25 10 -27 14 -22 53 3
23 11 43 16 45 15 5 14 29 -1 35 -10 3 -10 8 1 21 13 15 13 19 1 26 -22 13 -5
23 18 11 27 -15 60 -15 45 0 -5 5 -8 20 -6 33 4 18 10 22 29 18 22 -4 24 -1
24 31 0 26 5 36 20 40 11 3 20 12 20 21 0 13 -6 15 -26 10 -23 -6 -25 -4 -22
17 3 25 36 34 50 14 15 -20 7 24 -9 53 -15 26 -15 31 -2 44 24 24 57 38 73 32
18 -7 22 -24 5 -24 -8 0 -7 -5 1 -15 7 -9 15 -28 17 -43 10 -90 11 -132 3
-132 -6 0 -10 -10 -10 -22 0 -13 -4 -30 -9 -38 -6 -8 -7 -19 -3 -24 3 -6 9 0
12 14 7 31 31 32 46 2 6 -12 19 -29 29 -36 18 -13 14 -56 -6 -56 -5 0 -9 -6
-9 -14 0 -8 -7 -16 -15 -20 -28 -10 -15 -23 22 -22 35 1 38 -1 38 -27 1 -35
-19 -54 -39 -38 -11 9 -19 9 -35 -1 -34 -21 -24 -31 24 -25 37 4 47 1 55 -14
8 -13 6 -21 -9 -31 -25 -18 -39 -78 -17 -78 9 0 16 -7 16 -15 0 -8 -5 -15 -11
-15 -8 0 -8 -4 1 -15 12 -15 5 -39 -10 -30 -15 9 -22 -15 -10 -30 10 -12 10
-18 0 -30 -9 -10 -9 -15 -1 -15 6 0 11 -9 11 -19 0 -11 5 -23 10 -26 15 -9 12
-51 -5 -65 -8 -7 -15 -29 -15 -49 0 -27 -7 -43 -25 -59 -40 -35 -29 -56 16
-29 18 10 23 9 36 -10 9 -13 20 -23 26 -23 31 0 51 -92 25 -119 -11 -11 -10
-14 0 -18 24 -9 40 -33 35 -52 -3 -11 4 -28 16 -40 26 -26 26 -37 2 -50 -19
-10 -34 -71 -25 -96 3 -8 12 -11 20 -8 8 3 26 -7 41 -21 23 -23 24 -28 11 -39
-9 -6 -19 -31 -23 -53 -5 -33 -3 -43 10 -48 10 -4 15 -13 13 -24 -3 -10 1 -23
9 -30 7 -7 13 -25 13 -39 0 -15 7 -34 16 -44 15 -17 15 -24 -7 -89 -12 -38
-26 -70 -30 -70 -12 0 -18 -81 -7 -110 5 -16 16 -31 24 -34 8 -3 14 -17 14
-31 0 -15 6 -25 14 -25 8 0 16 -10 18 -22 2 -17 11 -24 31 -26 25 -3 40 -22
17 -22 -16 0 -12 -46 5 -60 8 -7 15 -21 15 -31 0 -11 6 -19 14 -19 9 0 16 -18
20 -52 4 -28 18 -70 32 -93 19 -32 23 -53 21 -95 -2 -49 -5 -55 -27 -60 -20
-5 -24 -11 -22 -32 2 -14 -2 -29 -7 -33 -6 -3 -11 -16 -11 -27 0 -38 -23 -88
-41 -88 -9 0 -19 -7 -23 -15 -3 -8 -1 -15 4 -15 6 0 10 6 11 13 0 6 6 -12 12
-42 15 -67 37 -81 37 -23 0 72 64 85 88 18 17 -47 2 -78 -36 -74 -33 4 -45
-30 -13 -39 22 -6 55 -49 47 -62 -3 -5 1 -14 9 -21 8 -7 24 -43 35 -81 11 -37
25 -71 31 -74 5 -4 7 -15 4 -26 -4 -11 -2 -19 4 -19 6 0 11 5 11 10 0 6 6 10
14 10 18 0 30 -31 15 -40 -6 -4 -9 -16 -7 -26 3 -15 12 -19 40 -18 l37 1 -15
-28 c-8 -16 -22 -29 -32 -29 -14 0 -14 -3 5 -18 13 -10 23 -31 25 -52 3 -30 7
-35 31 -38 15 -2 27 -7 27 -12 0 -5 16 -9 35 -8 45 2 45 14 -1 22 -27 6 -34
11 -32 25 2 11 -5 28 -15 39 -16 18 -16 21 -2 35 8 9 15 20 15 25 0 5 14 12
30 16 36 7 40 32 7 47 -13 6 -32 29 -41 52 -9 23 -21 50 -26 59 -14 25 5 32
35 12 14 -9 34 -14 47 -11 12 4 28 1 36 -6 11 -9 17 -7 28 8 20 27 17 35 -14
35 -15 0 -44 11 -65 25 -31 21 -37 32 -37 60 0 19 -5 35 -10 35 -16 0 -29 43
-19 61 6 12 0 26 -21 49 -16 17 -27 37 -24 44 2 6 -1 20 -9 30 -17 23 -10 89
9 82 8 -3 14 1 14 9 0 13 -28 14 -50 0 -14 -9 -50 18 -50 37 0 21 39 25 58 6
17 -17 25 -3 12 22 -13 24 -6 55 10 45 16 -10 12 73 -6 107 -10 19 -14 42 -10
61 5 25 4 28 -9 17 -18 -15 -58 -3 -51 16 6 16 -31 104 -43 104 -13 0 -30 56
-24 78 2 11 -3 31 -12 46 -12 17 -15 35 -10 56 5 23 3 30 -9 30 -18 0 -22 35
-5 46 6 3 8 17 4 31 -3 14 -1 31 6 39 16 19 5 42 -26 54 -27 10 -30 45 -5 60
12 7 11 12 -3 28 -19 21 -22 45 -7 73 11 20 -3 28 -15 9 -10 -16 -33 -12 -44
8 -5 10 -12 42 -15 71 -2 29 -9 58 -14 64 -5 7 -7 27 -5 45 4 23 11 32 24 32
16 0 18 -5 13 -25 -5 -19 -2 -25 10 -25 9 0 16 7 16 16 0 9 8 23 17 29 17 13
17 14 0 32 -9 11 -17 29 -17 41 0 12 -6 22 -12 22 -15 0 -38 45 -38 74 0 11 7
27 15 36 14 16 14 17 -9 13 -14 -3 -28 -14 -31 -24 -8 -26 -19 -24 -39 6 -22
33 -20 48 8 74 14 13 26 37 28 54 3 28 30 58 42 46 7 -7 10 -60 5 -78 -2 -8 4
-17 14 -19 14 -3 17 3 17 33 0 21 9 48 22 65 24 33 17 51 -12 32 -25 -16 -30
-15 -30 3 0 10 -10 15 -30 15 -30 0 -30 0 -24 43 4 23 12 49 19 57 17 22 28
52 26 73 -3 26 24 21 39 -8 17 -32 32 -32 24 -1 -4 19 1 32 20 50 22 23 23 26
6 26 -25 0 -80 48 -80 70 0 10 -6 25 -13 32 -8 8 -11 23 -7 38 5 22 2 26 -29
35 -26 7 -40 20 -51 42 -8 18 -20 33 -26 33 -19 0 -40 69 -35 117 1 6 10 15
22 18 19 6 20 8 3 26 -9 10 -13 19 -9 19 5 0 -1 10 -12 23 -11 12 -25 32 -32
43 -9 19 -7 24 14 38 28 19 32 41 9 54 -18 10 -23 74 -6 80 15 5 16 32 2 32
-5 0 -10 -7 -10 -15 0 -8 -9 -15 -20 -15 -23 0 -25 8 -5 33 9 12 12 38 10 73
-3 46 -1 54 15 54 24 0 42 24 39 52 -2 13 4 34 14 48 11 16 13 26 6 29 -13 4
-44 -38 -44 -59 0 -8 -8 -16 -18 -18 -12 -2 -17 3 -17 18 0 16 -4 20 -16 16
-9 -3 -12 -2 -9 5 4 5 2 16 -5 24 -9 10 -9 19 0 36 8 13 8 24 2 28 -5 3 -11
20 -14 38 -4 29 -1 33 23 38 15 4 37 1 49 -5 12 -6 28 -10 36 -8 13 3 12 6 -3
23 -10 11 -17 27 -15 35 1 9 -11 28 -27 44 -25 24 -32 26 -48 15 -12 -7 -31
-9 -48 -5 -23 6 -26 9 -14 17 7 5 26 9 40 9 30 0 41 17 32 49 -4 17 0 22 26
27 17 4 34 11 37 16 4 7 -6 7 -27 3 -53 -12 -64 -11 -64 5 0 8 16 20 35 27 19
7 29 12 21 12 -9 1 -11 8 -8 22 5 19 2 21 -23 16 -24 -5 -29 -3 -32 16 -4 28
-23 24 -23 -5 0 -11 -7 -24 -15 -28 -47 -23 -87 -36 -97 -33 -20 7 -15 33 5
33 13 0 21 12 28 43 7 33 14 43 32 45 13 2 20 8 16 14 -4 7 -2 8 4 4 6 -3 28
3 49 14 21 11 45 20 53 21 13 0 13 1 0 6 -18 8 -35 21 -69 56 -22 22 -34 27
-54 21 -16 -4 -27 -2 -27 4 0 6 10 12 23 14 17 2 22 9 20 32 -3 36 -5 38 -36
31 -15 -4 -24 -12 -21 -20 3 -7 -2 -15 -12 -19 -15 -6 -15 -8 2 -27 18 -21 18
-21 -3 -38 -11 -10 -23 -26 -25 -37 -4 -23 -24 -16 -21 8 2 14 -1 16 -22 8
-15 -6 -26 -6 -30 0 -4 6 -15 10 -26 10 -11 0 -19 7 -20 18 -1 26 -34 77 -50
77 -8 0 -15 10 -17 23 -3 19 1 22 30 23 27 1 28 3 8 6 -14 2 -31 12 -38 21
-11 15 -13 15 -18 -6 -4 -12 -11 -22 -16 -22 -5 0 -6 5 -3 10 3 6 -1 10 -9 10
-21 0 -21 43 -1 60 8 7 21 10 29 7 10 -4 12 0 9 14 -3 10 0 19 6 19 6 0 11 5
11 11 0 11 -34 8 -70 -5 -8 -3 -22 -2 -30 4 -12 7 -12 12 -2 22 19 19 15 41
-8 35 -24 -6 -28 18 -5 27 8 3 15 12 15 21 0 8 8 15 18 15 9 0 23 9 30 20 11
17 10 20 -7 20 -24 0 -47 28 -43 52 2 13 -3 18 -17 18 -24 0 -28 15 -6 24 25
9 17 24 -11 18 -23 -4 -25 -2 -19 17 4 12 2 28 -4 35 -17 20 13 43 34 26 11
-9 12 -16 5 -25 -7 -8 -4 -17 10 -30 29 -26 39 -9 33 58 -5 49 -8 57 -22 51
-9 -3 -25 -9 -36 -12 -17 -5 -18 -3 -7 11 8 9 11 21 7 27 -4 6 13 10 47 11 45
0 49 2 28 10 -13 6 -44 11 -68 13 -53 5 -63 13 -37 33 14 11 16 17 8 20 -7 3
-13 18 -13 34 0 21 -7 32 -24 41 -25 11 -54 63 -42 75 3 3 1 12 -6 20 -15 18
-1 31 37 35 19 2 31 9 33 21 3 14 -4 17 -41 17 -36 0 -46 -4 -50 -20 -7 -28
-34 -36 -56 -16 -10 9 -24 16 -32 17 -8 1 -3 5 11 9 14 4 -112 8 -280 9 l-305
1 -11 -34z m1001 -1098 c7 -21 21 -38 40 -48 22 -11 31 -23 33 -47 2 -17 -2
-34 -8 -38 -19 -12 -90 -14 -90 -3 0 5 -12 7 -30 3 -36 -8 -49 13 -31 51 8 18
17 23 33 21 13 -2 17 -2 10 0 -8 3 -11 11 -7 21 4 10 8 24 9 32 1 16 17 39 26
40 3 0 10 -15 15 -32z m-831 -873 c-9 -22 27 -86 53 -96 19 -7 24 -15 22 -37
-2 -15 1 -33 6 -41 5 -10 4 -16 -3 -19 -7 -2 -12 -10 -12 -18 0 -8 -5 -14 -11
-14 -5 0 -9 9 -7 19 3 19 -27 61 -44 61 -4 0 -8 -19 -9 -42 0 -24 -4 -52 -8
-63 -10 -24 7 -65 26 -65 19 0 16 -14 -6 -34 -21 -20 -41 -14 -41 11 0 9 -8
22 -17 28 -16 12 -16 15 -2 32 9 10 20 28 23 41 7 20 4 22 -24 22 -27 0 -31 3
-28 22 2 12 13 27 24 33 52 26 70 55 34 55 -11 0 -20 7 -20 15 0 8 -9 15 -20
15 -11 0 -20 2 -20 3 0 15 35 70 52 81 24 17 40 12 32 -9z m182 -564 c-3 -5 1
-12 9 -15 25 -9 3 -39 -48 -64 -49 -24 -59 -38 -50 -71 3 -13 12 -20 26 -18
14 1 28 -9 41 -30 12 -18 29 -32 39 -33 10 0 16 -4 12 -9 -3 -5 -1 -12 5 -16
19 -12 10 -35 -17 -42 -16 -3 -41 -19 -56 -35 -29 -29 -61 -36 -72 -18 -4 6
-1 17 5 25 11 13 7 15 -19 15 -23 0 -31 4 -31 18 0 30 13 34 31 10 15 -19 20
-20 33 -9 13 11 17 10 23 -5 6 -15 9 -12 13 16 8 45 3 53 -21 36 -21 -14 -59
-11 -59 5 0 5 -9 9 -20 9 -11 0 -20 5 -20 11 0 6 9 8 20 4 11 -4 20 -2 20 4 0
6 -9 20 -20 31 -11 11 -19 30 -19 43 1 16 2 18 6 5 5 -21 30 -24 30 -5 0 23
35 67 54 67 11 0 19 5 19 10 0 6 6 10 14 10 8 0 17 14 21 30 4 17 13 30 21 30
9 0 13 -4 10 -9z m-144 -358 c3 -26 6 -28 52 -28 l48 0 5 -62 c3 -55 2 -62
-17 -68 -11 -3 -27 -19 -35 -35 -19 -36 -20 -60 -2 -35 8 10 19 15 25 11 6 -3
22 -1 36 5 19 9 26 20 26 41 0 15 3 28 8 28 34 -1 46 -63 20 -106 -32 -52 -41
-74 -35 -80 4 -4 13 -1 21 5 11 9 16 9 21 1 6 -10 -11 -30 -87 -95 -10 -8 -24
-15 -30 -14 -10 0 -10 2 0 6 18 7 15 21 -8 33 -16 9 -26 7 -47 -10 -20 -15
-29 -17 -39 -9 -23 19 -17 49 9 50 12 0 16 3 10 6 -9 3 -13 26 -13 64 0 33 -5
70 -11 81 -8 15 -8 22 1 28 8 5 10 18 5 39 -5 26 -4 31 12 31 15 0 18 8 17 46
-1 31 -7 50 -17 56 -18 10 -12 38 8 38 8 0 15 -12 17 -27z"/>
<path d="M7765 10786 c18 -13 18 -14 -2 -20 -18 -6 -32 -32 -33 -59 0 -5 14
-6 30 -2 19 4 30 3 30 -4 0 -6 -10 -11 -22 -11 -13 0 -34 -6 -48 -13 -21 -10
-24 -19 -22 -47 2 -20 12 -40 24 -48 15 -11 18 -21 13 -43 -6 -25 -4 -29 14
-29 12 0 21 -6 21 -15 0 -8 -9 -15 -20 -15 -20 0 -26 -11 -14 -23 12 -12 12
-83 -1 -107 -10 -18 -10 -28 -1 -43 9 -15 7 -21 -8 -33 -20 -14 -20 -14 1 -33
14 -13 19 -28 16 -45 -3 -16 -1 -26 6 -26 8 0 7 -6 -1 -20 -10 -16 -10 -22 -1
-28 19 -12 33 -60 33 -116 0 -28 6 -58 12 -64 13 -13 12 -80 -2 -97 -13 -15 2
-34 25 -32 11 1 21 -5 23 -15 2 -13 -3 -18 -17 -18 -30 0 -35 -19 -8 -31 19
-9 24 -18 23 -43 -2 -37 11 -79 42 -127 12 -20 22 -41 22 -48 0 -6 5 -11 10
-11 6 0 10 -9 10 -20 0 -13 -7 -20 -20 -20 -22 0 -27 -19 -9 -37 8 -8 5 -16
-10 -30 -18 -16 -19 -24 -10 -56 5 -20 14 -39 19 -42 6 -4 10 -23 10 -44 0
-38 23 -71 49 -71 6 0 11 -8 9 -17 -2 -12 3 -17 15 -15 10 2 17 -3 17 -13 0
-8 4 -15 9 -15 5 0 9 -41 9 -91 -1 -92 -11 -119 -44 -119 -18 0 -18 -14 1 -30
9 -7 13 -21 10 -31 -4 -10 2 -25 15 -37 l20 -19 -20 -18 c-20 -18 -20 -18 0
-32 25 -18 36 -77 21 -111 -11 -24 -10 -28 13 -45 14 -10 26 -27 26 -37 0 -10
5 -22 11 -25 6 -4 7 -19 4 -36 -4 -18 -3 -29 4 -29 6 0 11 11 11 25 0 18 5 25
20 25 17 0 19 5 14 33 -3 17 -7 38 -10 45 -4 14 16 64 31 74 18 13 44 8 54
-10 5 -10 6 -36 1 -62 -6 -35 -5 -47 6 -53 8 -4 14 -14 14 -21 0 -8 6 -19 14
-26 9 -7 13 -23 11 -40 -5 -39 -12 -50 -36 -50 -10 0 -19 -4 -19 -9 0 -5 -16
-15 -35 -22 -27 -10 -32 -16 -23 -26 19 -24 -11 -46 -54 -40 -21 3 -36 1 -32
-4 3 -5 15 -9 27 -9 13 0 38 -14 56 -30 39 -36 62 -27 58 24 -2 25 2 31 18 31
15 0 21 -8 23 -30 2 -16 8 -34 13 -39 12 -13 12 -49 -1 -62 -7 -7 -5 -20 5
-41 16 -33 15 -91 -3 -102 -6 -3 -14 -19 -17 -34 -7 -27 -20 -36 -27 -17 -2 7
-16 8 -43 1 -22 -5 -30 -9 -18 -10 30 -1 43 -59 17 -78 -9 -7 -16 -14 -13 -15
2 -2 19 -16 36 -32 l32 -29 12 27 c15 32 33 33 64 2 20 -20 23 -30 16 -49 -6
-14 -5 -30 1 -41 7 -13 6 -25 -3 -42 -16 -31 -27 -30 -42 4 -16 36 -50 64 -59
49 -4 -7 0 -22 8 -35 9 -13 13 -31 9 -39 -6 -17 30 -63 50 -63 6 0 18 8 27 18
33 34 49 43 71 40 14 -2 22 -10 22 -23 0 -16 -7 -20 -31 -20 -34 0 -36 -20 -3
-30 23 -8 24 -19 4 -39 -21 -20 -19 -47 4 -53 11 -3 22 -15 25 -28 3 -13 13
-30 21 -39 25 -24 8 -46 -36 -46 -44 0 -55 24 -16 36 21 7 21 7 2 15 -29 11
-107 11 -100 0 3 -5 -7 -11 -22 -13 -25 -3 -28 -6 -25 -38 4 -41 33 -76 57
-67 12 5 14 11 6 26 -13 24 6 42 37 34 14 -3 22 -13 22 -27 0 -12 5 -27 11
-33 8 -8 8 -13 0 -17 -20 -13 -11 -26 17 -26 22 0 31 -8 47 -43 15 -32 18 -47
10 -64 -5 -13 -14 -23 -20 -23 -13 0 -35 48 -35 76 0 27 -17 39 -46 36 -14 -2
-30 7 -43 25 -18 22 -24 24 -31 13 -5 -9 -3 -25 7 -43 16 -33 9 -127 -10 -127
-7 0 -7 -4 2 -12 10 -11 15 -9 26 6 13 17 14 14 11 -29 -2 -44 0 -49 25 -58
23 -9 27 -16 24 -46 -4 -60 -17 -95 -44 -121 -25 -24 -44 -50 -57 -78 -10 -20
16 -45 32 -31 10 8 14 8 14 1 0 -6 -4 -14 -10 -17 -5 -3 -10 -30 -10 -60 0
-30 -4 -57 -10 -60 -29 -18 14 -75 75 -99 12 -5 15 -10 8 -13 -8 -3 -9 -12 -1
-34 7 -22 7 -38 -1 -55 -16 -36 14 -32 31 4 18 36 60 42 75 10 20 -42 22 -57
11 -88 -8 -25 -7 -34 6 -49 19 -21 21 -47 4 -54 -9 -3 -6 -10 10 -22 27 -20
28 -41 2 -57 -29 -18 -25 -35 10 -43 25 -6 29 -10 24 -30 -4 -16 1 -30 13 -42
15 -15 17 -24 10 -41 -7 -16 -5 -28 7 -46 9 -14 16 -35 16 -46 0 -17 4 -20 21
-15 20 7 22 5 16 -29 -3 -20 -15 -45 -26 -54 l-21 -17 25 -50 c13 -27 25 -56
25 -63 0 -7 5 -22 12 -35 6 -12 14 -29 18 -37 4 -8 22 -16 41 -18 25 -3 39
-12 54 -35 24 -36 43 -45 51 -22 4 10 -3 26 -20 44 -29 30 -35 71 -10 71 8 0
12 4 9 10 -5 9 -9 30 -19 120 -2 19 -7 61 -11 92 -7 55 -6 58 16 68 20 8 19 9
-12 4 -25 -4 -39 -1 -48 10 -25 30 20 99 59 89 12 -3 23 3 32 16 26 43 82 11
75 -44 -4 -32 30 -31 37 2 4 16 15 33 24 38 89 49 108 78 46 68 -34 -6 -35 -5
-32 22 5 48 88 58 88 11 0 -16 6 -21 28 -22 55 -2 83 -14 93 -42 9 -23 7 -29
-11 -44 -12 -10 -30 -18 -39 -18 -9 0 -4 -6 13 -15 15 -8 35 -15 42 -15 8 0
14 -4 14 -10 0 -20 38 -10 43 12 6 21 7 21 27 3 21 -19 27 -50 11 -59 -4 -3
-11 -19 -14 -34 -4 -19 -14 -32 -29 -36 -22 -6 -22 -7 10 -22 26 -13 32 -22
32 -48 -1 -26 -2 -28 -11 -13 -14 23 -28 21 -51 -8 -11 -14 -25 -25 -32 -25
-14 0 -29 -66 -20 -82 3 -5 12 -7 20 -4 20 7 28 -18 15 -42 -9 -17 -5 -24 24
-46 43 -33 48 -33 40 4 -5 21 -3 30 6 30 10 0 10 3 1 12 -7 7 -12 20 -12 30 0
12 -8 18 -24 18 -27 0 -50 23 -43 42 3 8 6 5 6 -7 1 -14 4 -16 13 -7 8 8 8 15
-2 27 -11 13 -9 15 14 15 17 0 29 -7 34 -19 4 -10 28 -42 55 -70 26 -29 47
-60 47 -71 0 -10 5 -22 10 -25 17 -10 11 -25 -10 -25 -11 0 -20 -4 -20 -9 0
-15 -32 -22 -46 -10 -8 6 -11 16 -7 23 3 6 0 5 -8 -2 -11 -10 -11 -16 -1 -30
7 -9 15 -25 18 -34 4 -10 10 -18 14 -18 11 0 30 -57 30 -87 0 -13 6 -33 13
-44 10 -17 10 -23 0 -26 -7 -3 -13 -17 -13 -32 0 -20 13 -38 49 -70 48 -41 50
-44 49 -94 0 -29 -5 -58 -11 -65 -7 -8 -6 -21 2 -38 6 -14 9 -30 5 -35 -3 -5
-7 -46 -9 -90 -4 -79 -4 -82 24 -108 l29 -27 -3 -122 c-3 -73 0 -122 5 -122
13 0 13 -36 -1 -74 -13 -37 2 -86 26 -86 8 0 15 5 15 10 0 16 23 12 77 -15 63
-30 70 -40 39 -57 -13 -7 -38 -21 -55 -31 -19 -10 -58 -19 -97 -21 -36 -2 -67
-6 -70 -9 -14 -13 44 -29 111 -29 41 -1 72 -5 69 -9 -3 -5 -12 -9 -21 -9 -9 0
-38 -10 -64 -22 -45 -21 -67 -49 -60 -73 2 -5 7 -23 11 -40 4 -16 9 -37 11
-45 2 -8 14 -23 27 -33 28 -24 28 -58 0 -77 -43 -28 -65 -37 -100 -44 -40 -7
-118 -55 -118 -72 0 -7 -6 -14 -14 -17 -7 -3 -16 -15 -19 -27 -5 -20 -3 -22
24 -16 21 4 31 1 35 -9 4 -8 15 -15 26 -15 11 0 40 -20 65 -45 38 -38 43 -48
32 -61 -8 -10 -9 -18 -2 -25 24 -24 -33 -84 -74 -80 -9 1 -9 -6 0 -28 13 -34
-5 -65 -34 -58 -9 3 -22 1 -29 -3 -19 -12 0 -32 26 -27 34 6 51 -7 35 -27 -8
-9 -19 -16 -27 -16 -7 0 -16 -4 -19 -10 -4 -6 5 -8 22 -5 15 2 48 6 73 9 l45
6 -40 -22 c-22 -11 -46 -29 -53 -40 -10 -14 -17 -16 -27 -8 -10 8 -15 8 -20 0
-11 -17 15 -40 46 -40 15 0 30 -4 34 -10 6 -10 -65 -50 -90 -50 -8 0 -15 -4
-15 -10 0 -5 18 -10 40 -10 40 0 40 0 40 -39 0 -28 -5 -41 -17 -46 -17 -6 -17
-7 0 -16 9 -6 17 -15 17 -22 0 -11 84 -37 122 -37 8 0 21 -6 27 -13 8 -11 6
-18 -9 -32 -14 -13 -17 -22 -10 -30 20 -24 5 -75 -28 -96 -18 -10 -32 -27 -32
-36 0 -15 2 -16 10 -3 8 12 10 12 16 -3 3 -10 11 -17 18 -16 22 4 46 -13 46
-32 0 -25 16 -24 23 1 6 25 25 26 34 3 4 -10 9 -20 12 -23 17 -14 31 -53 26
-69 -4 -15 -21 -19 -88 -24 -61 -5 -85 -11 -95 -24 -10 -14 -10 -20 2 -31 10
-11 21 -11 52 -3 22 6 56 11 77 11 30 0 37 4 37 20 0 16 7 20 31 20 16 0 28
-4 25 -8 -6 -10 20 -33 55 -48 28 -13 49 -67 49 -129 0 -36 1 -37 29 -32 42 9
55 -10 30 -44 -20 -28 -20 -28 0 -40 11 -7 17 -19 13 -27 -3 -10 -1 -13 6 -8
6 3 13 -2 17 -13 4 -14 14 -18 38 -16 60 5 90 -32 45 -56 -17 -9 -24 -9 -33 5
-16 21 -31 20 -39 -1 -6 -16 8 -32 29 -33 6 0 21 -10 35 -21 24 -20 24 -21 3
-16 -27 6 -30 -5 -8 -23 13 -10 13 -15 3 -21 -9 -6 -8 -10 5 -14 13 -6 14 -11
6 -27 -14 -25 -5 -48 19 -48 29 0 34 -12 9 -24 -18 -10 -22 -20 -22 -57 -1
-24 -5 -50 -9 -57 -5 -8 -1 -19 10 -27 17 -13 17 -16 4 -25 -13 -9 -13 -12 3
-21 9 -6 15 -14 12 -20 -4 -5 4 -13 17 -18 13 -4 21 -12 19 -17 -2 -5 15 -18
38 -29 24 -12 39 -25 36 -32 -2 -7 1 -13 9 -13 7 0 12 10 12 21 -1 22 12 29
74 43 17 4 26 13 28 28 3 37 -7 68 -23 68 -20 0 -21 76 -1 83 14 6 27 63 18
85 -2 7 -17 19 -33 28 -35 18 -36 28 -6 41 21 10 20 11 -17 27 -22 9 -48 14
-58 10 -21 -6 -48 11 -48 32 0 8 10 14 24 14 13 0 26 5 28 10 2 6 29 14 61 17
61 6 77 26 35 43 -16 6 -18 9 -7 9 39 2 28 61 -12 61 -29 0 -32 18 -2 22 l27
3 -37 34 c-20 19 -34 37 -32 40 11 11 -20 31 -49 31 l-31 0 24 19 24 18 -21
24 c-18 19 -22 20 -22 6 0 -10 -8 -17 -19 -17 -15 0 -20 9 -23 48 -3 26 0 58
5 72 6 14 11 39 13 55 1 17 5 58 8 92 5 49 3 65 -10 77 -13 14 -14 19 -3 32 8
10 9 18 2 22 -13 9 -38 82 -35 102 7 42 13 60 20 56 5 -3 6 8 4 24 -3 21 1 32
12 36 20 8 21 24 1 24 -8 0 -15 5 -15 11 0 7 7 8 18 4 34 -15 62 -17 62 -6 0
6 17 11 40 11 54 0 51 17 -4 25 -45 7 -86 45 -86 80 0 9 -6 18 -13 21 -7 2
-14 14 -14 26 -1 12 -8 25 -15 29 -10 7 -10 9 0 9 6 0 12 7 12 15 0 8 9 15 20
15 25 0 25 16 0 58 -11 18 -20 39 -20 46 0 8 -9 16 -20 19 -27 7 -25 35 3 40
21 4 21 4 1 6 -27 1 -39 28 -22 49 10 12 10 16 1 19 -8 3 -13 23 -13 53 0 41
4 52 26 69 15 12 35 21 45 21 28 0 32 17 4 22 -13 3 -26 2 -27 -2 -5 -13 -72
21 -91 46 -13 17 -15 29 -8 47 10 26 -1 53 -17 43 -13 -8 -42 3 -42 15 0 5 14
9 30 9 37 0 41 26 6 39 -31 12 -37 32 -27 88 9 45 31 73 58 73 18 0 16 28 -2
46 -8 9 -15 24 -15 35 0 10 -7 19 -15 19 -8 0 -15 5 -15 10 0 6 -6 10 -13 10
-23 0 -77 31 -77 44 0 6 5 17 11 23 8 8 7 20 -6 45 -32 60 -35 68 -35 88 0 12
11 38 25 58 29 42 31 82 9 143 -8 24 -16 73 -16 109 0 36 -4 70 -8 75 -17 24
-20 82 -5 95 23 19 18 61 -15 110 -16 25 -30 57 -30 72 0 15 -11 39 -25 54
-14 15 -25 35 -25 46 0 10 -7 34 -15 54 -13 32 -13 36 6 52 11 9 27 29 35 44
7 15 22 29 32 32 10 3 26 21 37 38 10 18 25 39 33 47 8 9 12 25 8 42 -3 17 0
32 9 39 11 9 9 21 -13 70 -16 36 -33 59 -43 60 -30 0 -28 13 6 46 19 18 35 36
35 41 0 9 -37 55 -70 88 -21 22 -26 50 -10 60 6 3 10 19 10 36 0 16 9 38 20
49 16 16 24 18 44 9 14 -7 36 -9 49 -5 19 4 26 14 29 41 2 19 1 35 -3 35 -4 0
-10 35 -14 78 -4 42 -10 82 -15 87 -4 6 -10 41 -13 78 -3 49 -10 74 -25 90
-11 12 -22 40 -25 62 -3 22 -14 71 -25 110 -15 49 -18 73 -10 82 7 9 6 22 -5
45 -16 35 -20 97 -18 263 0 55 -1 110 -4 123 -8 32 -23 27 -17 -5 2 -16 2 -25
-2 -22 -3 3 -7 18 -8 34 -2 18 -14 36 -35 52 -23 18 -33 34 -33 52 0 20 -10
32 -40 51 -35 22 -40 29 -40 61 0 20 -3 51 -6 68 -5 25 -3 31 10 31 9 0 20 8
23 18 4 9 17 34 31 56 18 29 22 47 18 75 -3 20 -3 30 0 24 3 -7 12 -13 19 -13
7 0 15 -6 18 -12 2 -7 7 -10 11 -7 4 4 1 18 -5 33 -9 20 -9 35 -1 65 7 21 12
60 12 86 0 31 6 55 17 67 13 14 14 25 7 45 -9 25 -62 65 -76 57 -8 -5 -44 45
-59 82 -6 16 -13 53 -15 83 -3 30 -9 60 -15 67 -7 8 -7 14 1 19 5 3 10 -1 10
-9 0 -9 4 -16 8 -16 15 0 32 24 32 46 0 37 24 53 65 44 20 -4 42 -13 50 -20
12 -10 16 -9 22 6 4 10 2 19 -5 22 -7 2 -12 12 -12 21 0 12 -13 22 -40 31 -22
7 -47 21 -56 31 -21 23 -14 53 13 57 55 8 60 70 11 138 -29 40 -33 55 -36 121
-4 64 -1 79 17 104 11 15 21 36 21 45 0 20 -28 43 -51 44 -16 0 -29 19 -29 41
0 5 8 9 18 9 29 0 42 21 42 67 0 24 5 52 12 62 9 15 8 24 -6 45 -16 26 -16 29
4 86 l21 59 -26 78 c-14 42 -25 82 -25 88 0 5 11 33 25 60 28 57 33 126 10
145 -8 7 -15 19 -15 26 0 8 -11 19 -25 24 -21 8 -25 16 -23 41 2 21 9 34 20
37 10 2 19 12 20 21 4 37 5 47 11 61 3 8 5 27 4 42 -2 32 -30 38 -46 11 -9
-17 -10 -17 -16 -1 -4 9 -13 14 -21 11 -16 -6 -17 16 -4 57 8 24 8 24 9 3 1
-18 7 -23 30 -23 16 0 32 -6 34 -12 4 -9 8 -9 14 -3 4 6 26 19 49 31 31 15 45
18 58 10 14 -8 20 -8 23 2 6 14 33 16 33 2 0 -5 9 -10 19 -10 42 0 52 -11 45
-46 -4 -21 -2 -40 5 -48 7 -8 11 -42 10 -81 -2 -77 7 -88 63 -79 36 5 98 -16
98 -35 0 -5 8 -11 18 -13 16 -4 19 2 21 41 1 25 9 56 17 69 9 13 13 29 11 35
-3 8 13 12 52 11 82 -2 119 -22 140 -75 12 -33 53 -43 70 -17 6 10 7 18 2 18
-11 0 -22 52 -21 101 0 21 -8 46 -20 61 -11 15 -20 38 -20 52 0 19 -5 26 -19
26 -10 0 -22 7 -25 16 -5 13 -16 15 -51 12 -44 -5 -45 -5 -45 23 0 32 -26 41
-32 12 -2 -11 -13 -18 -27 -18 -19 0 -26 -7 -32 -29 -5 -19 -4 -35 3 -43 8
-10 4 -18 -13 -32 -13 -11 -26 -15 -30 -10 -3 5 -14 2 -25 -6 -19 -14 -19 -15
5 -34 15 -12 22 -24 18 -35 -8 -21 -43 -21 -51 0 -3 9 -12 14 -20 11 -16 -6
-76 42 -60 49 7 3 10 13 7 22 -2 10 7 28 21 41 17 16 26 20 26 11 0 -10 3 -11
11 -3 7 7 5 22 -8 49 -15 33 -23 39 -53 42 -28 2 -41 -3 -60 -23 -26 -28 -50
-33 -50 -10 0 8 -9 15 -19 15 -22 0 -51 35 -51 61 0 44 71 80 106 54 25 -19
74 -18 98 0 14 11 22 12 27 4 4 -6 12 -8 18 -4 9 5 7 11 -6 21 -14 11 -15 13
-3 14 12 1 12 3 -2 14 -31 23 -22 43 23 50 46 7 69 -8 69 -46 0 -14 12 -33 30
-48 17 -14 30 -30 30 -36 0 -6 7 -17 15 -24 12 -10 18 -10 30 0 8 6 19 9 25 5
5 -3 10 -1 10 4 0 6 6 11 14 11 24 0 29 20 10 41 -17 19 -17 20 5 36 l24 16
-35 21 c-19 12 -58 44 -86 72 -44 43 -52 57 -52 87 0 20 -7 56 -15 81 -8 24
-12 52 -9 63 11 34 38 83 46 83 5 0 8 9 8 20 0 11 6 20 14 20 8 0 19 14 25 30
8 24 16 30 39 30 35 0 72 37 72 72 0 32 10 59 19 54 4 -3 13 -1 21 5 9 5 -231
9 -622 9 -615 0 -638 -1 -683 -20 -28 -12 -45 -25 -42 -33 2 -6 1 -37 -3 -67
-7 -53 -6 -56 24 -82 26 -22 29 -29 20 -45 -10 -16 -6 -23 27 -46 41 -29 49
-56 25 -76 -8 -7 -15 -20 -15 -29 0 -9 -3 -31 -6 -47 -7 -33 24 -85 51 -85 8
0 14 -3 14 -7 3 -90 11 -145 23 -176 14 -31 15 -47 6 -88 -6 -27 -9 -55 -7
-62 6 -17 -29 -50 -36 -34 -3 7 -3 2 0 -11 4 -15 0 -24 -10 -28 -9 -3 -16 -12
-16 -19 0 -15 -19 -22 -67 -24 -18 -1 -33 3 -33 9 0 18 -20 11 -50 -17 -41
-40 -45 -66 -17 -97 19 -20 23 -34 21 -73 -2 -27 -9 -52 -18 -58 -15 -11 -17
-87 -3 -101 10 -10 9 -42 -2 -46 -15 -5 -17 -40 -3 -45 6 -3 12 2 12 10 0 9 6
22 13 29 6 7 13 27 15 43 2 17 10 33 17 38 8 4 11 15 8 24 -4 9 0 21 10 27 8
7 19 27 24 46 11 42 53 63 53 26 0 -13 10 -30 22 -38 29 -19 15 -42 -21 -34
-25 6 -25 6 -7 -9 11 -8 27 -16 35 -16 9 -1 21 -2 26 -4 6 -1 20 -3 33 -3 13
-1 21 -6 18 -11 -3 -5 0 -14 8 -20 11 -9 15 -9 18 1 3 8 7 6 11 -5 10 -26 -20
-33 -44 -11 -19 17 -21 17 -45 -7 -22 -22 -23 -28 -13 -57 6 -18 9 -41 6 -52
-3 -12 0 -17 8 -14 10 4 12 -5 8 -38 -5 -35 -3 -41 8 -30 20 19 29 15 29 -14
0 -29 -17 -66 -36 -77 -9 -5 -14 -26 -14 -52 0 -38 -3 -45 -19 -45 -11 0 -23
5 -26 10 -3 6 -16 10 -29 10 -12 0 -27 5 -33 11 -6 6 -17 8 -25 3 -9 -6 -6
-10 12 -14 14 -3 30 -16 36 -29 6 -12 21 -29 34 -38 15 -11 19 -18 11 -26 -15
-15 -14 -27 3 -27 8 0 16 -7 20 -15 3 -9 0 -15 -9 -15 -8 0 -15 -4 -15 -10 0
-5 6 -10 14 -10 18 0 29 -31 20 -54 -3 -9 0 -24 7 -33 10 -11 10 -17 3 -20 -6
-2 -9 -15 -6 -29 3 -17 -1 -29 -14 -38 -14 -11 -16 -17 -7 -27 14 -18 10 -98
-5 -108 -9 -6 -8 -14 7 -32 22 -28 45 -105 36 -119 -3 -6 -1 -10 4 -10 6 0 2
-9 -9 -20 -25 -25 -25 -37 -1 -45 23 -7 48 2 55 21 3 8 12 14 19 14 8 0 20 7
27 15 10 12 9 15 -8 15 -32 0 -45 57 -17 80 21 17 52 3 62 -28 14 -45 4 -96
-25 -130 -24 -28 -31 -31 -65 -25 -20 3 -37 10 -37 14 0 5 -9 9 -19 9 -10 0
-21 7 -25 15 -3 8 -15 15 -26 15 -18 0 -19 -3 -10 -20 6 -11 22 -31 35 -44 33
-33 33 -73 1 -86 -13 -5 -27 -13 -30 -19 -11 -18 13 -22 38 -6 22 14 25 14 40
0 12 -12 14 -27 10 -53 -5 -30 -2 -41 15 -56 12 -11 21 -25 21 -32 0 -21 -30
-44 -56 -44 -28 0 -101 -66 -81 -73 9 -3 9 -8 -2 -20 -17 -22 3 -50 30 -42 9
3 20 1 24 -5 3 -6 -3 -10 -14 -10 -14 0 -21 -6 -21 -20 0 -15 7 -20 25 -20 23
0 25 -4 25 -43 0 -34 4 -44 23 -52 13 -6 23 -20 24 -35 2 -47 15 -70 37 -70
20 -1 19 -2 -7 -25 -24 -21 -32 -23 -50 -13 -26 13 -52 38 -40 38 4 0 -5 11
-20 25 -15 14 -27 32 -27 40 0 14 -15 20 -64 27 -12 2 -23 14 -27 31 -6 22 -4
27 10 27 14 0 17 6 13 26 -4 20 -1 25 9 22 8 -3 13 -13 13 -22 -2 -13 1 -14
12 -5 11 9 14 8 14 -2 0 -10 3 -10 12 -1 10 10 7 16 -10 28 -12 8 -22 21 -22
28 0 15 -42 56 -58 56 -7 0 -12 9 -12 20 0 23 -15 27 -24 5 -3 -8 -15 -15 -26
-15 -13 0 -20 -7 -20 -19 0 -28 -28 -34 -71 -14 -52 24 -54 59 -4 69 28 5 35
11 35 30 0 32 28 32 80 -1 22 -14 40 -21 40 -16 0 21 -24 61 -37 61 -7 0 -13
7 -13 16 0 9 -10 28 -21 42 -17 21 -20 23 -15 7 4 -16 -2 -24 -33 -39 -28 -13
-37 -23 -34 -36 6 -24 -35 -49 -48 -29 -5 8 -7 24 -4 36 4 16 -2 27 -20 39
-20 13 -23 19 -13 31 29 36 118 58 133 33 3 -5 10 -10 16 -10 19 0 7 16 -31
39 -22 14 -38 27 -35 29 2 3 -9 22 -26 43 -20 25 -39 39 -54 39 -12 0 -25 7
-29 15 -3 8 -15 15 -26 15 -15 0 -20 7 -20 25 0 14 -4 25 -10 25 -5 0 -10 9
-10 21 0 11 4 18 9 15 4 -3 14 12 21 34 12 35 11 42 -3 58 -10 10 -17 30 -17
44 0 17 -7 27 -20 31 -12 3 -20 14 -20 25 0 28 38 17 46 -14 4 -14 11 -21 20
-17 9 3 14 -2 14 -14 0 -10 8 -23 19 -30 10 -6 21 -25 24 -41 3 -16 18 -43 32
-58 l26 -29 -6 50 c-4 28 -11 55 -16 61 -5 7 -9 16 -8 20 5 30 -2 45 -20 39
-13 -4 -25 5 -45 33 -33 48 -27 76 15 70 22 -4 29 -1 29 12 0 9 -3 20 -7 24
-5 4 -9 11 -9 14 -6 28 -18 52 -26 52 -16 0 0 81 19 102 18 20 18 20 -14 37
-17 8 -24 24 -29 60 -5 38 -11 51 -26 55 -15 3 -19 10 -15 26 3 12 1 34 -5 49
-6 14 -12 64 -14 110 -3 76 -1 86 18 99 15 11 17 16 7 23 -9 5 -6 9 12 13 71
15 66 13 42 21 -23 7 -32 35 -12 35 5 0 7 5 3 11 -4 8 -9 8 -17 0 -6 -6 -30
-11 -54 -11 -42 0 -48 5 -44 38 2 17 -14 15 -29 -3 -7 -8 -16 -15 -21 -15 -5
0 -9 7 -9 15 0 8 -4 15 -10 15 -14 0 -13 43 2 58 7 7 25 12 40 12 15 0 28 3
28 8 0 4 21 8 45 8 25 1 49 5 53 8 13 14 -24 26 -74 24 -68 -1 -80 7 -59 38
15 24 15 24 -17 24 -24 0 -29 3 -18 10 8 5 11 12 8 15 -12 13 -29 -7 -23 -26
5 -14 0 -21 -17 -28 -13 -4 -29 -6 -35 -4 -22 8 -14 43 11 54 20 10 23 15 16
39 -5 16 -6 31 -2 34 10 11 40 6 45 -6 9 -21 28 14 21 36 -8 23 14 38 37 25
11 -5 27 -5 41 0 20 8 21 10 6 16 -10 4 -18 13 -18 21 0 8 -7 14 -15 14 -8 0
-15 7 -15 15 0 8 6 12 14 9 17 -7 29 48 13 58 -19 12 -30 9 -23 -7 3 -8 1 -15
-3 -15 -5 0 -18 -3 -28 -6 -13 -4 -14 -3 -5 4 11 7 11 10 -2 15 -24 10 -19 36
9 43 13 3 30 13 37 22 7 9 8 13 2 9 -7 -4 -14 2 -17 13 -7 26 -24 26 -32 0 -8
-24 -18 -25 -40 -4 -21 22 -15 36 24 56 46 23 46 22 2 51 -34 23 -41 33 -47
74 -4 26 -13 57 -21 69 -15 23 -9 49 13 58 8 3 14 13 14 21 0 26 26 45 61 45
22 0 30 3 23 10 -6 6 -21 6 -43 0 -26 -7 -39 -6 -58 7 l-25 17 23 9 c21 9 21
11 6 14 -16 4 -97 76 -97 86 0 3 13 10 29 17 21 8 27 17 24 30 -3 12 3 23 16
31 15 10 19 20 14 37 -5 23 -4 24 28 17 43 -10 89 -44 82 -61 -3 -9 2 -14 16
-14 12 0 21 -6 21 -15 0 -11 -11 -15 -36 -15 -31 0 -35 -2 -24 -15 6 -8 9 -19
5 -25 -4 -7 3 -19 16 -28 21 -15 22 -16 3 -24 -18 -7 -18 -8 1 -5 11 2 19 9
17 17 -4 15 16 30 41 30 19 0 23 -26 5 -33 -24 -8 8 -30 32 -22 13 4 18 10 12
14 -7 4 -8 12 -2 21 14 21 12 60 -2 60 -6 0 -8 3 -5 7 4 3 1 13 -5 21 -10 11
-8 17 7 28 10 8 16 15 12 15 -4 1 -11 2 -17 3 -5 0 -19 9 -30 19 -16 13 -19
22 -11 30 6 8 8 36 4 69 l-6 57 -76 -1 -77 0 1 -32 c0 -22 4 -30 15 -27 68 17
74 12 36 -32 -16 -19 -31 -27 -43 -23 -24 7 -52 -15 -50 -40 2 -16 -3 -18 -28
-16 -37 5 -41 9 -50 50 -6 28 -4 34 12 38 17 5 21 21 15 72 -2 14 -63 17 -78
2 -5 -5 -24 -6 -49 0 -60 14 -102 12 -108 -5 -4 -8 -2 -17 3 -20 13 -8 -29
-75 -47 -75 -10 0 -12 6 -8 20 5 17 1 21 -24 26 -36 7 -39 19 -11 34 37 20 20
30 -52 30 -63 0 -70 -2 -53 -14z m80 -206 c3 -11 10 -20 15 -20 5 0 13 -23 20
-52 6 -29 18 -61 28 -72 12 -14 14 -20 5 -23 -7 -3 -13 -16 -13 -29 0 -27 -18
-37 -87 -48 -27 -4 -43 -2 -43 4 0 5 9 10 20 10 17 0 20 7 20 40 0 27 5 43 15
46 12 5 13 9 3 21 -6 8 -14 36 -16 61 -2 26 -8 52 -13 58 -11 13 -1 24 22 24
10 0 21 -9 24 -20z m304 -118 c23 3 26 0 23 -27 -2 -16 -9 -36 -14 -42 -8 -10
-6 -13 5 -13 9 0 19 5 22 10 8 12 55 13 55 1 0 -5 -16 -19 -36 -31 -43 -24
-90 -24 -86 1 1 9 -4 19 -13 22 -8 4 -12 13 -9 21 3 8 1 23 -5 33 -10 17 -11
16 -17 -4 -3 -13 -10 -23 -15 -23 -5 0 -9 -4 -9 -10 0 -5 7 -10 15 -10 9 0 15
-9 15 -25 0 -18 -5 -25 -20 -25 -19 0 -25 11 -20 35 1 5 -4 27 -11 47 -9 29
-9 40 0 52 11 13 17 13 53 0 23 -8 53 -13 67 -12z m639 -2564 c28 -23 4 -98
-32 -98 -34 0 -28 -29 13 -69 47 -45 50 -58 17 -67 -25 -6 -74 14 -95 40 -8 9
-22 16 -32 16 -11 0 -19 5 -19 10 0 6 9 10 20 10 25 0 26 17 3 23 -10 3 -1 5
20 6 20 0 37 6 37 11 0 6 -4 10 -9 10 -6 0 -11 17 -13 37 -2 30 -8 38 -27 43
-21 5 -22 7 -7 19 9 7 16 11 16 7 0 -4 12 0 28 8 27 15 56 13 80 -6z m240
-294 c13 -4 22 -14 22 -26 0 -11 8 -22 18 -25 31 -8 54 -57 42 -88 -9 -23 -15
-26 -47 -23 -22 2 -38 -2 -41 -10 -2 -6 -8 -12 -14 -12 -6 0 -16 -7 -23 -16
-9 -14 -16 -14 -33 -5 -29 15 -30 45 -1 38 15 -4 19 -1 17 11 -2 9 -14 19 -27
22 -24 5 -50 50 -30 50 7 0 9 9 6 22 -8 30 10 61 33 55 10 -2 24 -1 31 4 17
10 18 10 47 3z m-258 -79 c6 -8 9 -23 6 -33 -5 -14 -1 -21 13 -25 12 -3 23
-17 26 -33 12 -54 12 -54 59 -48 44 6 45 6 65 -34 37 -72 19 -158 -28 -133
-27 15 -31 14 -25 -4 4 -9 0 -15 -10 -15 -9 0 -16 -8 -16 -20 0 -15 -7 -20
-26 -20 -18 0 -25 -5 -23 -17 3 -25 -11 -53 -26 -53 -7 0 -15 -9 -18 -20 -7
-26 -39 -26 -55 0 -7 12 -23 25 -36 30 -31 12 -42 50 -15 57 10 3 19 12 19 19
0 18 -32 32 -38 16 -10 -32 -19 -6 -15 46 8 115 9 119 43 149 28 26 32 35 32
80 0 42 4 53 22 61 29 14 32 14 46 -3z m-152 -456 c4 -11 19 -26 32 -32 30
-15 39 -56 15 -73 -11 -8 -17 -28 -18 -58 -1 -25 -5 -46 -9 -46 -12 0 -40 68
-33 79 9 16 -14 51 -34 51 -13 0 -20 10 -25 38 -10 60 -9 62 29 62 27 0 38 -5
43 -21z m155 -514 c16 -20 33 -32 41 -29 9 4 20 -7 31 -30 23 -48 35 -56 74
-48 26 6 35 13 38 32 5 32 11 37 20 14 3 -10 19 -32 35 -48 15 -17 28 -33 28
-38 0 -4 -22 -8 -50 -8 -36 0 -50 -4 -50 -14 0 -8 -7 -16 -15 -20 -8 -3 -15
-14 -15 -25 0 -24 -51 -37 -106 -27 l-35 7 3 52 c3 49 5 52 33 57 18 3 30 11
30 20 0 9 -7 14 -17 12 -13 -2 -18 4 -18 20 0 17 -3 19 -12 10 -24 -24 -38
-13 -38 28 0 22 -4 40 -10 40 -5 0 -10 7 -10 15 0 24 13 18 43 -20z m904
-3695 c-3 -11 -1 -20 4 -20 5 0 9 -9 9 -20 0 -11 3 -20 8 -20 4 0 13 -9 20
-20 10 -16 10 -24 0 -40 -7 -11 -18 -20 -25 -20 -7 0 -13 -7 -13 -15 0 -11
-11 -15 -40 -15 -38 0 -40 2 -40 29 0 16 6 32 13 35 10 5 10 7 0 12 -24 11
-14 53 20 84 38 35 51 38 44 10z"/>
<path d="M6973 10214 c0 -16 5 -24 17 -24 11 0 21 -14 29 -40 6 -22 16 -40 21
-40 6 0 10 -9 10 -20 0 -28 21 -70 35 -70 23 0 50 -36 52 -69 l1 -33 -45 5
c-25 3 -49 11 -54 18 -7 11 -9 10 -9 -4 0 -9 11 -23 25 -29 14 -6 25 -15 25
-20 0 -14 28 -9 33 6 3 8 22 16 43 18 42 3 60 28 21 28 -19 0 -26 6 -29 28 -3
15 -9 35 -13 45 -5 12 -3 17 9 17 9 0 16 5 16 10 0 6 -10 10 -22 10 -46 0 -69
37 -64 99 3 40 -6 61 -19 41 -10 -16 -21 -12 -35 14 -18 35 -47 40 -47 10z"/>
<path d="M5579 10225 c-3 -23 -1 -86 4 -91 3 -3 19 2 36 11 18 9 36 13 41 10
16 -10 0 -33 -31 -44 -16 -5 -29 -14 -29 -19 0 -6 -13 -9 -30 -8 -25 2 -30 -2
-30 -20 0 -18 5 -22 33 -20 26 1 33 -3 35 -21 5 -32 20 -29 24 5 2 17 8 26 17
24 63 -14 68 -13 75 4 4 11 1 21 -9 26 -8 5 -15 16 -15 23 0 8 -4 15 -8 15
-12 0 -8 42 6 68 7 12 20 22 30 23 10 0 12 3 5 6 -7 2 -33 -3 -58 -12 -47 -19
-75 -15 -75 10 0 13 -19 23 -21 10z"/>
<path d="M10630 9975 c-10 -20 -11 -27 0 -40 7 -8 10 -22 6 -30 -3 -8 -3 -28
0 -44 5 -22 10 -27 25 -24 25 7 103 -31 123 -59 15 -21 16 -16 16 88 l0 110
-37 0 c-20 0 -38 5 -41 12 -2 7 -21 12 -41 12 -30 0 -40 -5 -51 -25z"/>
<path d="M3716 9485 c4 -15 2 -25 -5 -25 -6 0 -11 -4 -11 -10 0 -5 7 -10 15
-10 13 0 15 -11 10 -67 -4 -38 -8 -78 -11 -90 -2 -12 1 -25 6 -28 6 -4 8 -10
5 -15 -3 -5 4 -26 16 -46 l21 -38 -25 -22 -24 -21 28 -33 c16 -18 29 -35 29
-37 0 -2 -9 -22 -20 -43 -11 -22 -16 -40 -10 -40 5 0 10 5 10 10 0 6 4 10 9
10 5 0 12 -21 16 -46 6 -45 -5 -76 -27 -71 -13 3 -30 -41 -18 -48 5 -3 7 -12
3 -20 -3 -10 1 -15 12 -15 12 0 15 5 10 20 -5 16 -2 20 15 20 27 0 39 -34 29
-79 -6 -26 -4 -40 6 -51 8 -8 18 -26 22 -38 9 -23 9 -23 25 10 42 88 42 84 22
112 -11 14 -22 26 -26 26 -5 0 -8 8 -8 18 0 10 -6 24 -12 30 -15 15 -28 122
-42 356 -3 49 -9 92 -14 95 -5 3 -8 26 -6 51 1 25 -4 58 -12 75 -9 17 -12 41
-9 57 6 24 3 28 -14 28 -18 0 -20 -4 -15 -25z"/>
<path d="M10036 9490 c-64 -8 -90 -43 -70 -94 8 -22 27 -20 49 4 14 16 31 20
82 20 l63 0 0 41 c0 36 -2 40 -15 29 -11 -9 -22 -10 -38 -4 -12 6 -44 7 -71 4z"/>
<path d="M9852 9308 c-7 -7 -12 -34 -12 -60 0 -43 2 -48 23 -48 24 -1 57 -22
57 -37 0 -5 -16 -15 -35 -21 -23 -9 -32 -18 -28 -27 3 -8 11 -15 19 -15 16 0
19 -26 4 -35 -16 -10 -12 -45 16 -128 21 -64 24 -84 15 -103 -8 -19 -7 -34 4
-66 7 -23 12 -45 9 -49 -2 -4 11 -20 31 -35 19 -14 39 -40 44 -58 9 -28 10
-29 16 -10 4 12 18 27 31 35 21 11 27 11 34 -1 7 -10 10 2 12 40 2 60 1 67 -8
122 -5 29 -2 41 16 60 15 17 20 31 17 53 -16 97 -20 115 -27 115 -4 0 -10 22
-14 49 -6 43 -11 52 -41 70 -19 11 -35 25 -35 32 0 7 -13 9 -39 4 -45 -7 -57
5 -69 77 -8 44 -20 56 -40 36z"/>
<path d="M3868 8393 c-12 -3 -18 -14 -18 -32 0 -56 -12 -89 -36 -100 -34 -15
-30 -26 16 -40 22 -6 44 -21 50 -31 9 -17 14 -18 31 -7 17 10 23 9 40 -12 19
-23 19 -23 19 -2 0 12 -11 38 -24 59 -14 20 -28 60 -31 87 -8 63 -15 85 -23
84 -4 -1 -15 -3 -24 -6z"/>
<path d="M3920 7937 c0 -26 -4 -55 -9 -65 -13 -23 -35 -181 -27 -189 3 -4 12
2 20 12 19 26 25 8 16 -55 -4 -30 -4 -60 1 -65 4 -6 13 -23 18 -38 10 -25 8
-29 -14 -39 -14 -6 -25 -19 -25 -29 0 -16 4 -17 26 -9 35 14 44 5 42 -41 -1
-22 4 -45 10 -51 9 -9 6 -20 -9 -45 -21 -33 -21 -35 -4 -73 9 -21 14 -43 11
-48 -3 -6 1 -17 9 -25 19 -20 19 -33 0 -41 -10 -4 -15 -20 -15 -51 0 -38 3
-45 20 -45 24 0 25 -11 5 -50 -9 -17 -11 -30 -5 -30 5 0 10 -18 10 -40 0 -32
4 -40 19 -40 13 0 25 -15 40 -49 11 -27 21 -56 21 -63 1 -18 25 -48 39 -48 15
0 14 41 -4 82 -12 29 -12 38 -1 53 12 16 14 16 33 -9 12 -14 31 -26 43 -26 31
0 25 54 -7 58 -13 2 -23 8 -23 15 0 8 -3 8 -12 -1 -16 -16 -45 -15 -51 1 -2 6
-1 21 4 32 13 34 10 82 -7 95 -11 10 -14 23 -9 51 8 45 -1 79 -20 79 -16 0
-22 22 -35 137 -5 49 -17 107 -25 127 -14 33 -14 38 5 73 27 51 25 75 -10 106
-30 27 -37 56 -24 104 9 34 51 36 74 3 11 -16 20 -33 20 -40 0 -6 6 -10 13 -8
21 7 20 55 -2 77 -19 19 -19 51 0 51 5 0 9 4 9 10 0 6 -10 5 -26 -2 -20 -10
-27 -9 -34 2 -11 18 -25 5 -25 -23 0 -13 -7 -23 -19 -25 -17 -4 -18 2 -11 102
7 103 7 106 -13 106 -12 0 -26 8 -31 18 -8 13 -10 7 -11 -31z"/>
<path d="M5040 7935 c0 -8 -4 -15 -9 -15 -17 0 -19 -42 -4 -85 10 -30 11 -49
5 -62 -6 -11 -7 -35 -2 -63 5 -25 9 -65 10 -89 0 -55 35 -131 59 -131 35 0 52
-105 26 -162 -5 -13 -3 -18 8 -18 8 0 18 11 21 25 4 14 11 25 16 25 6 0 8 16
4 42 -9 54 9 69 69 56 23 -4 60 -11 82 -15 l40 -6 -40 44 c-39 43 -53 49 -67
26 -12 -19 -28 12 -28 54 0 28 -4 36 -16 35 -26 -2 -41 30 -26 55 8 13 10 24
4 28 -5 3 -12 21 -15 39 -4 19 -19 57 -33 85 -15 29 -34 66 -42 82 -28 56 -62
83 -62 50z"/>
<path d="M6380 7405 c0 -20 -6 -37 -16 -43 -12 -7 -14 -18 -7 -57 7 -41 13
-50 33 -55 22 -5 24 -10 22 -48 -3 -30 2 -50 17 -71 12 -16 19 -36 15 -44 -3
-8 0 -34 6 -57 9 -35 9 -45 -4 -59 -24 -26 -21 -48 4 -26 11 10 28 15 40 12
16 -4 20 0 20 17 0 12 5 27 12 34 9 9 6 12 -15 12 -17 0 -27 5 -26 13 1 6 -4
25 -11 40 -11 23 -12 41 -2 95 9 53 8 68 -3 76 -7 6 -15 20 -17 31 -2 12 -13
21 -27 23 -22 4 -23 6 -19 73 4 54 2 69 -8 69 -9 0 -14 -12 -14 -35z"/>
<path d="M3218 7418 c-15 -5 -30 -19 -34 -31 -3 -12 -17 -34 -31 -49 -14 -14
-22 -31 -18 -38 4 -6 2 -16 -3 -23 -10 -12 -20 -63 -26 -128 -2 -20 -7 -46
-11 -58 -4 -12 -1 -45 5 -72 9 -37 9 -54 1 -62 -15 -15 -14 -37 3 -37 18 0 28
-56 17 -100 -5 -19 -9 -29 -10 -22 -1 6 -8 12 -16 12 -13 0 -15 9 -9 51 6 42
4 51 -7 47 -8 -3 -17 -22 -20 -43 -6 -35 -24 -58 -64 -83 -17 -11 -55 -81 -55
-103 0 -31 17 -22 61 34 l42 52 -6 -65 c-4 -38 -3 -59 2 -50 8 13 24 86 25
115 1 6 18 10 39 11 28 1 44 -6 67 -27 16 -16 25 -29 20 -29 -6 0 -10 -6 -10
-14 0 -7 -10 -24 -22 -38 -65 -72 -69 -88 -15 -60 36 19 48 32 40 44 -2 5 1
16 8 24 16 19 16 98 0 118 -7 8 -9 25 -6 39 4 16 2 26 -7 29 -9 4 -12 20 -10
52 3 36 8 46 21 46 29 0 53 -34 45 -64 -5 -20 -3 -26 11 -26 9 0 19 9 22 20 5
21 10 23 53 24 31 1 34 30 4 34 -16 2 -20 9 -17 25 7 37 -14 75 -59 104 -24
15 -44 31 -46 34 -1 3 -13 4 -26 2 -13 -3 -26 -1 -29 4 -14 23 39 185 83 250
34 50 30 66 -12 51z"/>
<path d="M6145 7306 c-28 -28 -42 -51 -39 -61 4 -10 0 -15 -10 -15 -16 0 -18
-6 -21 -105 -1 -45 -4 -50 -32 -62 -31 -12 -32 -13 -16 -43 10 -21 20 -29 30
-26 8 3 17 6 19 6 2 0 4 6 4 14 0 7 6 19 14 25 11 10 13 28 9 83 -4 48 -3 69
4 65 6 -4 13 -20 16 -36 4 -17 14 -34 24 -40 16 -8 18 -5 18 29 0 21 -3 34 -7
27 -6 -9 -5 22 2 53 0 3 9 -5 18 -16 16 -19 21 -20 37 -8 18 13 17 14 -8 14
-29 0 -32 6 -17 30 6 9 23 14 49 13 47 -2 55 15 12 23 -23 5 -31 13 -36 35
-10 45 -23 44 -70 -5z"/>
<path d="M5023 7138 c-30 -14 -36 -50 -22 -131 10 -55 10 -73 0 -89 -9 -14
-11 -41 -7 -87 4 -36 8 -92 11 -125 3 -32 12 -72 20 -89 8 -17 15 -36 15 -44
0 -7 5 -13 10 -13 6 0 10 -18 10 -40 0 -22 7 -57 15 -76 8 -20 13 -40 10 -44
-9 -14 -43 1 -48 21 -5 20 -32 26 -42 10 -3 -5 8 -30 23 -55 22 -34 32 -42 40
-34 26 26 37 -11 39 -132 1 -66 7 -128 12 -139 6 -11 11 -40 11 -66 0 -25 7
-56 15 -68 10 -16 14 -45 13 -91 -2 -52 1 -71 13 -80 9 -6 14 -16 12 -22 -2
-6 10 -14 28 -18 47 -9 55 -8 41 6 -9 9 -5 15 17 24 17 7 38 10 49 8 10 -3 24
1 31 9 14 18 5 63 -15 71 -18 7 -64 -39 -64 -63 0 -17 -38 -37 -48 -26 -7 6
-5 52 3 109 6 36 4 50 -6 57 -11 7 -10 9 4 9 21 0 21 15 3 66 -8 23 -10 47 -5
59 11 28 11 83 0 89 -5 3 -7 16 -4 27 4 12 -3 40 -14 63 -29 58 -42 120 -30
143 13 22 28 33 39 27 4 -3 8 5 8 17 0 12 7 30 16 40 15 17 14 21 -15 61 -36
49 -39 76 -11 106 25 27 25 42 1 42 -31 0 -47 32 -43 84 3 33 8 46 19 46 9 0
22 8 29 18 16 20 18 62 4 62 -5 0 -10 -6 -10 -14 0 -22 -47 -66 -71 -66 -21 0
-22 3 -16 58 4 31 10 68 13 82 l6 25 -20 -25 c-17 -20 -22 -22 -36 -11 -14 12
-15 28 -10 105 7 102 -1 123 -43 104z"/>
<path d="M5512 6654 c-7 -8 -21 -14 -32 -14 -10 0 -22 -4 -25 -10 -3 -5 -15
-10 -26 -10 -10 0 -19 -4 -19 -10 0 -5 7 -10 15 -10 8 0 15 -4 15 -10 0 -16
-46 -12 -60 5 -7 8 -16 12 -21 9 -5 -3 -9 0 -9 6 0 16 -43 29 -57 18 -22 -17
-15 -39 26 -79 30 -30 46 -39 72 -38 81 1 129 38 129 101 0 20 6 27 23 30 21
3 22 4 2 15 -15 8 -23 8 -33 -3z"/>
<path d="M6064 6335 c4 -10 -3 -19 -18 -25 -14 -5 -28 -15 -33 -23 -4 -8 -25
-20 -47 -27 -28 -9 -35 -15 -25 -21 11 -7 10 -9 -3 -9 -10 0 -18 -4 -18 -10 0
-5 5 -10 11 -10 6 0 9 -6 6 -14 -8 -21 60 -30 112 -16 40 11 42 12 35 44 -3
20 -1 36 5 40 15 9 14 59 -1 74 -17 17 -31 15 -24 -3z"/>
<path d="M4993 6304 c-3 -9 -1 -32 6 -50 12 -32 8 -74 -7 -74 -4 0 -13 9 -20
20 -15 24 -47 26 -56 4 -8 -21 19 -64 40 -64 20 0 34 -40 22 -64 -13 -24 -1
-83 18 -90 25 -9 62 -7 69 4 4 6 0 22 -9 35 -16 24 -17 140 -2 176 5 11 0 22
-14 32 -16 11 -19 19 -12 38 5 13 7 30 5 37 -7 17 -33 15 -40 -4z"/>
<path d="M4219 6228 c-2 -25 3 -43 17 -59 8 -8 14 -32 14 -52 0 -29 -4 -36
-22 -40 -19 -4 -18 -4 5 -6 35 -1 67 -18 67 -34 0 -7 9 -19 20 -27 11 -8 20
-21 20 -28 0 -8 6 -12 13 -9 6 2 12 20 12 40 0 19 3 39 8 43 11 11 8 24 -5 24
-17 0 -83 73 -110 121 -22 39 -37 49 -39 27z"/>
<path d="M6151 6154 c-7 -15 -21 -34 -32 -42 -10 -7 -19 -20 -19 -27 0 -8 -13
-21 -30 -30 -16 -9 -30 -19 -30 -23 1 -38 86 -55 140 -27 32 16 32 17 26 68
-4 29 -13 59 -20 67 -8 8 -15 21 -18 29 -2 8 -9 2 -17 -15z"/>
<path d="M6229 5969 c-9 -5 -20 -25 -23 -44 -4 -20 -16 -41 -26 -48 -11 -6
-20 -17 -20 -24 0 -7 -7 -13 -15 -13 -19 0 -19 -14 -1 -29 45 -37 146 -12 146
36 0 12 -4 25 -10 28 -5 3 -10 23 -10 44 0 44 -17 64 -41 50z"/>
<path d="M4800 5651 c0 -5 -13 -23 -30 -41 -16 -18 -30 -41 -30 -52 0 -15 -5
-18 -20 -13 -24 8 -60 -2 -60 -17 0 -6 12 -8 30 -4 26 5 30 3 30 -17 0 -42 12
-67 31 -67 30 0 24 -38 -6 -46 -14 -3 -25 -11 -25 -18 0 -19 39 -37 65 -30 30
8 32 -5 4 -29 -11 -10 -19 -24 -16 -31 8 -21 -52 -6 -69 18 -17 22 -17 22 -3
-50 1 -5 1 -25 0 -45 -1 -28 -7 -38 -26 -47 -29 -13 -30 -21 -11 -47 12 -17
16 -17 47 -5 36 15 58 37 59 58 0 21 55 67 74 64 11 -2 15 -9 12 -19 -3 -8 -6
-16 -6 -17 0 -2 -10 -1 -22 1 -18 3 -27 -3 -40 -29 -24 -46 -33 -98 -17 -98
37 0 109 69 109 105 0 9 7 23 15 31 12 13 15 13 15 2 0 -9 12 -14 35 -14 43 0
56 -12 31 -30 -11 -7 -17 -16 -14 -19 7 -7 58 12 58 22 0 5 10 19 21 33 13 16
19 19 15 8 -6 -20 10 -34 17 -16 3 8 6 6 6 -4 1 -10 -3 -18 -8 -18 -14 0 -25
-40 -14 -51 6 -6 15 -4 23 6 16 19 30 19 30 -1 0 -8 5 -12 10 -9 16 10 12 45
-6 45 -11 0 -14 5 -10 16 3 9 6 23 6 32 0 24 58 23 71 0 8 -15 6 -18 -11 -18
-29 0 -25 -18 6 -26 24 -6 37 2 47 29 4 13 37 -4 37 -19 0 -16 42 -19 68 -5 9
4 40 11 67 14 49 5 51 4 74 -29 14 -20 32 -34 44 -34 19 0 19 1 4 18 -24 26
-21 36 5 18 12 -9 36 -16 52 -16 18 0 37 -9 52 -26 24 -25 33 -51 14 -39 -5 3
-10 1 -10 -5 0 -7 8 -9 21 -5 15 5 22 2 26 -13 3 -12 16 -22 31 -25 35 -7 38
-2 22 28 -12 22 -12 28 2 41 15 15 17 14 28 -6 8 -14 17 -19 28 -15 14 5 15 4
5 -6 -7 -7 -13 -21 -13 -32 0 -11 5 -17 13 -14 6 2 11 10 9 17 -2 7 5 9 18 5
15 -5 20 -2 21 12 2 33 -2 50 -20 86 -13 25 -21 33 -29 25 -7 -7 -14 2 -23 32
-8 26 -20 45 -31 48 -10 2 -18 10 -18 17 0 7 -5 15 -12 17 -6 2 -8 10 -4 16 4
7 16 10 27 7 28 -9 126 66 113 86 -9 15 -27 10 -21 -5 7 -17 -42 -29 -60 -14
-18 14 -16 28 3 28 30 0 59 33 56 63 -3 26 11 37 23 18 3 -5 21 -7 40 -4 23 4
35 2 35 -6 0 -6 7 -11 15 -11 19 0 19 5 -2 30 -10 11 -28 20 -40 20 -13 0 -32
6 -43 13 -17 10 -22 9 -29 -2 -7 -10 -12 -8 -25 10 -9 13 -16 30 -16 39 0 12
-2 12 -9 1 -6 -9 -11 -10 -15 -2 -4 6 -4 16 0 23 4 6 3 8 -4 4 -6 -4 -12 4
-14 21 -2 19 -8 27 -18 24 -8 -2 -51 -5 -95 -6 -103 -3 -128 -10 -120 -36 4
-11 2 -19 -5 -19 -6 0 -16 -14 -22 -30 -8 -24 -15 -30 -32 -25 -11 2 -15 2 -8
-1 6 -3 12 -12 12 -20 0 -9 -4 -13 -9 -9 -5 3 -17 -2 -25 -11 -15 -14 -16 -14
-16 5 0 17 -5 21 -26 17 -48 -9 -84 -31 -95 -58 -6 -16 -17 -28 -23 -28 -7 0
-7 -3 1 -8 13 -8 6 -52 -8 -52 -10 0 -13 19 -10 65 1 27 0 28 -12 13 -9 -11
-11 -32 -8 -65 5 -43 9 -48 34 -51 17 -2 27 1 27 10 0 8 4 6 11 -4 5 -10 17
-18 24 -18 8 0 15 -4 15 -10 0 -11 -23 -13 -34 -3 -4 4 -32 8 -62 9 -31 1 -61
8 -68 15 -8 9 -6 11 11 6 14 -3 24 1 28 11 7 18 -16 36 -26 20 -5 -7 -8 -7
-13 0 -4 6 -13 9 -21 5 -16 -6 -19 5 -9 31 5 12 10 14 19 6 9 -7 20 -3 39 15
33 30 36 66 4 60 -12 -3 -27 3 -34 13 -12 16 -13 16 -14 0 0 -25 -20 -32 -34
-12 -7 9 -18 14 -24 10 -8 -5 -12 0 -12 12 0 13 -9 22 -25 26 -15 4 -30 17
-35 32 -5 13 -17 27 -25 30 -8 4 -15 10 -15 15 0 17 24 9 52 -18 31 -29 37
-17 16 29 -12 24 -17 26 -88 27 -41 1 -76 6 -78 11 -5 12 -82 13 -82 1z"/>
<path d="M6301 5183 l-24 -16 37 -19 c20 -10 40 -26 43 -33 3 -8 15 -15 28
-15 17 0 24 -8 30 -32 4 -18 9 -40 11 -48 2 -8 6 -30 10 -48 7 -38 14 -44 34
-32 12 7 15 29 13 90 -2 90 -10 106 -68 145 -30 21 -40 24 -47 13 -8 -10 -11
-10 -15 0 -7 17 -24 15 -52 -5z"/>
<path d="M4229 5028 c-6 -16 -18 -28 -25 -28 -8 0 -14 -4 -14 -9 0 -5 -8 -8
-17 -7 -10 0 -19 -7 -21 -18 -3 -12 0 -16 8 -11 10 6 10 3 2 -11 -8 -14 -6
-27 8 -54 10 -19 21 -51 25 -70 5 -19 10 -29 12 -22 3 6 16 12 29 12 17 0 27
8 34 25 5 14 13 25 18 25 10 0 29 70 37 138 7 56 11 53 -55 56 -24 1 -32 -5
-41 -26z"/>
<path d="M6975 4050 c-9 -15 26 -70 46 -70 13 0 19 -7 20 -22 4 -66 9 -106 15
-130 5 -24 3 -28 -14 -28 -26 0 -52 -10 -52 -20 0 -4 21 -4 46 1 25 5 50 6 55
3 5 -3 9 0 9 5 0 6 -5 11 -11 11 -5 0 -7 5 -3 11 10 17 85 -72 78 -93 -4 -13
0 -18 15 -18 14 0 21 -6 21 -19 0 -11 5 -23 10 -26 17 -11 11 -35 -9 -35 -26
0 -52 27 -45 45 8 21 -3 19 -34 -6 -24 -19 -27 -19 -38 -4 -14 18 -34 12 -34
-9 0 -8 7 -19 15 -26 14 -12 14 -15 0 -30 -14 -16 -14 -18 4 -23 11 -2 23 -1
28 4 6 6 14 -1 21 -16 10 -21 9 -27 -3 -31 -8 -3 -19 -3 -25 1 -5 3 -10 -1
-10 -10 0 -8 -12 -20 -26 -25 -32 -13 -34 -13 -34 3 0 6 -11 22 -24 34 -21 20
-25 21 -36 8 -10 -12 -9 -15 4 -15 9 0 16 -4 16 -9 0 -5 8 -17 17 -26 13 -14
14 -20 5 -34 -23 -31 -33 -65 -27 -91 3 -15 3 -39 -1 -54 -5 -21 -9 -24 -20
-15 -7 6 -18 8 -24 4 -6 -4 -18 1 -25 11 -8 11 -14 15 -15 9 0 -15 13 -31 30
-38 12 -4 11 -6 -2 -6 -25 -1 -23 -38 2 -46 11 -3 20 -11 20 -16 0 -5 5 -9 10
-9 6 0 10 11 10 25 0 14 3 25 6 25 15 0 41 -42 39 -62 -1 -13 0 -15 2 -5 6 23
19 22 26 -3 3 -11 11 -19 18 -18 17 4 24 -39 10 -56 -8 -10 -7 -17 4 -26 9 -7
18 -10 21 -8 3 3 25 -14 50 -38 24 -24 49 -44 54 -44 6 0 10 -7 10 -17 0 -28
11 -7 26 52 9 32 21 67 29 79 7 11 16 36 20 54 4 17 11 32 17 32 7 0 6 6 -2
15 -17 21 -3 35 30 29 16 -4 34 -1 42 5 7 7 22 19 33 27 19 15 19 15 -7 9 -16
-3 -28 -1 -28 4 0 6 -12 6 -31 -1 -26 -9 -34 -8 -49 8 -10 11 -21 29 -24 40
-8 26 19 38 80 34 23 -1 45 3 49 9 3 6 17 11 31 11 15 0 24 6 24 15 0 9 6 15
13 14 27 -3 37 2 37 21 0 25 -12 25 -34 1 -23 -26 -76 -38 -87 -20 -4 7 -5 17
-3 21 3 4 -4 8 -15 8 -11 0 -23 -5 -26 -10 -7 -12 -25 -4 -25 11 0 5 6 9 14 9
24 0 30 22 10 37 -15 11 -16 15 -5 22 11 7 10 10 -5 14 -10 3 12 3 50 0 41 -2
75 -10 83 -19 15 -15 43 -19 43 -6 0 4 -5 13 -12 20 -9 9 -8 12 5 12 10 0 20
7 23 15 4 8 12 15 19 15 7 0 18 7 26 16 10 13 10 17 -2 25 -10 6 -7 9 14 9 15
0 37 5 50 12 12 6 29 14 37 19 8 4 14 13 12 20 -2 7 3 16 10 20 7 4 9 11 6 15
-4 3 -14 -1 -23 -10 -9 -9 -23 -16 -32 -16 -11 0 -9 5 8 19 l23 18 -21 12
c-15 8 -20 17 -15 33 4 17 2 20 -11 15 -9 -3 -18 -1 -20 6 -3 7 -10 0 -16 -15
-6 -16 -18 -28 -28 -28 -25 -1 -53 -24 -53 -44 0 -35 -46 -29 -95 14 -20 18
-60 30 -105 33 -34 3 -149 87 -150 110 0 21 14 22 45 1 27 -18 31 -13 14 17
-7 15 -6 27 5 49 8 17 10 32 5 36 -5 3 -6 16 -3 30 5 18 2 24 -10 24 -9 0 -16
-4 -16 -10 0 -18 -29 -10 -35 10 -4 11 -15 20 -27 20 -11 0 -22 8 -25 20 -7
25 -33 27 -34 3 0 -15 -2 -15 -7 -3 -7 16 -68 24 -77 10z"/>
<path d="M2480 3849 c0 -8 -17 -10 -55 -6 -48 5 -55 3 -55 -12 0 -40 -47 -52
-105 -27 -41 17 -75 9 -75 -18 0 -18 11 -24 65 -40 72 -20 83 -29 65 -51 -10
-11 -10 -15 -1 -15 7 0 9 -4 6 -10 -3 -5 -2 -10 4 -10 5 0 22 -5 37 -10 26
-10 26 -11 8 -25 -19 -13 -19 -14 1 -20 11 -4 27 -10 35 -15 18 -9 106 -7 116
3 4 4 18 7 31 7 13 0 23 4 23 8 0 11 46 32 70 32 28 0 25 18 -5 26 -18 4 -25
13 -25 31 0 17 5 23 16 21 11 -2 18 5 20 20 2 12 -1 22 -7 22 -6 0 -8 8 -4 19
5 15 -2 21 -40 32 -25 7 -45 17 -45 21 0 4 -9 8 -19 8 -11 0 -23 5 -26 10 -8
14 -35 13 -35 -1z"/>
<path d="M8973 3766 c-8 -10 -25 -12 -50 -9 -42 6 -123 -12 -123 -27 0 -5 15
-13 33 -18 31 -8 31 -9 8 -16 l-23 -8 23 -14 c53 -30 70 -34 91 -23 17 9 18
13 7 20 -11 7 -11 9 2 9 9 0 19 -6 22 -14 13 -33 92 -25 85 8 -2 6 3 26 11 43
16 39 8 71 -13 54 -10 -8 -16 -9 -21 -1 -9 14 -38 12 -52 -4z"/>
<path d="M8703 3665 c-8 -13 -15 -14 -37 -5 -15 5 -31 8 -34 6 -4 -2 -61 -10
-127 -16 -66 -7 -128 -17 -137 -22 -27 -13 -22 -31 7 -26 14 3 25 1 25 -5 0
-17 272 -1 282 17 4 8 16 12 25 10 29 -7 50 12 37 33 -15 24 -31 27 -41 8z"/>
<path d="M2295 3170 c-9 -14 3 -30 23 -30 19 -1 76 -55 85 -82 5 -15 4 -16
-13 -6 -15 10 -22 9 -38 -5 -20 -18 -37 -23 -27 -8 9 16 -13 23 -35 11 -12 -6
-20 -18 -18 -27 4 -20 135 -66 141 -50 3 9 9 9 25 0 12 -7 24 -9 26 -4 4 5 24
4 47 -2 31 -7 47 -7 60 1 10 7 30 12 43 12 19 0 26 7 31 29 5 24 13 30 60 41
29 7 68 10 85 6 26 -5 31 -3 26 9 -8 21 31 24 112 7 40 -9 44 -7 80 26 l37 35
-30 -7 c-16 -4 -33 -12 -36 -18 -5 -7 -36 -8 -93 -3 -66 5 -86 4 -86 -6 0 -7
-3 -9 -7 -5 -5 4 0 13 9 20 18 13 -1 13 -167 -3 -76 -7 -195 6 -195 22 0 5 15
6 34 3 19 -4 47 -4 62 0 l28 7 -25 10 c-13 5 -64 11 -113 13 -50 2 -98 6 -107
9 -10 3 -20 1 -24 -5z"/>
<path d="M3311 2907 c-4 -4 -39 -8 -78 -9 -38 0 -80 -6 -93 -13 -22 -12 -20
-13 31 -20 59 -9 144 -9 157 -1 5 3 50 6 100 7 51 1 92 6 92 11 0 5 -4 7 -9 4
-4 -3 -16 3 -26 14 -15 17 -29 19 -92 17 -41 -1 -78 -6 -82 -10z"/>
<path d="M8479 2086 c-7 -8 -75 -13 -239 -21 -293 -13 -307 -15 -256 -35 16
-6 114 -9 232 -9 150 1 208 -2 219 -11 12 -10 19 -10 33 3 14 13 26 14 57 7
54 -13 85 -12 85 1 0 7 -12 10 -29 7 -17 -2 -28 -1 -25 4 3 4 20 8 39 8 73 0
88 25 20 34 -25 3 -64 9 -88 12 -23 3 -45 3 -48 0z"/>
<path d="M10094 1075 c-10 -8 -33 -15 -50 -15 -41 0 -84 -21 -84 -42 0 -18 33
-34 62 -29 23 3 60 -18 53 -30 -10 -14 -1 -11 35 16 19 14 51 30 70 35 27 7
36 15 37 32 0 13 -1 17 -4 11 -8 -22 -31 -14 -37 12 -5 19 -13 25 -34 25 -16
0 -37 -7 -48 -15z"/>
</g>
</svg>
